<svg version="1.1" xmlns="http://www.w3.org/2000/svg" xmlns:xlink="http://www.w3.org/1999/xlink" width="46.51241" height="11.40419"><g transform="translate(-196.33908,-30.26575)"><g data-paper-data="{&quot;isPaintingLayer&quot;:true}" fill="#ff0000" fill-rule="nonzero" stroke="none" stroke-width="1" stroke-linecap="square" stroke-linejoin="miter" stroke-miterlimit="10" stroke-dasharray="" stroke-dashoffset="0" font-family="none" font-weight="none" font-size="none" text-anchor="none" style="mix-blend-mode: normal"><path d="M198.8681,31.80397v7.27865c0,0.16706 0.04626,0.28786 0.13879,0.36239c0.10795,0.08738 0.27243,0.13108 0.49347,0.13108h0.70936v0.77104h-3.87064v-0.77104h0.6631c0.23902,0 0.39966,-0.04112 0.4819,-0.12337c0.10023,-0.07967 0.15035,-0.20304 0.15035,-0.3701v-5.59778c0,-0.05397 -0.02185,-0.10409 -0.06554,-0.15035c-0.01542,-0.01285 -0.06554,-0.01928 -0.15035,-0.01928h-1.07946v-0.77104h0.6631c0.32641,0 0.58085,-0.0514 0.76333,-0.15421c0.20047,-0.10281 0.37267,-0.29814 0.5166,-0.58599zM201.8559,39.19828c-0.64254,0.32127 -0.80189,0.15935 -0.47805,-0.48576c1.09488,-1.22082 1.80039,-2.51103 2.11652,-3.87064h-1.92761v-0.77104h1.98929v-1.51896c-0.4215,0.10538 -1.00493,0.2069 -1.75027,0.30456c-0.59884,-0.1208 -0.6284,-0.34311 -0.08867,-0.66695c1.63718,-0.43178 2.96466,-0.92654 3.98244,-1.48426l1.02934,0.57057c0.19533,0.4909 0.01157,0.6798 -0.55129,0.56672c-0.55001,0.1722 -1.0589,0.31998 -1.52667,0.44335v1.78497h0.29685l0.58599,-0.58599l0.82502,0.58985c0.41636,0.34697 0.3791,0.6027 -0.1118,0.76719h-1.59606v1.13729c1.17198,0.30842 1.75798,0.75691 1.75798,1.34547c0,0.38038 -0.15935,0.57057 -0.47805,0.57057c-0.17991,0 -0.38681,-0.17477 -0.62069,-0.52431c-0.19276,-0.27501 -0.41251,-0.47805 -0.65924,-0.60912v4.41808c-0.72992,0.67338 -1.09488,0.65282 -1.09488,-0.06168v-3.8051c-0.35468,0.60912 -0.9214,1.23753 -1.70015,1.8852zM205.07886,40.89457c2.79632,-0.9124 4.87043,-2.68709 6.22232,-5.32406l0.89055,0.63611c0.62197,0.5423 0.52303,0.78518 -0.29685,0.72864c-1.43414,2.37738 -3.64318,3.93104 -6.62712,4.66096c-0.78132,0 -0.84429,-0.23388 -0.18891,-0.70165zM212.79315,35.28909c0,0.38038 -0.17477,0.57057 -0.52431,0.57057c-0.22874,0 -0.44206,-0.21718 -0.63997,-0.65153c-0.38295,-0.79674 -0.86742,-1.42643 -1.45342,-1.88906c-0.22874,-0.45491 -0.08482,-0.63097 0.43178,-0.52816c0.78389,0.52174 1.3519,0.97537 1.70401,1.36089c0.32127,0.35468 0.4819,0.73377 0.4819,1.13729zM208.00883,33.06848c0.84044,0.30585 0.79803,0.57443 -0.12722,0.80574c-0.35211,1.08717 -0.83915,1.99058 -1.46113,2.71022c-0.36753,0.24673 -0.55129,0.13493 -0.55129,-0.3354c0.56286,-1.09231 0.95095,-2.28229 1.16428,-3.56993l0.97537,0.38937zM209.73982,37.13959c0,0.41379 -0.13365,0.73635 -0.40094,0.96766c-0.16706,0.16706 -0.37781,0.25059 -0.63226,0.25059c-0.28786,0 -0.43178,-0.14393 -0.43178,-0.43178c0,-0.03598 -0.03213,-0.06425 -0.09638,-0.08482l-0.62069,-0.14264c-0.43436,-0.21846 -0.42536,-0.44078 0.02699,-0.66695h0.98308c0.0514,0 0.0771,-0.0257 0.0771,-0.0771v-6.26087l1.12187,0.19661c0.64254,0.40094 0.63354,0.65667 -0.02699,0.76719zM217.61988,31.45315l1.00236,0.53588h0.98308l0.3354,-1.72328l1.16042,0.30456c0.60912,0.30328 0.52559,0.54487 -0.25059,0.72478l-0.38938,0.69394h1.72328l0.34697,-0.46263l0.852,0.60527c0.45491,0.38038 0.42536,0.62069 -0.08867,0.72092v2.12808c-0.72992,0.67338 -1.09488,0.65282 -1.09488,-0.06168v-0.16963h-3.48511v0.94067h3.83979l0.34697,-0.46263l0.852,0.60527c0.45491,0.38038 0.42536,0.62069 -0.08867,0.72092v2.49818c-0.72992,0.67338 -1.09488,0.65282 -1.09488,-0.06168v-0.26215h-3.85521v0.7402c-0.72992,0.67338 -1.09488,0.65282 -1.09488,-0.06168zM214.65136,31.29508c1.22853,0.24673 1.84279,0.68366 1.84279,1.31077c0,0.44206 -0.19019,0.6631 -0.57057,0.6631c-0.23131,0 -0.41251,-0.15164 -0.54359,-0.45491c-0.21589,-0.35211 -0.56158,-0.64639 -1.03705,-0.88284c-0.42408,-0.42408 -0.32127,-0.63611 0.30842,-0.63611zM213.46781,40.11967l1.70015,-0.95224v-3.12273h-1.66546v-0.77104h1.65003l0.34697,-0.46263l0.852,0.60527c0.45491,0.38038 0.42536,0.62069 -0.08867,0.72092v3.11887c0.61169,0.58599 1.62562,0.89312 3.04177,0.9214l5.03876,0.24673c-0.07453,0.1979 -0.21332,0.46519 -0.41636,0.80189h-4.48747c-1.64746,0 -2.90041,-0.48704 -3.75884,-1.46113l-0.88284,0.88284c0.13622,0.88927 -0.07582,1.00621 -0.63611,0.35083l-0.69394,-0.87899zM218.71476,36.46107v1.49583h3.85521v-1.49583zM222.19987,32.76006h-3.48511v1.21825h3.48511zM227.47381,33.454h-2.2206v-0.77104h2.2206v-2.31313l1.14115,0.19276c0.85843,0.31099 0.84301,0.57828 -0.04626,0.80189v1.31848h1.43414l0.34697,-0.46263l0.852,0.60527c0.45491,0.38038 0.42536,0.62069 -0.08867,0.72092v1.18741c0,3.06104 -0.33283,4.92311 -0.9985,5.58621c-0.32384,0.32641 -0.65924,0.48961 -1.00621,0.48961c-0.3187,0 -0.47805,-0.14393 -0.47805,-0.43178c0,-0.09253 -0.03855,-0.16192 -0.11566,-0.20818l-0.65153,-0.41636c-0.6374,-0.42664 -0.577,-0.63997 0.1812,-0.63997l0.64382,0.24673c0.21846,0.08225 0.4048,0.12337 0.55901,0.12337c0.05397,0 0.08867,-0.00643 0.10409,-0.01928c0.44464,-0.44721 0.66695,-1.97773 0.66695,-4.59157v-1.41872h-1.44956v0.26215c0,3.10474 -1.08332,5.48469 -3.24995,7.13986c-0.65025,0.43436 -0.81345,0.27372 -0.48961,-0.4819c1.76312,-1.76312 2.64468,-3.90534 2.64468,-6.42665zM232.83642,32.31286h1.8852l0.34697,-0.46263l0.852,0.60527c0.45491,0.38038 0.42536,0.62069 -0.08867,0.72092v6.89313c-0.72992,0.67338 -1.09488,0.65282 -1.09488,-0.06168v-0.30842h-1.7734v0.92525c-0.72992,0.67338 -1.09488,0.65282 -1.09488,-0.06168v-8.87085zM234.73704,33.0839h-1.7734v5.84451h1.7734zM240.3965,32.62899l2.29771,2.86057c0.32127,0.85329 0.15035,1.00364 -0.51274,0.45106l-1.35318,-1.17584v0.43178c0,1.1797 -0.30199,2.07025 -0.90598,2.67166c-0.6631,0.66567 -1.55365,0.9985 -2.67166,0.9985h-0.70936v-0.90983h0.70936c0.85586,0 1.52281,-0.23774 2.00086,-0.71322c0.44464,-0.44721 0.66695,-1.12958 0.66695,-2.04712v-0.42022l-1.31848,1.17584c-0.54744,0.32898 -0.71579,0.17605 -0.50503,-0.45877z" data-paper-data="{&quot;origPos&quot;:null}"/></g></g></svg>