<svg version="1.1" xmlns="http://www.w3.org/2000/svg" xmlns:xlink="http://www.w3.org/1999/xlink" width="202.5" height="107.62463" viewBox="0,0,202.5,107.62463"><defs><radialGradient cx="240.05902" cy="203.10515" r="62" gradientUnits="userSpaceOnUse" id="color-1"><stop offset="0" stop-color="#b2b2b2"/><stop offset="1" stop-color="#b2b2b2" stop-opacity="0"/></radialGradient></defs><g transform="translate(-138.80902,-147.56285)"><g data-paper-data="{&quot;isPaintingLayer&quot;:true}" fill="none" fill-rule="nonzero" stroke="none" stroke-width="none" stroke-linecap="butt" stroke-linejoin="miter" stroke-miterlimit="10" stroke-dasharray="" stroke-dashoffset="0" font-family="none" font-weight="none" font-size="none" text-anchor="none" style="mix-blend-mode: normal"><g data-paper-data="{&quot;origPos&quot;:null}"><path d="M340.05902,203.93749c0,27.61424 -44.77153,50 -100,50c-55.22847,0 -100,-22.38576 -100,-50c0,-27.61424 44.77153,-50 100,-50c55.22847,0 100,22.38576 100,50z" data-paper-data="{&quot;origPos&quot;:null}" fill="#ffffff" stroke="#b2b2b2" stroke-width="2.5"/><path d="M302.05902,203.10515c0,15.48051 -27.75835,28.02994 -62,28.02994c-34.24165,0 -62,-12.54943 -62,-28.02994c0,-15.48051 27.75835,-28.02994 62,-28.02994c34.24165,0 62,12.54943 62,28.02994z" data-paper-data="{&quot;origPos&quot;:null}" fill="url(#color-1)" stroke="none" stroke-width="0"/><path d="M324.05902,203.68749c0,20.84875 -37.38423,37.75 -83.5,37.75c-46.11577,0 -83.5,-16.90125 -83.5,-37.75c0,-20.84875 37.38423,-37.75 83.5,-37.75c46.11577,0 83.5,16.90125 83.5,37.75z" data-paper-data="{&quot;origPos&quot;:null}" fill="none" stroke="#d0b169" stroke-width="10"/></g><g data-paper-data="{&quot;origPos&quot;:null}" stroke="none" stroke-width="0"><g data-paper-data="{&quot;origPos&quot;:null}"><path d="M195.55671,167.83958c-0.7447,-2.59624 0.84597,-5.27991 3.55283,-5.99416c2.70688,-0.71426 5.50493,0.81139 6.24962,3.40761c0.7447,2.59624 -0.84597,5.27991 -3.55283,5.99416c-2.70688,0.71426 -5.50493,-0.81139 -6.24962,-3.40761z" data-paper-data="{&quot;origPos&quot;:null}" fill="#eb6c17"/><path d="M197.53255,165.39186c-0.27187,-0.94783 0.30885,-1.92759 1.29707,-2.18835c0.98822,-0.26076 2.00974,0.29622 2.28161,1.24405c0.27187,0.94783 -0.30885,1.92759 -1.29707,2.18835c-0.98822,0.26076 -2.00974,-0.29622 -2.28161,-1.24405z" data-paper-data="{&quot;origPos&quot;:null}" fill="#de4207"/><path d="M200.36452,165.92882c-0.17731,-0.61815 0.20142,-1.25713 0.84591,-1.42718c0.64449,-0.17007 1.3107,0.19318 1.48801,0.81133c0.17731,0.61815 -0.20142,1.25713 -0.84591,1.42718c-0.64449,0.17007 -1.3107,-0.19318 -1.48801,-0.81133z" data-paper-data="{&quot;origPos&quot;:null}" fill="#ffffff"/></g><g data-paper-data="{&quot;origPos&quot;:null}"><path d="M229.56122,169.47763c-0.7447,-2.59624 0.84597,-5.27991 3.55283,-5.99416c2.70687,-0.71426 5.50494,0.81138 6.24963,3.40761c0.7447,2.59624 -0.84597,5.27992 -3.55284,5.99418c-2.70687,0.71426 -5.50493,-0.81139 -6.24963,-3.40762z" data-paper-data="{&quot;origPos&quot;:null}" fill="#eb6c17"/><path d="M231.53706,167.02992c-0.27187,-0.94783 0.30885,-1.92759 1.29707,-2.18835c0.98822,-0.26076 2.00974,0.29622 2.28161,1.24405c0.27187,0.94783 -0.30885,1.92759 -1.29707,2.18835c-0.98822,0.26076 -2.00974,-0.29622 -2.28161,-1.24405z" data-paper-data="{&quot;origPos&quot;:null}" fill="#de4207"/><path d="M234.36903,167.56689c-0.17731,-0.61815 0.20142,-1.25713 0.84591,-1.42718c0.64449,-0.17007 1.31069,0.19319 1.488,0.81134c0.17731,0.61815 -0.20142,1.25713 -0.8459,1.42718c-0.64449,0.17007 -1.3107,-0.19318 -1.48801,-0.81133z" data-paper-data="{&quot;origPos&quot;:null}" fill="#ffffff"/></g><g data-paper-data="{&quot;origPos&quot;:null}"><path d="M203.31782,161.14946c-0.7447,-2.59624 0.84597,-5.27991 3.55283,-5.99416c2.70687,-0.71426 5.50494,0.81138 6.24963,3.40761c0.7447,2.59624 -0.84597,5.27992 -3.55284,5.99418c-2.70687,0.71426 -5.50493,-0.81139 -6.24963,-3.40762z" data-paper-data="{&quot;origPos&quot;:null}" fill="#eb6c17"/><path d="M205.29367,158.70173c-0.27187,-0.94783 0.30885,-1.92759 1.29707,-2.18835c0.98822,-0.26076 2.00974,0.29622 2.28161,1.24405c0.27187,0.94783 -0.30885,1.92759 -1.29707,2.18835c-0.98822,0.26076 -2.00974,-0.29622 -2.28161,-1.24405z" data-paper-data="{&quot;origPos&quot;:null}" fill="#de4207"/><path d="M208.12564,159.23871c-0.17731,-0.61815 0.20142,-1.25713 0.84591,-1.42718c0.64449,-0.17007 1.31069,0.19319 1.488,0.81134c0.17731,0.61815 -0.20142,1.25713 -0.8459,1.42718c-0.64449,0.17007 -1.3107,-0.19318 -1.48801,-0.81133z" data-paper-data="{&quot;origPos&quot;:null}" fill="#ffffff"/></g><g data-paper-data="{&quot;origPos&quot;:null}"><path d="M207.37873,156.52715c-0.7447,-2.59624 0.84597,-5.27991 3.55283,-5.99416c2.70687,-0.71426 5.50494,0.81138 6.24963,3.40761c0.7447,2.59624 -0.84597,5.27992 -3.55284,5.99418c-2.70687,0.71426 -5.50493,-0.81139 -6.24963,-3.40762z" data-paper-data="{&quot;origPos&quot;:null}" fill="#eb6c17"/><path d="M209.35457,154.07944c-0.27187,-0.94783 0.30885,-1.92759 1.29707,-2.18835c0.98822,-0.26076 2.00974,0.29622 2.28161,1.24405c0.27187,0.94783 -0.30885,1.92759 -1.29707,2.18835c-0.98822,0.26076 -2.00974,-0.29622 -2.28161,-1.24405z" data-paper-data="{&quot;origPos&quot;:null}" fill="#de4207"/><path d="M212.18655,154.61641c-0.17731,-0.61815 0.20142,-1.25713 0.84591,-1.42718c0.64449,-0.17007 1.31069,0.19319 1.488,0.81134c0.17731,0.61815 -0.20142,1.25713 -0.8459,1.42718c-0.64449,0.17007 -1.3107,-0.19318 -1.48801,-0.81133z" data-paper-data="{&quot;origPos&quot;:null}" fill="#ffffff"/></g><g data-paper-data="{&quot;origPos&quot;:null}"><path d="M201.93541,157.5352c-0.7447,-2.59624 0.84597,-5.27991 3.55283,-5.99416c2.70687,-0.71426 5.50494,0.81138 6.24963,3.40761c0.7447,2.59624 -0.84597,5.27992 -3.55284,5.99418c-2.70687,0.71426 -5.50493,-0.81139 -6.24963,-3.40762z" data-paper-data="{&quot;origPos&quot;:null}" fill="#eb6c17"/><path d="M203.91125,155.08748c-0.27187,-0.94783 0.30885,-1.92759 1.29707,-2.18835c0.98822,-0.26076 2.00974,0.29622 2.28161,1.24405c0.27187,0.94783 -0.30885,1.92759 -1.29707,2.18835c-0.98822,0.26076 -2.00974,-0.29622 -2.28161,-1.24405z" data-paper-data="{&quot;origPos&quot;:null}" fill="#de4207"/><path d="M206.74321,155.62445c-0.17731,-0.61815 0.20142,-1.25713 0.84591,-1.42718c0.64449,-0.17007 1.31069,0.19319 1.488,0.81134c0.17731,0.61815 -0.20142,1.25713 -0.8459,1.42718c-0.64449,0.17007 -1.3107,-0.19318 -1.48801,-0.81133z" data-paper-data="{&quot;origPos&quot;:null}" fill="#ffffff"/></g><g data-paper-data="{&quot;origPos&quot;:null}"><path d="M212.22347,156.92768c-0.7447,-2.59624 0.84597,-5.27991 3.55283,-5.99416c2.70687,-0.71426 5.50494,0.81138 6.24963,3.40761c0.7447,2.59624 -0.84597,5.27992 -3.55284,5.99418c-2.70687,0.71426 -5.50493,-0.81139 -6.24963,-3.40762z" data-paper-data="{&quot;origPos&quot;:null}" fill="#eb6c17"/><path d="M214.19931,154.47997c-0.27187,-0.94783 0.30885,-1.92759 1.29707,-2.18835c0.98822,-0.26076 2.00974,0.29622 2.28161,1.24405c0.27187,0.94783 -0.30885,1.92759 -1.29707,2.18835c-0.98822,0.26076 -2.00974,-0.29622 -2.28161,-1.24405z" data-paper-data="{&quot;origPos&quot;:null}" fill="#de4207"/><path d="M217.03128,155.01694c-0.17731,-0.61815 0.20142,-1.25713 0.84591,-1.42718c0.64449,-0.17007 1.31069,0.19319 1.488,0.81134c0.17731,0.61815 -0.20142,1.25713 -0.8459,1.42718c-0.64449,0.17007 -1.3107,-0.19318 -1.48801,-0.81133z" data-paper-data="{&quot;origPos&quot;:null}" fill="#ffffff"/></g><g data-paper-data="{&quot;origPos&quot;:null}"><path d="M211.93929,159.86929c-0.7447,-2.59624 0.84597,-5.27991 3.55283,-5.99416c2.70687,-0.71426 5.50494,0.81138 6.24963,3.40761c0.7447,2.59624 -0.84597,5.27992 -3.55284,5.99418c-2.70687,0.71426 -5.50493,-0.81139 -6.24963,-3.40762z" data-paper-data="{&quot;origPos&quot;:null}" fill="#eb6c17"/><path d="M213.91513,157.42156c-0.27187,-0.94783 0.30885,-1.92759 1.29707,-2.18835c0.98822,-0.26076 2.00974,0.29622 2.28161,1.24405c0.27187,0.94783 -0.30885,1.92759 -1.29707,2.18835c-0.98822,0.26076 -2.00974,-0.29622 -2.28161,-1.24405z" data-paper-data="{&quot;origPos&quot;:null}" fill="#de4207"/><path d="M216.7471,157.95854c-0.17731,-0.61815 0.20142,-1.25713 0.84591,-1.42718c0.64449,-0.17007 1.31069,0.19319 1.488,0.81134c0.17731,0.61815 -0.20142,1.25713 -0.8459,1.42718c-0.64449,0.17007 -1.3107,-0.19318 -1.48801,-0.81133z" data-paper-data="{&quot;origPos&quot;:null}" fill="#ffffff"/></g><g data-paper-data="{&quot;origPos&quot;:null}"><path d="M206.54863,167.59184c-0.7447,-2.59624 0.84597,-5.27991 3.55283,-5.99416c2.70687,-0.71426 5.50494,0.81138 6.24963,3.40761c0.7447,2.59624 -0.84597,5.27992 -3.55284,5.99418c-2.70687,0.71426 -5.50493,-0.81139 -6.24963,-3.40762z" data-paper-data="{&quot;origPos&quot;:null}" fill="#eb6c17"/><path d="M208.52447,165.14414c-0.27187,-0.94783 0.30885,-1.92759 1.29707,-2.18835c0.98822,-0.26076 2.00974,0.29622 2.28161,1.24405c0.27187,0.94783 -0.30885,1.92759 -1.29707,2.18835c-0.98822,0.26076 -2.00974,-0.29622 -2.28161,-1.24405z" data-paper-data="{&quot;origPos&quot;:null}" fill="#de4207"/><path d="M211.35644,165.68111c-0.17731,-0.61815 0.20142,-1.25713 0.84591,-1.42718c0.64449,-0.17007 1.31069,0.19319 1.488,0.81134c0.17731,0.61815 -0.20142,1.25713 -0.8459,1.42718c-0.64449,0.17007 -1.3107,-0.19318 -1.48801,-0.81133z" data-paper-data="{&quot;origPos&quot;:null}" fill="#ffffff"/></g><g data-paper-data="{&quot;origPos&quot;:null}"><path d="M200.27376,172.23186c-0.7447,-2.59624 0.84597,-5.27991 3.55283,-5.99416c2.70687,-0.71426 5.50494,0.81138 6.24963,3.40761c0.7447,2.59624 -0.84597,5.27992 -3.55284,5.99418c-2.70687,0.71426 -5.50493,-0.81139 -6.24963,-3.40762z" data-paper-data="{&quot;origPos&quot;:null}" fill="#eb6c17"/><path d="M202.24961,169.78415c-0.27187,-0.94783 0.30885,-1.92759 1.29707,-2.18835c0.98822,-0.26076 2.00974,0.29622 2.28161,1.24405c0.27187,0.94783 -0.30885,1.92759 -1.29707,2.18835c-0.98822,0.26076 -2.00974,-0.29622 -2.28161,-1.24405z" data-paper-data="{&quot;origPos&quot;:null}" fill="#de4207"/><path d="M205.08157,170.32112c-0.17731,-0.61815 0.20142,-1.25713 0.84591,-1.42718c0.64449,-0.17007 1.31069,0.19319 1.488,0.81134c0.17731,0.61815 -0.20142,1.25713 -0.8459,1.42718c-0.64449,0.17007 -1.3107,-0.19318 -1.48801,-0.81133z" data-paper-data="{&quot;origPos&quot;:null}" fill="#ffffff"/></g><g data-paper-data="{&quot;origPos&quot;:null}"><path d="M197.26053,171.36902c-0.7447,-2.59624 0.84597,-5.27991 3.55283,-5.99416c2.70687,-0.71426 5.50494,0.81138 6.24963,3.40761c0.7447,2.59624 -0.84597,5.27992 -3.55284,5.99418c-2.70687,0.71426 -5.50493,-0.81139 -6.24963,-3.40762z" data-paper-data="{&quot;origPos&quot;:null}" fill="#eb6c17"/><path d="M199.23637,168.9213c-0.27187,-0.94783 0.30885,-1.92759 1.29707,-2.18835c0.98822,-0.26076 2.00974,0.29622 2.28161,1.24405c0.27187,0.94783 -0.30885,1.92759 -1.29707,2.18835c-0.98822,0.26076 -2.00974,-0.29622 -2.28161,-1.24405z" data-paper-data="{&quot;origPos&quot;:null}" fill="#de4207"/><path d="M202.06834,169.45827c-0.17731,-0.61815 0.20142,-1.25713 0.84591,-1.42718c0.64449,-0.17007 1.31069,0.19319 1.488,0.81134c0.17731,0.61815 -0.20142,1.25713 -0.8459,1.42718c-0.64449,0.17007 -1.3107,-0.19318 -1.48801,-0.81133z" data-paper-data="{&quot;origPos&quot;:null}" fill="#ffffff"/></g><g data-paper-data="{&quot;origPos&quot;:null}"><path d="M209.22506,174.51211c-0.7447,-2.59624 0.84597,-5.27991 3.55283,-5.99416c2.70687,-0.71426 5.50494,0.81138 6.24963,3.40761c0.7447,2.59624 -0.84597,5.27992 -3.55284,5.99418c-2.70687,0.71426 -5.50493,-0.81139 -6.24963,-3.40762z" data-paper-data="{&quot;origPos&quot;:null}" fill="#eb6c17"/><path d="M211.2009,172.06439c-0.27187,-0.94783 0.30885,-1.92759 1.29707,-2.18835c0.98822,-0.26076 2.00974,0.29622 2.28161,1.24405c0.27187,0.94783 -0.30885,1.92759 -1.29707,2.18835c-0.98822,0.26076 -2.00974,-0.29622 -2.28161,-1.24405z" data-paper-data="{&quot;origPos&quot;:null}" fill="#de4207"/><path d="M214.03286,172.60137c-0.17731,-0.61815 0.20142,-1.25713 0.84591,-1.42718c0.64449,-0.17007 1.31069,0.19319 1.488,0.81134c0.17731,0.61815 -0.20142,1.25713 -0.8459,1.42718c-0.64449,0.17007 -1.3107,-0.19318 -1.48801,-0.81133z" data-paper-data="{&quot;origPos&quot;:null}" fill="#ffffff"/></g><g data-paper-data="{&quot;origPos&quot;:null}"><path d="M226.49881,160.00653c-0.7447,-2.59624 0.84597,-5.27991 3.55283,-5.99416c2.70687,-0.71426 5.50494,0.81138 6.24963,3.40761c0.7447,2.59624 -0.84597,5.27991 -3.55284,5.99417c-2.70687,0.71426 -5.50493,-0.81139 -6.24962,-3.40761z" data-paper-data="{&quot;origPos&quot;:null}" fill="#eb6c17"/><path d="M228.47465,157.55881c-0.27187,-0.94783 0.30885,-1.92759 1.29707,-2.18835c0.98822,-0.26076 2.00974,0.29622 2.28161,1.24405c0.27187,0.94783 -0.30885,1.92759 -1.29707,2.18835c-0.98822,0.26076 -2.00974,-0.29622 -2.28161,-1.24405z" data-paper-data="{&quot;origPos&quot;:null}" fill="#de4207"/><path d="M231.30662,158.09579c-0.17731,-0.61815 0.20142,-1.25713 0.84591,-1.42718c0.64449,-0.17007 1.31069,0.19319 1.488,0.81134c0.17731,0.61815 -0.20142,1.25713 -0.8459,1.42718c-0.64449,0.17007 -1.3107,-0.19318 -1.48801,-0.81133z" data-paper-data="{&quot;origPos&quot;:null}" fill="#ffffff"/></g><g data-paper-data="{&quot;origPos&quot;:null}"><path d="M225.82722,157.80088c-0.7447,-2.59624 0.84597,-5.27991 3.55283,-5.99416c2.70687,-0.71426 5.50494,0.81138 6.24963,3.40761c0.7447,2.59624 -0.84597,5.27992 -3.55284,5.99418c-2.70687,0.71426 -5.50493,-0.81139 -6.24963,-3.40762z" data-paper-data="{&quot;origPos&quot;:null}" fill="#eb6c17"/><path d="M227.80306,155.35317c-0.27187,-0.94783 0.30885,-1.92759 1.29707,-2.18835c0.98822,-0.26076 2.00974,0.29622 2.28161,1.24405c0.27187,0.94783 -0.30885,1.92759 -1.29707,2.18835c-0.98822,0.26076 -2.00974,-0.29622 -2.28161,-1.24405z" data-paper-data="{&quot;origPos&quot;:null}" fill="#de4207"/><path d="M230.63502,155.89014c-0.17731,-0.61815 0.20142,-1.25712 0.84591,-1.42717c0.64449,-0.17007 1.31069,0.19319 1.488,0.81134c0.17731,0.61815 -0.20142,1.25713 -0.8459,1.42718c-0.64449,0.17007 -1.3107,-0.19318 -1.48801,-0.81133z" data-paper-data="{&quot;origPos&quot;:null}" fill="#ffffff"/></g><g data-paper-data="{&quot;origPos&quot;:null}"><path d="M216.4641,169.61768c-0.7447,-2.59623 0.84597,-5.27991 3.55283,-5.99416c2.70687,-0.71426 5.50494,0.81139 6.24963,3.40761c0.7447,2.59623 -0.84597,5.27991 -3.55284,5.99417c-2.70687,0.71426 -5.50493,-0.81139 -6.24962,-3.40761z" data-paper-data="{&quot;origPos&quot;:null}" fill="#eb6c17"/><path d="M218.43994,167.16997c-0.27187,-0.94783 0.30885,-1.92759 1.29707,-2.18835c0.98822,-0.26076 2.00974,0.29622 2.28161,1.24405c0.27187,0.94783 -0.30885,1.92759 -1.29707,2.18835c-0.98822,0.26076 -2.00974,-0.29622 -2.28161,-1.24405z" data-paper-data="{&quot;origPos&quot;:null}" fill="#de4207"/><path d="M221.27191,167.70695c-0.17731,-0.61815 0.20142,-1.25712 0.84591,-1.42717c0.64449,-0.17007 1.31069,0.19319 1.488,0.81134c0.17731,0.61815 -0.20142,1.25713 -0.8459,1.42718c-0.64449,0.17007 -1.3107,-0.19318 -1.48801,-0.81133z" data-paper-data="{&quot;origPos&quot;:null}" fill="#ffffff"/></g><g data-paper-data="{&quot;origPos&quot;:null}"><path d="M201.7039,171.19134c-0.7447,-2.59624 0.84597,-5.27991 3.55283,-5.99416c2.70688,-0.71426 5.50493,0.81139 6.24962,3.40761c0.7447,2.59624 -0.84597,5.27991 -3.55283,5.99416c-2.70688,0.71426 -5.50493,-0.81139 -6.24962,-3.40761z" data-paper-data="{&quot;origPos&quot;:null}" fill="#eb6c17"/><path d="M203.67975,168.74361c-0.27187,-0.94783 0.30885,-1.92759 1.29707,-2.18835c0.98822,-0.26076 2.00974,0.29622 2.28161,1.24405c0.27187,0.94783 -0.30885,1.92759 -1.29707,2.18835c-0.98822,0.26076 -2.00974,-0.29622 -2.28161,-1.24405z" data-paper-data="{&quot;origPos&quot;:null}" fill="#de4207"/><path d="M206.5117,169.28059c-0.17731,-0.61815 0.20142,-1.25713 0.84591,-1.42718c0.64449,-0.17007 1.3107,0.19318 1.48801,0.81133c0.17731,0.61815 -0.20142,1.25713 -0.84591,1.42718c-0.64449,0.17007 -1.3107,-0.19318 -1.48801,-0.81133z" data-paper-data="{&quot;origPos&quot;:null}" fill="#ffffff"/></g><g data-paper-data="{&quot;origPos&quot;:null}"><path d="M253.66564,163.11725c-0.7447,-2.59624 0.84597,-5.27991 3.55283,-5.99416c2.70687,-0.71426 5.50494,0.81138 6.24963,3.40761c0.7447,2.59624 -0.84597,5.27992 -3.55284,5.99418c-2.70687,0.71426 -5.50493,-0.81139 -6.24963,-3.40762z" data-paper-data="{&quot;origPos&quot;:null}" fill="#eb6c17"/><path d="M255.64149,160.66954c-0.27187,-0.94783 0.30885,-1.92759 1.29707,-2.18835c0.98822,-0.26076 2.00974,0.29622 2.28161,1.24405c0.27187,0.94783 -0.30885,1.92759 -1.29707,2.18835c-0.98822,0.26076 -2.00974,-0.29622 -2.28161,-1.24405z" data-paper-data="{&quot;origPos&quot;:null}" fill="#de4207"/><path d="M258.47345,161.20651c-0.17731,-0.61815 0.20142,-1.25713 0.84591,-1.42718c0.64449,-0.17007 1.31069,0.19319 1.488,0.81134c0.17731,0.61815 -0.20142,1.25713 -0.8459,1.42718c-0.64449,0.17007 -1.3107,-0.19318 -1.48801,-0.81133z" data-paper-data="{&quot;origPos&quot;:null}" fill="#ffffff"/></g><g data-paper-data="{&quot;origPos&quot;:null}"><path d="M209.46501,164.50122c-0.7447,-2.59624 0.84597,-5.27991 3.55283,-5.99416c2.70687,-0.71426 5.50494,0.81138 6.24963,3.40761c0.7447,2.59624 -0.84597,5.27992 -3.55284,5.99418c-2.70687,0.71426 -5.50493,-0.81139 -6.24963,-3.40762z" data-paper-data="{&quot;origPos&quot;:null}" fill="#eb6c17"/><path d="M211.44086,162.05349c-0.27187,-0.94783 0.30885,-1.92759 1.29707,-2.18835c0.98822,-0.26076 2.00974,0.29622 2.28161,1.24405c0.27187,0.94783 -0.30885,1.92759 -1.29707,2.18835c-0.98822,0.26076 -2.00974,-0.29622 -2.28161,-1.24405z" data-paper-data="{&quot;origPos&quot;:null}" fill="#de4207"/><path d="M214.27283,162.59047c-0.17731,-0.61815 0.20142,-1.25713 0.84591,-1.42718c0.64449,-0.17007 1.31069,0.19319 1.488,0.81134c0.17731,0.61815 -0.20142,1.25713 -0.8459,1.42718c-0.64449,0.17007 -1.3107,-0.19318 -1.48801,-0.81133z" data-paper-data="{&quot;origPos&quot;:null}" fill="#ffffff"/></g><g data-paper-data="{&quot;origPos&quot;:null}"><path d="M213.19259,158.21224c-0.7447,-2.59624 0.84597,-5.27991 3.55283,-5.99416c2.70687,-0.71426 5.50494,0.81138 6.24963,3.40761c0.7447,2.59624 -0.84597,5.27992 -3.55284,5.99418c-2.70687,0.71426 -5.50493,-0.81139 -6.24963,-3.40762z" data-paper-data="{&quot;origPos&quot;:null}" fill="#eb6c17"/><path d="M215.16844,155.76453c-0.27187,-0.94783 0.30885,-1.92759 1.29707,-2.18835c0.98822,-0.26076 2.00974,0.29622 2.28161,1.24405c0.27187,0.94783 -0.30885,1.92759 -1.29707,2.18835c-0.98822,0.26076 -2.00974,-0.29622 -2.28161,-1.24405z" data-paper-data="{&quot;origPos&quot;:null}" fill="#de4207"/><path d="M218.0004,156.3015c-0.17731,-0.61815 0.20142,-1.25713 0.84591,-1.42718c0.64449,-0.17007 1.31069,0.19319 1.488,0.81134c0.17731,0.61815 -0.20142,1.25713 -0.8459,1.42718c-0.64449,0.17007 -1.3107,-0.19318 -1.48801,-0.81133z" data-paper-data="{&quot;origPos&quot;:null}" fill="#ffffff"/></g><g data-paper-data="{&quot;origPos&quot;:null}"><path d="M253.88612,195.22295c-0.7447,-2.59624 0.84597,-5.27991 3.55283,-5.99416c2.70687,-0.71426 5.50494,0.81138 6.24963,3.40761c0.7447,2.59624 -0.84597,5.27992 -3.55284,5.99418c-2.70687,0.71426 -5.50493,-0.81139 -6.24963,-3.40762z" data-paper-data="{&quot;origPos&quot;:null}" fill="#eb6c17"/><path d="M255.86196,192.77523c-0.27187,-0.94783 0.30885,-1.92759 1.29707,-2.18835c0.98822,-0.26076 2.00974,0.29622 2.28161,1.24405c0.27187,0.94783 -0.30885,1.92759 -1.29707,2.18835c-0.98822,0.26076 -2.00974,-0.29622 -2.28161,-1.24405z" data-paper-data="{&quot;origPos&quot;:null}" fill="#de4207"/><path d="M258.69392,193.3122c-0.17731,-0.61815 0.20142,-1.25713 0.84591,-1.42718c0.64449,-0.17007 1.31069,0.19319 1.488,0.81134c0.17731,0.61815 -0.20142,1.25713 -0.8459,1.42718c-0.64449,0.17007 -1.3107,-0.19318 -1.48801,-0.81133z" data-paper-data="{&quot;origPos&quot;:null}" fill="#ffffff"/></g><g data-paper-data="{&quot;origPos&quot;:null}"><path d="M219.00501,157.79794c-0.7447,-2.59624 0.84597,-5.27991 3.55283,-5.99416c2.70687,-0.71426 5.50494,0.81138 6.24963,3.40761c0.7447,2.59624 -0.84597,5.27992 -3.55284,5.99418c-2.70687,0.71426 -5.50493,-0.81139 -6.24963,-3.40762z" data-paper-data="{&quot;origPos&quot;:null}" fill="#eb6c17"/><path d="M220.98085,155.35023c-0.27187,-0.94783 0.30885,-1.92759 1.29707,-2.18835c0.98822,-0.26076 2.00974,0.29622 2.28161,1.24405c0.27187,0.94783 -0.30885,1.92759 -1.29707,2.18835c-0.98822,0.26076 -2.00974,-0.29622 -2.28161,-1.24405z" data-paper-data="{&quot;origPos&quot;:null}" fill="#de4207"/><path d="M223.81282,155.88719c-0.17731,-0.61815 0.20142,-1.25713 0.84591,-1.42718c0.64449,-0.17007 1.31069,0.19319 1.488,0.81134c0.17731,0.61815 -0.20142,1.25713 -0.8459,1.42718c-0.64449,0.17007 -1.3107,-0.19318 -1.48801,-0.81133z" data-paper-data="{&quot;origPos&quot;:null}" fill="#ffffff"/></g><g data-paper-data="{&quot;origPos&quot;:null}"><path d="M215.37223,177.86388c-0.7447,-2.59624 0.84597,-5.27991 3.55283,-5.99416c2.70687,-0.71426 5.50494,0.81138 6.24963,3.40761c0.7447,2.59624 -0.84597,5.27992 -3.55284,5.99418c-2.70687,0.71426 -5.50493,-0.81139 -6.24963,-3.40762z" data-paper-data="{&quot;origPos&quot;:null}" fill="#eb6c17"/><path d="M217.34808,175.41615c-0.27187,-0.94783 0.30885,-1.92759 1.29707,-2.18835c0.98822,-0.26076 2.00974,0.29622 2.28161,1.24405c0.27187,0.94783 -0.30885,1.92759 -1.29707,2.18835c-0.98822,0.26076 -2.00974,-0.29622 -2.28161,-1.24405z" data-paper-data="{&quot;origPos&quot;:null}" fill="#de4207"/><path d="M220.18006,175.95313c-0.17731,-0.61815 0.20142,-1.25713 0.84591,-1.42718c0.64449,-0.17007 1.31069,0.19319 1.488,0.81134c0.17731,0.61815 -0.20142,1.25713 -0.8459,1.42718c-0.64449,0.17007 -1.3107,-0.19318 -1.48801,-0.81133z" data-paper-data="{&quot;origPos&quot;:null}" fill="#ffffff"/></g><g data-paper-data="{&quot;origPos&quot;:null}"><path d="M232.646,163.35829c-0.7447,-2.59624 0.84597,-5.27991 3.55283,-5.99416c2.70687,-0.71426 5.50494,0.81138 6.24963,3.40761c0.7447,2.59624 -0.84597,5.27991 -3.55284,5.99417c-2.70687,0.71426 -5.50493,-0.81139 -6.24962,-3.40761z" data-paper-data="{&quot;origPos&quot;:null}" fill="#eb6c17"/><path d="M234.62184,160.91057c-0.27187,-0.94783 0.30885,-1.92759 1.29707,-2.18835c0.98822,-0.26076 2.00974,0.29622 2.28161,1.24405c0.27187,0.94783 -0.30885,1.92759 -1.29707,2.18835c-0.98822,0.26076 -2.00974,-0.29622 -2.28161,-1.24405z" data-paper-data="{&quot;origPos&quot;:null}" fill="#de4207"/><path d="M237.45379,161.44755c-0.17731,-0.61815 0.20142,-1.25713 0.84591,-1.42718c0.64449,-0.17007 1.31069,0.19319 1.488,0.81134c0.17731,0.61815 -0.20142,1.25713 -0.8459,1.42718c-0.64449,0.17007 -1.3107,-0.19318 -1.48801,-0.81133z" data-paper-data="{&quot;origPos&quot;:null}" fill="#ffffff"/></g><g data-paper-data="{&quot;origPos&quot;:null}"><path d="M232.30774,156.15264c-0.7447,-2.59624 0.84597,-5.27991 3.55283,-5.99416c2.70687,-0.71426 5.50494,0.81138 6.24963,3.40761c0.7447,2.59624 -0.84597,5.27992 -3.55284,5.99418c-2.70687,0.71426 -5.50493,-0.81139 -6.24963,-3.40762z" data-paper-data="{&quot;origPos&quot;:null}" fill="#eb6c17"/><path d="M234.28358,153.70493c-0.27187,-0.94783 0.30885,-1.92759 1.29707,-2.18835c0.98822,-0.26076 2.00974,0.29622 2.28161,1.24405c0.27187,0.94783 -0.30885,1.92759 -1.29707,2.18835c-0.98822,0.26076 -2.00974,-0.29622 -2.28161,-1.24405z" data-paper-data="{&quot;origPos&quot;:null}" fill="#de4207"/><path d="M237.11554,154.2419c-0.17731,-0.61815 0.20142,-1.25712 0.84591,-1.42717c0.64449,-0.17007 1.31069,0.19319 1.488,0.81134c0.17731,0.61815 -0.20142,1.25713 -0.8459,1.42718c-0.64449,0.17007 -1.3107,-0.19318 -1.48801,-0.81133z" data-paper-data="{&quot;origPos&quot;:null}" fill="#ffffff"/></g><g data-paper-data="{&quot;origPos&quot;:null}"><path d="M207.85109,174.54309c-0.7447,-2.59624 0.84597,-5.27991 3.55283,-5.99416c2.70688,-0.71426 5.50493,0.81139 6.24962,3.40761c0.7447,2.59624 -0.84597,5.27991 -3.55283,5.99416c-2.70688,0.71426 -5.50493,-0.81139 -6.24962,-3.40761z" data-paper-data="{&quot;origPos&quot;:null}" fill="#eb6c17"/><path d="M209.82693,172.09537c-0.27187,-0.94783 0.30885,-1.92759 1.29707,-2.18835c0.98822,-0.26076 2.00974,0.29622 2.28161,1.24405c0.27187,0.94783 -0.30885,1.92759 -1.29707,2.18835c-0.98822,0.26076 -2.00974,-0.29622 -2.28161,-1.24405z" data-paper-data="{&quot;origPos&quot;:null}" fill="#de4207"/><path d="M212.65888,172.63234c-0.17731,-0.61815 0.20142,-1.25713 0.84591,-1.42718c0.64449,-0.17007 1.3107,0.19318 1.48801,0.81133c0.17731,0.61815 -0.20142,1.25713 -0.84591,1.42718c-0.64449,0.17007 -1.3107,-0.19318 -1.48801,-0.81133z" data-paper-data="{&quot;origPos&quot;:null}" fill="#ffffff"/></g><g data-paper-data="{&quot;origPos&quot;:null}"><path d="M241.99023,158.57154c-0.7447,-2.59624 0.84597,-5.27991 3.55283,-5.99416c2.70687,-0.71426 5.50494,0.81138 6.24963,3.40761c0.7447,2.59624 -0.84597,5.27992 -3.55284,5.99418c-2.70687,0.71426 -5.50493,-0.81139 -6.24963,-3.40762z" data-paper-data="{&quot;origPos&quot;:null}" fill="#eb6c17"/><path d="M243.96607,156.12383c-0.27187,-0.94783 0.30885,-1.92759 1.29707,-2.18835c0.98822,-0.26076 2.00974,0.29622 2.28161,1.24405c0.27187,0.94783 -0.30885,1.92759 -1.29707,2.18835c-0.98822,0.26076 -2.00974,-0.29622 -2.28161,-1.24405z" data-paper-data="{&quot;origPos&quot;:null}" fill="#de4207"/><path d="M246.79804,156.6608c-0.17731,-0.61815 0.20142,-1.25713 0.84591,-1.42718c0.64449,-0.17007 1.31069,0.19319 1.488,0.81134c0.17731,0.61815 -0.20142,1.25713 -0.8459,1.42718c-0.64449,0.17007 -1.3107,-0.19318 -1.48801,-0.81133z" data-paper-data="{&quot;origPos&quot;:null}" fill="#ffffff"/></g><g data-paper-data="{&quot;origPos&quot;:null}"><path d="M256.68033,177.24316c-0.7447,-2.59624 0.84597,-5.27991 3.55283,-5.99416c2.70687,-0.71426 5.50494,0.81138 6.24963,3.40761c0.7447,2.59624 -0.84597,5.27992 -3.55284,5.99418c-2.70687,0.71426 -5.50493,-0.81139 -6.24963,-3.40762z" data-paper-data="{&quot;origPos&quot;:null}" fill="#eb6c17"/><path d="M258.65618,174.79545c-0.27187,-0.94783 0.30885,-1.92759 1.29707,-2.18835c0.98822,-0.26076 2.00974,0.29622 2.28161,1.24405c0.27187,0.94783 -0.30885,1.92759 -1.29707,2.18835c-0.98822,0.26076 -2.00974,-0.29622 -2.28161,-1.24405z" data-paper-data="{&quot;origPos&quot;:null}" fill="#de4207"/><path d="M261.48815,175.33242c-0.17731,-0.61815 0.20142,-1.25713 0.84591,-1.42718c0.64449,-0.17007 1.31069,0.19319 1.488,0.81134c0.17731,0.61815 -0.20142,1.25713 -0.8459,1.42718c-0.64449,0.17007 -1.3107,-0.19318 -1.48801,-0.81133z" data-paper-data="{&quot;origPos&quot;:null}" fill="#ffffff"/></g><g data-paper-data="{&quot;origPos&quot;:null}"><path d="M218.843,174.29535c-0.7447,-2.59624 0.84597,-5.27991 3.55283,-5.99416c2.70687,-0.71426 5.50494,0.81138 6.24963,3.40761c0.7447,2.59624 -0.84597,5.27992 -3.55284,5.99418c-2.70687,0.71426 -5.50493,-0.81139 -6.24963,-3.40762z" data-paper-data="{&quot;origPos&quot;:null}" fill="#eb6c17"/><path d="M220.81884,171.84764c-0.27187,-0.94783 0.30885,-1.92759 1.29707,-2.18835c0.98822,-0.26076 2.00974,0.29622 2.28161,1.24405c0.27187,0.94783 -0.30885,1.92759 -1.29707,2.18835c-0.98822,0.26076 -2.00974,-0.29622 -2.28161,-1.24405z" data-paper-data="{&quot;origPos&quot;:null}" fill="#de4207"/><path d="M223.6508,172.38461c-0.17731,-0.61815 0.20142,-1.25713 0.84591,-1.42718c0.64449,-0.17007 1.31069,0.19319 1.488,0.81134c0.17731,0.61815 -0.20142,1.25713 -0.8459,1.42718c-0.64449,0.17007 -1.3107,-0.19318 -1.48801,-0.81133z" data-paper-data="{&quot;origPos&quot;:null}" fill="#ffffff"/></g><g data-paper-data="{&quot;origPos&quot;:null}"><path d="M212.56812,178.93537c-0.7447,-2.59624 0.84597,-5.27991 3.55283,-5.99416c2.70687,-0.71426 5.50494,0.81138 6.24963,3.40761c0.7447,2.59624 -0.84597,5.27992 -3.55284,5.99418c-2.70687,0.71426 -5.50493,-0.81139 -6.24963,-3.40762z" data-paper-data="{&quot;origPos&quot;:null}" fill="#eb6c17"/><path d="M214.54397,176.48766c-0.27187,-0.94783 0.30885,-1.92759 1.29707,-2.18835c0.98822,-0.26076 2.00974,0.29622 2.28161,1.24405c0.27187,0.94783 -0.30885,1.92759 -1.29707,2.18835c-0.98822,0.26076 -2.00974,-0.29622 -2.28161,-1.24405z" data-paper-data="{&quot;origPos&quot;:null}" fill="#de4207"/><path d="M217.37594,177.02463c-0.17731,-0.61815 0.20142,-1.25713 0.84591,-1.42718c0.64449,-0.17007 1.31069,0.19319 1.488,0.81134c0.17731,0.61815 -0.20142,1.25713 -0.8459,1.42718c-0.64449,0.17007 -1.3107,-0.19318 -1.48801,-0.81133z" data-paper-data="{&quot;origPos&quot;:null}" fill="#ffffff"/></g><g data-paper-data="{&quot;origPos&quot;:null}"><path d="M214.36037,182.77307c-0.7447,-2.59624 0.84597,-5.27991 3.55283,-5.99416c2.70687,-0.71426 5.50494,0.81138 6.24963,3.40761c0.7447,2.59624 -0.84597,5.27992 -3.55284,5.99418c-2.70687,0.71426 -5.50493,-0.81139 -6.24963,-3.40762z" data-paper-data="{&quot;origPos&quot;:null}" fill="#eb6c17"/><path d="M216.33621,180.32536c-0.27187,-0.94783 0.30885,-1.92759 1.29707,-2.18835c0.98822,-0.26076 2.00974,0.29622 2.28161,1.24405c0.27187,0.94783 -0.30885,1.92759 -1.29707,2.18835c-0.98822,0.26076 -2.00974,-0.29622 -2.28161,-1.24405z" data-paper-data="{&quot;origPos&quot;:null}" fill="#de4207"/><path d="M219.16816,180.86233c-0.17731,-0.61815 0.20142,-1.25713 0.84591,-1.42718c0.64449,-0.17007 1.31069,0.19319 1.488,0.81134c0.17731,0.61815 -0.20142,1.25713 -0.8459,1.42718c-0.64449,0.17007 -1.3107,-0.19318 -1.48801,-0.81133z" data-paper-data="{&quot;origPos&quot;:null}" fill="#ffffff"/></g><g data-paper-data="{&quot;origPos&quot;:null}"><path d="M221.51941,181.21562c-0.7447,-2.59624 0.84597,-5.27991 3.55283,-5.99416c2.70687,-0.71426 5.50494,0.81138 6.24963,3.40761c0.7447,2.59624 -0.84597,5.27992 -3.55284,5.99418c-2.70687,0.71426 -5.50493,-0.81139 -6.24963,-3.40762z" data-paper-data="{&quot;origPos&quot;:null}" fill="#eb6c17"/><path d="M223.49526,178.7679c-0.27187,-0.94783 0.30885,-1.92759 1.29707,-2.18835c0.98822,-0.26076 2.00974,0.29622 2.28161,1.24405c0.27187,0.94783 -0.30885,1.92759 -1.29707,2.18835c-0.98822,0.26076 -2.00974,-0.29622 -2.28161,-1.24405z" data-paper-data="{&quot;origPos&quot;:null}" fill="#de4207"/><path d="M226.32723,179.30487c-0.17731,-0.61815 0.20142,-1.25713 0.84591,-1.42718c0.64449,-0.17007 1.31069,0.19319 1.488,0.81134c0.17731,0.61815 -0.20142,1.25713 -0.8459,1.42718c-0.64449,0.17007 -1.3107,-0.19318 -1.48801,-0.81133z" data-paper-data="{&quot;origPos&quot;:null}" fill="#ffffff"/></g><g data-paper-data="{&quot;origPos&quot;:null}"><path d="M238.79318,166.71005c-0.7447,-2.59624 0.84597,-5.27991 3.55283,-5.99416c2.70687,-0.71426 5.50494,0.81138 6.24963,3.40761c0.7447,2.59624 -0.84597,5.27991 -3.55284,5.99417c-2.70687,0.71426 -5.50493,-0.81139 -6.24962,-3.40761z" data-paper-data="{&quot;origPos&quot;:null}" fill="#eb6c17"/><path d="M240.76902,164.26232c-0.27187,-0.94783 0.30885,-1.92759 1.29707,-2.18835c0.98822,-0.26076 2.00974,0.29622 2.28161,1.24405c0.27187,0.94783 -0.30885,1.92759 -1.29707,2.18835c-0.98822,0.26076 -2.00974,-0.29622 -2.28161,-1.24405z" data-paper-data="{&quot;origPos&quot;:null}" fill="#de4207"/><path d="M243.60097,164.7993c-0.17731,-0.61815 0.20142,-1.25713 0.84591,-1.42718c0.64449,-0.17007 1.31069,0.19319 1.488,0.81134c0.17731,0.61815 -0.20142,1.25713 -0.8459,1.42718c-0.64449,0.17007 -1.3107,-0.19318 -1.48801,-0.81133z" data-paper-data="{&quot;origPos&quot;:null}" fill="#ffffff"/></g><g data-paper-data="{&quot;origPos&quot;:null}"><path d="M228.75847,176.32119c-0.7447,-2.59623 0.84597,-5.27991 3.55283,-5.99416c2.70687,-0.71426 5.50494,0.81139 6.24963,3.40761c0.7447,2.59623 -0.84597,5.27991 -3.55284,5.99417c-2.70687,0.71426 -5.50493,-0.81139 -6.24962,-3.40761z" data-paper-data="{&quot;origPos&quot;:null}" fill="#eb6c17"/><path d="M230.73431,173.87347c-0.27187,-0.94783 0.30885,-1.92759 1.29707,-2.18835c0.98822,-0.26076 2.00974,0.29622 2.28161,1.24405c0.27187,0.94783 -0.30885,1.92759 -1.29707,2.18835c-0.98822,0.26076 -2.00974,-0.29622 -2.28161,-1.24405z" data-paper-data="{&quot;origPos&quot;:null}" fill="#de4207"/><path d="M233.56627,174.41045c-0.17731,-0.61815 0.20142,-1.25712 0.84591,-1.42717c0.64449,-0.17007 1.31069,0.19319 1.488,0.81134c0.17731,0.61815 -0.20142,1.25713 -0.8459,1.42718c-0.64449,0.17007 -1.3107,-0.19318 -1.48801,-0.81133z" data-paper-data="{&quot;origPos&quot;:null}" fill="#ffffff"/></g><g data-paper-data="{&quot;origPos&quot;:null}"><path d="M252.53452,179.66346c-0.7447,-2.59624 0.84597,-5.27991 3.55283,-5.99416c2.70687,-0.71426 5.50494,0.81138 6.24963,3.40761c0.7447,2.59624 -0.84597,5.27992 -3.55284,5.99418c-2.70687,0.71426 -5.50493,-0.81139 -6.24963,-3.40762z" data-paper-data="{&quot;origPos&quot;:null}" fill="#eb6c17"/><path d="M254.51037,177.21574c-0.27187,-0.94783 0.30885,-1.92759 1.29707,-2.18835c0.98822,-0.26076 2.00974,0.29622 2.28161,1.24405c0.27187,0.94783 -0.30885,1.92759 -1.29707,2.18835c-0.98822,0.26076 -2.00974,-0.29622 -2.28161,-1.24405z" data-paper-data="{&quot;origPos&quot;:null}" fill="#de4207"/><path d="M257.34233,177.75271c-0.17731,-0.61815 0.20142,-1.25713 0.84591,-1.42718c0.64449,-0.17007 1.31069,0.19319 1.488,0.81134c0.17731,0.61815 -0.20142,1.25713 -0.8459,1.42718c-0.64449,0.17007 -1.3107,-0.19318 -1.48801,-0.81133z" data-paper-data="{&quot;origPos&quot;:null}" fill="#ffffff"/></g><g data-paper-data="{&quot;origPos&quot;:null}"><path d="M247.80205,181.24378c-0.7447,-2.59624 0.84597,-5.27991 3.55283,-5.99416c2.70687,-0.71426 5.50494,0.81138 6.24963,3.40761c0.7447,2.59624 -0.84597,5.27992 -3.55284,5.99418c-2.70687,0.71426 -5.50493,-0.81139 -6.24963,-3.40762z" data-paper-data="{&quot;origPos&quot;:null}" fill="#eb6c17"/><path d="M249.77789,178.79606c-0.27187,-0.94783 0.30885,-1.92759 1.29707,-2.18835c0.98822,-0.26076 2.00974,0.29622 2.28161,1.24405c0.27187,0.94783 -0.30885,1.92759 -1.29707,2.18835c-0.98822,0.26076 -2.00974,-0.29622 -2.28161,-1.24405z" data-paper-data="{&quot;origPos&quot;:null}" fill="#de4207"/><path d="M252.60986,179.33303c-0.17731,-0.61815 0.20142,-1.25713 0.84591,-1.42718c0.64449,-0.17007 1.31069,0.19319 1.488,0.81134c0.17731,0.61815 -0.20142,1.25713 -0.8459,1.42718c-0.64449,0.17007 -1.3107,-0.19318 -1.48801,-0.81133z" data-paper-data="{&quot;origPos&quot;:null}" fill="#ffffff"/></g><g data-paper-data="{&quot;origPos&quot;:null}"><path d="M248.28195,161.22198c-0.7447,-2.59624 0.84597,-5.27991 3.55283,-5.99416c2.70687,-0.71426 5.50494,0.81138 6.24963,3.40761c0.7447,2.59624 -0.84597,5.27992 -3.55284,5.99418c-2.70687,0.71426 -5.50493,-0.81139 -6.24963,-3.40762z" data-paper-data="{&quot;origPos&quot;:null}" fill="#eb6c17"/><path d="M250.25779,158.77426c-0.27187,-0.94783 0.30885,-1.92759 1.29707,-2.18835c0.98822,-0.26076 2.00974,0.29622 2.28161,1.24405c0.27187,0.94783 -0.30885,1.92759 -1.29707,2.18835c-0.98822,0.26076 -2.00974,-0.29622 -2.28161,-1.24405z" data-paper-data="{&quot;origPos&quot;:null}" fill="#de4207"/><path d="M253.08976,159.31123c-0.17731,-0.61815 0.20142,-1.25713 0.84591,-1.42718c0.64449,-0.17007 1.31069,0.19319 1.488,0.81134c0.17731,0.61815 -0.20142,1.25713 -0.8459,1.42718c-0.64449,0.17007 -1.3107,-0.19318 -1.48801,-0.81133z" data-paper-data="{&quot;origPos&quot;:null}" fill="#ffffff"/></g><g data-paper-data="{&quot;origPos&quot;:null}"><path d="M224.99018,177.64711c-0.7447,-2.59624 0.84597,-5.27991 3.55283,-5.99416c2.70687,-0.71426 5.50494,0.81138 6.24963,3.40761c0.7447,2.59624 -0.84597,5.27992 -3.55284,5.99418c-2.70687,0.71426 -5.50493,-0.81139 -6.24963,-3.40762z" data-paper-data="{&quot;origPos&quot;:null}" fill="#eb6c17"/><path d="M226.96602,175.19939c-0.27187,-0.94783 0.30885,-1.92759 1.29707,-2.18835c0.98822,-0.26076 2.00974,0.29622 2.28161,1.24405c0.27187,0.94783 -0.30885,1.92759 -1.29707,2.18835c-0.98822,0.26076 -2.00974,-0.29622 -2.28161,-1.24405z" data-paper-data="{&quot;origPos&quot;:null}" fill="#de4207"/><path d="M229.79798,175.73636c-0.17731,-0.61815 0.20142,-1.25713 0.84591,-1.42718c0.64449,-0.17007 1.31069,0.19319 1.488,0.81134c0.17731,0.61815 -0.20142,1.25713 -0.8459,1.42718c-0.64449,0.17007 -1.3107,-0.19318 -1.48801,-0.81133z" data-paper-data="{&quot;origPos&quot;:null}" fill="#ffffff"/></g><g data-paper-data="{&quot;origPos&quot;:null}"><path d="M227.66659,184.56737c-0.7447,-2.59624 0.84597,-5.27991 3.55283,-5.99416c2.70687,-0.71426 5.50494,0.81138 6.24963,3.40761c0.7447,2.59624 -0.84597,5.27992 -3.55284,5.99418c-2.70687,0.71426 -5.50493,-0.81139 -6.24963,-3.40762z" data-paper-data="{&quot;origPos&quot;:null}" fill="#eb6c17"/><path d="M229.64244,182.11965c-0.27187,-0.94783 0.30885,-1.92759 1.29707,-2.18835c0.98822,-0.26076 2.00974,0.29622 2.28161,1.24405c0.27187,0.94783 -0.30885,1.92759 -1.29707,2.18835c-0.98822,0.26076 -2.00974,-0.29622 -2.28161,-1.24405z" data-paper-data="{&quot;origPos&quot;:null}" fill="#de4207"/><path d="M232.47441,182.65663c-0.17731,-0.61815 0.20142,-1.25713 0.84591,-1.42718c0.64449,-0.17007 1.31069,0.19319 1.488,0.81134c0.17731,0.61815 -0.20142,1.25713 -0.8459,1.42718c-0.64449,0.17007 -1.3107,-0.19318 -1.48801,-0.81133z" data-paper-data="{&quot;origPos&quot;:null}" fill="#ffffff"/></g><g data-paper-data="{&quot;origPos&quot;:null}"><path d="M236.83253,165.90104c-0.7447,-2.59624 0.84597,-5.27991 3.55283,-5.99416c2.70687,-0.71426 5.50494,0.81138 6.24963,3.40761c0.7447,2.59624 -0.84597,5.27992 -3.55284,5.99418c-2.70687,0.71426 -5.50493,-0.81139 -6.24963,-3.40762z" data-paper-data="{&quot;origPos&quot;:null}" fill="#eb6c17"/><path d="M238.80838,163.45334c-0.27187,-0.94783 0.30885,-1.92759 1.29707,-2.18835c0.98822,-0.26076 2.00974,0.29622 2.28161,1.24405c0.27187,0.94783 -0.30885,1.92759 -1.29707,2.18835c-0.98822,0.26076 -2.00974,-0.29622 -2.28161,-1.24405z" data-paper-data="{&quot;origPos&quot;:null}" fill="#de4207"/><path d="M241.64034,163.99031c-0.17731,-0.61815 0.20142,-1.25713 0.84591,-1.42718c0.64449,-0.17007 1.31069,0.19319 1.488,0.81134c0.17731,0.61815 -0.20142,1.25713 -0.8459,1.42718c-0.64449,0.17007 -1.3107,-0.19318 -1.48801,-0.81133z" data-paper-data="{&quot;origPos&quot;:null}" fill="#ffffff"/></g><g data-paper-data="{&quot;origPos&quot;:null}"><path d="M218.14261,162.21147c-0.7447,-2.59624 0.84597,-5.27991 3.55283,-5.99416c2.70687,-0.71426 5.50494,0.81138 6.24963,3.40761c0.7447,2.59624 -0.84597,5.27992 -3.55284,5.99418c-2.70687,0.71426 -5.50493,-0.81139 -6.24963,-3.40762z" data-paper-data="{&quot;origPos&quot;:null}" fill="#eb6c17"/><path d="M220.11845,159.76376c-0.27187,-0.94783 0.30885,-1.92759 1.29707,-2.18835c0.98822,-0.26076 2.00974,0.29622 2.28161,1.24405c0.27187,0.94783 -0.30885,1.92759 -1.29707,2.18835c-0.98822,0.26076 -2.00974,-0.29622 -2.28161,-1.24405z" data-paper-data="{&quot;origPos&quot;:null}" fill="#de4207"/><path d="M222.95042,160.30073c-0.17731,-0.61815 0.20142,-1.25713 0.84591,-1.42718c0.64449,-0.17007 1.31069,0.19319 1.488,0.81134c0.17731,0.61815 -0.20142,1.25713 -0.8459,1.42718c-0.64449,0.17007 -1.3107,-0.19318 -1.48801,-0.81133z" data-paper-data="{&quot;origPos&quot;:null}" fill="#ffffff"/></g><g data-paper-data="{&quot;origPos&quot;:null}"><path d="M237.52448,174.33971c-0.7447,-2.59624 0.84597,-5.27991 3.55283,-5.99416c2.70687,-0.71426 5.50494,0.81138 6.24963,3.40761c0.7447,2.59624 -0.84597,5.27992 -3.55284,5.99418c-2.70687,0.71426 -5.50493,-0.81139 -6.24963,-3.40762z" data-paper-data="{&quot;origPos&quot;:null}" fill="#eb6c17"/><path d="M239.50033,171.89198c-0.27187,-0.94783 0.30885,-1.92759 1.29707,-2.18835c0.98822,-0.26076 2.00974,0.29622 2.28161,1.24405c0.27187,0.94783 -0.30885,1.92759 -1.29707,2.18835c-0.98822,0.26076 -2.00974,-0.29622 -2.28161,-1.24405z" data-paper-data="{&quot;origPos&quot;:null}" fill="#de4207"/><path d="M242.33229,172.42896c-0.17731,-0.61815 0.20142,-1.25713 0.84591,-1.42718c0.64449,-0.17007 1.31069,0.19319 1.488,0.81134c0.17731,0.61815 -0.20142,1.25713 -0.8459,1.42718c-0.64449,0.17007 -1.3107,-0.19318 -1.48801,-0.81133z" data-paper-data="{&quot;origPos&quot;:null}" fill="#ffffff"/></g><g data-paper-data="{&quot;origPos&quot;:null}"><path d="M244.94036,170.0618c-0.7447,-2.59624 0.84597,-5.27991 3.55283,-5.99416c2.70687,-0.71426 5.50494,0.81138 6.24963,3.40761c0.7447,2.59624 -0.84597,5.27991 -3.55284,5.99417c-2.70687,0.71426 -5.50493,-0.81139 -6.24962,-3.40761z" data-paper-data="{&quot;origPos&quot;:null}" fill="#eb6c17"/><path d="M246.91619,167.61408c-0.27187,-0.94783 0.30885,-1.92759 1.29707,-2.18835c0.98822,-0.26076 2.00974,0.29622 2.28161,1.24405c0.27187,0.94783 -0.30885,1.92759 -1.29707,2.18835c-0.98822,0.26076 -2.00974,-0.29622 -2.28161,-1.24405z" data-paper-data="{&quot;origPos&quot;:null}" fill="#de4207"/><path d="M249.74816,168.15106c-0.17731,-0.61815 0.20142,-1.25713 0.84591,-1.42718c0.64449,-0.17007 1.31069,0.19319 1.488,0.81134c0.17731,0.61815 -0.20142,1.25713 -0.8459,1.42718c-0.64449,0.17007 -1.3107,-0.19318 -1.48801,-0.81133z" data-paper-data="{&quot;origPos&quot;:null}" fill="#ffffff"/></g><g data-paper-data="{&quot;origPos&quot;:null}"><path d="M219.54554,155.4742c-0.7447,-2.59624 0.84597,-5.27991 3.55283,-5.99416c2.70687,-0.71426 5.50494,0.81138 6.24963,3.40761c0.7447,2.59624 -0.84597,5.27992 -3.55284,5.99418c-2.70687,0.71426 -5.50493,-0.81139 -6.24963,-3.40762z" data-paper-data="{&quot;origPos&quot;:null}" fill="#eb6c17"/><path d="M221.52138,153.02649c-0.27187,-0.94783 0.30885,-1.92759 1.29707,-2.18835c0.98822,-0.26076 2.00974,0.29622 2.28161,1.24405c0.27187,0.94783 -0.30885,1.92759 -1.29707,2.18835c-0.98822,0.26076 -2.00974,-0.29622 -2.28161,-1.24405z" data-paper-data="{&quot;origPos&quot;:null}" fill="#de4207"/><path d="M224.35334,153.56346c-0.17731,-0.61815 0.20142,-1.25712 0.84591,-1.42717c0.64449,-0.17007 1.31069,0.19319 1.488,0.81134c0.17731,0.61815 -0.20142,1.25713 -0.8459,1.42718c-0.64449,0.17007 -1.3107,-0.19318 -1.48801,-0.81133z" data-paper-data="{&quot;origPos&quot;:null}" fill="#ffffff"/></g><g data-paper-data="{&quot;origPos&quot;:null}"><path d="M234.90564,179.67295c-0.7447,-2.59623 0.84597,-5.27991 3.55283,-5.99416c2.70687,-0.71426 5.50494,0.81139 6.24963,3.40761c0.7447,2.59623 -0.84597,5.27991 -3.55284,5.99417c-2.70687,0.71426 -5.50493,-0.81139 -6.24962,-3.40761z" data-paper-data="{&quot;origPos&quot;:null}" fill="#eb6c17"/><path d="M236.88148,177.22522c-0.27187,-0.94783 0.30885,-1.92759 1.29707,-2.18835c0.98822,-0.26076 2.00974,0.29622 2.28161,1.24405c0.27187,0.94783 -0.30885,1.92759 -1.29707,2.18835c-0.98822,0.26076 -2.00974,-0.29622 -2.28161,-1.24405z" data-paper-data="{&quot;origPos&quot;:null}" fill="#de4207"/><path d="M239.71345,177.7622c-0.17731,-0.61815 0.20142,-1.25712 0.84591,-1.42717c0.64449,-0.17007 1.31069,0.19319 1.488,0.81134c0.17731,0.61815 -0.20142,1.25713 -0.8459,1.42718c-0.64449,0.17007 -1.3107,-0.19318 -1.48801,-0.81133z" data-paper-data="{&quot;origPos&quot;:null}" fill="#ffffff"/></g><g data-paper-data="{&quot;origPos&quot;:null}"><path d="M257.44237,165.43656c-0.7447,-2.59624 0.84597,-5.27991 3.55283,-5.99416c2.70687,-0.71426 5.50494,0.81138 6.24963,3.40761c0.7447,2.59624 -0.84597,5.27992 -3.55284,5.99418c-2.70687,0.71426 -5.50493,-0.81139 -6.24963,-3.40762z" data-paper-data="{&quot;origPos&quot;:null}" fill="#eb6c17"/><path d="M259.41821,162.98885c-0.27187,-0.94783 0.30885,-1.92759 1.29707,-2.18835c0.98822,-0.26076 2.00974,0.29622 2.28161,1.24405c0.27187,0.94783 -0.30885,1.92759 -1.29707,2.18835c-0.98822,0.26076 -2.00974,-0.29622 -2.28161,-1.24405z" data-paper-data="{&quot;origPos&quot;:null}" fill="#de4207"/><path d="M262.25018,163.52582c-0.17731,-0.61815 0.20142,-1.25713 0.84591,-1.42718c0.64449,-0.17007 1.31069,0.19319 1.488,0.81134c0.17731,0.61815 -0.20142,1.25713 -0.8459,1.42718c-0.64449,0.17007 -1.3107,-0.19318 -1.48801,-0.81133z" data-paper-data="{&quot;origPos&quot;:null}" fill="#ffffff"/></g><g data-paper-data="{&quot;origPos&quot;:null}"><path d="M246.13895,182.67737c-0.7447,-2.59624 0.84597,-5.27991 3.55283,-5.99416c2.70687,-0.71426 5.50494,0.81138 6.24963,3.40761c0.7447,2.59624 -0.84597,5.27992 -3.55284,5.99418c-2.70687,0.71426 -5.50493,-0.81139 -6.24963,-3.40762z" data-paper-data="{&quot;origPos&quot;:null}" fill="#eb6c17"/><path d="M248.1148,180.22966c-0.27187,-0.94783 0.30885,-1.92759 1.29707,-2.18835c0.98822,-0.26076 2.00974,0.29622 2.28161,1.24405c0.27187,0.94783 -0.30885,1.92759 -1.29707,2.18835c-0.98822,0.26076 -2.00974,-0.29622 -2.28161,-1.24405z" data-paper-data="{&quot;origPos&quot;:null}" fill="#de4207"/><path d="M250.94676,180.76664c-0.17731,-0.61815 0.20142,-1.25713 0.84591,-1.42718c0.64449,-0.17007 1.31069,0.19319 1.488,0.81134c0.17731,0.61815 -0.20142,1.25713 -0.8459,1.42718c-0.64449,0.17007 -1.3107,-0.19318 -1.48801,-0.81133z" data-paper-data="{&quot;origPos&quot;:null}" fill="#ffffff"/></g><g data-paper-data="{&quot;origPos&quot;:null}"><path d="M236.52801,173.2763c-0.7447,-2.59624 0.84597,-5.27991 3.55283,-5.99416c2.70687,-0.71426 5.50494,0.81138 6.24963,3.40761c0.7447,2.59624 -0.84597,5.27992 -3.55284,5.99418c-2.70687,0.71426 -5.50493,-0.81139 -6.24963,-3.40762z" data-paper-data="{&quot;origPos&quot;:null}" fill="#eb6c17"/><path d="M238.50386,170.82858c-0.27187,-0.94783 0.30885,-1.92759 1.29707,-2.18835c0.98822,-0.26076 2.00974,0.29622 2.28161,1.24405c0.27187,0.94783 -0.30885,1.92759 -1.29707,2.18835c-0.98822,0.26076 -2.00974,-0.29622 -2.28161,-1.24405z" data-paper-data="{&quot;origPos&quot;:null}" fill="#de4207"/><path d="M241.33582,171.36556c-0.17731,-0.61815 0.20142,-1.25713 0.84591,-1.42718c0.64449,-0.17007 1.31069,0.19319 1.488,0.81134c0.17731,0.61815 -0.20142,1.25713 -0.8459,1.42718c-0.64449,0.17007 -1.3107,-0.19318 -1.48801,-0.81133z" data-paper-data="{&quot;origPos&quot;:null}" fill="#ffffff"/></g><g data-paper-data="{&quot;origPos&quot;:null}"><path d="M231.13736,180.99886c-0.7447,-2.59624 0.84597,-5.27991 3.55283,-5.99416c2.70687,-0.71426 5.50494,0.81138 6.24963,3.40761c0.7447,2.59624 -0.84597,5.27992 -3.55284,5.99418c-2.70687,0.71426 -5.50493,-0.81139 -6.24963,-3.40762z" data-paper-data="{&quot;origPos&quot;:null}" fill="#eb6c17"/><path d="M233.1132,178.55115c-0.27187,-0.94783 0.30885,-1.92759 1.29707,-2.18835c0.98822,-0.26076 2.00974,0.29622 2.28161,1.24405c0.27187,0.94783 -0.30885,1.92759 -1.29707,2.18835c-0.98822,0.26076 -2.00974,-0.29622 -2.28161,-1.24405z" data-paper-data="{&quot;origPos&quot;:null}" fill="#de4207"/><path d="M235.94516,179.08812c-0.17731,-0.61815 0.20142,-1.25713 0.84591,-1.42718c0.64449,-0.17007 1.31069,0.19319 1.488,0.81134c0.17731,0.61815 -0.20142,1.25713 -0.8459,1.42718c-0.64449,0.17007 -1.3107,-0.19318 -1.48801,-0.81133z" data-paper-data="{&quot;origPos&quot;:null}" fill="#ffffff"/></g><g data-paper-data="{&quot;origPos&quot;:null}"><path d="M224.86247,185.63887c-0.7447,-2.59624 0.84597,-5.27991 3.55283,-5.99416c2.70687,-0.71426 5.50494,0.81138 6.24963,3.40761c0.7447,2.59624 -0.84597,5.27992 -3.55284,5.99418c-2.70687,0.71426 -5.50493,-0.81139 -6.24963,-3.40762z" data-paper-data="{&quot;origPos&quot;:null}" fill="#eb6c17"/><path d="M226.83833,183.19115c-0.27187,-0.94783 0.30885,-1.92759 1.29707,-2.18835c0.98822,-0.26076 2.00974,0.29622 2.28161,1.24405c0.27187,0.94783 -0.30885,1.92759 -1.29707,2.18835c-0.98822,0.26076 -2.00974,-0.29622 -2.28161,-1.24405z" data-paper-data="{&quot;origPos&quot;:null}" fill="#de4207"/><path d="M229.67029,183.72812c-0.17731,-0.61815 0.20142,-1.25713 0.84591,-1.42718c0.64449,-0.17007 1.31069,0.19319 1.488,0.81134c0.17731,0.61815 -0.20142,1.25713 -0.8459,1.42718c-0.64449,0.17007 -1.3107,-0.19318 -1.48801,-0.81133z" data-paper-data="{&quot;origPos&quot;:null}" fill="#ffffff"/></g><g data-paper-data="{&quot;origPos&quot;:null}"><path d="M233.81376,187.91913c-0.7447,-2.59624 0.84597,-5.27991 3.55283,-5.99416c2.70687,-0.71426 5.50494,0.81138 6.24963,3.40761c0.7447,2.59624 -0.84597,5.27992 -3.55284,5.99418c-2.70687,0.71426 -5.50493,-0.81139 -6.24963,-3.40762z" data-paper-data="{&quot;origPos&quot;:null}" fill="#eb6c17"/><path d="M235.78962,185.4714c-0.27187,-0.94783 0.30885,-1.92759 1.29707,-2.18835c0.98822,-0.26076 2.00974,0.29622 2.28161,1.24405c0.27187,0.94783 -0.30885,1.92759 -1.29707,2.18835c-0.98822,0.26076 -2.00974,-0.29622 -2.28161,-1.24405z" data-paper-data="{&quot;origPos&quot;:null}" fill="#de4207"/><path d="M238.62159,186.00838c-0.17731,-0.61815 0.20142,-1.25713 0.84591,-1.42718c0.64449,-0.17007 1.31069,0.19319 1.488,0.81134c0.17731,0.61815 -0.20142,1.25713 -0.8459,1.42718c-0.64449,0.17007 -1.3107,-0.19318 -1.48801,-0.81133z" data-paper-data="{&quot;origPos&quot;:null}" fill="#ffffff"/></g><g data-paper-data="{&quot;origPos&quot;:null}"><path d="M242.9797,169.25279c-0.7447,-2.59624 0.84597,-5.27991 3.55283,-5.99416c2.70687,-0.71426 5.50494,0.81138 6.24963,3.40761c0.7447,2.59624 -0.84597,5.27992 -3.55284,5.99418c-2.70687,0.71426 -5.50493,-0.81139 -6.24963,-3.40762z" data-paper-data="{&quot;origPos&quot;:null}" fill="#eb6c17"/><path d="M244.95555,166.80508c-0.27187,-0.94783 0.30885,-1.92759 1.29707,-2.18835c0.98822,-0.26076 2.00974,0.29622 2.28161,1.24405c0.27187,0.94783 -0.30885,1.92759 -1.29707,2.18835c-0.98822,0.26076 -2.00974,-0.29622 -2.28161,-1.24405z" data-paper-data="{&quot;origPos&quot;:null}" fill="#de4207"/><path d="M247.78752,167.34205c-0.17731,-0.61815 0.20142,-1.25713 0.84591,-1.42718c0.64449,-0.17007 1.31069,0.19319 1.488,0.81134c0.17731,0.61815 -0.20142,1.25713 -0.8459,1.42718c-0.64449,0.17007 -1.3107,-0.19318 -1.48801,-0.81133z" data-paper-data="{&quot;origPos&quot;:null}" fill="#ffffff"/></g><g data-paper-data="{&quot;origPos&quot;:null}"><path d="M243.67166,177.69146c-0.7447,-2.59624 0.84597,-5.27991 3.55283,-5.99416c2.70687,-0.71426 5.50494,0.81138 6.24963,3.40761c0.7447,2.59624 -0.84597,5.27992 -3.55284,5.99418c-2.70687,0.71426 -5.50493,-0.81139 -6.24963,-3.40762z" data-paper-data="{&quot;origPos&quot;:null}" fill="#eb6c17"/><path d="M245.6475,175.24374c-0.27187,-0.94783 0.30885,-1.92759 1.29707,-2.18835c0.98822,-0.26076 2.00974,0.29622 2.28161,1.24405c0.27187,0.94783 -0.30885,1.92759 -1.29707,2.18835c-0.98822,0.26076 -2.00974,-0.29622 -2.28161,-1.24405z" data-paper-data="{&quot;origPos&quot;:null}" fill="#de4207"/><path d="M248.47947,175.78072c-0.17731,-0.61815 0.20142,-1.25713 0.84591,-1.42718c0.64449,-0.17007 1.31069,0.19319 1.488,0.81134c0.17731,0.61815 -0.20142,1.25713 -0.8459,1.42718c-0.64449,0.17007 -1.3107,-0.19318 -1.48801,-0.81133z" data-paper-data="{&quot;origPos&quot;:null}" fill="#ffffff"/></g><g data-paper-data="{&quot;origPos&quot;:null}"><path d="M251.08753,173.41355c-0.7447,-2.59624 0.84597,-5.27991 3.55283,-5.99416c2.70687,-0.71426 5.50494,0.81138 6.24963,3.40761c0.7447,2.59624 -0.84597,5.27991 -3.55284,5.99417c-2.70687,0.71426 -5.50493,-0.81139 -6.24962,-3.40761z" data-paper-data="{&quot;origPos&quot;:null}" fill="#eb6c17"/><path d="M253.06337,170.96583c-0.27187,-0.94783 0.30885,-1.92759 1.29707,-2.18835c0.98822,-0.26076 2.00974,0.29622 2.28161,1.24405c0.27187,0.94783 -0.30885,1.92759 -1.29707,2.18835c-0.98822,0.26076 -2.00974,-0.29622 -2.28161,-1.24405z" data-paper-data="{&quot;origPos&quot;:null}" fill="#de4207"/><path d="M255.89534,171.50281c-0.17731,-0.61815 0.20142,-1.25713 0.84591,-1.42718c0.64449,-0.17007 1.31069,0.19319 1.488,0.81134c0.17731,0.61815 -0.20142,1.25713 -0.8459,1.42718c-0.64449,0.17007 -1.3107,-0.19318 -1.48801,-0.81133z" data-paper-data="{&quot;origPos&quot;:null}" fill="#ffffff"/></g><g data-paper-data="{&quot;origPos&quot;:null}"><path d="M250.74927,166.2079c-0.7447,-2.59624 0.84597,-5.27991 3.55283,-5.99416c2.70687,-0.71426 5.50494,0.81138 6.24963,3.40761c0.7447,2.59624 -0.84597,5.27992 -3.55284,5.99418c-2.70687,0.71426 -5.50493,-0.81139 -6.24963,-3.40762z" data-paper-data="{&quot;origPos&quot;:null}" fill="#eb6c17"/><path d="M252.72511,163.76019c-0.27187,-0.94783 0.30885,-1.92759 1.29707,-2.18835c0.98822,-0.26076 2.00974,0.29622 2.28161,1.24405c0.27187,0.94783 -0.30885,1.92759 -1.29707,2.18835c-0.98822,0.26076 -2.00974,-0.29622 -2.28161,-1.24405z" data-paper-data="{&quot;origPos&quot;:null}" fill="#de4207"/><path d="M255.55708,164.29716c-0.17731,-0.61815 0.20142,-1.25712 0.84591,-1.42717c0.64449,-0.17007 1.31069,0.19319 1.488,0.81134c0.17731,0.61815 -0.20142,1.25713 -0.8459,1.42718c-0.64449,0.17007 -1.3107,-0.19318 -1.48801,-0.81133z" data-paper-data="{&quot;origPos&quot;:null}" fill="#ffffff"/></g><g data-paper-data="{&quot;origPos&quot;:null}"><path d="M241.05282,183.0247c-0.7447,-2.59623 0.84597,-5.27991 3.55283,-5.99416c2.70687,-0.71426 5.50494,0.81139 6.24963,3.40761c0.7447,2.59623 -0.84597,5.27991 -3.55284,5.99417c-2.70687,0.71426 -5.50493,-0.81139 -6.24962,-3.40761z" data-paper-data="{&quot;origPos&quot;:null}" fill="#eb6c17"/><path d="M243.02866,180.57698c-0.27187,-0.94783 0.30885,-1.92759 1.29707,-2.18835c0.98822,-0.26076 2.00974,0.29622 2.28161,1.24405c0.27187,0.94783 -0.30885,1.92759 -1.29707,2.18835c-0.98822,0.26076 -2.00974,-0.29622 -2.28161,-1.24405z" data-paper-data="{&quot;origPos&quot;:null}" fill="#de4207"/><path d="M245.86063,181.11395c-0.17731,-0.61815 0.20142,-1.25712 0.84591,-1.42717c0.64449,-0.17007 1.31069,0.19319 1.488,0.81134c0.17731,0.61815 -0.20142,1.25713 -0.8459,1.42718c-0.64449,0.17007 -1.3107,-0.19318 -1.48801,-0.81133z" data-paper-data="{&quot;origPos&quot;:null}" fill="#ffffff"/></g><g data-paper-data="{&quot;origPos&quot;:null}"><path d="M270.8315,190.42001c-0.7447,-2.59624 0.84597,-5.27991 3.55283,-5.99416c2.70687,-0.71426 5.50494,0.81138 6.24963,3.40761c0.7447,2.59624 -0.84597,5.27992 -3.55284,5.99418c-2.70687,0.71426 -5.50493,-0.81139 -6.24963,-3.40762z" data-paper-data="{&quot;origPos&quot;:null}" fill="#eb6c17"/><path d="M272.80734,187.9723c-0.27187,-0.94783 0.30885,-1.92759 1.29707,-2.18835c0.98822,-0.26076 2.00974,0.29622 2.28161,1.24405c0.27187,0.94783 -0.30885,1.92759 -1.29707,2.18835c-0.98822,0.26076 -2.00974,-0.29622 -2.28161,-1.24405z" data-paper-data="{&quot;origPos&quot;:null}" fill="#de4207"/><path d="M275.63931,188.50927c-0.17731,-0.61815 0.20142,-1.25713 0.84591,-1.42718c0.64449,-0.17007 1.31069,0.19319 1.488,0.81134c0.17731,0.61815 -0.20142,1.25713 -0.8459,1.42718c-0.64449,0.17007 -1.3107,-0.19318 -1.48801,-0.81133z" data-paper-data="{&quot;origPos&quot;:null}" fill="#ffffff"/></g><g data-paper-data="{&quot;origPos&quot;:null}"><path d="M267.1109,187.09114c-0.7447,-2.59624 0.84597,-5.27991 3.55283,-5.99416c2.70687,-0.71426 5.50494,0.81138 6.24963,3.40761c0.7447,2.59624 -0.84597,5.27992 -3.55284,5.99418c-2.70687,0.71426 -5.50493,-0.81139 -6.24963,-3.40762z" data-paper-data="{&quot;origPos&quot;:null}" fill="#eb6c17"/><path d="M269.08674,184.64342c-0.27187,-0.94783 0.30885,-1.92759 1.29707,-2.18835c0.98822,-0.26076 2.00974,0.29622 2.28161,1.24405c0.27187,0.94783 -0.30885,1.92759 -1.29707,2.18835c-0.98822,0.26076 -2.00974,-0.29622 -2.28161,-1.24405z" data-paper-data="{&quot;origPos&quot;:null}" fill="#de4207"/><path d="M271.91872,185.1804c-0.17731,-0.61815 0.20142,-1.25713 0.84591,-1.42718c0.64449,-0.17007 1.31069,0.19319 1.488,0.81134c0.17731,0.61815 -0.20142,1.25713 -0.8459,1.42718c-0.64449,0.17007 -1.3107,-0.19318 -1.48801,-0.81133z" data-paper-data="{&quot;origPos&quot;:null}" fill="#ffffff"/></g><g data-paper-data="{&quot;origPos&quot;:null}"><path d="M264.30533,174.89958c-0.7447,-2.59624 0.84597,-5.27991 3.55283,-5.99416c2.70687,-0.71426 5.50494,0.81138 6.24963,3.40761c0.7447,2.59624 -0.84597,5.27992 -3.55284,5.99418c-2.70687,0.71426 -5.50493,-0.81139 -6.24963,-3.40762z" data-paper-data="{&quot;origPos&quot;:null}" fill="#eb6c17"/><path d="M266.28119,172.45186c-0.27187,-0.94783 0.30885,-1.92759 1.29707,-2.18835c0.98822,-0.26076 2.00974,0.29622 2.28161,1.24405c0.27187,0.94783 -0.30885,1.92759 -1.29707,2.18835c-0.98822,0.26076 -2.00974,-0.29622 -2.28161,-1.24405z" data-paper-data="{&quot;origPos&quot;:null}" fill="#de4207"/><path d="M269.11315,172.98883c-0.17731,-0.61815 0.20142,-1.25713 0.84591,-1.42718c0.64449,-0.17007 1.31069,0.19319 1.488,0.81134c0.17731,0.61815 -0.20142,1.25713 -0.8459,1.42718c-0.64449,0.17007 -1.3107,-0.19318 -1.48801,-0.81133z" data-paper-data="{&quot;origPos&quot;:null}" fill="#ffffff"/></g><g data-paper-data="{&quot;origPos&quot;:null}"><path d="M242.67373,163.36498c-0.7447,-2.59624 0.84597,-5.27991 3.55283,-5.99416c2.70687,-0.71426 5.50494,0.81138 6.24963,3.40761c0.7447,2.59624 -0.84597,5.27992 -3.55284,5.99418c-2.70687,0.71426 -5.50493,-0.81139 -6.24963,-3.40762z" data-paper-data="{&quot;origPos&quot;:null}" fill="#eb6c17"/><path d="M244.64957,160.91726c-0.27187,-0.94783 0.30885,-1.92759 1.29707,-2.18835c0.98822,-0.26076 2.00974,0.29622 2.28161,1.24405c0.27187,0.94783 -0.30885,1.92759 -1.29707,2.18835c-0.98822,0.26076 -2.00974,-0.29622 -2.28161,-1.24405z" data-paper-data="{&quot;origPos&quot;:null}" fill="#de4207"/><path d="M247.48154,161.45424c-0.17731,-0.61815 0.20142,-1.25713 0.84591,-1.42718c0.64449,-0.17007 1.31069,0.19319 1.488,0.81134c0.17731,0.61815 -0.20142,1.25713 -0.8459,1.42718c-0.64449,0.17007 -1.3107,-0.19318 -1.48801,-0.81133z" data-paper-data="{&quot;origPos&quot;:null}" fill="#ffffff"/></g><g data-paper-data="{&quot;origPos&quot;:null}"><path d="M237.28453,184.35061c-0.7447,-2.59624 0.84597,-5.27991 3.55283,-5.99416c2.70687,-0.71426 5.50494,0.81138 6.24963,3.40761c0.7447,2.59624 -0.84597,5.27992 -3.55284,5.99418c-2.70687,0.71426 -5.50493,-0.81139 -6.24963,-3.40762z" data-paper-data="{&quot;origPos&quot;:null}" fill="#eb6c17"/><path d="M239.26037,181.9029c-0.27187,-0.94783 0.30885,-1.92759 1.29707,-2.18835c0.98822,-0.26076 2.00974,0.29622 2.28161,1.24405c0.27187,0.94783 -0.30885,1.92759 -1.29707,2.18835c-0.98822,0.26076 -2.00974,-0.29622 -2.28161,-1.24405z" data-paper-data="{&quot;origPos&quot;:null}" fill="#de4207"/><path d="M242.09234,182.43987c-0.17731,-0.61815 0.20142,-1.25713 0.84591,-1.42718c0.64449,-0.17007 1.31069,0.19319 1.488,0.81134c0.17731,0.61815 -0.20142,1.25713 -0.8459,1.42718c-0.64449,0.17007 -1.3107,-0.19318 -1.48801,-0.81133z" data-paper-data="{&quot;origPos&quot;:null}" fill="#ffffff"/></g><g data-paper-data="{&quot;origPos&quot;:null}"><path d="M231.00966,188.99062c-0.7447,-2.59624 0.84597,-5.27991 3.55283,-5.99416c2.70687,-0.71426 5.50494,0.81138 6.24963,3.40761c0.7447,2.59624 -0.84597,5.27992 -3.55284,5.99418c-2.70687,0.71426 -5.50493,-0.81139 -6.24963,-3.40762z" data-paper-data="{&quot;origPos&quot;:null}" fill="#eb6c17"/><path d="M232.98551,186.54291c-0.27187,-0.94783 0.30885,-1.92759 1.29707,-2.18835c0.98822,-0.26076 2.00974,0.29622 2.28161,1.24405c0.27187,0.94783 -0.30885,1.92759 -1.29707,2.18835c-0.98822,0.26076 -2.00974,-0.29622 -2.28161,-1.24405z" data-paper-data="{&quot;origPos&quot;:null}" fill="#de4207"/><path d="M235.81747,187.07988c-0.17731,-0.61815 0.20142,-1.25713 0.84591,-1.42718c0.64449,-0.17007 1.31069,0.19319 1.488,0.81134c0.17731,0.61815 -0.20142,1.25713 -0.8459,1.42718c-0.64449,0.17007 -1.3107,-0.19318 -1.48801,-0.81133z" data-paper-data="{&quot;origPos&quot;:null}" fill="#ffffff"/></g><g data-paper-data="{&quot;origPos&quot;:null}"><path d="M197.38823,163.37726c-0.7447,-2.59624 0.84597,-5.27991 3.55283,-5.99416c2.70687,-0.71426 5.50494,0.81138 6.24963,3.40761c0.7447,2.59624 -0.84597,5.27992 -3.55284,5.99418c-2.70687,0.71426 -5.50493,-0.81139 -6.24963,-3.40762z" data-paper-data="{&quot;origPos&quot;:null}" fill="#eb6c17"/><path d="M199.36407,160.92955c-0.27187,-0.94783 0.30885,-1.92759 1.29707,-2.18835c0.98822,-0.26076 2.00974,0.29622 2.28161,1.24405c0.27187,0.94783 -0.30885,1.92759 -1.29707,2.18835c-0.98822,0.26076 -2.00974,-0.29622 -2.28161,-1.24405z" data-paper-data="{&quot;origPos&quot;:null}" fill="#de4207"/><path d="M202.19602,161.46652c-0.17731,-0.61815 0.20142,-1.25713 0.84591,-1.42718c0.64449,-0.17007 1.31069,0.19319 1.488,0.81134c0.17731,0.61815 -0.20142,1.25713 -0.8459,1.42718c-0.64449,0.17007 -1.3107,-0.19318 -1.48801,-0.81133z" data-paper-data="{&quot;origPos&quot;:null}" fill="#ffffff"/></g><g data-paper-data="{&quot;origPos&quot;:null}"><path d="M239.96095,191.27088c-0.7447,-2.59624 0.84597,-5.27991 3.55283,-5.99416c2.70687,-0.71426 5.50494,0.81138 6.24963,3.40761c0.7447,2.59624 -0.84597,5.27992 -3.55284,5.99418c-2.70687,0.71426 -5.50493,-0.81139 -6.24963,-3.40762z" data-paper-data="{&quot;origPos&quot;:null}" fill="#eb6c17"/><path d="M241.9368,188.82315c-0.27187,-0.94783 0.30885,-1.92759 1.29707,-2.18835c0.98822,-0.26076 2.00974,0.29622 2.28161,1.24405c0.27187,0.94783 -0.30885,1.92759 -1.29707,2.18835c-0.98822,0.26076 -2.00974,-0.29622 -2.28161,-1.24405z" data-paper-data="{&quot;origPos&quot;:null}" fill="#de4207"/><path d="M244.76876,189.36013c-0.17731,-0.61815 0.20142,-1.25713 0.84591,-1.42718c0.64449,-0.17007 1.31069,0.19319 1.488,0.81134c0.17731,0.61815 -0.20142,1.25713 -0.8459,1.42718c-0.64449,0.17007 -1.3107,-0.19318 -1.48801,-0.81133z" data-paper-data="{&quot;origPos&quot;:null}" fill="#ffffff"/></g><g data-paper-data="{&quot;origPos&quot;:null}"><path d="M249.12688,172.60455c-0.7447,-2.59624 0.84597,-5.27991 3.55283,-5.99416c2.70687,-0.71426 5.50494,0.81138 6.24963,3.40761c0.7447,2.59624 -0.84597,5.27992 -3.55284,5.99418c-2.70687,0.71426 -5.50493,-0.81139 -6.24963,-3.40762z" data-paper-data="{&quot;origPos&quot;:null}" fill="#eb6c17"/><path d="M251.10273,170.15683c-0.27187,-0.94783 0.30885,-1.92759 1.29707,-2.18835c0.98822,-0.26076 2.00974,0.29622 2.28161,1.24405c0.27187,0.94783 -0.30885,1.92759 -1.29707,2.18835c-0.98822,0.26076 -2.00974,-0.29622 -2.28161,-1.24405z" data-paper-data="{&quot;origPos&quot;:null}" fill="#de4207"/><path d="M253.93469,170.6938c-0.17731,-0.61815 0.20142,-1.25713 0.84591,-1.42718c0.64449,-0.17007 1.31069,0.19319 1.488,0.81134c0.17731,0.61815 -0.20142,1.25713 -0.8459,1.42718c-0.64449,0.17007 -1.3107,-0.19318 -1.48801,-0.81133z" data-paper-data="{&quot;origPos&quot;:null}" fill="#ffffff"/></g><g data-paper-data="{&quot;origPos&quot;:null}"><path d="M249.90579,168.0884c-0.7447,-2.59624 0.84597,-5.27991 3.55283,-5.99416c2.70687,-0.71426 5.50494,0.81138 6.24963,3.40761c0.7447,2.59624 -0.84597,5.27992 -3.55284,5.99418c-2.70687,0.71426 -5.50493,-0.81139 -6.24963,-3.40762z" data-paper-data="{&quot;origPos&quot;:null}" fill="#eb6c17"/><path d="M251.88164,165.64069c-0.27187,-0.94783 0.30885,-1.92759 1.29707,-2.18835c0.98822,-0.26076 2.00974,0.29622 2.28161,1.24405c0.27187,0.94783 -0.30885,1.92759 -1.29707,2.18835c-0.98822,0.26076 -2.00974,-0.29622 -2.28161,-1.24405z" data-paper-data="{&quot;origPos&quot;:null}" fill="#de4207"/><path d="M254.7136,166.17766c-0.17731,-0.61815 0.20142,-1.25713 0.84591,-1.42718c0.64449,-0.17007 1.31069,0.19319 1.488,0.81134c0.17731,0.61815 -0.20142,1.25713 -0.8459,1.42718c-0.64449,0.17007 -1.3107,-0.19318 -1.48801,-0.81133z" data-paper-data="{&quot;origPos&quot;:null}" fill="#ffffff"/></g><g data-paper-data="{&quot;origPos&quot;:null}"><path d="M249.81884,181.0432c-0.7447,-2.59624 0.84597,-5.27991 3.55283,-5.99416c2.70687,-0.71426 5.50494,0.81138 6.24963,3.40761c0.7447,2.59624 -0.84597,5.27992 -3.55284,5.99418c-2.70687,0.71426 -5.50493,-0.81139 -6.24963,-3.40762z" data-paper-data="{&quot;origPos&quot;:null}" fill="#eb6c17"/><path d="M251.79468,178.59549c-0.27187,-0.94783 0.30885,-1.92759 1.29707,-2.18835c0.98822,-0.26076 2.00974,0.29622 2.28161,1.24405c0.27187,0.94783 -0.30885,1.92759 -1.29707,2.18835c-0.98822,0.26076 -2.00974,-0.29622 -2.28161,-1.24405z" data-paper-data="{&quot;origPos&quot;:null}" fill="#de4207"/><path d="M254.62664,179.13247c-0.17731,-0.61815 0.20142,-1.25713 0.84591,-1.42718c0.64449,-0.17007 1.31069,0.19319 1.488,0.81134c0.17731,0.61815 -0.20142,1.25713 -0.8459,1.42718c-0.64449,0.17007 -1.3107,-0.19318 -1.48801,-0.81133z" data-paper-data="{&quot;origPos&quot;:null}" fill="#ffffff"/></g><g data-paper-data="{&quot;origPos&quot;:null}"><path d="M256.89644,169.55965c-0.7447,-2.59624 0.84597,-5.27991 3.55283,-5.99416c2.70687,-0.71426 5.50494,0.81138 6.24963,3.40761c0.7447,2.59624 -0.84597,5.27992 -3.55284,5.99418c-2.70687,0.71426 -5.50493,-0.81139 -6.24963,-3.40762z" data-paper-data="{&quot;origPos&quot;:null}" fill="#eb6c17"/><path d="M258.87229,167.11194c-0.27187,-0.94783 0.30885,-1.92759 1.29707,-2.18835c0.98822,-0.26076 2.00974,0.29622 2.28161,1.24405c0.27187,0.94783 -0.30885,1.92759 -1.29707,2.18835c-0.98822,0.26076 -2.00974,-0.29622 -2.28161,-1.24405z" data-paper-data="{&quot;origPos&quot;:null}" fill="#de4207"/><path d="M261.70426,167.6489c-0.17731,-0.61815 0.20142,-1.25712 0.84591,-1.42717c0.64449,-0.17007 1.31069,0.19319 1.488,0.81134c0.17731,0.61815 -0.20142,1.25713 -0.8459,1.42718c-0.64449,0.17007 -1.3107,-0.19318 -1.48801,-0.81133z" data-paper-data="{&quot;origPos&quot;:null}" fill="#ffffff"/></g><g data-paper-data="{&quot;origPos&quot;:null}"><path d="M247.2,186.37645c-0.7447,-2.59623 0.84597,-5.27991 3.55283,-5.99416c2.70687,-0.71426 5.50494,0.81139 6.24963,3.40761c0.7447,2.59623 -0.84597,5.27991 -3.55284,5.99417c-2.70687,0.71426 -5.50493,-0.81139 -6.24962,-3.40761z" data-paper-data="{&quot;origPos&quot;:null}" fill="#eb6c17"/><path d="M249.17584,183.92873c-0.27187,-0.94783 0.30885,-1.92759 1.29707,-2.18835c0.98822,-0.26076 2.00974,0.29622 2.28161,1.24405c0.27187,0.94783 -0.30885,1.92759 -1.29707,2.18835c-0.98822,0.26076 -2.00974,-0.29622 -2.28161,-1.24405z" data-paper-data="{&quot;origPos&quot;:null}" fill="#de4207"/><path d="M252.00781,184.46571c-0.17731,-0.61815 0.20142,-1.25712 0.84591,-1.42717c0.64449,-0.17007 1.31069,0.19319 1.488,0.81134c0.17731,0.61815 -0.20142,1.25713 -0.8459,1.42718c-0.64449,0.17007 -1.3107,-0.19318 -1.48801,-0.81133z" data-paper-data="{&quot;origPos&quot;:null}" fill="#ffffff"/></g><g data-paper-data="{&quot;origPos&quot;:null}"><path d="M222.10461,168.7925c-0.7447,-2.59624 0.84597,-5.27991 3.55283,-5.99416c2.70687,-0.71426 5.50494,0.81138 6.24963,3.40761c0.7447,2.59624 -0.84597,5.27992 -3.55284,5.99418c-2.70687,0.71426 -5.50493,-0.81139 -6.24963,-3.40762z" data-paper-data="{&quot;origPos&quot;:null}" fill="#eb6c17"/><path d="M224.08045,166.34479c-0.27187,-0.94783 0.30885,-1.92759 1.29707,-2.18835c0.98822,-0.26076 2.00974,0.29622 2.28161,1.24405c0.27187,0.94783 -0.30885,1.92759 -1.29707,2.18835c-0.98822,0.26076 -2.00974,-0.29622 -2.28161,-1.24405z" data-paper-data="{&quot;origPos&quot;:null}" fill="#de4207"/><path d="M226.91242,166.88176c-0.17731,-0.61815 0.20142,-1.25713 0.84591,-1.42718c0.64449,-0.17007 1.31069,0.19319 1.488,0.81134c0.17731,0.61815 -0.20142,1.25713 -0.8459,1.42718c-0.64449,0.17007 -1.3107,-0.19318 -1.48801,-0.81133z" data-paper-data="{&quot;origPos&quot;:null}" fill="#ffffff"/></g><g data-paper-data="{&quot;origPos&quot;:null}"><path d="M248.82238,179.9798c-0.7447,-2.59624 0.84597,-5.27991 3.55283,-5.99416c2.70687,-0.71426 5.50494,0.81138 6.24963,3.40761c0.7447,2.59624 -0.84597,5.27992 -3.55284,5.99418c-2.70687,0.71426 -5.50493,-0.81139 -6.24963,-3.40762z" data-paper-data="{&quot;origPos&quot;:null}" fill="#eb6c17"/><path d="M250.79822,177.53208c-0.27187,-0.94783 0.30885,-1.92759 1.29707,-2.18835c0.98822,-0.26076 2.00974,0.29622 2.28161,1.24405c0.27187,0.94783 -0.30885,1.92759 -1.29707,2.18835c-0.98822,0.26076 -2.00974,-0.29622 -2.28161,-1.24405z" data-paper-data="{&quot;origPos&quot;:null}" fill="#de4207"/><path d="M253.63017,178.06906c-0.17731,-0.61815 0.20142,-1.25713 0.84591,-1.42718c0.64449,-0.17007 1.31069,0.19319 1.488,0.81134c0.17731,0.61815 -0.20142,1.25713 -0.8459,1.42718c-0.64449,0.17007 -1.3107,-0.19318 -1.48801,-0.81133z" data-paper-data="{&quot;origPos&quot;:null}" fill="#ffffff"/></g><g data-paper-data="{&quot;origPos&quot;:null}"><path d="M243.43171,187.70236c-0.7447,-2.59624 0.84597,-5.27991 3.55283,-5.99416c2.70687,-0.71426 5.50494,0.81138 6.24963,3.40761c0.7447,2.59624 -0.84597,5.27992 -3.55284,5.99418c-2.70687,0.71426 -5.50493,-0.81139 -6.24963,-3.40762z" data-paper-data="{&quot;origPos&quot;:null}" fill="#eb6c17"/><path d="M245.40755,185.25465c-0.27187,-0.94783 0.30885,-1.92759 1.29707,-2.18835c0.98822,-0.26076 2.00974,0.29622 2.28161,1.24405c0.27187,0.94783 -0.30885,1.92759 -1.29707,2.18835c-0.98822,0.26076 -2.00974,-0.29622 -2.28161,-1.24405z" data-paper-data="{&quot;origPos&quot;:null}" fill="#de4207"/><path d="M248.23951,185.79161c-0.17731,-0.61815 0.20142,-1.25713 0.84591,-1.42718c0.64449,-0.17007 1.31069,0.19319 1.488,0.81134c0.17731,0.61815 -0.20142,1.25713 -0.8459,1.42718c-0.64449,0.17007 -1.3107,-0.19318 -1.48801,-0.81133z" data-paper-data="{&quot;origPos&quot;:null}" fill="#ffffff"/></g><g data-paper-data="{&quot;origPos&quot;:null}"><path d="M263.96999,194.22006c-0.7447,-2.59624 0.84597,-5.27991 3.55283,-5.99416c2.70687,-0.71426 5.50494,0.81138 6.24963,3.40761c0.7447,2.59624 -0.84597,5.27992 -3.55284,5.99418c-2.70687,0.71426 -5.50493,-0.81139 -6.24963,-3.40762z" data-paper-data="{&quot;origPos&quot;:null}" fill="#eb6c17"/><path d="M265.94584,191.77235c-0.27187,-0.94783 0.30885,-1.92759 1.29707,-2.18835c0.98822,-0.26076 2.00974,0.29622 2.28161,1.24405c0.27187,0.94783 -0.30885,1.92759 -1.29707,2.18835c-0.98822,0.26076 -2.00974,-0.29622 -2.28161,-1.24405z" data-paper-data="{&quot;origPos&quot;:null}" fill="#de4207"/><path d="M268.7778,192.30932c-0.17731,-0.61815 0.20142,-1.25713 0.84591,-1.42718c0.64449,-0.17007 1.31069,0.19319 1.488,0.81134c0.17731,0.61815 -0.20142,1.25713 -0.8459,1.42718c-0.64449,0.17007 -1.3107,-0.19318 -1.48801,-0.81133z" data-paper-data="{&quot;origPos&quot;:null}" fill="#ffffff"/></g><g data-paper-data="{&quot;origPos&quot;:null}"><path d="M265.2288,169.68212c-0.7447,-2.59624 0.84597,-5.27991 3.55283,-5.99416c2.70687,-0.71426 5.50494,0.81138 6.24963,3.40761c0.7447,2.59624 -0.84597,5.27992 -3.55284,5.99418c-2.70687,0.71426 -5.50493,-0.81139 -6.24963,-3.40762z" data-paper-data="{&quot;origPos&quot;:null}" fill="#eb6c17"/><path d="M267.20464,167.2344c-0.27187,-0.94783 0.30885,-1.92759 1.29707,-2.18835c0.98822,-0.26076 2.00974,0.29622 2.28161,1.24405c0.27187,0.94783 -0.30885,1.92759 -1.29707,2.18835c-0.98822,0.26076 -2.00974,-0.29622 -2.28161,-1.24405z" data-paper-data="{&quot;origPos&quot;:null}" fill="#de4207"/><path d="M270.0366,167.77137c-0.17731,-0.61815 0.20142,-1.25713 0.84591,-1.42718c0.64449,-0.17007 1.31069,0.19319 1.488,0.81134c0.17731,0.61815 -0.20142,1.25713 -0.8459,1.42718c-0.64449,0.17007 -1.3107,-0.19318 -1.48801,-0.81133z" data-paper-data="{&quot;origPos&quot;:null}" fill="#ffffff"/></g><g data-paper-data="{&quot;origPos&quot;:null}"><path d="M246.10813,194.62263c-0.7447,-2.59624 0.84597,-5.27991 3.55283,-5.99416c2.70687,-0.71426 5.50494,0.81138 6.24963,3.40761c0.7447,2.59624 -0.84597,5.27992 -3.55284,5.99418c-2.70687,0.71426 -5.50493,-0.81139 -6.24963,-3.40762z" data-paper-data="{&quot;origPos&quot;:null}" fill="#eb6c17"/><path d="M248.08398,192.1749c-0.27187,-0.94783 0.30885,-1.92759 1.29707,-2.18835c0.98822,-0.26076 2.00974,0.29622 2.28161,1.24405c0.27187,0.94783 -0.30885,1.92759 -1.29707,2.18835c-0.98822,0.26076 -2.00974,-0.29622 -2.28161,-1.24405z" data-paper-data="{&quot;origPos&quot;:null}" fill="#de4207"/><path d="M250.91594,192.71188c-0.17731,-0.61815 0.20142,-1.25713 0.84591,-1.42718c0.64449,-0.17007 1.31069,0.19319 1.488,0.81134c0.17731,0.61815 -0.20142,1.25713 -0.8459,1.42718c-0.64449,0.17007 -1.3107,-0.19318 -1.48801,-0.81133z" data-paper-data="{&quot;origPos&quot;:null}" fill="#ffffff"/></g><g data-paper-data="{&quot;origPos&quot;:null}"><path d="M269.46449,180.83313c-0.7447,-2.59624 0.84597,-5.27991 3.55283,-5.99416c2.70687,-0.71426 5.50494,0.81138 6.24963,3.40761c0.7447,2.59624 -0.84597,5.27992 -3.55284,5.99418c-2.70687,0.71426 -5.50493,-0.81139 -6.24963,-3.40762z" data-paper-data="{&quot;origPos&quot;:null}" fill="#eb6c17"/><path d="M271.44033,178.38543c-0.27187,-0.94783 0.30885,-1.92759 1.29707,-2.18835c0.98822,-0.26076 2.00974,0.29622 2.28161,1.24405c0.27187,0.94783 -0.30885,1.92759 -1.29707,2.18835c-0.98822,0.26076 -2.00974,-0.29622 -2.28161,-1.24405z" data-paper-data="{&quot;origPos&quot;:null}" fill="#de4207"/><path d="M274.27229,178.92239c-0.17731,-0.61815 0.20142,-1.25713 0.84591,-1.42718c0.64449,-0.17007 1.31069,0.19319 1.488,0.81134c0.17731,0.61815 -0.20142,1.25713 -0.8459,1.42718c-0.64449,0.17007 -1.3107,-0.19318 -1.48801,-0.81133z" data-paper-data="{&quot;origPos&quot;:null}" fill="#ffffff"/></g><g data-paper-data="{&quot;origPos&quot;:null}"><path d="M277.00951,181.82653c-0.7447,-2.59624 0.84597,-5.27991 3.55283,-5.99416c2.70687,-0.71426 5.50494,0.81138 6.24963,3.40761c0.7447,2.59624 -0.84597,5.27992 -3.55284,5.99418c-2.70687,0.71426 -5.50493,-0.81139 -6.24963,-3.40762z" data-paper-data="{&quot;origPos&quot;:null}" fill="#eb6c17"/><path d="M278.98535,179.37882c-0.27187,-0.94783 0.30885,-1.92759 1.29707,-2.18835c0.98822,-0.26076 2.00974,0.29622 2.28161,1.24405c0.27187,0.94783 -0.30885,1.92759 -1.29707,2.18835c-0.98822,0.26076 -2.00974,-0.29622 -2.28161,-1.24405z" data-paper-data="{&quot;origPos&quot;:null}" fill="#de4207"/><path d="M281.81731,179.9158c-0.17731,-0.61815 0.20142,-1.25713 0.84591,-1.42718c0.64449,-0.17007 1.31069,0.19319 1.488,0.81134c0.17731,0.61815 -0.20142,1.25713 -0.8459,1.42718c-0.64449,0.17007 -1.3107,-0.19318 -1.48801,-0.81133z" data-paper-data="{&quot;origPos&quot;:null}" fill="#ffffff"/></g><g data-paper-data="{&quot;origPos&quot;:null}"><path d="M260.85147,185.75854c-0.7447,-2.59624 0.84597,-5.27991 3.55283,-5.99416c2.70687,-0.71426 5.50494,0.81138 6.24963,3.40761c0.7447,2.59624 -0.84597,5.27991 -3.55284,5.99417c-2.70687,0.71426 -5.50493,-0.81139 -6.24962,-3.40761z" data-paper-data="{&quot;origPos&quot;:null}" fill="#eb6c17"/><path d="M262.82731,183.31082c-0.27187,-0.94783 0.30885,-1.92759 1.29707,-2.18835c0.98822,-0.26076 2.00974,0.29622 2.28161,1.24405c0.27187,0.94783 -0.30885,1.92759 -1.29707,2.18835c-0.98822,0.26076 -2.00974,-0.29622 -2.28161,-1.24405z" data-paper-data="{&quot;origPos&quot;:null}" fill="#de4207"/><path d="M265.65927,183.8478c-0.17731,-0.61815 0.20142,-1.25713 0.84591,-1.42718c0.64449,-0.17007 1.31069,0.19319 1.488,0.81134c0.17731,0.61815 -0.20142,1.25713 -0.8459,1.42718c-0.64449,0.17007 -1.3107,-0.19318 -1.48801,-0.81133z" data-paper-data="{&quot;origPos&quot;:null}" fill="#ffffff"/></g><g data-paper-data="{&quot;origPos&quot;:null}"><path d="M271.9065,174.88339c-0.7447,-2.59624 0.84597,-5.27991 3.55283,-5.99416c2.70687,-0.71426 5.50494,0.81138 6.24963,3.40761c0.7447,2.59624 -0.84597,5.27992 -3.55284,5.99418c-2.70687,0.71426 -5.50493,-0.81139 -6.24963,-3.40762z" data-paper-data="{&quot;origPos&quot;:null}" fill="#eb6c17"/><path d="M273.88234,172.43568c-0.27187,-0.94783 0.30885,-1.92759 1.29707,-2.18835c0.98822,-0.26076 2.00974,0.29622 2.28161,1.24405c0.27187,0.94783 -0.30885,1.92759 -1.29707,2.18835c-0.98822,0.26076 -2.00974,-0.29622 -2.28161,-1.24405z" data-paper-data="{&quot;origPos&quot;:null}" fill="#de4207"/><path d="M276.7143,172.97265c-0.17731,-0.61815 0.20142,-1.25712 0.84591,-1.42717c0.64449,-0.17007 1.31069,0.19319 1.488,0.81134c0.17731,0.61815 -0.20142,1.25713 -0.8459,1.42718c-0.64449,0.17007 -1.3107,-0.19318 -1.48801,-0.81133z" data-paper-data="{&quot;origPos&quot;:null}" fill="#ffffff"/></g><g data-paper-data="{&quot;origPos&quot;:null}"><path d="M253.34717,189.7282c-0.7447,-2.59623 0.84597,-5.27991 3.55283,-5.99416c2.70687,-0.71426 5.50494,0.81139 6.24963,3.40761c0.7447,2.59623 -0.84597,5.27991 -3.55284,5.99417c-2.70687,0.71426 -5.50493,-0.81139 -6.24962,-3.40761z" data-paper-data="{&quot;origPos&quot;:null}" fill="#eb6c17"/><path d="M255.32301,187.28048c-0.27187,-0.94783 0.30885,-1.92759 1.29707,-2.18835c0.98822,-0.26076 2.00974,0.29622 2.28161,1.24405c0.27187,0.94783 -0.30885,1.92759 -1.29707,2.18835c-0.98822,0.26076 -2.00974,-0.29622 -2.28161,-1.24405z" data-paper-data="{&quot;origPos&quot;:null}" fill="#de4207"/><path d="M258.15499,187.81746c-0.17731,-0.61815 0.20142,-1.25712 0.84591,-1.42717c0.64449,-0.17007 1.31069,0.19319 1.488,0.81134c0.17731,0.61815 -0.20142,1.25713 -0.8459,1.42718c-0.64449,0.17007 -1.3107,-0.19318 -1.48801,-0.81133z" data-paper-data="{&quot;origPos&quot;:null}" fill="#ffffff"/></g><g data-paper-data="{&quot;origPos&quot;:null}"><path d="M218.86829,185.23102c-0.7447,-2.59624 0.84597,-5.27991 3.55283,-5.99416c2.70687,-0.71426 5.50494,0.81138 6.24963,3.40761c0.7447,2.59624 -0.84597,5.27992 -3.55284,5.99418c-2.70687,0.71426 -5.50493,-0.81139 -6.24963,-3.40762z" data-paper-data="{&quot;origPos&quot;:null}" fill="#eb6c17"/><path d="M220.84413,182.7833c-0.27187,-0.94783 0.30885,-1.92759 1.29707,-2.18835c0.98822,-0.26076 2.00974,0.29622 2.28161,1.24405c0.27187,0.94783 -0.30885,1.92759 -1.29707,2.18835c-0.98822,0.26076 -2.00974,-0.29622 -2.28161,-1.24405z" data-paper-data="{&quot;origPos&quot;:null}" fill="#de4207"/><path d="M223.6761,183.32027c-0.17731,-0.61815 0.20142,-1.25713 0.84591,-1.42718c0.64449,-0.17007 1.31069,0.19319 1.488,0.81134c0.17731,0.61815 -0.20142,1.25713 -0.8459,1.42718c-0.64449,0.17007 -1.3107,-0.19318 -1.48801,-0.81133z" data-paper-data="{&quot;origPos&quot;:null}" fill="#ffffff"/></g><g data-paper-data="{&quot;origPos&quot;:null}"><path d="M205.81046,177.07105c-0.7447,-2.59624 0.84597,-5.27991 3.55283,-5.99416c2.70687,-0.71426 5.50494,0.81138 6.24963,3.40761c0.7447,2.59624 -0.84597,5.27992 -3.55284,5.99418c-2.70687,0.71426 -5.50493,-0.81139 -6.24963,-3.40762z" data-paper-data="{&quot;origPos&quot;:null}" fill="#eb6c17"/><path d="M207.7863,174.62334c-0.27187,-0.94783 0.30885,-1.92759 1.29707,-2.18835c0.98822,-0.26076 2.00974,0.29622 2.28161,1.24405c0.27187,0.94783 -0.30885,1.92759 -1.29707,2.18835c-0.98822,0.26076 -2.00974,-0.29622 -2.28161,-1.24405z" data-paper-data="{&quot;origPos&quot;:null}" fill="#de4207"/><path d="M210.61826,175.16031c-0.17731,-0.61815 0.20142,-1.25713 0.84591,-1.42718c0.64449,-0.17007 1.31069,0.19319 1.488,0.81134c0.17731,0.61815 -0.20142,1.25713 -0.8459,1.42718c-0.64449,0.17007 -1.3107,-0.19318 -1.48801,-0.81133z" data-paper-data="{&quot;origPos&quot;:null}" fill="#ffffff"/></g><g data-paper-data="{&quot;origPos&quot;:null}"><path d="M235.57081,163.91286c-0.7447,-2.59624 0.84597,-5.27991 3.55283,-5.99416c2.70687,-0.71426 5.50494,0.81138 6.24963,3.40761c0.7447,2.59624 -0.84597,5.27992 -3.55284,5.99418c-2.70687,0.71426 -5.50493,-0.81139 -6.24963,-3.40762z" data-paper-data="{&quot;origPos&quot;:null}" fill="#eb6c17"/><path d="M237.54665,161.46515c-0.27187,-0.94783 0.30885,-1.92759 1.29707,-2.18835c0.98822,-0.26076 2.00974,0.29622 2.28161,1.24405c0.27187,0.94783 -0.30885,1.92759 -1.29707,2.18835c-0.98822,0.26076 -2.00974,-0.29622 -2.28161,-1.24405z" data-paper-data="{&quot;origPos&quot;:null}" fill="#de4207"/><path d="M240.37862,162.00212c-0.17731,-0.61815 0.20142,-1.25713 0.84591,-1.42718c0.64449,-0.17007 1.31069,0.19319 1.488,0.81134c0.17731,0.61815 -0.20142,1.25713 -0.8459,1.42718c-0.64449,0.17007 -1.3107,-0.19318 -1.48801,-0.81133z" data-paper-data="{&quot;origPos&quot;:null}" fill="#ffffff"/></g><g data-paper-data="{&quot;origPos&quot;:null}"><path d="M221.97693,176.78427c-0.7447,-2.59624 0.84597,-5.27991 3.55283,-5.99416c2.70687,-0.71426 5.50494,0.81138 6.24963,3.40761c0.7447,2.59624 -0.84597,5.27992 -3.55284,5.99418c-2.70687,0.71426 -5.50493,-0.81139 -6.24963,-3.40762z" data-paper-data="{&quot;origPos&quot;:null}" fill="#eb6c17"/><path d="M223.95278,174.33655c-0.27187,-0.94783 0.30885,-1.92759 1.29707,-2.18835c0.98822,-0.26076 2.00974,0.29622 2.28161,1.24405c0.27187,0.94783 -0.30885,1.92759 -1.29707,2.18835c-0.98822,0.26076 -2.00974,-0.29622 -2.28161,-1.24405z" data-paper-data="{&quot;origPos&quot;:null}" fill="#de4207"/><path d="M226.78473,174.87353c-0.17731,-0.61815 0.20142,-1.25713 0.84591,-1.42718c0.64449,-0.17007 1.31069,0.19319 1.488,0.81134c0.17731,0.61815 -0.20142,1.25713 -0.8459,1.42718c-0.64449,0.17007 -1.3107,-0.19318 -1.48801,-0.81133z" data-paper-data="{&quot;origPos&quot;:null}" fill="#ffffff"/></g><g data-paper-data="{&quot;origPos&quot;:null}"><path d="M228.12411,180.13602c-0.7447,-2.59624 0.84597,-5.27991 3.55283,-5.99416c2.70687,-0.71426 5.50494,0.81138 6.24963,3.40761c0.7447,2.59624 -0.84597,5.27992 -3.55284,5.99418c-2.70687,0.71426 -5.50493,-0.81139 -6.24963,-3.40762z" data-paper-data="{&quot;origPos&quot;:null}" fill="#eb6c17"/><path d="M230.09995,177.68831c-0.27187,-0.94783 0.30885,-1.92759 1.29707,-2.18835c0.98822,-0.26076 2.00974,0.29622 2.28161,1.24405c0.27187,0.94783 -0.30885,1.92759 -1.29707,2.18835c-0.98822,0.26076 -2.00974,-0.29622 -2.28161,-1.24405z" data-paper-data="{&quot;origPos&quot;:null}" fill="#de4207"/><path d="M232.93191,178.22528c-0.17731,-0.61815 0.20142,-1.25713 0.84591,-1.42718c0.64449,-0.17007 1.31069,0.19319 1.488,0.81134c0.17731,0.61815 -0.20142,1.25713 -0.8459,1.42718c-0.64449,0.17007 -1.3107,-0.19318 -1.48801,-0.81133z" data-paper-data="{&quot;origPos&quot;:null}" fill="#ffffff"/></g><g data-paper-data="{&quot;origPos&quot;:null}"><path d="M202.74108,177.21779c-0.7447,-2.59624 0.84597,-5.27991 3.55283,-5.99416c2.70687,-0.71426 5.50494,0.81138 6.24963,3.40761c0.7447,2.59624 -0.84597,5.27992 -3.55284,5.99418c-2.70687,0.71426 -5.50493,-0.81139 -6.24963,-3.40762z" data-paper-data="{&quot;origPos&quot;:null}" fill="#eb6c17"/><path d="M204.71692,174.77007c-0.27187,-0.94783 0.30885,-1.92759 1.29707,-2.18835c0.98822,-0.26076 2.00974,0.29622 2.28161,1.24405c0.27187,0.94783 -0.30885,1.92759 -1.29707,2.18835c-0.98822,0.26076 -2.00974,-0.29622 -2.28161,-1.24405z" data-paper-data="{&quot;origPos&quot;:null}" fill="#de4207"/><path d="M207.54889,175.30704c-0.17731,-0.61815 0.20142,-1.25713 0.84591,-1.42718c0.64449,-0.17007 1.31069,0.19319 1.488,0.81134c0.17731,0.61815 -0.20142,1.25713 -0.8459,1.42718c-0.64449,0.17007 -1.3107,-0.19318 -1.48801,-0.81133z" data-paper-data="{&quot;origPos&quot;:null}" fill="#ffffff"/></g><g data-paper-data="{&quot;origPos&quot;:null}"><path d="M274.67978,185.75713c-0.7447,-2.59624 0.84597,-5.27991 3.55283,-5.99416c2.70687,-0.71426 5.50494,0.81138 6.24963,3.40761c0.7447,2.59624 -0.84597,5.27992 -3.55284,5.99418c-2.70687,0.71426 -5.50493,-0.81139 -6.24963,-3.40762z" data-paper-data="{&quot;origPos&quot;:null}" fill="#eb6c17"/><path d="M276.65562,183.30943c-0.27187,-0.94783 0.30885,-1.92759 1.29707,-2.18835c0.98822,-0.26076 2.00974,0.29622 2.28161,1.24405c0.27187,0.94783 -0.30885,1.92759 -1.29707,2.18835c-0.98822,0.26076 -2.00974,-0.29622 -2.28161,-1.24405z" data-paper-data="{&quot;origPos&quot;:null}" fill="#de4207"/><path d="M279.48759,183.8464c-0.17731,-0.61815 0.20142,-1.25713 0.84591,-1.42718c0.64449,-0.17007 1.31069,0.19319 1.488,0.81134c0.17731,0.61815 -0.20142,1.25713 -0.8459,1.42718c-0.64449,0.17007 -1.3107,-0.19318 -1.48801,-0.81133z" data-paper-data="{&quot;origPos&quot;:null}" fill="#ffffff"/></g><g data-paper-data="{&quot;origPos&quot;:null}"><path d="M233.96676,190.86302c-0.7447,-2.59624 0.84597,-5.27991 3.55283,-5.99416c2.70687,-0.71426 5.50494,0.81138 6.24963,3.40761c0.7447,2.59624 -0.84597,5.27992 -3.55284,5.99418c-2.70687,0.71426 -5.50493,-0.81139 -6.24963,-3.40762z" data-paper-data="{&quot;origPos&quot;:null}" fill="#eb6c17"/><path d="M235.9426,188.41531c-0.27187,-0.94783 0.30885,-1.92759 1.29707,-2.18835c0.98822,-0.26076 2.00974,0.29622 2.28161,1.24405c0.27187,0.94783 -0.30885,1.92759 -1.29707,2.18835c-0.98822,0.26076 -2.00974,-0.29622 -2.28161,-1.24405z" data-paper-data="{&quot;origPos&quot;:null}" fill="#de4207"/><path d="M238.77456,188.95228c-0.17731,-0.61815 0.20142,-1.25713 0.84591,-1.42718c0.64449,-0.17007 1.31069,0.19319 1.488,0.81134c0.17731,0.61815 -0.20142,1.25713 -0.8459,1.42718c-0.64449,0.17007 -1.3107,-0.19318 -1.48801,-0.81133z" data-paper-data="{&quot;origPos&quot;:null}" fill="#ffffff"/></g><g data-paper-data="{&quot;origPos&quot;:null}"><path d="M256.34499,196.56364c-0.7447,-2.59624 0.84597,-5.27991 3.55283,-5.99416c2.70687,-0.71426 5.50494,0.81138 6.24963,3.40761c0.7447,2.59624 -0.84597,5.27992 -3.55284,5.99418c-2.70687,0.71426 -5.50493,-0.81139 -6.24963,-3.40762z" data-paper-data="{&quot;origPos&quot;:null}" fill="#eb6c17"/><path d="M258.32083,194.11594c-0.27187,-0.94783 0.30885,-1.92759 1.29707,-2.18835c0.98822,-0.26076 2.00974,0.29622 2.28161,1.24405c0.27187,0.94783 -0.30885,1.92759 -1.29707,2.18835c-0.98822,0.26076 -2.00974,-0.29622 -2.28161,-1.24405z" data-paper-data="{&quot;origPos&quot;:null}" fill="#de4207"/><path d="M261.1528,194.65291c-0.17731,-0.61815 0.20142,-1.25713 0.84591,-1.42718c0.64449,-0.17007 1.31069,0.19319 1.488,0.81134c0.17731,0.61815 -0.20142,1.25713 -0.8459,1.42718c-0.64449,0.17007 -1.3107,-0.19318 -1.48801,-0.81133z" data-paper-data="{&quot;origPos&quot;:null}" fill="#ffffff"/></g><g data-paper-data="{&quot;origPos&quot;:null}"><path d="M207.98021,179.81438c-0.7447,-2.59624 0.84597,-5.27991 3.55283,-5.99416c2.70687,-0.71426 5.50494,0.81138 6.24963,3.40761c0.7447,2.59624 -0.84597,5.27992 -3.55284,5.99418c-2.70687,0.71426 -5.50493,-0.81139 -6.24963,-3.40762z" data-paper-data="{&quot;origPos&quot;:null}" fill="#eb6c17"/><path d="M209.95606,177.36666c-0.27187,-0.94783 0.30885,-1.92759 1.29707,-2.18835c0.98822,-0.26076 2.00974,0.29622 2.28161,1.24405c0.27187,0.94783 -0.30885,1.92759 -1.29707,2.18835c-0.98822,0.26076 -2.00974,-0.29622 -2.28161,-1.24405z" data-paper-data="{&quot;origPos&quot;:null}" fill="#de4207"/><path d="M212.78802,177.90364c-0.17731,-0.61815 0.20142,-1.25713 0.84591,-1.42718c0.64449,-0.17007 1.31069,0.19319 1.488,0.81134c0.17731,0.61815 -0.20142,1.25713 -0.8459,1.42718c-0.64449,0.17007 -1.3107,-0.19318 -1.48801,-0.81133z" data-paper-data="{&quot;origPos&quot;:null}" fill="#ffffff"/></g><g data-paper-data="{&quot;origPos&quot;:null}"><path d="M260.92301,178.77633c-0.7447,-2.59624 0.84597,-5.27991 3.55283,-5.99416c2.70687,-0.71426 5.50494,0.81138 6.24963,3.40761c0.7447,2.59624 -0.84597,5.27992 -3.55284,5.99418c-2.70687,0.71426 -5.50493,-0.81139 -6.24963,-3.40762z" data-paper-data="{&quot;origPos&quot;:null}" fill="#eb6c17"/><path d="M262.89886,176.32863c-0.27187,-0.94783 0.30885,-1.92759 1.29707,-2.18835c0.98822,-0.26076 2.00974,0.29622 2.28161,1.24405c0.27187,0.94783 -0.30885,1.92759 -1.29707,2.18835c-0.98822,0.26076 -2.00974,-0.29622 -2.28161,-1.24405z" data-paper-data="{&quot;origPos&quot;:null}" fill="#de4207"/><path d="M265.73081,176.8656c-0.17731,-0.61815 0.20142,-1.25713 0.84591,-1.42718c0.64449,-0.17007 1.31069,0.19319 1.488,0.81134c0.17731,0.61815 -0.20142,1.25713 -0.8459,1.42718c-0.64449,0.17007 -1.3107,-0.19318 -1.48801,-0.81133z" data-paper-data="{&quot;origPos&quot;:null}" fill="#ffffff"/></g><g data-paper-data="{&quot;origPos&quot;:null}"><path d="M250.17397,195.53929c-0.7447,-2.59624 0.84597,-5.27991 3.55283,-5.99416c2.70687,-0.71426 5.50494,0.81138 6.24963,3.40761c0.7447,2.59624 -0.84597,5.27992 -3.55284,5.99418c-2.70687,0.71426 -5.50493,-0.81139 -6.24963,-3.40762z" data-paper-data="{&quot;origPos&quot;:null}" fill="#eb6c17"/><path d="M252.14981,193.09158c-0.27187,-0.94783 0.30885,-1.92759 1.29707,-2.18835c0.98822,-0.26076 2.00974,0.29622 2.28161,1.24405c0.27187,0.94783 -0.30885,1.92759 -1.29707,2.18835c-0.98822,0.26076 -2.00974,-0.29622 -2.28161,-1.24405z" data-paper-data="{&quot;origPos&quot;:null}" fill="#de4207"/><path d="M254.98178,193.62855c-0.17731,-0.61815 0.20142,-1.25713 0.84591,-1.42718c0.64449,-0.17007 1.31069,0.19319 1.488,0.81134c0.17731,0.61815 -0.20142,1.25713 -0.8459,1.42718c-0.64449,0.17007 -1.3107,-0.19318 -1.48801,-0.81133z" data-paper-data="{&quot;origPos&quot;:null}" fill="#ffffff"/></g><g data-paper-data="{&quot;origPos&quot;:null}"><path d="M226.79927,188.77526c-0.7447,-2.59624 0.84597,-5.27991 3.55283,-5.99416c2.70687,-0.71426 5.50494,0.81138 6.24963,3.40761c0.7447,2.59624 -0.84597,5.27992 -3.55284,5.99418c-2.70687,0.71426 -5.50493,-0.81139 -6.24963,-3.40762z" data-paper-data="{&quot;origPos&quot;:null}" fill="#eb6c17"/><path d="M228.77512,186.32754c-0.27187,-0.94783 0.30885,-1.92759 1.29707,-2.18835c0.98822,-0.26076 2.00974,0.29622 2.28161,1.24405c0.27187,0.94783 -0.30885,1.92759 -1.29707,2.18835c-0.98822,0.26076 -2.00974,-0.29622 -2.28161,-1.24405z" data-paper-data="{&quot;origPos&quot;:null}" fill="#de4207"/><path d="M231.60709,186.86452c-0.17731,-0.61815 0.20142,-1.25713 0.84591,-1.42718c0.64449,-0.17007 1.31069,0.19319 1.488,0.81134c0.17731,0.61815 -0.20142,1.25713 -0.8459,1.42718c-0.64449,0.17007 -1.3107,-0.19318 -1.48801,-0.81133z" data-paper-data="{&quot;origPos&quot;:null}" fill="#ffffff"/></g><g data-paper-data="{&quot;origPos&quot;:null}"><path d="M276.62355,179.27569c-0.7447,-2.59624 0.84597,-5.27991 3.55283,-5.99416c2.70687,-0.71426 5.50494,0.81138 6.24963,3.40761c0.7447,2.59624 -0.84597,5.27992 -3.55284,5.99418c-2.70687,0.71426 -5.50493,-0.81139 -6.24963,-3.40762z" data-paper-data="{&quot;origPos&quot;:null}" fill="#eb6c17"/><path d="M278.59939,176.82796c-0.27187,-0.94783 0.30885,-1.92759 1.29707,-2.18835c0.98822,-0.26076 2.00974,0.29622 2.28161,1.24405c0.27187,0.94783 -0.30885,1.92759 -1.29707,2.18835c-0.98822,0.26076 -2.00974,-0.29622 -2.28161,-1.24405z" data-paper-data="{&quot;origPos&quot;:null}" fill="#de4207"/><path d="M281.43136,177.36494c-0.17731,-0.61815 0.20142,-1.25713 0.84591,-1.42718c0.64449,-0.17007 1.31069,0.19319 1.488,0.81134c0.17731,0.61815 -0.20142,1.25713 -0.8459,1.42718c-0.64449,0.17007 -1.3107,-0.19318 -1.48801,-0.81133z" data-paper-data="{&quot;origPos&quot;:null}" fill="#ffffff"/></g><g data-paper-data="{&quot;origPos&quot;:null}"><path d="M260.43468,195.15293c-0.7447,-2.59624 0.84597,-5.27991 3.55283,-5.99416c2.70687,-0.71426 5.50494,0.81138 6.24963,3.40761c0.7447,2.59624 -0.84597,5.27992 -3.55284,5.99418c-2.70687,0.71426 -5.50493,-0.81139 -6.24963,-3.40762z" data-paper-data="{&quot;origPos&quot;:null}" fill="#eb6c17"/><path d="M262.41051,192.70521c-0.27187,-0.94783 0.30885,-1.92759 1.29707,-2.18835c0.98822,-0.26076 2.00974,0.29622 2.28161,1.24405c0.27187,0.94783 -0.30885,1.92759 -1.29707,2.18835c-0.98822,0.26076 -2.00974,-0.29622 -2.28161,-1.24405z" data-paper-data="{&quot;origPos&quot;:null}" fill="#de4207"/><path d="M265.24249,193.24219c-0.17731,-0.61815 0.20142,-1.25713 0.84591,-1.42718c0.64449,-0.17007 1.31069,0.19319 1.488,0.81134c0.17731,0.61815 -0.20142,1.25713 -0.8459,1.42718c-0.64449,0.17007 -1.3107,-0.19318 -1.48801,-0.81133z" data-paper-data="{&quot;origPos&quot;:null}" fill="#ffffff"/></g><g data-paper-data="{&quot;origPos&quot;:null}"><path d="M240.17008,193.20521c-0.7447,-2.59624 0.84597,-5.27991 3.55283,-5.99416c2.70687,-0.71426 5.50494,0.81138 6.24963,3.40761c0.7447,2.59624 -0.84597,5.27992 -3.55284,5.99418c-2.70687,0.71426 -5.50493,-0.81139 -6.24963,-3.40762z" data-paper-data="{&quot;origPos&quot;:null}" fill="#eb6c17"/><path d="M242.14592,190.75748c-0.27187,-0.94783 0.30885,-1.92759 1.29707,-2.18835c0.98822,-0.26076 2.00974,0.29622 2.28161,1.24405c0.27187,0.94783 -0.30885,1.92759 -1.29707,2.18835c-0.98822,0.26076 -2.00974,-0.29622 -2.28161,-1.24405z" data-paper-data="{&quot;origPos&quot;:null}" fill="#de4207"/><path d="M244.97789,191.29446c-0.17731,-0.61815 0.20142,-1.25713 0.84591,-1.42718c0.64449,-0.17007 1.31069,0.19319 1.488,0.81134c0.17731,0.61815 -0.20142,1.25713 -0.8459,1.42718c-0.64449,0.17007 -1.3107,-0.19318 -1.48801,-0.81133z" data-paper-data="{&quot;origPos&quot;:null}" fill="#ffffff"/></g></g><path d="M284.3698,188.5977c-15.44037,14.59276 -23.50174,14.54877 -51.36866,3.99302c-27.86691,-10.55574 -46.90837,-21.77256 -36.02257,-34.84489c6.05095,-7.26635 24.38167,-14.03434 52.24858,-3.47859c27.86691,10.55574 46.92997,23.19021 35.14265,34.33046z" data-paper-data="{&quot;origRot&quot;:0,&quot;origPos&quot;:null}" fill="none" stroke="#001a0d" stroke-width="2.5"/><path d="M272.84577,232.04031c-29.83237,10.4407 -68.29676,-14.97478 -75.52014,-19.75637c-2.69151,-1.78167 -4.14941,-45.40866 -4.14941,-45.40866c0,0 -1.87446,6.98081 29.24601,21.30888c28.85392,13.28453 33.8041,14.03234 47.53621,10.43848c15.13438,-3.96085 18.84812,-20.09092 18.84812,-20.09092c0,0 1.28676,38.74859 0.00171,41.9164c-1.28505,3.16781 -4.41044,7.54921 -15.9625,11.59219z" data-paper-data="{&quot;origPos&quot;:null,&quot;origRot&quot;:0}" fill="#001a0d" stroke="none" stroke-width="0"/></g></g></svg>