<svg version="1.1" xmlns="http://www.w3.org/2000/svg" xmlns:xlink="http://www.w3.org/1999/xlink" width="177.71831" height="41.47797" viewBox="0,0,177.71831,41.47797"><g transform="translate(-150.07887,-197.39559)"><g data-paper-data="{&quot;isPaintingLayer&quot;:true}" fill="none" fill-rule="nonzero" stroke="none" stroke-width="none" stroke-linecap="none" stroke-linejoin="miter" stroke-miterlimit="10" stroke-dasharray="" stroke-dashoffset="0" font-family="none" font-weight="none" font-size="none" text-anchor="none" style="mix-blend-mode: normal"><path d="M326.04718,234.42063c-0.81874,3.00744 -51.50828,3.06029 -86.35327,2.27625c-31.78408,-0.71516 -51.58244,1.05082 -83.3443,-0.33575c-2.48779,-0.1086 -4.47118,-31.09308 -0.58215,-34.6381c3.29349,-3.00217 52.71386,-2.36938 84.66068,-2.05092c32.8184,0.32712 78.91621,0.26305 80.96182,0.88662c5.99799,1.82839 8.07765,21.29785 4.65722,33.86189z" data-paper-data="{&quot;origPos&quot;:null}" fill="none" stroke="#4c3312" stroke-width="3.5" stroke-linecap="butt"/><path d="M324.30072,232.67416c-0.81874,3.00744 -51.50828,3.06029 -86.35327,2.27625c-31.78408,-0.71516 -51.58244,1.05082 -83.3443,-0.33575c-2.48779,-0.1086 -4.47118,-31.09308 -0.58215,-34.6381c3.29349,-3.00217 52.71386,-2.36938 84.66068,-2.05092c32.8184,0.32712 82.77789,0.14819 84.62848,1.21995c3.37894,1.9569 4.21096,21.69928 0.99056,33.52856z" data-paper-data="{&quot;origPos&quot;:null}" fill="#ffffff" stroke="#986625" stroke-width="3.5" stroke-linecap="butt"/><path d="M209.74632,208.68511c0.27398,-0.21777 0.6533,-0.50929 1.13802,-0.87458c0.80083,0.49875 1.45413,0.9659 1.95991,1.40144c0.42149,0.30909 0.63222,0.69897 0.63222,1.16962c0,0.58306 -0.40042,0.87459 -1.20123,0.87459c-1.23635,1.95288 -2.42353,3.60722 -3.56155,4.96299c1.94586,0.63222 3.68799,1.71754 5.22642,3.25597c1.30661,1.29959 1.95991,2.37789 1.95991,3.23491c0,1.00455 -0.46715,1.50681 -1.40144,1.50681c-0.49173,0 -1.00103,-0.44257 -1.52788,-1.32769c-0.61116,-1.01157 -1.32065,-1.92478 -2.1285,-2.73966c-0.95537,-0.94835 -2.06529,-1.82292 -3.32974,-2.62375c-3.35081,3.35081 -7.22849,5.9289 -11.63302,7.73427c-1.91074,0.21074 -2.16715,-0.26695 -0.76921,-1.43305c6.7508,-3.54751 11.56277,-8.09606 14.4359,-13.64562c0.13346,0.07728 0.18264,0.18967 0.14752,0.33718c-5.07891,0.67438 -7.71319,1.15207 -7.90287,1.43306c-0.2529,0.37934 -0.58305,0.56901 -0.99048,0.56901c-0.28098,0 -0.72004,-0.25641 -1.31715,-0.76921c-1.22933,-1.06776 -1.74917,-1.93532 -1.5595,-2.60268c0,-1.20123 0.47768,-1.32417 1.43305,-0.36881c0.26695,0.4847 0.64276,0.72706 1.12748,0.72706c1.66487,0 4.75226,-0.27396 9.26215,-0.82189zM228.73428,217.53633c-1.23635,-1.12397 -2.92934,-1.90019 -5.07891,-2.3287c-1.43305,1.5595 -3.16114,3.05225 -5.18428,4.47828c-1.21529,0 -1.48222,-0.45309 -0.80083,-1.35929c3.81445,-3.2595 6.33986,-6.87724 7.57622,-10.85327c0.0843,-0.26695 -0.19319,-0.49173 -0.83244,-0.67438c-0.98347,-0.49173 -0.96943,-0.99048 0.04215,-1.49628c0.94835,-0.0843 1.75268,0.03863 2.41302,0.36881c1.18718,0.59008 1.78077,1.17664 1.78077,1.75971c0,0.58306 -0.29153,0.87458 -0.87458,0.87458c0,-0.02811 -0.01054,0.01054 -0.03161,0.1159c-0.21074,0.42149 -0.31962,0.62871 -0.32664,0.6217c1.68595,-0.11239 3.59318,-0.26695 5.72167,-0.46362c0.23183,-0.18967 0.56199,-0.55145 0.99049,-1.08533c0.6533,0.25991 1.27851,0.61468 1.87562,1.06426c0.57603,0.38636 0.86405,0.78327 0.86405,1.1907c0,0.49875 -0.28451,0.8219 -0.85351,0.96943c-0.18264,0.03513 -0.37231,0.24939 -0.56901,0.64276c-0.85702,1.84751 -1.88966,3.64937 -3.09792,5.40556c0.71653,0.47769 1.02913,1.14855 0.9378,2.0126c-0.11942,0.81487 -0.48119,1.22231 -1.08532,1.22231c-0.43555,0 -0.94484,-0.29153 -1.52788,-0.87459c-3.0347,3.81445 -6.77188,6.70516 -11.21154,8.67208c-1.24338,0 -1.51383,-0.46715 -0.81135,-1.40145c4.7628,-2.80288 8.12414,-5.75679 10.08405,-8.86174zM230.14626,215.42888c1.10991,-1.58058 2.04421,-3.29813 2.80288,-5.15266c0.14752,-0.03513 0.23183,0.01054 0.2529,0.13698c-2.25494,0.14049 -4.32726,0.28451 -6.21692,0.43203c-0.43555,-0.11239 -0.61116,-0.28449 -0.52686,-0.51632c-0.63925,1.64379 -1.18718,2.75722 -1.64379,3.34027c2.17767,0.33017 3.95494,0.91673 5.3318,1.7597zM259.69244,217.05161c-3.08388,-0.07026 -5.84812,-0.07026 -8.29275,0c-1.95991,0.07026 -4.06382,0.17562 -6.31175,0.31612c-1.12397,0.06323 -1.70703,0.11239 -1.74917,0.14752c-0.38636,0.39339 -0.76219,0.59008 -1.12748,0.59008c-0.2248,0 -0.60062,-0.26695 -1.12748,-0.80083c-0.5409,-0.53388 -0.92727,-1.03616 -1.15909,-1.50681c-0.40042,-0.80083 -0.55846,-1.60516 -0.47416,-2.41302c0.45661,-0.91322 0.94834,-0.97997 1.4752,-0.2002c0.31611,0.88512 0.61819,1.40145 0.90619,1.54897c0.34421,0.16859 0.82189,0.2529 1.43305,0.2529c2.1004,0 4.94194,-0.03513 8.52456,-0.10537c3.56858,-0.07026 5.80597,-0.14049 6.71217,-0.21074c0.63222,-0.0562 0.97293,-0.10537 1.02209,-0.14752c0.31611,-0.32314 0.65681,-0.4847 1.02209,-0.4847c0.78678,0 1.47873,0.30206 2.07582,0.90619c0.60413,0.59711 0.90619,0.97645 0.90619,1.13802c0.30909,0.92727 -0.11239,1.31715 -1.26446,1.16962c-0.89215,-0.13346 -1.74917,-0.20021 -2.57107,-0.20021zM270.98827,213.65865c0.54793,0.04918 1.54193,0.2529 2.982,0.61116c1.76321,0.51281 3.16466,1.17664 4.20434,1.99152c1.19421,0.9624 1.79131,1.81238 1.79131,2.54998c0,1.00455 -0.43203,1.50681 -1.29607,1.50681c-0.46363,0 -0.99751,-0.38988 -1.60165,-1.16962c-1.33472,-1.72809 -3.35432,-2.99606 -6.05886,-3.80391c0,6.10452 0,9.75389 0,10.9481c0,1.14504 -0.36177,1.71756 -1.08532,1.71756c-0.66032,0 -1.18368,-0.42851 -1.57004,-1.28553c-0.25991,-0.61818 -0.23533,-1.42953 0.07376,-2.43408c0.20372,-2.33223 0.27046,-7.67105 0.20021,-16.01647c0,-0.59711 -0.07376,-1.01859 -0.22128,-1.26446c-0.09834,-0.13346 -0.48821,-0.23182 -1.16962,-0.29503c-1.01156,-0.50578 -1.02561,-1.00455 -0.04215,-1.49628c0.61818,-0.17562 1.40847,-0.144 2.37087,0.09483c0.61818,0.23885 1.15557,0.5093 1.61218,0.81135c0.59008,0.39339 0.88513,0.82891 0.88513,1.30661c0,0.49875 -0.28099,0.81839 -0.84297,0.95889c-0.01405,-0.00702 -0.01405,0 0,0.02108c-0.21075,1.81942 -0.28801,3.56858 -0.23182,5.2475z" data-paper-data="{&quot;origPos&quot;:null}" fill="#ff0000" stroke="none" stroke-width="1" stroke-linecap="square"/></g></g></svg>