<svg version="1.1" xmlns="http://www.w3.org/2000/svg" xmlns:xlink="http://www.w3.org/1999/xlink" width="202.5" height="110.14445" viewBox="0,0,202.5,110.14445"><defs><radialGradient cx="240.05902" cy="203.10515" r="62" gradientUnits="userSpaceOnUse" id="color-1"><stop offset="0" stop-color="#b2b2b2"/><stop offset="1" stop-color="#b2b2b2" stop-opacity="0"/></radialGradient><radialGradient cx="221.21595" cy="181.95691" r="41.31356" gradientUnits="userSpaceOnUse" id="color-2"><stop offset="0" stop-color="#ffffff"/><stop offset="1" stop-color="#ffffff" stop-opacity="0"/></radialGradient></defs><g transform="translate(-138.80902,-145.04304)"><g data-paper-data="{&quot;isPaintingLayer&quot;:true}" fill="none" fill-rule="nonzero" stroke="none" stroke-width="none" stroke-linecap="none" stroke-linejoin="miter" stroke-miterlimit="10" stroke-dasharray="" stroke-dashoffset="0" font-family="none" font-weight="none" font-size="none" text-anchor="none" style="mix-blend-mode: normal"><g data-paper-data="{&quot;origPos&quot;:null}" stroke-linecap="butt"><path d="M340.05902,203.93749c0,27.61424 -44.77153,50 -100,50c-55.22847,0 -100,-22.38576 -100,-50c0,-27.61424 44.77153,-50 100,-50c55.22847,0 100,22.38576 100,50z" data-paper-data="{&quot;origPos&quot;:null}" fill="#ffffff" stroke="#b2b2b2" stroke-width="2.5"/><path d="M302.05902,203.10515c0,15.48051 -27.75835,28.02994 -62,28.02994c-34.24165,0 -62,-12.54943 -62,-28.02994c0,-15.48051 27.75835,-28.02994 62,-28.02994c34.24165,0 62,12.54943 62,28.02994z" data-paper-data="{&quot;origPos&quot;:null}" fill="url(#color-1)" stroke="none" stroke-width="0"/><path d="M324.05902,203.68749c0,20.84875 -37.38423,37.75 -83.5,37.75c-46.11577,0 -83.5,-16.90125 -83.5,-37.75c0,-20.84875 37.38423,-37.75 83.5,-37.75c46.11577,0 83.5,16.90125 83.5,37.75z" data-paper-data="{&quot;origPos&quot;:null}" fill="none" stroke="#ff8080" stroke-width="10"/></g><path d="M280.08862,211.41884c-4.9339,19.03106 -34.88186,20.08704 -57.20033,8.19225c-24.79944,-13.21705 -39.32425,-18.34112 -33.41793,-36.59249c5.85268,-18.08563 22.88186,-20.08704 49.70033,-11.69225c26.81847,8.3948 46.73992,17.63589 40.91793,40.09249z" data-paper-data="{&quot;origPos&quot;:null,&quot;origRot&quot;:0}" fill="#ffffff" stroke="#c2c2c2" stroke-width="1.5" stroke-linecap="butt"/><path d="M308.10202,219.46767c-0.91976,2.26258 -9.72988,2.10436 -19.87192,-2.97411c-10.78103,-5.39844 -17.05104,-8.11404 -12.34622,-14.03185c3.18687,-4.0085 12.18511,-1.40347 19.23737,2.34914c7.11161,3.7842 13.71278,12.85606 12.98077,14.65681z" data-paper-data="{&quot;origPos&quot;:null,&quot;index&quot;:null,&quot;origRot&quot;:0}" fill="#cf1018" stroke="none" stroke-width="0" stroke-linecap="butt"/><path d="M317.27904,209.55249c-0.70756,2.31666 -9.50525,2.74361 -20.08601,-1.64617c-11.24741,-4.66636 -17.74941,-6.9575 -13.60665,-13.16934c2.80615,-4.20767 12.11646,-2.57816 19.49426,0.69489c7.43991,3.3006 14.76154,12.27682 14.1984,14.12062z" data-paper-data="{&quot;origPos&quot;:null}" fill="#cf1018" stroke="none" stroke-width="0" stroke-linecap="butt"/><path d="M204.0295,145.71872c11.94589,-4.20542 48.34884,11.67477 77.29109,34.97891c4.73005,3.80861 9.83687,10.13967 8.71771,13.90429c-0.9266,3.11687 -4.17647,3.10649 -5.09618,6.2254c-0.87397,2.96379 -1.3247,4.78235 -3.59635,6.87698c-4.25171,3.9204 -14.68644,0.27449 -20.77093,-1.11097c-75.46051,-17.18251 -76.49422,-24.58834 -77.46199,-33.79129c-1.3974,-13.2884 3.29482,-10.83539 10.08165,-15.33991c5.89497,-3.91258 2.02147,-8.6407 10.83501,-11.74341z" data-paper-data="{&quot;origPos&quot;:null}" fill="#f4ae85" stroke="none" stroke-width="0" stroke-linecap="butt"/><path d="M197.80003,157.22607c0,0 27.44941,11.07394 44.05835,19.12191c16.13974,7.82061 39.85607,21.53934 39.85607,21.53934" data-paper-data="{&quot;origPos&quot;:null,&quot;origRot&quot;:0}" fill="none" stroke="#ec834c" stroke-width="2.5" stroke-linecap="round"/><path d="M215.5295,164.71872c-0.99843,3.99388 -8.92658,3.20421 -11.38601,9.24943c-2.42804,5.96803 3.89567,19.08148 -9.36399,12.00058c-2.20955,-1.17994 -3.66928,-5.97193 -0.75,-14.75c2.5,-7.51732 11.73731,-7.9895 13.35127,-11.11468c3.4636,-6.70672 10.45733,-13.40108 17.89873,-12.13532c11.03883,1.87768 -8.519,11.82581 -9.75,16.75z" data-paper-data="{&quot;origPos&quot;:null}" fill="#eb6e2b" stroke="none" stroke-width="0" stroke-linecap="butt"/><path d="M238.52949,172.71872c-0.99843,3.99388 -8.92658,3.20421 -11.38601,9.24943c-2.42804,5.96803 3.89567,19.08148 -9.36399,12.00058c-2.20956,-1.17994 -3.66928,-5.97193 -0.75,-14.75c2.5,-7.51732 11.73731,-7.9895 13.35127,-11.11468c3.4636,-6.70672 9.95733,-14.90108 16.39873,-10.13532c6.06802,4.48952 -7.019,9.82581 -8.25,14.75z" data-paper-data="{&quot;origPos&quot;:null}" fill="#eb6e2b" stroke="none" stroke-width="0" stroke-linecap="butt"/><path d="M263.0295,185.21872c-0.99843,3.99388 -5.92658,0.70421 -8.38601,6.74942c-2.42804,5.96803 3.89567,16.58148 -9.36399,9.50058c-2.20956,-1.17994 -3.16928,-3.97193 -0.25,-12.75c2.5,-7.51732 7.73731,-5.98951 9.35127,-9.11468c3.4636,-6.70672 6.54229,-11.70623 12.89873,-7.63532c7.4414,4.76576 -3.019,8.32581 -4.25,13.25z" data-paper-data="{&quot;origPos&quot;:null}" fill="#eb6e2b" stroke="none" stroke-width="0" stroke-linecap="butt"/><path d="M260.5295,200.96872c-1,3.03757 -5.63906,1.5 -31,-9c-25.36094,-10.5 -33.17043,-12.96298 -32,-16c1.09233,-2.83436 3.79483,-4.20616 34.5,7.5c30.70517,11.70616 29.44985,14.61476 28.5,17.5z" data-paper-data="{&quot;origPos&quot;:null}" fill="url(#color-2)" stroke="none" stroke-width="0" stroke-linecap="butt"/><path d="M291.25726,196.05669c0,0 13.25358,1.87949 20.5,6c7.24642,4.12051 5,8.5 5,8.5z" data-paper-data="{&quot;origPos&quot;:null}" fill="#ab0a0c" stroke="none" stroke-width="0" stroke-linecap="butt"/><path d="M306.75726,220.05669c0,0 -4.75358,4.62051 -12,0.5c-7.24642,-4.12051 -12,-12 -12,-12z" data-paper-data="{&quot;origPos&quot;:null,&quot;index&quot;:null}" fill="#ab0a0c" stroke="none" stroke-width="0" stroke-linecap="butt"/><path d="M291.59059,203.39002l20.33333,7.66667l-11.29337,-1.96191l4.29336,5.12858z" data-paper-data="{&quot;origPos&quot;:null}" fill="#ab0a0c" stroke="none" stroke-width="0" stroke-linecap="butt"/></g></g></svg>