<svg version="1.1" xmlns="http://www.w3.org/2000/svg" xmlns:xlink="http://www.w3.org/1999/xlink" width="121.32655" height="27.23671" viewBox="0,0,121.32655,27.23671"><g transform="translate(-284.98552,-326.04475)"><g data-paper-data="{&quot;isPaintingLayer&quot;:true}" fill="none" fill-rule="nonzero" stroke="none" stroke-width="none" stroke-linecap="butt" stroke-linejoin="miter" stroke-miterlimit="10" stroke-dasharray="" stroke-dashoffset="0" font-family="none" font-weight="none" font-size="none" text-anchor="none" style="mix-blend-mode: normal"><g data-paper-data="{&quot;origPos&quot;:null}"><g data-paper-data="{&quot;origPos&quot;:null}" stroke-width="3.5"><path d="M404.56207,349.82754c-0.56269,1.89588 -35.39956,1.9292 -59.34711,1.43494c-21.84391,-0.45084 -35.45053,0.66243 -57.27917,-0.21166c-1.70976,-0.06846 -3.07286,-19.60101 -0.40009,-21.83578c2.26348,-1.89256 36.22811,-1.49365 58.18387,-1.2929c22.55476,0.20622 54.23592,0.16583 55.64179,0.55892c4.12218,1.15261 5.55144,13.42612 3.20072,21.34646z" data-paper-data="{&quot;origPos&quot;:null}" fill="none" stroke="#4c3312"/><path d="M403.3618,348.72657c-0.56269,1.89588 -35.39956,1.9292 -59.34711,1.43494c-21.84391,-0.45084 -35.45053,0.66243 -57.27917,-0.21166c-1.70976,-0.06846 -3.07286,-19.60101 -0.40009,-21.83578c2.26348,-1.89256 36.22811,-1.49365 58.18387,-1.2929c22.55476,0.20622 56.8899,0.09342 58.16174,0.76905c2.32221,1.23363 2.89402,13.67918 0.68077,21.13633z" data-paper-data="{&quot;origPos&quot;:null}" fill="#ffffff" stroke="#986625"/></g><text transform="translate(291.55899,343.98174) scale(0.38571,0.38571)" font-size="40" xml:space="preserve" data-paper-data="{&quot;origPos&quot;:null}" fill="#000000" fill-rule="nonzero" stroke="#000000" stroke-width="3" stroke-linecap="butt" stroke-linejoin="miter" stroke-miterlimit="10" stroke-dasharray="" stroke-dashoffset="0" font-family="Sans Serif" font-weight="normal" text-anchor="start" style="mix-blend-mode: normal"><tspan x="0" dy="0">タイトルに戻る</tspan></text></g></g></g></svg>