<svg version="1.1" xmlns="http://www.w3.org/2000/svg" xmlns:xlink="http://www.w3.org/1999/xlink" width="23.6933" height="23.69329"><g transform="translate(-424.97886,-332.00272)"><g data-paper-data="{&quot;isPaintingLayer&quot;:true}" fill="none" fill-rule="none" stroke="none" stroke-width="none" stroke-linecap="none" stroke-linejoin="none" stroke-miterlimit="10" stroke-dasharray="" stroke-dashoffset="0" font-family="none" font-weight="none" font-size="none" text-anchor="none" style="mix-blend-mode: normal"><g data-paper-data="{&quot;origPos&quot;:null}"><path d="M424.97886,332.00272h23.6933v23.69329h-23.6933z" data-paper-data="{&quot;origPos&quot;:null}" fill-opacity="0" fill="#000000" fill-rule="evenodd" stroke="none" stroke-width="1" stroke-linecap="square" stroke-linejoin="miter"/><path d="M442.05218,341.4028c1.11887,0.79919 1.6783,1.49848 1.6783,2.09788c0,0.35964 -0.13986,0.53945 -0.41958,0.53945c-0.1998,0 -0.33965,-0.13986 -0.41957,-0.41958c-0.15984,-0.39959 -0.33966,-0.71927 -0.53945,-0.95903l-5.39454,0.77921c-0.07992,0.5994 -0.23976,0.73925 -0.47951,0.41957l-0.71927,-1.0789l1.79818,-0.05994l1.6783,-5.3346l1.07891,0.53945c0.31968,0.27972 0.17982,0.41957 -0.41957,0.41957l-2.03794,4.37557l4.25569,-0.35964c-0.43955,-0.55943 -0.99899,-1.05893 -1.6783,-1.49848c-0.11988,-0.11988 -0.07991,-0.17982 0.11988,-0.17982c0.43955,0.11988 0.93905,0.35963 1.49848,0.71927zM429.76463,350.45363c-0.23976,0.03996 -0.2997,-0.01999 -0.17982,-0.17982c1.71826,-1.15883 2.83713,-2.29767 3.3566,-3.41654c-0.31968,-0.27972 -0.81917,-0.57941 -1.49848,-0.89909c-0.07992,0.31968 -0.17982,0.63935 -0.2997,0.95903c-0.63935,0.35964 -0.87911,0.31968 -0.71927,-0.11988c0.47951,-1.63834 0.89909,-3.33662 1.25872,-5.09484h-1.91806v-0.35964h1.978c0.23976,-0.95903 0.51947,-2.31765 0.83915,-4.07587l0.95903,0.2997c0.43955,0.15984 0.35964,0.31968 -0.23976,0.47951c-0.23976,1.15883 -0.47951,2.25771 -0.71927,3.29666h1.61836l0.47951,-0.47951l0.77921,0.77921c0.31968,0.27972 0.17982,0.41957 -0.41957,0.41957c-0.27972,1.95802 -0.69929,3.51644 -1.25872,4.67527c0.91907,0.63935 1.3786,1.13884 1.3786,1.49848c0,0.27972 -0.11988,0.41958 -0.35963,0.41958c-0.11988,0 -0.23976,-0.0999 -0.35964,-0.2997c-0.23976,-0.39959 -0.55943,-0.75923 -0.95903,-1.07891c-0.99899,1.43854 -2.23774,2.49748 -3.71624,3.17679zM433.18117,346.37776c0.47951,-1.03895 0.85913,-2.59737 1.13884,-4.67527h-1.79818c-0.39959,1.6783 -0.73925,3.01694 -1.01897,4.01593c0.5994,0.15984 1.15883,0.37962 1.6783,0.65934zM437.73655,345.11903h3.71623l0.41958,-0.53945l0.95903,0.65933c0.31968,0.23976 0.17982,0.39959 -0.41957,0.47951v4.19575c-0.51947,0.47951 -0.77921,0.49949 -0.77921,0.05993v-0.53945h-4.01593v1.0789c-0.51947,0.47951 -0.77921,0.49949 -0.77921,0.05994v-5.99393zM441.63261,349.07503v-3.59636h-4.01593v3.59636z" data-paper-data="{&quot;origPos&quot;:null}" fill="#ff0000" fill-rule="nonzero" stroke="#ff0000" stroke-width="0.5" stroke-linecap="square" stroke-linejoin="miter"/><path d="M427.77889,335.11611h17.70741v17.70741h-17.70741z" data-paper-data="{&quot;origPos&quot;:null}" fill="none" fill-rule="evenodd" stroke="#ff0000" stroke-width="1.5" stroke-linecap="butt" stroke-linejoin="round"/></g></g></g></svg>