<svg version="1.1" xmlns="http://www.w3.org/2000/svg" xmlns:xlink="http://www.w3.org/1999/xlink" width="121.32655" height="27.23671" viewBox="0,0,121.32655,27.23671"><g transform="translate(-182.98552,-295.04475)"><g data-paper-data="{&quot;isPaintingLayer&quot;:true}" fill="none" fill-rule="nonzero" stroke="none" stroke-width="none" stroke-linecap="none" stroke-linejoin="miter" stroke-miterlimit="10" stroke-dasharray="" stroke-dashoffset="0" font-family="none" font-weight="none" font-size="none" text-anchor="none" style="mix-blend-mode: normal"><g data-paper-data="{&quot;origPos&quot;:null}" stroke-width="3.5" stroke-linecap="butt"><path d="M302.56207,318.82754c-0.56269,1.89588 -35.39956,1.9292 -59.34711,1.43494c-21.84391,-0.45084 -35.45053,0.66243 -57.27917,-0.21166c-1.70976,-0.06846 -3.07286,-19.60101 -0.40009,-21.83578c2.26348,-1.89256 36.22811,-1.49365 58.18387,-1.2929c22.55476,0.20622 54.23592,0.16583 55.64179,0.55892c4.12218,1.15261 5.55144,13.42612 3.20072,21.34646z" data-paper-data="{&quot;origPos&quot;:null}" fill="none" stroke="#4c3312"/><path d="M301.3618,317.72657c-0.56269,1.89588 -35.39956,1.9292 -59.34711,1.43494c-21.84391,-0.45084 -35.45053,0.66243 -57.27917,-0.21166c-1.70976,-0.06846 -3.07286,-19.60101 -0.40009,-21.83578c2.26348,-1.89256 36.22811,-1.49365 58.18387,-1.2929c22.55476,0.20622 56.8899,0.09342 58.16174,0.76905c2.32221,1.23363 2.89402,13.67918 0.68077,21.13633z" data-paper-data="{&quot;origPos&quot;:null}" fill="#ffffff" stroke="#986625"/></g><path d="M214.97878,309.45372c0.28942,0.08639 0.57667,0.27214 0.86177,0.55723c0.21166,0.14255 0.3175,0.36069 0.3175,0.65443c0,0.49244 -0.27862,0.64363 -0.83585,0.45356c-1.03239,-0.32829 -3.35852,-0.28078 -6.97839,0.14255c-0.72138,0.12095 -1.11663,0.20518 -1.18574,0.2527c-0.18143,0.18143 -0.38445,0.27214 -0.60907,0.27214c-0.18143,0 -0.41253,-0.14255 -0.6933,-0.42764c-0.64363,-0.63931 -0.93736,-1.17926 -0.88121,-1.61987c0,-0.75594 0.29589,-0.83801 0.88769,-0.24622c0.16847,0.33693 0.4622,0.5054 0.88121,0.5054c0.93736,0 1.59611,-0.0216 1.97624,-0.06479c1.38661,-0.12959 3.00647,-0.2527 4.8596,-0.36933c0.22462,-1.36933 0.41036,-2.75593 0.55723,-4.15982c-2.49244,0.19438 -4.30453,0.33477 -5.43627,0.42117c-0.4406,0 -0.79266,0.04968 -1.05615,0.14903c-0.20302,0.20302 -0.39525,0.30454 -0.57667,0.30454c-0.21166,0 -0.45788,-0.11231 -0.73866,-0.33693c-0.74298,-0.64363 -1.08639,-1.19222 -1.03023,-1.64578c0,-0.75594 0.28078,-0.85097 0.84233,-0.2851c0.32397,0.31965 0.58963,0.47948 0.79698,0.47948c0.55291,0 1.19438,-0.0216 1.9244,-0.06479c1.29589,-0.08639 3.06695,-0.17063 5.31316,-0.2527c0.06912,-0.06479 0.24838,-0.2419 0.5378,-0.53132c0.59179,0.29373 1.04535,0.55291 1.36069,0.77754c0.22894,0.15551 0.34341,0.35853 0.34341,0.60907c0,0.27214 -0.20086,0.44924 -0.60259,0.53132c-0.08207,0.01728 -0.12311,0.01944 -0.12311,0.00648c-0.25486,1.41252 -0.49244,2.70842 -0.71274,3.88768zM230.9701,308.02824c-1.89633,-0.0432 -3.5961,-0.0432 -5.09934,0c-1.20518,0.0432 -2.49891,0.10799 -3.8812,0.19438c-0.69114,0.03888 -1.04967,0.06912 -1.07559,0.09071c-0.23758,0.2419 -0.46868,0.36285 -0.6933,0.36285c-0.13823,0 -0.36933,-0.16415 -0.6933,-0.49244c-0.33261,-0.32829 -0.57019,-0.63715 -0.71274,-0.92656c-0.24622,-0.49244 -0.34341,-0.98704 -0.29157,-1.4838c0.28078,-0.56156 0.58315,-0.60259 0.90713,-0.12311c0.19438,0.54428 0.38013,0.86177 0.55723,0.95248c0.21166,0.10367 0.5054,0.15551 0.88121,0.15551c1.29157,0 3.03887,-0.0216 5.24189,-0.06479c2.19438,-0.0432 3.57019,-0.08639 4.12742,-0.12959c0.38877,-0.03456 0.59827,-0.06479 0.62851,-0.09071c0.19438,-0.19871 0.40389,-0.29806 0.62851,-0.29806c0.4838,0 0.90929,0.18575 1.27646,0.55723c0.37149,0.36717 0.55723,0.60043 0.55723,0.69978c0.19006,0.57019 -0.06912,0.80994 -0.77754,0.71922c-0.5486,-0.08207 -1.07559,-0.12311 -1.58099,-0.12311zM243.47547,302.88354c0.16847,-0.13391 0.40173,-0.31317 0.69978,-0.53779c0.49244,0.30669 0.89417,0.59395 1.20518,0.86177c0.25918,0.19006 0.38877,0.42981 0.38877,0.71922c0,0.35853 -0.24622,0.5378 -0.73866,0.5378c-0.76026,1.20086 -1.49028,2.21814 -2.19006,3.05183c1.19654,0.38877 2.26781,1.05616 3.21382,2.00216c0.80345,0.79913 1.20518,1.4622 1.20518,1.9892c0,0.61771 -0.28726,0.92657 -0.86177,0.92657c-0.30238,0 -0.61555,-0.27214 -0.93952,-0.81641c-0.37581,-0.62203 -0.81209,-1.18358 -1.30885,-1.68466c-0.58747,-0.58315 -1.26998,-1.12095 -2.04751,-1.61339c-2.06047,2.06047 -4.44491,3.64578 -7.15333,4.75593c-1.17494,0.12959 -1.33261,-0.16415 -0.473,-0.88121c4.15118,-2.18142 7.11013,-4.97839 8.87687,-8.39091c0.08207,0.04751 0.11231,0.11663 0.09071,0.20734c-3.1231,0.41469 -4.74297,0.70842 -4.8596,0.88121c-0.15551,0.23326 -0.35853,0.34989 -0.60907,0.34989c-0.17279,0 -0.44276,-0.15767 -0.80993,-0.473c-0.75594,-0.65658 -1.07559,-1.19006 -0.95896,-1.60043c0,-0.73866 0.29373,-0.81425 0.88121,-0.22678c0.16415,0.29806 0.39525,0.44709 0.69331,0.44709c1.02376,0 2.92224,-0.16847 5.69545,-0.5054zM257.78862,305.41701c0.65658,0.32829 0.7041,0.66091 0.14255,0.99784c-0.22462,0.16847 -0.59179,0.2527 -1.10151,0.2527v-0.08423l0.08424,1.21166h1.84017l0.21382,-1.34125v0.21382c-0.7041,0 -1.05615,-0.37365 -1.05615,-1.12095v-3.29157l1.39956,0.74514h1.64578v-0.93304h-3.43412v-1.07559h3.4082l0.49244,-0.64795l1.18574,0.84881c0.63499,0.527 0.59395,0.86177 -0.12311,1.00432v2.00863c-1.01943,0.94168 -1.52915,0.91361 -1.52915,-0.08423v-0.04535h-1.5162v1.34125c-0.05616,0 -0.08423,-0.02808 -0.08423,-0.08423h2.63066c0.15119,-0.0216 0.26566,-0.13175 0.34341,-0.33045l0.26566,-1.41252c0.57451,-0.76458 0.86177,-0.71706 0.86177,0.14255v1.42548c0,0.03888 0.00432,0.05832 0.01296,0.05832c0.61771,0.20734 0.65443,0.58099 0.11015,1.12095c-0.38013,0.2203 -0.83801,0.33045 -1.37365,0.33045h-1.9244v1.12743h0.74514l0.81641,-0.81641l1.15335,0.82289c0.58315,0.4838 0.53348,0.84017 -0.14903,1.06911h-2.56587v0.93304h1.2635l0.95248,-0.95248l1.28293,0.95896c0.57883,0.4838 0.527,0.84017 -0.15551,1.06911h-10.89846v-1.07559h2.65658v-0.93304h-2.20302v-1.07559h2.20302v-1.12743h-1.53563c-0.7473,0 -1.12095,-0.37365 -1.12095,-1.12095v-3.29157l1.39956,0.74514h1.38661v-0.93304h-3.17494v-1.07559h3.14902l0.49244,-0.64795l1.18574,0.84881c0.63499,0.527 0.59395,0.86177 -0.12311,1.00432v1.87905c-1.01943,0.94168 -1.52915,0.91361 -1.52915,-0.08423h0.08424l-1.34125,0.08424v1.34125c-0.05616,0 -0.08423,-0.02808 -0.08423,-0.08423h2.07343c0.21166,0 0.33693,-0.08423 0.37581,-0.2527l0.27862,-1.23758c0.57019,-0.76026 0.85529,-0.71058 0.85529,0.14903v1.42548c-0.00864,0 0.00216,0 0.0324,0zM255.53376,314.96127c-1.74946,0 -3.20518,-0.72138 -4.36716,-2.16414l-0.96544,0.96544c0.23326,1.2311 -0.09935,1.44708 -0.99784,0.64795l-1.15982,-1.25054l2.41684,-1.27645v-4.43843h-2.33261v-1.07559h2.40388l0.62851,-0.62851l0.98488,0.73866c0.94168,0.41901 0.88985,0.77754 -0.15551,1.07559v4.42548c0.75162,1.0108 2.10583,1.5162 4.06263,1.5162h8.77968c-1.08855,0.54428 -1.63283,1.03239 -1.63283,1.46436zM258.54024,311.28741c-0.60475,-0.40173 -0.51188,-0.6825 0.27862,-0.84233c0.48812,0.05184 0.89417,0.12311 1.21814,0.21382c1.63283,0.47948 2.44924,1.12959 2.44924,1.95032c0,0.44492 -0.24406,0.66739 -0.73218,0.66739c-0.22462,0 -0.45572,-0.12095 -0.6933,-0.36285c-0.57883,-0.57451 -1.419,-1.11663 -2.52051,-1.62634zM248.62665,301.6654c-0.43197,-0.57883 -0.30022,-0.86825 0.39525,-0.86825c0.7041,0.14255 1.30885,0.34989 1.81425,0.62203c0.85529,0.45356 1.28293,1.07343 1.28293,1.85961c0,0.57451 -0.28726,0.86177 -0.86177,0.86177c-0.27646,0 -0.55075,-0.29806 -0.82289,-0.89417c-0.34989,-0.58315 -0.95248,-1.11015 -1.80777,-1.58099zM256.91389,308.87057v0.93304h1.84017v-0.93304zM257.8275,311.11246c0.70842,0.70842 0.49244,1.0216 -0.64795,0.93952c-1.09719,0.71706 -2.26133,1.19006 -3.49243,1.41901c-0.69546,0 -0.81857,-0.29806 -0.36933,-0.89417c1.34773,-0.43628 2.47732,-1.18358 3.38876,-2.2419zM269.5035,314.85112c-1.03239,0.44492 -1.2419,0.20734 -0.62851,-0.71274c1.892,-1.84881 2.83801,-4.06478 2.83801,-6.64793v-7.02374l1.41252,0.84881h4.1339l0.49244,-0.64795l1.18574,0.84881c0.63499,0.527 0.59395,0.86177 -0.12311,1.00432v4.8596c-1.01943,0.94168 -1.52915,0.91361 -1.52915,-0.08423v-0.43412h-2.07991c0.69114,3.02375 2.78401,5.3218 6.27861,6.89415c-1.01943,0.34125 -1.7257,0.70842 -2.11878,1.10151c-2.92008,-1.78833 -4.67601,-4.45355 -5.2678,-7.99566h-0.85529v0.23974c0,3.35636 -1.24622,5.93951 -3.73865,7.74944zM273.24215,302.3911v3.39524h4.04319v-3.39524zM268.9657,308.88353v4.63282c0,0.57883 -0.1879,1.03024 -0.56371,1.35421c-0.23326,0.23326 -0.527,0.34989 -0.88121,0.34989c-0.40173,0 -0.60259,-0.20086 -0.60259,-0.60259c0,-0.05184 -0.04535,-0.09287 -0.13607,-0.12311l-0.86825,-0.20086c-0.60907,-0.30238 -0.59827,-0.61123 0.0324,-0.92656h1.38013c0.07343,0 0.11015,-0.03672 0.11015,-0.11015v-3.75161l-0.81641,0.35637c-0.07343,1.32181 -0.42981,1.50108 -1.06911,0.5378l-1.03671,-1.55507l2.92224,-0.83585v-3.1555h-2.59179v-1.07559h2.59179v-3.75809l1.56803,0.27862c0.89849,0.55723 0.88553,0.91361 -0.03888,1.06911v2.41036h0.35637l0.95248,-0.95248l1.28293,0.95896c0.57883,0.4838 0.527,0.84017 -0.15551,1.06911h-2.43628v2.74729l2.19654,-0.71274c1.24406,0 1.33477,0.30238 0.27214,0.90713z" data-paper-data="{&quot;origPos&quot;:null}" fill="#000000" stroke="none" stroke-width="1" stroke-linecap="square"/></g></g></svg>