<svg version="1.1" xmlns="http://www.w3.org/2000/svg" xmlns:xlink="http://www.w3.org/1999/xlink" width="719" height="365.26369" viewBox="0,0,719,365.26369"><defs><linearGradient x1="242.97053" y1="271.93746" x2="242.97053" y2="297.93746" gradientUnits="userSpaceOnUse" id="color-1"><stop offset="0" stop-color="#a5773a"/><stop offset="1" stop-color="#d89e4c"/></linearGradient></defs><g transform="translate(115.94101,3.82621)"><g data-paper-data="{&quot;isPaintingLayer&quot;:true}" fill="none" fill-rule="none" stroke="none" stroke-width="none" stroke-linecap="none" stroke-linejoin="none" stroke-miterlimit="10" stroke-dasharray="" stroke-dashoffset="0" font-family="none" font-weight="none" font-size="none" text-anchor="none" style="mix-blend-mode: normal"><path d="M6.03501,327.56926v-301.07749h467.11976v301.07749z" data-paper-data="{&quot;origPos&quot;:null}" fill="#b4be66" fill-rule="nonzero" stroke="none" stroke-width="0" stroke-linecap="butt" stroke-linejoin="miter"/><g data-paper-data="{&quot;origPos&quot;:null}" fill-rule="nonzero" stroke="none" stroke-width="0" stroke-linecap="butt" stroke-linejoin="miter"><path d="M-106.94101,255.93746v-40h632v40z" data-paper-data="{&quot;origPos&quot;:null}" fill="#eec06c"/><path d="M-115.94101,271.93746v-16h719v16z" data-paper-data="{&quot;origPos&quot;:null}" fill="#e59f3c"/></g><path d="M118.76903,68.84776h273.7638v100.8504h-273.7638z" data-paper-data="{&quot;origPos&quot;:null}" fill-opacity="0" fill="#000000" fill-rule="evenodd" stroke="none" stroke-width="1" stroke-linecap="square" stroke-linejoin="miter"/><g data-paper-data="{&quot;origPos&quot;:null}" fill="#000000" fill-rule="evenodd" stroke-width="1"><g><path d="M247.46308,99.98205l8.15918,6.13227c3.69883,3.08043 3.36674,5.34784 -0.99627,6.80217h-63.5729v-6.87088h50.34644l6.06356,-6.06357zM212.76511,129.40664v15.39079h22.39908v-15.39079zM203.00843,117.77766l8.93216,4.75808h23.10336l3.50416,-4.50043l8.34811,5.73719c5.08448,3.81334 4.42601,6.14947 -1.97535,7.00831v22.12427c-3.15587,2.91137 -5.54614,4.36708 -7.17081,4.36708c-1.72392,0 -2.58587,-1.63893 -2.58587,-4.91675v-0.68711h-22.39909v4.53479c-3.15587,2.91139 -5.54613,4.3671 -7.17082,4.3671c-1.72391,0 -2.58585,-1.63892 -2.58585,-4.91676v-37.87576zM269.05485,82.16928l8.34814,5.73718c5.08445,3.81334 4.42599,6.14945 -1.97538,7.00831v68.57148c0,3.97367 -1.2196,7.0083 -3.65875,9.10393c-1.96967,1.63755 -3.97367,2.62239 -6.01204,2.95448c-0.44677,0.07471 -0.86376,0.11207 -1.25104,0.11207c-2.52124,0 -3.78187,-1.5833 -3.78187,-4.74992c0,-0.3779 -0.15461,-0.62982 -0.4638,-0.75579l-7.00829,-1.23675c-4.92414,-1.96965 -4.86688,-3.96222 0.17177,-5.97767h10.73577c1.00773,0 1.51159,-0.50389 1.51159,-1.51161v-67.88438h-75.03011v-6.87087h74.90986l3.50417,-4.50043z" stroke="none" stroke-linecap="square" stroke-linejoin="miter"/><path d="M247.46308,99.98205l8.15918,6.13227c3.69883,3.08043 3.36674,5.34784 -0.99627,6.80217h-63.5729v-6.87088h50.34644l6.06356,-6.06357zM212.76511,129.40664v15.39079h22.39908v-15.39079zM203.00843,117.77766l8.93216,4.75808h23.10336l3.50416,-4.50043l8.34811,5.73719c5.08448,3.81334 4.42601,6.14947 -1.97535,7.00831v22.12427c-3.15587,2.91137 -5.54614,4.36708 -7.17081,4.36708c-1.72392,0 -2.58587,-1.63893 -2.58587,-4.91675v-0.68711h-22.39909v4.53479c-3.15587,2.91139 -5.54613,4.3671 -7.17082,4.3671c-1.72391,0 -2.58585,-1.63892 -2.58585,-4.91676v-37.87576zM269.05485,82.16928l8.34814,5.73718c5.08445,3.81334 4.42599,6.14945 -1.97538,7.00831v68.57148c0,3.97367 -1.2196,7.0083 -3.65875,9.10393c-1.96967,1.63755 -3.97367,2.62239 -6.01204,2.95448c-0.44677,0.07471 -0.86376,0.11207 -1.25104,0.11207c-2.52124,0 -3.78187,-1.5833 -3.78187,-4.74992c0,-0.3779 -0.15461,-0.62982 -0.4638,-0.75579l-7.00829,-1.23675c-4.92414,-1.96965 -4.86688,-3.96222 0.17177,-5.97767h10.73577c1.00773,0 1.51159,-0.50389 1.51159,-1.51161v-67.88438h-75.03011v-6.87087h74.90986l3.50417,-4.50043z" stroke="#000000" stroke-linecap="butt" stroke-linejoin="round"/></g><g><path d="M309.36978,78.40745l10.01433,1.76927c5.72573,3.58432 5.63984,5.86318 -0.25767,6.83655v16.14657h4.3115l5.71999,-5.72002v-4.99856h44.5749l6.8709,-6.8709l9.41312,6.92242c3.69882,3.0919 3.36671,5.36503 -0.99631,6.81936h-19.59919v64.17412c0,3.97367 -1.21959,7.0083 -3.65876,9.10394c-1.96965,1.63755 -3.97367,2.62238 -6.01202,2.95446c-0.47794,0.07994 -0.92183,0.11989 -1.33168,0.11989c-2.46751,0 -3.70123,-1.4485 -3.70123,-4.34549c0,-0.3779 -0.1775,-0.64128 -0.5325,-0.79014l-7.0083,-1.64901c-4.87835,-1.94674 -4.7982,-3.92786 0.24048,-5.94331h10.73575c1.00773,0 1.51161,-0.50389 1.51161,-1.51161v-62.11283h-27.21494l5.21092,3.9164c3.69882,3.08045 3.36671,5.34785 -0.99631,6.80219h-17.53794v17.31463l18.43115,-6.87088c5.96623,0 6.49872,2.03835 1.59749,6.11508l-20.02864,9.82537v29.13256c0,3.69884 -1.19669,6.57317 -3.59003,8.62297c-1.48869,1.48869 -3.36101,2.23305 -5.61696,2.23305c-2.56511,0 -3.84771,-1.28258 -3.84771,-3.8477c0,-0.32064 -0.29201,-0.57831 -0.87603,-0.77299l-5.51389,-1.27111c-3.8706,-1.93529 -3.79045,-3.91067 0.24048,-5.92614h8.76039c0.45806,0 0.68709,-0.22903 0.68709,-0.68708v-22.89724l-5.25623,2.52506c-0.53449,3.96576 -1.54426,5.94862 -3.02931,5.94862c-1.09216,0 -2.4414,-1.07249 -4.04771,-3.21744l-6.75063,-9.00087l19.08388,-6.66478v-20.56112h-16.49012v-6.8709h16.49012v-24.75238z" stroke="none" stroke-linecap="square" stroke-linejoin="miter"/><path d="M309.36978,78.40745l10.01433,1.76927c5.72573,3.58432 5.63984,5.86318 -0.25767,6.83655v16.14657h4.3115l5.71999,-5.72002v-4.99856h44.5749l6.8709,-6.8709l9.41312,6.92242c3.69882,3.0919 3.36671,5.36503 -0.99631,6.81936h-19.59919v64.17412c0,3.97367 -1.21959,7.0083 -3.65876,9.10394c-1.96965,1.63755 -3.97367,2.62238 -6.01202,2.95446c-0.47794,0.07994 -0.92183,0.11989 -1.33168,0.11989c-2.46751,0 -3.70123,-1.4485 -3.70123,-4.34549c0,-0.3779 -0.1775,-0.64128 -0.5325,-0.79014l-7.0083,-1.64901c-4.87835,-1.94674 -4.7982,-3.92786 0.24048,-5.94331h10.73575c1.00773,0 1.51161,-0.50389 1.51161,-1.51161v-62.11283h-27.21494l5.21092,3.9164c3.69882,3.08045 3.36671,5.34785 -0.99631,6.80219h-17.53794v17.31463l18.43115,-6.87088c5.96623,0 6.49872,2.03835 1.59749,6.11508l-20.02864,9.82537v29.13256c0,3.69884 -1.19669,6.57317 -3.59003,8.62297c-1.48869,1.48869 -3.36101,2.23305 -5.61696,2.23305c-2.56511,0 -3.84771,-1.28258 -3.84771,-3.8477c0,-0.32064 -0.29201,-0.57831 -0.87603,-0.77299l-5.51389,-1.27111c-3.8706,-1.93529 -3.79045,-3.91067 0.24048,-5.92614h8.76039c0.45806,0 0.68709,-0.22903 0.68709,-0.68708v-22.89724l-5.25623,2.52506c-0.53449,3.96576 -1.54426,5.94862 -3.02931,5.94862c-1.09216,0 -2.4414,-1.07249 -4.04771,-3.21744l-6.75063,-9.00087l19.08388,-6.66478v-20.56112h-16.49012v-6.8709h16.49012v-24.75238z" stroke="#000000" stroke-linecap="butt" stroke-linejoin="round"/></g><g><path d="M123.08283,127.34537c-1.62611,4.6264 -2.8457,7.69541 -3.65875,9.20699h26.69341v-9.20699zM122.46445,79.14609l9.44747,2.21586c7.84427,1.80933 7.64959,4.54624 -0.58403,8.21072c-0.41984,2.49628 -0.65414,3.75019 -0.70296,3.7618h-0.00001h-0.00005h0.00006v0h-0.00001l25.43817,-0.06871l6.87089,-6.87088l9.41313,6.92243c3.69882,3.09189 3.36672,5.365 -0.99629,6.81936h-41.74064c-0.66419,4.64928 -1.11653,6.99684 -1.35701,7.04264l22.86289,-0.30918l6.06356,-6.06357l8.15919,6.13228c3.69882,3.08045 3.36672,5.34784 -0.99629,6.80217h-37.34328c-0.58402,2.74837 -1.14514,4.99287 -1.68336,6.73349h35.69427l6.87088,-6.8709l9.41312,6.92242c3.69882,3.0919 3.36673,5.36503 -0.99629,6.81936h-20.42371v9.20698h5.54824l6.06355,-6.06356l8.15919,6.13227c3.69882,3.08045 3.36673,5.34785 -0.99627,6.80219h-18.77471v22.12425c0,4.47753 -2.02119,7.72975 -6.06356,9.75666c-1.81515,1.15431 -3.35997,1.73145 -4.6344,1.73145c-2.03815,0 -3.38484,-1.47609 -4.0401,-4.42827c0.10306,-0.62983 -0.14314,-1.03062 -0.73862,-1.2024l-7.57515,-1.33982c-1.9124,-1.91239 -1.86087,-3.87632 0.1546,-5.8918h11.21673c1.2024,0 1.84368,-0.28057 1.92385,-0.84169v-19.90838h-29.92272c-0.00857,0.01484 -0.01716,0.02967 -0.02576,0.04451v0c0.32065,0.04688 0.66133,0.10649 1.02204,0.17879c11.49729,4.53479 17.24594,9.91127 17.24594,16.12941c0,3.66449 -1.69482,5.4967 -5.08447,5.4967c-2.27884,0 -4.05382,-1.27111 -5.32494,-3.81334c-1.80934,-5.15317 -5.09018,-9.44747 -9.84255,-12.8829c-0.24373,-0.32525 -0.46357,-0.63536 -0.6595,-0.93034v0c-6.98499,10.15044 -17.19174,18.77433 -30.62022,25.87166c-5.55397,0 -6.3441,-1.98684 -2.37045,-5.96051c12.99743,-8.93216 21.3341,-16.97682 25.01003,-24.13398h-25.80018v-6.8709h29.3387c1.45433,-2.70254 2.78271,-5.77154 3.98511,-9.20699h-32.91156v-6.87088h35.19613c0.76725,-2.47353 1.36845,-4.718 1.80361,-6.73347h-27.93016v-6.87088h29.39023c0.22903,-0.76725 0.61837,-3.01175 1.16804,-6.73346h-35.50531v-6.8709h36.58749c0.355,-2.29029 0.88749,-6.99685 1.59748,-14.11968z" stroke="none" stroke-linecap="square" stroke-linejoin="miter"/><path d="M123.08283,127.34537c-1.62611,4.6264 -2.8457,7.69541 -3.65875,9.20699h26.69341v-9.20699zM122.46445,79.14609l9.44747,2.21586c7.84427,1.80933 7.64959,4.54624 -0.58403,8.21072c-0.41984,2.49628 -0.65414,3.75019 -0.70296,3.7618h-0.00001h-0.00005h0.00006v0h-0.00001l25.43817,-0.06871l6.87089,-6.87088l9.41313,6.92243c3.69882,3.09189 3.36672,5.365 -0.99629,6.81936h-41.74064c-0.66419,4.64928 -1.11653,6.99684 -1.35701,7.04264l22.86289,-0.30918l6.06356,-6.06357l8.15919,6.13228c3.69882,3.08045 3.36672,5.34784 -0.99629,6.80217h-37.34328c-0.58402,2.74837 -1.14514,4.99287 -1.68336,6.73349h35.69427l6.87088,-6.8709l9.41312,6.92242c3.69882,3.0919 3.36673,5.36503 -0.99629,6.81936h-20.42371v9.20698h5.54824l6.06355,-6.06356l8.15919,6.13227c3.69882,3.08045 3.36673,5.34785 -0.99627,6.80219h-18.77471v22.12425c0,4.47753 -2.02119,7.72975 -6.06356,9.75666c-1.81515,1.15431 -3.35997,1.73145 -4.6344,1.73145c-2.03815,0 -3.38484,-1.47609 -4.0401,-4.42827c0.10306,-0.62983 -0.14314,-1.03062 -0.73862,-1.2024l-7.57515,-1.33982c-1.9124,-1.91239 -1.86087,-3.87632 0.1546,-5.8918h11.21673c1.2024,0 1.84368,-0.28057 1.92385,-0.84169v-19.90838h-29.92272c-0.00857,0.01484 -0.01716,0.02967 -0.02576,0.04451v0c0.32065,0.04688 0.66133,0.10649 1.02204,0.17879c11.49729,4.53479 17.24594,9.91127 17.24594,16.12941c0,3.66449 -1.69482,5.4967 -5.08447,5.4967c-2.27884,0 -4.05382,-1.27111 -5.32494,-3.81334c-1.80934,-5.15317 -5.09018,-9.44747 -9.84255,-12.8829c-0.24373,-0.32525 -0.46357,-0.63536 -0.6595,-0.93034v0c-6.98499,10.15044 -17.19174,18.77433 -30.62022,25.87166c-5.55397,0 -6.3441,-1.98684 -2.37045,-5.96051c12.99743,-8.93216 21.3341,-16.97682 25.01003,-24.13398h-25.80018v-6.8709h29.3387c1.45433,-2.70254 2.78271,-5.77154 3.98511,-9.20699h-32.91156v-6.87088h35.19613c0.76725,-2.47353 1.36845,-4.718 1.80361,-6.73347h-27.93016v-6.87088h29.39023c0.22903,-0.76725 0.61837,-3.01175 1.16804,-6.73346h-35.50531v-6.8709h36.58749c0.355,-2.29029 0.88749,-6.99685 1.59748,-14.11968z" stroke="#000000" stroke-linecap="butt" stroke-linejoin="round"/></g></g><path d="M6.03501,334.55827v-62.59352h465.98872v62.59352z" data-paper-data="{&quot;origPos&quot;:null}" fill="#dea24e" fill-rule="nonzero" stroke="none" stroke-width="0" stroke-linecap="butt" stroke-linejoin="miter"/><path d="M477.67896,44.99729l-479.5612,-1.51649c0,0 -2.56454,-39.47403 7.6552,-46.89358c1.91861,-1.39291 469.8666,0.89646 470.77496,4.43195c0.99834,3.88567 1.13104,43.97811 1.13104,43.97811z" data-paper-data="{&quot;origPos&quot;:null}" fill="#f49e53" fill-rule="nonzero" stroke="none" stroke-width="NaN" stroke-linecap="butt" stroke-linejoin="miter"/><path d="M477.67896,359.67577c-0.90837,3.5355 -470.85635,0.88742 -472.77496,-0.5055c-10.21974,-7.41955 -6.78624,-31.84622 -6.78624,-31.84622l481.82328,-0.5055c0,0 -1.26375,28.97154 -2.26208,32.85721z" data-paper-data="{&quot;origPos&quot;:null,&quot;index&quot;:null}" fill="#f49e53" fill-rule="nonzero" stroke="none" stroke-width="NaN" stroke-linecap="butt" stroke-linejoin="miter"/><path d="M-11.99999,297.93746v-26h509.94101v26z" data-paper-data="{&quot;origPos&quot;:null}" fill="url(#color-1)" fill-rule="nonzero" stroke="none" stroke-width="0" stroke-linecap="butt" stroke-linejoin="miter"/></g></g></svg>