<svg version="1.1" xmlns="http://www.w3.org/2000/svg" xmlns:xlink="http://www.w3.org/1999/xlink" width="47.7358" height="11.54338"><g transform="translate(-195.47502,-30.35208)"><g data-paper-data="{&quot;isPaintingLayer&quot;:true}" fill="#ff0000" fill-rule="nonzero" stroke="none" stroke-width="1" stroke-linecap="square" stroke-linejoin="miter" stroke-miterlimit="10" stroke-dasharray="" stroke-dashoffset="0" font-family="none" font-weight="none" font-size="none" text-anchor="none" style="mix-blend-mode: normal"><path d="M200.10703,36.80255c0.27316,0.44746 0.40974,0.89752 0.40974,1.35019c0,0.66339 -0.24194,1.23572 -0.72583,1.717c-0.48388,0.5203 -1.15247,0.78046 -2.00577,0.78046c-0.61916,0 -1.15377,-0.173 -1.60384,-0.519c-0.47087,-0.36161 -0.70631,-0.78696 -0.70631,-1.27605c0,-0.24454 0.08325,-0.47217 0.24975,-0.6829c0.17951,-0.17951 0.36681,-0.26926 0.56193,-0.26926c0.29137,0 0.48909,0.10536 0.59315,0.31608c0.11447,0.18991 0.1717,0.35511 0.1717,0.49559c0,0.20552 -0.04293,0.37201 -0.12878,0.49949c-0.03902,0.08065 -0.05853,0.14829 -0.05853,0.20292c0,0.09105 0.06504,0.1743 0.19511,0.24975c0.21072,0.10406 0.43706,0.15609 0.679,0.15609c0.48388,0 0.84159,-0.14308 1.07312,-0.42925c0.24194,-0.26795 0.36291,-0.71281 0.36291,-1.33458c0,-0.47087 -0.13658,-0.87021 -0.40974,-1.198c-0.23154,-0.28357 -0.79737,-0.42535 -1.69749,-0.42535v-0.82729c0.6894,0 1.16678,-0.13138 1.43214,-0.39413c0.26275,-0.26535 0.39413,-0.61266 0.39413,-1.04191c0,-0.38243 -0.10926,-0.72453 -0.32779,-1.0263c-0.1691,-0.24194 -0.46047,-0.36291 -0.87411,-0.36291c-0.21592,0 -0.41494,0.03902 -0.59705,0.11707c-0.15349,0.07805 -0.23024,0.18991 -0.23024,0.3356c0,0.17951 0.0065,0.27706 0.01951,0.29267c0.11186,0.10926 0.1678,0.24584 0.1678,0.40974c0,0.20552 -0.04553,0.37722 -0.13658,0.5151c-0.11186,0.1665 -0.29007,0.24975 -0.53461,0.24975c-0.17951,0 -0.35901,-0.06764 -0.53852,-0.20292c-0.15089,-0.14829 -0.22633,-0.38243 -0.22633,-0.70241c0,-0.55152 0.23674,-1.00939 0.71021,-1.3736c0.45266,-0.31218 0.97036,-0.46827 1.55311,-0.46827c0.72843,0 1.28905,0.21462 1.68188,0.64388c0.41884,0.45266 0.62827,0.93005 0.62827,1.43214c0,0.52551 -0.14048,0.96386 -0.42144,1.31507c-0.24714,0.38763 -0.41364,0.59575 -0.49949,0.62437c0.27836,0.09886 0.55803,0.37592 0.83899,0.83119zM201.71477,39.39366c-0.65038,0.32519 -0.81167,0.16129 -0.48388,-0.49169c1.10825,-1.23572 1.82236,-2.54169 2.14235,-3.91789h-1.95114v-0.78046h2.01357v-1.5375c-0.42665,0.10666 -1.01719,0.20942 -1.77163,0.30828c-0.60615,-0.12227 -0.63607,-0.3473 -0.08975,-0.6751c1.65717,-0.43706 3.00085,-0.93785 4.03106,-1.50238l1.04191,0.57754c0.19772,0.49689 0.01171,0.6881 -0.55803,0.57363c-0.55672,0.1743 -1.07182,0.32389 -1.5453,0.44876v1.80675h0.30048l0.59315,-0.59315l0.83509,0.59705c0.42144,0.35121 0.38373,0.61006 -0.11316,0.77656h-1.61554v1.15117c1.18629,0.31218 1.77944,0.76615 1.77944,1.36189c0,0.38503 -0.16129,0.57754 -0.48388,0.57754c-0.18211,0 -0.39153,-0.17691 -0.62827,-0.53071c-0.19511,-0.27836 -0.41754,-0.48388 -0.66729,-0.61656v4.47202c-0.73883,0.6816 -1.10825,0.66078 -1.10825,-0.06244v-3.85155c-0.35901,0.61656 -0.93265,1.25263 -1.7209,1.90821zM204.97708,41.11066c2.83046,-0.92354 4.92988,-2.71989 6.29828,-5.38905l0.90143,0.64388c0.62957,0.54892 0.52941,0.79476 -0.30048,0.73753c-1.45165,2.4064 -3.68766,3.97903 -6.70802,4.71785c-0.79086,0 -0.8546,-0.23674 -0.19121,-0.71021zM212.78554,35.43675c0,0.38503 -0.17691,0.57754 -0.53071,0.57754c-0.23154,0 -0.44746,-0.21983 -0.64778,-0.65948c-0.38763,-0.80647 -0.87802,-1.44384 -1.47116,-1.91212c-0.23154,-0.46047 -0.08585,-0.63867 0.43706,-0.53461c0.79346,0.52811 1.3684,0.98728 1.72481,1.37751c0.32519,0.35901 0.48779,0.74273 0.48779,1.15117zM207.94281,33.18904c0.8507,0.30958 0.80777,0.58144 -0.12878,0.81557c-0.35641,1.10044 -0.8494,2.01488 -1.47897,2.7433c-0.37201,0.24975 -0.55803,0.13658 -0.55803,-0.3395c0.56973,-1.10565 0.96256,-2.31015 1.17849,-3.61351zM209.69493,37.30984c0,0.41884 -0.13528,0.74534 -0.40584,0.97947c-0.1691,0.1691 -0.38243,0.25365 -0.63997,0.25365c-0.29137,0 -0.43706,-0.14569 -0.43706,-0.43706c0,-0.03642 -0.03252,-0.06504 -0.09756,-0.08585l-0.62827,-0.14438c-0.43966,-0.22113 -0.43055,-0.44616 0.02732,-0.6751h0.99508c0.05203,0 0.07805,-0.02602 0.07805,-0.07805v-6.3373l1.13556,0.19902c0.65038,0.40584 0.64128,0.66469 -0.02732,0.77656zM217.67119,31.55398l1.01459,0.54242h0.99508l0.3395,-1.74432l1.17459,0.30828c0.61656,0.30698 0.53201,0.55152 -0.25365,0.73363l-0.39413,0.70241h1.74432l0.35121,-0.46827l0.8624,0.61266c0.46047,0.38503 0.43055,0.62827 -0.08975,0.72973v2.15406c-0.73883,0.6816 -1.10825,0.66078 -1.10825,-0.06244v-0.1717h-3.52766v0.95216h3.88667l0.35121,-0.46827l0.8624,0.61266c0.46047,0.38503 0.43055,0.62827 -0.08975,0.72973v2.52868c-0.73883,0.6816 -1.10825,0.66078 -1.10825,-0.06244v-0.26535h-3.90228v0.74924c-0.73883,0.6816 -1.10825,0.66078 -1.10825,-0.06244zM214.66644,31.39399c1.24353,0.24975 1.86529,0.69201 1.86529,1.32678c0,0.44746 -0.19251,0.67119 -0.57754,0.67119c-0.23414,0 -0.41754,-0.15349 -0.55022,-0.46047c-0.21853,-0.35641 -0.56843,-0.65428 -1.04971,-0.89362c-0.42925,-0.42925 -0.32519,-0.64388 0.31218,-0.64388zM213.46844,40.32631l1.7209,-0.96386v-3.16085h-1.68579v-0.78046h1.67017l0.35121,-0.46827l0.8624,0.61266c0.46047,0.38503 0.43055,0.62827 -0.08975,0.72973v3.15694c0.61916,0.59315 1.64546,0.90403 3.0789,0.93265l5.10028,0.24975c-0.07545,0.20032 -0.21592,0.47087 -0.42144,0.81167h-4.54225c-1.66757,0 -2.93582,-0.49299 -3.80472,-1.47897l-0.89362,0.89362c0.13788,0.90013 -0.07675,1.01849 -0.64388,0.35511zM218.77944,36.62305v1.51408h3.90228v-1.51408zM222.3071,32.87686h-3.52766v1.23312h3.52766zM227.64542,33.57927h-2.24771v-0.78046h2.24771v-2.34137l1.15507,0.19511c0.86891,0.31478 0.8533,0.58534 -0.04683,0.81167v1.33458h1.45165l0.35121,-0.46827l0.8624,0.61266c0.46047,0.38503 0.43055,0.62827 -0.08975,0.72973v1.2019c0,3.09841 -0.3369,4.98321 -1.01069,5.6544c-0.32779,0.3304 -0.66729,0.49559 -1.01849,0.49559c-0.32259,0 -0.48388,-0.14569 -0.48388,-0.43706c0,-0.09366 -0.03902,-0.16389 -0.11707,-0.21072l-0.65948,-0.42144c-0.64518,-0.43185 -0.58404,-0.64778 0.18341,-0.64778l0.65168,0.24975c0.22113,0.08325 0.40974,0.12488 0.56583,0.12488c0.05463,0 0.08975,-0.0065 0.10536,-0.01951c0.45006,-0.45266 0.6751,-2.00187 0.6751,-4.64762v-1.43604h-1.46726v0.26535c0,3.14264 -1.09654,5.55164 -3.28962,7.22702c-0.65818,0.43966 -0.82338,0.27706 -0.49559,-0.48779c1.78464,-1.78464 2.67697,-3.95301 2.67697,-6.5051zM233.07349,32.42419h1.90821l0.35121,-0.46827l0.8624,0.61266c0.46047,0.38503 0.43055,0.62827 -0.08975,0.72973v6.97728c-0.73883,0.6816 -1.10825,0.66078 -1.10825,-0.06244v-0.31218h-1.79505v0.93655c-0.73883,0.6816 -1.10825,0.66078 -1.10825,-0.06244v-8.97915zM234.99731,33.20465h-1.79505v5.91585h1.79505zM240.72586,32.74418l2.32576,2.89549c0.32519,0.8637 0.15219,1.01589 -0.519,0.45657l-1.3697,-1.1902v0.43706c0,1.1941 -0.30568,2.09552 -0.91703,2.70428c-0.67119,0.67379 -1.57262,1.01069 -2.70428,1.01069h-0.71802v-0.92094h0.71802c0.8663,0 1.5414,-0.24064 2.02529,-0.72192c0.45006,-0.45266 0.6751,-1.14337 0.6751,-2.07211v-0.42535l-1.33458,1.1902c-0.55412,0.333 -0.72453,0.17821 -0.5112,-0.46437z" data-paper-data="{&quot;origPos&quot;:null}"/></g></g></svg>