<svg version="1.1" xmlns="http://www.w3.org/2000/svg" xmlns:xlink="http://www.w3.org/1999/xlink" width="202.5" height="102.5"><defs><radialGradient cx="240.05902" cy="203.10515" r="62" gradientUnits="userSpaceOnUse" id="color-1"><stop offset="0" stop-color="#b2b2b2"/><stop offset="1" stop-color="#b2b2b2" stop-opacity="0"/></radialGradient><radialGradient cx="238.42392" cy="178.89002" r="59.44694" gradientUnits="userSpaceOnUse" id="color-2"><stop offset="0" stop-color="#7f3e13"/><stop offset="1" stop-color="#dcb26f"/></radialGradient><radialGradient cx="203.32777" cy="176.92936" r="15.88726" gradientUnits="userSpaceOnUse" id="color-3"><stop offset="0" stop-color="#d6b69a"/><stop offset="1" stop-color="#d6b69a" stop-opacity="0"/></radialGradient><radialGradient cx="261.32776" cy="201.42936" r="15.88726" gradientUnits="userSpaceOnUse" id="color-4"><stop offset="0" stop-color="#d6b69a"/><stop offset="1" stop-color="#d6b69a" stop-opacity="0"/></radialGradient></defs><g transform="translate(-138.80902,-152.68749)"><g data-paper-data="{&quot;isPaintingLayer&quot;:true}" fill="none" fill-rule="nonzero" stroke="none" stroke-width="none" stroke-linecap="none" stroke-linejoin="miter" stroke-miterlimit="10" stroke-dasharray="" stroke-dashoffset="0" font-family="none" font-weight="none" font-size="none" text-anchor="none" style="mix-blend-mode: normal"><g data-paper-data="{&quot;origPos&quot;:null}" stroke-linecap="butt"><path d="M340.05902,203.93749c0,27.61424 -44.77153,50 -100,50c-55.22847,0 -100,-22.38576 -100,-50c0,-27.61424 44.77153,-50 100,-50c55.22847,0 100,22.38576 100,50z" data-paper-data="{&quot;origPos&quot;:null}" fill="#ffffff" stroke="#b2b2b2" stroke-width="2.5"/><path d="M302.05902,203.10515c0,15.48051 -27.75835,28.02994 -62,28.02994c-34.24165,0 -62,-12.54943 -62,-28.02994c0,-15.48051 27.75835,-28.02994 62,-28.02994c34.24165,0 62,12.54943 62,28.02994z" data-paper-data="{&quot;origPos&quot;:null}" fill="url(#color-1)" stroke="none" stroke-width="0"/><path d="M324.05902,203.68749c0,20.84875 -37.38423,37.75 -83.5,37.75c-46.11577,0 -83.5,-16.90125 -83.5,-37.75c0,-20.84875 37.38423,-37.75 83.5,-37.75c46.11577,0 83.5,16.90125 83.5,37.75z" data-paper-data="{&quot;origPos&quot;:null}" fill="none" stroke="#bfbfbf" stroke-width="10"/></g><path d="M281.75528,211.41884c-4.9339,19.03106 -34.88186,20.08704 -57.20033,8.19225c-24.79944,-13.21705 -39.32425,-18.34112 -33.41793,-36.59249c5.85268,-18.08563 22.88186,-20.08704 49.70033,-11.69225c26.81847,8.3948 46.73992,17.63589 40.91793,40.09249z" data-paper-data="{&quot;origPos&quot;:null,&quot;origRot&quot;:0}" fill="#ffffff" stroke="#c2c2c2" stroke-width="1.5" stroke-linecap="butt"/><path d="M214.19616,153.71872c16.86654,-1.23105 41.56104,2.6703 67.29109,29.47891c5.01728,5.2276 15.38217,41.70182 11.12153,43.62969c-4.95089,2.24019 -41.04034,-23.59054 -57.53395,-28.90065c-20.02458,-6.4469 -57.23126,-17.16956 -60.12866,-25.95796c-2.8974,-8.7884 22.5877,-17.03385 39.24999,-18.24999z" data-paper-data="{&quot;origPos&quot;:null}" fill="url(#color-2)" stroke="none" stroke-width="0" stroke-linecap="butt"/><g data-paper-data="{&quot;origPos&quot;:null,&quot;origRot&quot;:0}" fill="none" stroke="#be8545" stroke-width="2.5" stroke-linecap="round"><path d="M197.83721,166.56375c0,0 1.8342,-3.38274 3.95326,-4.7184c2.09603,-1.32114 6.84739,-2.08933 6.84739,-2.08933" data-paper-data="{&quot;origPos&quot;:null,&quot;origRot&quot;:0}"/><path d="M209.07088,165.68894c0,0 1.83419,-3.38274 3.95325,-4.7184c2.09603,-1.32114 6.8474,-2.08934 6.8474,-2.08934" data-paper-data="{&quot;origPos&quot;:null,&quot;origRot&quot;:0}"/><path d="M226.30033,170.24647c0,0 1.8342,-3.38274 3.95326,-4.7184c2.09603,-1.32114 6.8474,-2.08933 6.8474,-2.08933" data-paper-data="{&quot;origPos&quot;:null,&quot;origRot&quot;:0}"/><path d="M255.36063,180.79595c0,0 1.20667,-3.65392 3.05595,-5.34347c1.82918,-1.67119 6.36964,-3.26801 6.36964,-3.26801" data-paper-data="{&quot;origPos&quot;:null}"/><path d="M263.73245,185.91533c0,0 1.20667,-3.65392 3.05595,-5.34347c1.82917,-1.67119 6.36963,-3.26801 6.36963,-3.26801" data-paper-data="{&quot;origPos&quot;:null}"/><path d="M268.91043,190.86265c0,0 1.20667,-3.65392 3.05595,-5.34347c1.82917,-1.67119 6.36963,-3.26801 6.36963,-3.26801" data-paper-data="{&quot;origPos&quot;:null}"/><path d="M274.27271,197.84701c0,0 1.20667,-3.65392 3.05595,-5.34347c1.82917,-1.67119 6.36963,-3.26801 6.36963,-3.26801" data-paper-data="{&quot;origPos&quot;:null}"/><path d="M280.3314,205.11729c0,0 0.905,-2.74044 2.29196,-4.0076c1.37189,-1.25339 4.77723,-2.45101 4.77723,-2.45101" data-paper-data="{&quot;origPos&quot;:null}"/><path d="M285.29906,210.41354c0,0 0.4525,-1.37022 1.14598,-2.0038c0.68594,-0.62669 2.38861,-1.2255 2.38861,-1.2255" data-paper-data="{&quot;origPos&quot;:null}"/><path d="M184.33785,177.00924c0,0 1.8342,-3.38274 3.95326,-4.7184c2.09603,-1.32114 6.8474,-2.08933 6.8474,-2.08933" data-paper-data="{&quot;origPos&quot;:null,&quot;origRot&quot;:0}"/><path d="M194.83174,176.60125c0,0 1.8342,-3.38274 3.95326,-4.7184c2.09603,-1.32114 6.8474,-2.08934 6.8474,-2.08934" data-paper-data="{&quot;origPos&quot;:null,&quot;origRot&quot;:0}"/><path d="M201.41332,179.88553c0,0 1.8342,-3.38274 3.95326,-4.7184c2.09603,-1.32114 6.8474,-2.08933 6.8474,-2.08933" data-paper-data="{&quot;origPos&quot;:null,&quot;origRot&quot;:0}"/><path d="M210.34113,182.76685c0,0 1.83419,-3.38274 3.95325,-4.7184c2.09603,-1.32114 6.8474,-2.08933 6.8474,-2.08933" data-paper-data="{&quot;origPos&quot;:null,&quot;origRot&quot;:0}"/><path d="M237.56809,193.47067c0,0 1.20667,-3.65392 3.05595,-5.34347c1.82917,-1.67119 6.36963,-3.26801 6.36963,-3.26801" data-paper-data="{&quot;origPos&quot;:null}"/><path d="M245.65172,198.28553c0,0 1.20667,-3.65392 3.05595,-5.34347c1.82918,-1.67119 6.36964,-3.26801 6.36964,-3.26801" data-paper-data="{&quot;origPos&quot;:null}"/><path d="M254.51272,203.15638c0,0 1.20667,-3.65392 3.05595,-5.34347c1.82917,-1.67119 6.36963,-3.26801 6.36963,-3.26801" data-paper-data="{&quot;origPos&quot;:null}"/><path d="M261.67072,207.83057c0,0 1.14633,-3.47122 2.90315,-5.0763c1.73772,-1.58763 6.05115,-3.10461 6.05115,-3.10461" data-paper-data="{&quot;origPos&quot;:null}"/><path d="M267.92177,212.77391c0,0 0.92511,-2.80134 2.34289,-4.09666c1.40237,-1.28124 4.88339,-2.50548 4.88339,-2.50548" data-paper-data="{&quot;origPos&quot;:null}"/><path d="M275.64025,216.96853c0,0 0.6335,-1.91831 1.60437,-2.80532c0.96032,-0.87737 3.34406,-1.71571 3.34406,-1.71571" data-paper-data="{&quot;origPos&quot;:null}"/><path d="M216.36218,167.43671c0,0 1.83419,-3.38274 3.95325,-4.7184c2.09603,-1.32114 6.8474,-2.08934 6.8474,-2.08934" data-paper-data="{&quot;origPos&quot;:null,&quot;origRot&quot;:0}"/></g><path d="M219.19616,183.96872c-0.5,3.03757 -7.39883,0.26794 -19,-5c-7.3856,-3.3537 -14.17043,-6.96298 -12.5,-9.5c1.67043,-2.53702 9.29483,1.29384 16,3.5c6.70517,2.20616 15.99336,8.00277 15.5,11z" data-paper-data="{&quot;origPos&quot;:null}" fill="url(#color-3)" stroke="none" stroke-width="0" stroke-linecap="butt"/><path d="M258.57479,163.74707c14.13478,7.68419 -14.75754,14.04518 -26.5,27.5c-5.55649,6.36677 -5.08612,27.70891 -12,26.5c-13.16768,-2.30241 -5.38659,-28.79801 -1,-33c9.0459,-8.66523 30.0202,-26.15357 39.5,-21z" data-paper-data="{&quot;origPos&quot;:null}" fill="#00180b" stroke="none" stroke-width="0" stroke-linecap="butt"/><path d="M276.67878,209.53522c-0.70613,2.99637 -7.39987,-0.23761 -18.61449,-6.28496c-7.13952,-3.8499 -13.66222,-7.91378 -11.82255,-10.33089c1.83967,-2.41711 9.18487,1.92513 15.72385,4.58373c6.53898,2.6586 15.40994,9.07554 14.71319,12.03212z" data-paper-data="{&quot;origPos&quot;:null,&quot;origRot&quot;:0}" fill="url(#color-4)" stroke="none" stroke-width="0" stroke-linecap="butt"/></g></g></svg>