<svg version="1.1" xmlns="http://www.w3.org/2000/svg" xmlns:xlink="http://www.w3.org/1999/xlink" width="118.45913" height="20.83004" viewBox="0,0,118.45913,20.83004"><g transform="translate(-44.56175,-15.04255)"><g data-paper-data="{&quot;isPaintingLayer&quot;:true}" fill="#000000" fill-rule="nonzero" stroke="none" stroke-width="1" stroke-linecap="square" stroke-linejoin="miter" stroke-miterlimit="10" stroke-dasharray="" stroke-dashoffset="0" font-family="none" font-weight="none" font-size="none" text-anchor="none" style="mix-blend-mode: normal"><path d="M58.83837,30.94912c-1.49007,1.44306 -4.27982,2.66049 -8.36928,3.6523c-1.20333,-0.19742 -1.29969,-0.59932 -0.28908,-1.20568c3.74161,-1.28794 6.3034,-2.64874 7.68535,-4.0824c-0.48885,-1.02941 -0.82729,-2.05648 -1.01531,-3.08119l-3.81447,0.16922l-0.23268,-1.40311l3.80742,-0.16922c-0.05641,-0.34314 -0.12221,-0.77794 -0.19742,-1.30439l-2.78506,0.08461l-0.23268,-1.41016l2.83441,-0.08461c-0.0329,-0.47475 -0.06581,-0.90955 -0.09871,-1.30439l-4.026,0.08461l-0.23268,-1.40311l4.18816,-0.09166c-0.08931,-1.15163 -0.16922,-2.60409 -0.23973,-4.35738l2.13639,0.47945c1.29264,0.57346 1.25974,1.05527 -0.09871,1.44541c0.04701,0.8884 0.08931,1.66398 0.12691,2.32676l3.61,-0.14807l1.23389,-1.23389l1.76975,1.14223c0.76618,0.63927 0.70508,1.10932 -0.18332,1.41016l-6.36686,0.23268c0.0329,0.36664 0.06581,0.79909 0.09871,1.29734l2.34791,-0.14102l1.23389,-1.23389l1.76975,1.14223c0.76618,0.63927 0.70508,1.10932 -0.18332,1.41016l-4.9849,0.23268c0.06581,0.45595 0.13396,0.89075 0.20447,1.30439l3.5677,-0.14807l1.23389,-1.23389l1.76975,1.14223c0.76618,0.63927 0.70508,1.10932 -0.18332,1.41016l-6.12713,0.23268c0.14102,0.62987 0.34549,1.23154 0.61342,1.805c0.47005,-0.40424 1.15633,-1.16338 2.05883,-2.2774l1.19863,0.95891c1.33495,1.09522 1.09992,1.59113 -0.70508,1.48771c-0.64397,0.59227 -1.18218,1.08582 -1.61463,1.48066c0.34314,0.53116 0.8602,1.06232 1.55117,1.59348c0.39954,0.30083 0.75913,0.4912 1.07877,0.57111c-0.0094,0 -0.01175,-0.00235 -0.00705,-0.00705c0.16452,-0.60637 0.35959,-1.389 0.58521,-2.34791c0.32904,-1.14693 0.77089,-1.16103 1.32555,-0.0423c-0.12691,0.82729 -0.24678,1.57702 -0.35959,2.2492c-0.0423,0.33374 -0.0376,0.53821 0.0141,0.61342c0.27733,0.41835 0.416,0.78499 0.416,1.09992c0,0.58286 -0.43245,0.8743 -1.29734,0.8743c-0.83669,0 -1.8332,-0.45595 -2.98953,-1.36785c-0.82729,-0.64867 -1.43601,-1.26679 -1.82615,-1.85436zM53.00737,22.85482c-1.20803,5.10477 -3.50189,8.94039 -6.88156,11.50688c-1.07172,0.53586 -1.39135,0.26323 -0.95891,-0.81789c1.75329,-1.64048 3.22221,-3.6288 4.40674,-5.96496c-0.28203,0.33844 -0.55466,-0.0188 -0.81789,-1.07172c-0.17392,-0.39014 -0.45595,-0.69098 -0.84609,-0.9025c-0.54996,0.9213 -1.3232,1.8473 -2.31971,2.77801c-0.96831,0.19272 -1.25269,-0.10811 -0.85314,-0.9025c2.11523,-2.89552 3.37027,-5.8263 3.76512,-8.79232h-3.06709v-1.41016h6.01432l1.24094,-1.23389l1.7627,1.24094c0.76148,0.63457 0.69333,1.10227 -0.20447,1.40311h-3.6523c-0.14102,1.02001 -0.35724,1.87551 -0.64867,2.56648h1.24799l0.81789,-0.81789l1.51592,1.08582c1.13283,0.98711 0.95891,1.43131 -0.52176,1.3326zM60.38249,18.45513c-0.42775,-0.61577 -0.95421,-1.00121 -1.57937,-1.15633c-0.81319,-0.61107 -0.71918,-1.01531 0.28203,-1.21273c2.10583,0.39484 3.15875,1.08347 3.15875,2.06588c0,0.75208 -0.29143,1.12812 -0.8743,1.12812c-0.42305,0 -0.75208,-0.27498 -0.98711,-0.82494zM50.29282,25.06171c0.32434,-0.74738 0.56406,-1.54647 0.71918,-2.39727h-1.60053c-0.33374,0.85079 -0.58992,1.41956 -0.76854,1.70629c0.9448,0.21152 1.49477,0.44185 1.64988,0.69098zM68.36397,15.9239c0.98711,0.26323 1.68044,0.66277 2.07998,1.19863c0.28203,0.37134 0.29613,0.81084 0.0423,1.3185c-0.31493,0.62987 -0.58286,1.71099 -0.80379,3.24336c-0.15982,1.24564 -0.15982,2.29855 0,3.15875c-0.17392,0.04701 -0.34549,0.0376 -0.51471,-0.0282c1.14223,-3.19635 2.2445,-5.32569 3.30682,-6.38801c0.70508,-0.70978 1.45951,-1.06467 2.2633,-1.06467c0.74738,0 1.3608,0.24208 1.84025,0.72623c0.99181,0.98711 1.48771,2.75686 1.48771,5.30924c0,3.51129 -0.80614,6.07072 -2.41842,7.6783c-1.46656,1.46656 -3.27156,2.49833 -5.415,3.09529c-1.29264,0 -1.44071,-0.39954 -0.4442,-1.19863c1.44776,-0.44185 2.82266,-1.3138 4.12471,-2.61584c1.37725,-1.38195 2.06588,-3.75807 2.06588,-7.12834c0,-2.35496 -0.26558,-3.80037 -0.79674,-4.33623c-0.14102,-0.13632 -0.28908,-0.20447 -0.4442,-0.20447c-0.26793,0 -0.58521,0.18097 -0.95186,0.54291c-0.79439,0.79909 -1.71804,2.6887 -2.77096,5.66883c-0.26323,0.74268 -0.39484,1.45481 -0.39484,2.13639c0,0.97771 -0.37604,1.46656 -1.12813,1.46656c-0.55466,0 -0.95186,-0.35724 -1.19158,-1.07172c-0.35254,-1.06232 -0.52881,-2.40667 -0.52881,-4.03305c0,-1.43836 0.19977,-3.24336 0.59932,-5.415c0.07521,-0.41365 -0.08696,-0.74033 -0.4865,-0.98006c-0.95891,-0.71918 -0.79909,-1.07877 0.47945,-1.07877z" data-paper-data="{&quot;origPos&quot;:null}"/><path d="M143.0178,31.35221c-1.17513,0.58757 -1.46656,0.29143 -0.8743,-0.8884c2.00242,-2.23275 3.29271,-4.59241 3.87088,-7.07898h-3.52539v-1.41016h3.6382v-2.77801c-0.77089,0.19272 -1.8379,0.37839 -3.20105,0.55701c-1.09522,-0.22092 -1.14928,-0.62752 -0.16217,-1.21979c2.99423,-0.78969 5.42205,-1.69454 7.28346,-2.71455l1.88256,1.04352c0.35724,0.8978 0.02115,1.24329 -1.00826,1.03646c-1.00591,0.31493 -1.93661,0.58521 -2.79211,0.81084v3.26451h0.54291l1.07172,-1.07172l1.50887,1.07877c0.76148,0.63457 0.69333,1.10227 -0.20447,1.40311h-2.91902v2.07998c2.14344,0.56406 3.21516,1.3843 3.21516,2.46072c0,0.69568 -0.29143,1.04352 -0.8743,1.04352c-0.32904,0 -0.70743,-0.31964 -1.13518,-0.95891c-0.35254,-0.50296 -0.75443,-0.8743 -1.20568,-1.11402v8.0802c-1.33495,1.23154 -2.00242,1.19393 -2.00242,-0.11281v-6.95912c-0.64867,1.11402 -1.68514,2.2633 -3.10939,3.44783zM148.91226,34.45455c5.11417,-1.66868 8.90749,-4.91439 11.37996,-9.73713l1.62873,1.16338c1.13753,0.99181 0.95656,1.43601 -0.54291,1.3326c-2.62289,4.34798 -6.66299,7.18945 -12.12029,8.52439c-1.42896,0 -1.54412,-0.42775 -0.34549,-1.28324zM163.02087,24.20272c0,0.69568 -0.31964,1.04352 -0.95891,1.04352c-0.41835,0 -0.80849,-0.39719 -1.17043,-1.19158c-0.70038,-1.45716 -1.58643,-2.60879 -2.65814,-3.45488c-0.41835,-0.83199 -0.15512,-1.15398 0.78969,-0.96596c1.43366,0.95421 2.47247,1.78385 3.11645,2.48893c0.58757,0.64867 0.88135,1.342 0.88135,2.07998zM154.27085,20.14147c1.53707,0.55936 1.45951,1.05057 -0.23268,1.47361c-0.64397,1.98832 -1.53472,3.64055 -2.67225,4.9567c-0.67217,0.45125 -1.00826,0.24678 -1.00826,-0.61342c1.02941,-1.99772 1.73919,-4.17406 2.12934,-6.52902zM157.43665,27.58709c0,0.75678 -0.24443,1.3467 -0.73328,1.76975c-0.30553,0.30553 -0.69098,0.4583 -1.15633,0.4583c-0.52646,0 -0.78969,-0.26323 -0.78969,-0.78969c0,-0.06581 -0.05876,-0.11751 -0.17627,-0.15512l-1.13518,-0.26088c-0.79439,-0.39954 -0.77794,-0.80614 0.04936,-1.21979h1.79795c0.09401,0 0.14102,-0.04701 0.14102,-0.14102v-11.45047l2.05178,0.35959c1.17513,0.73328 1.15868,1.20098 -0.04936,1.40311z" data-paper-data="{&quot;origPos&quot;:null}"/></g></g></svg>