<svg version="1.1" xmlns="http://www.w3.org/2000/svg" xmlns:xlink="http://www.w3.org/1999/xlink" width="74.04161" height="77.86046" viewBox="0,0,74.04161,77.86046"><g transform="translate(-204.47314,-138.37389)"><g data-paper-data="{&quot;isPaintingLayer&quot;:true}" fill="none" fill-rule="nonzero" stroke="none" stroke-width="none" stroke-linecap="none" stroke-linejoin="miter" stroke-miterlimit="10" stroke-dasharray="" stroke-dashoffset="0" font-family="none" font-weight="none" font-size="none" text-anchor="none" style="mix-blend-mode: normal"><path d="M206.01476,179.23435c-1.27677,-1.20584 -1.5,-3.84139 -1.5,-5.5c0,-11.90302 0,-25.10973 0,-25.5c0,-2.34158 -0.35347,-6.58921 1,-8.5c1.35347,-1.91079 7.09139,-1.25 8.75,-1.25c25.75735,0 51.85955,0 56.25,0c1.46349,0 5.8131,0.12572 6.75,1.25c0.9369,1.12428 1.25,4.74382 1.25,6.5c0,12.78111 0,22.48145 0,27.75c0,1.75618 -0.33325,4.18741 -1.5,5.5c-1.16674,1.31259 -3.93895,1 -5.5,1c-1.56105,0 -53.23145,0 -58.5,0c-1.75619,0 -5.72323,-0.04416 -7,-1.25z" data-paper-data="{&quot;origPos&quot;:null}" fill="#ffffff" stroke="none" stroke-width="0" stroke-linecap="butt"/><text transform="translate(252.0118,168.46347) scale(0.52267,0.41432)" font-size="40" xml:space="preserve" data-paper-data="{&quot;origPos&quot;:null}" fill="#000000" fill-rule="nonzero" stroke="#000000" stroke-width="3" stroke-linecap="butt" stroke-linejoin="miter" stroke-miterlimit="10" stroke-dasharray="" stroke-dashoffset="0" font-family="Sans Serif" font-weight="normal" text-anchor="start" style="mix-blend-mode: normal"><tspan x="0" dy="0">皿</tspan></text><g data-paper-data="{&quot;origPos&quot;:null}"><path d="M242.51475,183.98435v26.25" data-paper-data="{&quot;origPos&quot;:null}" fill="none" stroke="#cccccc" stroke-width="2.5" stroke-linecap="round"/><path d="M258.26475,212.48435c0,2.07107 -7.05151,3.75 -15.75,3.75c-8.69849,0 -15.75,-1.67893 -15.75,-3.75c0,-2.07107 7.05151,-3.75 15.75,-3.75c8.69849,0 15.75,1.67893 15.75,3.75z" data-paper-data="{&quot;origPos&quot;:null}" fill="#cccccc" stroke="none" stroke-width="0" stroke-linecap="butt"/><path d="M231.8118,184.17497c0,-6.09055 4.79055,-10.7 10.7,-10.7c5.90945,0 10.7,4.79055 10.7,10.7c0,0.10945 -21.4,0.29055 -21.4,0z" data-paper-data="{&quot;origPos&quot;:null}" fill="#cccccc" stroke="none" stroke-width="0" stroke-linecap="butt"/></g></g></g></svg>