<svg version="1.1" xmlns="http://www.w3.org/2000/svg" xmlns:xlink="http://www.w3.org/1999/xlink" width="386.88301" height="59.7607" viewBox="0,0,386.88301,59.7607"><defs><radialGradient cx="69.3739" cy="283.90027" r="20.65522" gradientUnits="userSpaceOnUse" id="color-1"><stop offset="0" stop-color="#b2b2b2"/><stop offset="1" stop-color="#b2b2b2" stop-opacity="0"/></radialGradient></defs><g transform="translate(-35.55901,-252.82074)"><g data-paper-data="{&quot;isPaintingLayer&quot;:true}" fill="none" fill-rule="nonzero" stroke="none" stroke-width="none" stroke-linecap="butt" stroke-linejoin="miter" stroke-miterlimit="10" stroke-dasharray="" stroke-dashoffset="0" font-family="none" font-weight="none" font-size="none" text-anchor="none" style="mix-blend-mode: normal"><path d="M420.69202,308.50199c-2.62552,2.49704 -102.74108,1.54337 -171.33213,0.46477c-62.56574,-0.98384 -161.58274,1.03012 -166.42085,-1.46188c-5.28932,-2.72442 -5.09152,-46.44138 -0.47142,-49.31825c7.70599,-4.79841 105.4515,-3.59289 168.33756,-3.15479c64.60175,0.45003 164.46272,-1.29613 169.62317,1.67829c3.40044,1.95997 3.22066,48.97958 0.26367,51.79187z" data-paper-data="{&quot;origPos&quot;:null}" fill="#ffffff" stroke="#ff0000" stroke-width="3.5"/><text transform="translate(108.05902,277.9375) scale(0.5,0.5)" font-size="40" xml:space="preserve" data-paper-data="{&quot;origPos&quot;:null}" fill="#cc0000" fill-rule="nonzero" stroke="none" stroke-width="1" stroke-linecap="butt" stroke-linejoin="miter" stroke-miterlimit="10" stroke-dasharray="" stroke-dashoffset="0" font-family="Sans Serif" font-weight="normal" text-anchor="start" style="mix-blend-mode: normal"><tspan x="0" dy="0">高級</tspan></text><text transform="translate(110.05902,299.9375) scale(0.5,0.5)" font-size="40" xml:space="preserve" data-paper-data="{&quot;origPos&quot;:null}" fill="#000000" fill-rule="nonzero" stroke="none" stroke-width="1" stroke-linecap="butt" stroke-linejoin="miter" stroke-miterlimit="10" stroke-dasharray="" stroke-dashoffset="0" font-family="Sans Serif" font-weight="normal" text-anchor="start" style="mix-blend-mode: normal"><tspan x="0" dy="0">10000円コース</tspan></text><text transform="translate(252.05902,277.88139) scale(0.4406,0.4406)" font-size="40" xml:space="preserve" data-paper-data="{&quot;origPos&quot;:null}" fill="#000000" fill-rule="nonzero" stroke="none" stroke-width="1" stroke-linecap="butt" stroke-linejoin="miter" stroke-miterlimit="10" stroke-dasharray="" stroke-dashoffset="0" font-family="Sans Serif" font-weight="normal" text-anchor="start" style="mix-blend-mode: normal"><tspan x="0" dy="0">文字数　:9〜19文字</tspan></text><text transform="translate(252.05902,299.61172) scale(0.44156,0.44156)" font-size="40" xml:space="preserve" data-paper-data="{&quot;origPos&quot;:null}" fill="#000000" fill-rule="nonzero" stroke="none" stroke-width="1" stroke-linecap="butt" stroke-linejoin="miter" stroke-miterlimit="10" stroke-dasharray="" stroke-dashoffset="0" font-family="Sans Serif" font-weight="normal" text-anchor="start" style="mix-blend-mode: normal"><tspan x="0" dy="0">制限時間:120秒</tspan></text><g><path d="M102.68877,284.17756c0,9.19965 -14.91558,16.65744 -33.31488,16.65744c-18.3993,0 -33.31488,-7.45779 -33.31488,-16.65744c0,-9.19965 14.91558,-16.65744 33.31488,-16.65744c18.3993,0 33.31488,7.45779 33.31488,16.65744z" data-paper-data="{&quot;origPos&quot;:null}" fill="#ffffff" stroke="#b2b2b2" stroke-width="1"/><path d="M90.02912,283.90027c0,5.15731 -9.24766,9.33814 -20.65522,9.33814c-11.40756,0 -20.65522,-4.18083 -20.65522,-9.33814c0,-5.15731 9.24766,-9.33814 20.65522,-9.33814c11.40756,0 20.65522,4.18083 20.65522,9.33814z" data-paper-data="{&quot;origPos&quot;:null}" fill="url(#color-1)" stroke="none" stroke-width="0"/><path d="M97.35839,284.09427c0,6.94574 -12.45451,12.57637 -27.81792,12.57637c-15.36341,0 -27.81792,-5.63063 -27.81792,-12.57637c0,-6.94574 12.45451,-12.57637 27.81792,-12.57637c15.36341,0 27.81792,5.63063 27.81792,12.57637z" data-paper-data="{&quot;origPos&quot;:null}" fill="none" stroke="#d0b169" stroke-width="2.5"/><g data-paper-data="{&quot;origPos&quot;:null}"><g data-paper-data="{&quot;origPos&quot;:null}" stroke="none" stroke-width="0"><g data-paper-data="{&quot;origPos&quot;:null}"><path d="M52.29801,270.40159c-0.2481,-0.86493 0.28183,-1.759 1.18362,-1.99695c0.90179,-0.23795 1.83396,0.27031 2.08205,1.13524c0.2481,0.86493 -0.28183,1.759 -1.18362,1.99695c-0.90179,0.23795 -1.83396,-0.27031 -2.08205,-1.13524z" data-paper-data="{&quot;origPos&quot;:null}" fill="#eb6c17"/><path d="M52.95626,269.58613c-0.09057,-0.31577 0.10289,-0.64217 0.43212,-0.72905c0.32922,-0.08687 0.66954,0.09869 0.76012,0.41445c0.09057,0.31577 -0.10289,0.64217 -0.43212,0.72905c-0.32922,0.08687 -0.66954,-0.09869 -0.76012,-0.41445z" data-paper-data="{&quot;origPos&quot;:null}" fill="#de4207"/><path d="M53.89972,269.76502c-0.05907,-0.20594 0.0671,-0.41881 0.28181,-0.47546c0.21471,-0.05666 0.43666,0.06436 0.49573,0.27029c0.05907,0.20594 -0.0671,0.41881 -0.28181,0.47546c-0.21471,0.05666 -0.43666,-0.06436 -0.49573,-0.27029z" data-paper-data="{&quot;origPos&quot;:null}" fill="#ffffff"/></g><g data-paper-data="{&quot;origPos&quot;:null}"><path d="M63.62657,270.9473c-0.2481,-0.86493 0.28183,-1.759 1.18362,-1.99695c0.90179,-0.23795 1.83396,0.27031 2.08206,1.13524c0.2481,0.86493 -0.28183,1.759 -1.18362,1.99695c-0.90179,0.23795 -1.83396,-0.27031 -2.08206,-1.13524z" data-paper-data="{&quot;origPos&quot;:null}" fill="#eb6c17"/><path d="M64.28482,270.13185c-0.09057,-0.31577 0.10289,-0.64217 0.43212,-0.72905c0.32922,-0.08687 0.66954,0.09869 0.76012,0.41445c0.09057,0.31577 -0.10289,0.64217 -0.43212,0.72905c-0.32922,0.08687 -0.66954,-0.09869 -0.76012,-0.41445z" data-paper-data="{&quot;origPos&quot;:null}" fill="#de4207"/><path d="M65.22828,270.31074c-0.05907,-0.20594 0.0671,-0.41881 0.28181,-0.47546c0.21471,-0.05666 0.43665,0.06436 0.49573,0.2703c0.05907,0.20594 -0.0671,0.41881 -0.28181,0.47546c-0.21471,0.05666 -0.43666,-0.06436 -0.49573,-0.27029z" data-paper-data="{&quot;origPos&quot;:null}" fill="#ffffff"/></g><g data-paper-data="{&quot;origPos&quot;:null}"><path d="M54.88361,268.17278c-0.2481,-0.86493 0.28183,-1.759 1.18362,-1.99695c0.90179,-0.23795 1.83396,0.27031 2.08206,1.13524c0.2481,0.86493 -0.28183,1.759 -1.18362,1.99695c-0.90179,0.23795 -1.83396,-0.27031 -2.08206,-1.13524z" data-paper-data="{&quot;origPos&quot;:null}" fill="#eb6c17"/><path d="M55.54186,267.35732c-0.09057,-0.31577 0.10289,-0.64217 0.43212,-0.72905c0.32922,-0.08687 0.66954,0.09869 0.76012,0.41445c0.09057,0.31577 -0.10289,0.64217 -0.43212,0.72905c-0.32922,0.08687 -0.66954,-0.09869 -0.76012,-0.41445z" data-paper-data="{&quot;origPos&quot;:null}" fill="#de4207"/><path d="M56.48533,267.53622c-0.05907,-0.20594 0.0671,-0.41881 0.28181,-0.47546c0.21471,-0.05666 0.43665,0.06436 0.49573,0.2703c0.05907,0.20594 -0.0671,0.41881 -0.28181,0.47546c-0.21471,0.05666 -0.43666,-0.06436 -0.49573,-0.27029z" data-paper-data="{&quot;origPos&quot;:null}" fill="#ffffff"/></g><g data-paper-data="{&quot;origPos&quot;:null}"><path d="M56.2365,266.63286c-0.2481,-0.86493 0.28183,-1.759 1.18362,-1.99695c0.90179,-0.23795 1.83396,0.27031 2.08206,1.13524c0.2481,0.86493 -0.28183,1.759 -1.18362,1.99695c-0.90179,0.23795 -1.83396,-0.27031 -2.08206,-1.13524z" data-paper-data="{&quot;origPos&quot;:null}" fill="#eb6c17"/><path d="M56.89475,265.81741c-0.09057,-0.31577 0.10289,-0.64217 0.43212,-0.72905c0.32922,-0.08687 0.66954,0.09869 0.76012,0.41445c0.09057,0.31577 -0.10289,0.64217 -0.43212,0.72905c-0.32922,0.08687 -0.66954,-0.09869 -0.76012,-0.41445z" data-paper-data="{&quot;origPos&quot;:null}" fill="#de4207"/><path d="M57.83822,265.9963c-0.05907,-0.20594 0.0671,-0.41881 0.28181,-0.47546c0.21471,-0.05666 0.43665,0.06436 0.49573,0.2703c0.05907,0.20594 -0.0671,0.41881 -0.28181,0.47546c-0.21471,0.05666 -0.43666,-0.06436 -0.49573,-0.27029z" data-paper-data="{&quot;origPos&quot;:null}" fill="#ffffff"/></g><g data-paper-data="{&quot;origPos&quot;:null}"><path d="M54.42306,266.96869c-0.2481,-0.86493 0.28183,-1.759 1.18362,-1.99695c0.90179,-0.23795 1.83396,0.27031 2.08206,1.13524c0.2481,0.86493 -0.28183,1.759 -1.18362,1.99695c-0.90179,0.23795 -1.83396,-0.27031 -2.08206,-1.13524z" data-paper-data="{&quot;origPos&quot;:null}" fill="#eb6c17"/><path d="M55.08131,266.15324c-0.09057,-0.31577 0.10289,-0.64217 0.43212,-0.72905c0.32922,-0.08687 0.66954,0.09869 0.76012,0.41445c0.09057,0.31577 -0.10289,0.64217 -0.43212,0.72905c-0.32922,0.08687 -0.66954,-0.09869 -0.76012,-0.41445z" data-paper-data="{&quot;origPos&quot;:null}" fill="#de4207"/><path d="M56.02478,266.33213c-0.05907,-0.20594 0.0671,-0.41881 0.28181,-0.47546c0.21471,-0.05666 0.43665,0.06436 0.49573,0.2703c0.05907,0.20594 -0.0671,0.41881 -0.28181,0.47546c-0.21471,0.05666 -0.43666,-0.06436 -0.49573,-0.27029z" data-paper-data="{&quot;origPos&quot;:null}" fill="#ffffff"/></g><g data-paper-data="{&quot;origPos&quot;:null}"><path d="M57.85052,266.7663c-0.2481,-0.86493 0.28183,-1.759 1.18362,-1.99695c0.90179,-0.23795 1.83396,0.27031 2.08206,1.13524c0.2481,0.86493 -0.28183,1.759 -1.18362,1.99695c-0.90179,0.23795 -1.83396,-0.27031 -2.08206,-1.13524z" data-paper-data="{&quot;origPos&quot;:null}" fill="#eb6c17"/><path d="M58.50877,265.95085c-0.09057,-0.31577 0.10289,-0.64217 0.43212,-0.72905c0.32922,-0.08687 0.66954,0.09869 0.76012,0.41445c0.09057,0.31577 -0.10289,0.64217 -0.43212,0.72905c-0.32922,0.08687 -0.66954,-0.09869 -0.76012,-0.41445z" data-paper-data="{&quot;origPos&quot;:null}" fill="#de4207"/><path d="M59.45223,266.12974c-0.05907,-0.20594 0.0671,-0.41881 0.28181,-0.47546c0.21471,-0.05666 0.43665,0.06436 0.49573,0.2703c0.05907,0.20594 -0.0671,0.41881 -0.28181,0.47546c-0.21471,0.05666 -0.43666,-0.06436 -0.49573,-0.27029z" data-paper-data="{&quot;origPos&quot;:null}" fill="#ffffff"/></g><g data-paper-data="{&quot;origPos&quot;:null}"><path d="M57.75584,267.74629c-0.2481,-0.86493 0.28183,-1.759 1.18362,-1.99695c0.90179,-0.23795 1.83396,0.27031 2.08206,1.13524c0.2481,0.86493 -0.28183,1.759 -1.18362,1.99695c-0.90179,0.23795 -1.83396,-0.27031 -2.08206,-1.13524z" data-paper-data="{&quot;origPos&quot;:null}" fill="#eb6c17"/><path d="M58.41409,266.93083c-0.09057,-0.31577 0.10289,-0.64217 0.43212,-0.72905c0.32922,-0.08687 0.66954,0.09869 0.76012,0.41445c0.09057,0.31577 -0.10289,0.64217 -0.43212,0.72905c-0.32922,0.08687 -0.66954,-0.09869 -0.76012,-0.41445z" data-paper-data="{&quot;origPos&quot;:null}" fill="#de4207"/><path d="M59.35756,267.10973c-0.05907,-0.20594 0.0671,-0.41881 0.28181,-0.47546c0.21471,-0.05666 0.43665,0.06436 0.49573,0.2703c0.05907,0.20594 -0.0671,0.41881 -0.28181,0.47546c-0.21471,0.05666 -0.43666,-0.06436 -0.49573,-0.27029z" data-paper-data="{&quot;origPos&quot;:null}" fill="#ffffff"/></g><g data-paper-data="{&quot;origPos&quot;:null}"><path d="M55.95995,270.31905c-0.2481,-0.86493 0.28183,-1.759 1.18362,-1.99695c0.90179,-0.23795 1.83396,0.27031 2.08206,1.13524c0.2481,0.86493 -0.28183,1.759 -1.18362,1.99695c-0.90179,0.23795 -1.83396,-0.27031 -2.08206,-1.13524z" data-paper-data="{&quot;origPos&quot;:null}" fill="#eb6c17"/><path d="M56.6182,269.5036c-0.09057,-0.31577 0.10289,-0.64217 0.43212,-0.72905c0.32922,-0.08687 0.66954,0.09869 0.76012,0.41445c0.09057,0.31577 -0.10289,0.64217 -0.43212,0.72905c-0.32922,0.08687 -0.66954,-0.09869 -0.76012,-0.41445z" data-paper-data="{&quot;origPos&quot;:null}" fill="#de4207"/><path d="M57.56167,269.68249c-0.05907,-0.20594 0.0671,-0.41881 0.28181,-0.47546c0.21471,-0.05666 0.43665,0.06436 0.49573,0.2703c0.05907,0.20594 -0.0671,0.41881 -0.28181,0.47546c-0.21471,0.05666 -0.43666,-0.06436 -0.49573,-0.27029z" data-paper-data="{&quot;origPos&quot;:null}" fill="#ffffff"/></g><g data-paper-data="{&quot;origPos&quot;:null}"><path d="M53.86949,271.86487c-0.2481,-0.86493 0.28183,-1.759 1.18362,-1.99695c0.90179,-0.23795 1.83396,0.27031 2.08206,1.13524c0.2481,0.86493 -0.28183,1.759 -1.18362,1.99695c-0.90179,0.23795 -1.83396,-0.27031 -2.08206,-1.13524z" data-paper-data="{&quot;origPos&quot;:null}" fill="#eb6c17"/><path d="M54.52774,271.04942c-0.09057,-0.31577 0.10289,-0.64217 0.43212,-0.72905c0.32922,-0.08687 0.66954,0.09869 0.76012,0.41445c0.09057,0.31577 -0.10289,0.64217 -0.43212,0.72905c-0.32922,0.08687 -0.66954,-0.09869 -0.76012,-0.41445z" data-paper-data="{&quot;origPos&quot;:null}" fill="#de4207"/><path d="M55.4712,271.22831c-0.05907,-0.20594 0.0671,-0.41881 0.28181,-0.47546c0.21471,-0.05666 0.43665,0.06436 0.49573,0.2703c0.05907,0.20594 -0.0671,0.41881 -0.28181,0.47546c-0.21471,0.05666 -0.43666,-0.06436 -0.49573,-0.27029z" data-paper-data="{&quot;origPos&quot;:null}" fill="#ffffff"/></g><g data-paper-data="{&quot;origPos&quot;:null}"><path d="M52.86563,271.57741c-0.2481,-0.86493 0.28183,-1.759 1.18362,-1.99695c0.90179,-0.23795 1.83396,0.27031 2.08206,1.13524c0.2481,0.86493 -0.28183,1.759 -1.18362,1.99695c-0.90179,0.23795 -1.83396,-0.27031 -2.08206,-1.13524z" data-paper-data="{&quot;origPos&quot;:null}" fill="#eb6c17"/><path d="M53.52388,270.76196c-0.09057,-0.31577 0.10289,-0.64217 0.43212,-0.72905c0.32922,-0.08687 0.66954,0.09869 0.76012,0.41445c0.09057,0.31577 -0.10289,0.64217 -0.43212,0.72905c-0.32922,0.08687 -0.66954,-0.09869 -0.76012,-0.41445z" data-paper-data="{&quot;origPos&quot;:null}" fill="#de4207"/><path d="M54.46735,270.94085c-0.05907,-0.20594 0.0671,-0.41881 0.28181,-0.47546c0.21471,-0.05666 0.43665,0.06436 0.49573,0.2703c0.05907,0.20594 -0.0671,0.41881 -0.28181,0.47546c-0.21471,0.05666 -0.43666,-0.06436 -0.49573,-0.27029z" data-paper-data="{&quot;origPos&quot;:null}" fill="#ffffff"/></g><g data-paper-data="{&quot;origPos&quot;:null}"><path d="M56.8516,272.62453c-0.2481,-0.86493 0.28183,-1.759 1.18362,-1.99695c0.90179,-0.23795 1.83396,0.27031 2.08206,1.13524c0.2481,0.86493 -0.28183,1.759 -1.18362,1.99695c-0.90179,0.23795 -1.83396,-0.27031 -2.08206,-1.13524z" data-paper-data="{&quot;origPos&quot;:null}" fill="#eb6c17"/><path d="M57.50985,271.80908c-0.09057,-0.31577 0.10289,-0.64217 0.43212,-0.72905c0.32922,-0.08687 0.66954,0.09869 0.76012,0.41445c0.09057,0.31577 -0.10289,0.64217 -0.43212,0.72905c-0.32922,0.08687 -0.66954,-0.09869 -0.76012,-0.41445z" data-paper-data="{&quot;origPos&quot;:null}" fill="#de4207"/><path d="M58.45331,271.98797c-0.05907,-0.20594 0.0671,-0.41881 0.28181,-0.47546c0.21471,-0.05666 0.43665,0.06436 0.49573,0.2703c0.05907,0.20594 -0.0671,0.41881 -0.28181,0.47546c-0.21471,0.05666 -0.43666,-0.06436 -0.49573,-0.27029z" data-paper-data="{&quot;origPos&quot;:null}" fill="#ffffff"/></g><g data-paper-data="{&quot;origPos&quot;:null}"><path d="M62.60633,267.79201c-0.2481,-0.86493 0.28183,-1.759 1.18362,-1.99695c0.90179,-0.23795 1.83396,0.27031 2.08206,1.13524c0.2481,0.86493 -0.28183,1.759 -1.18362,1.99695c-0.90179,0.23795 -1.83396,-0.27031 -2.08205,-1.13524z" data-paper-data="{&quot;origPos&quot;:null}" fill="#eb6c17"/><path d="M63.26458,266.97656c-0.09057,-0.31577 0.10289,-0.64217 0.43212,-0.72905c0.32922,-0.08687 0.66954,0.09869 0.76012,0.41445c0.09057,0.31577 -0.10289,0.64217 -0.43212,0.72905c-0.32922,0.08687 -0.66954,-0.09869 -0.76012,-0.41445z" data-paper-data="{&quot;origPos&quot;:null}" fill="#de4207"/><path d="M64.20804,267.15545c-0.05907,-0.20594 0.0671,-0.41881 0.28181,-0.47546c0.21471,-0.05666 0.43665,0.06436 0.49573,0.2703c0.05907,0.20594 -0.0671,0.41881 -0.28181,0.47546c-0.21471,0.05666 -0.43666,-0.06436 -0.49573,-0.27029z" data-paper-data="{&quot;origPos&quot;:null}" fill="#ffffff"/></g><g data-paper-data="{&quot;origPos&quot;:null}"><path d="M62.38259,267.0572c-0.2481,-0.86493 0.28183,-1.759 1.18362,-1.99695c0.90179,-0.23795 1.83396,0.27031 2.08206,1.13524c0.2481,0.86493 -0.28183,1.759 -1.18362,1.99695c-0.90179,0.23795 -1.83396,-0.27031 -2.08206,-1.13524z" data-paper-data="{&quot;origPos&quot;:null}" fill="#eb6c17"/><path d="M63.04084,266.24175c-0.09057,-0.31577 0.10289,-0.64217 0.43212,-0.72905c0.32922,-0.08687 0.66954,0.09869 0.76012,0.41445c0.09057,0.31577 -0.10289,0.64217 -0.43212,0.72905c-0.32922,0.08687 -0.66954,-0.09869 -0.76012,-0.41445z" data-paper-data="{&quot;origPos&quot;:null}" fill="#de4207"/><path d="M63.9843,266.42064c-0.05907,-0.20594 0.0671,-0.41881 0.28181,-0.47546c0.21471,-0.05666 0.43665,0.06436 0.49573,0.2703c0.05907,0.20594 -0.0671,0.41881 -0.28181,0.47546c-0.21471,0.05666 -0.43666,-0.06436 -0.49573,-0.27029z" data-paper-data="{&quot;origPos&quot;:null}" fill="#ffffff"/></g><g data-paper-data="{&quot;origPos&quot;:null}"><path d="M59.26328,270.99396c-0.2481,-0.86493 0.28183,-1.759 1.18362,-1.99695c0.90179,-0.23795 1.83396,0.27031 2.08206,1.13524c0.2481,0.86493 -0.28183,1.759 -1.18362,1.99695c-0.90179,0.23795 -1.83396,-0.27031 -2.08205,-1.13524z" data-paper-data="{&quot;origPos&quot;:null}" fill="#eb6c17"/><path d="M59.92153,270.17851c-0.09057,-0.31577 0.10289,-0.64217 0.43212,-0.72905c0.32922,-0.08687 0.66954,0.09869 0.76012,0.41445c0.09057,0.31577 -0.10289,0.64217 -0.43212,0.72905c-0.32922,0.08687 -0.66954,-0.09869 -0.76012,-0.41445z" data-paper-data="{&quot;origPos&quot;:null}" fill="#de4207"/><path d="M60.86499,270.3574c-0.05907,-0.20594 0.0671,-0.41881 0.28181,-0.47546c0.21471,-0.05666 0.43665,0.06436 0.49573,0.2703c0.05907,0.20594 -0.0671,0.41881 -0.28181,0.47546c-0.21471,0.05666 -0.43666,-0.06436 -0.49573,-0.27029z" data-paper-data="{&quot;origPos&quot;:null}" fill="#ffffff"/></g><g data-paper-data="{&quot;origPos&quot;:null}"><path d="M54.34594,271.51822c-0.2481,-0.86493 0.28183,-1.759 1.18362,-1.99695c0.90179,-0.23795 1.83396,0.27031 2.08205,1.13524c0.2481,0.86493 -0.28183,1.759 -1.18362,1.99695c-0.90179,0.23795 -1.83396,-0.27031 -2.08205,-1.13524z" data-paper-data="{&quot;origPos&quot;:null}" fill="#eb6c17"/><path d="M55.00419,270.70276c-0.09057,-0.31577 0.10289,-0.64217 0.43212,-0.72905c0.32922,-0.08687 0.66954,0.09869 0.76012,0.41445c0.09057,0.31577 -0.10289,0.64217 -0.43212,0.72905c-0.32922,0.08687 -0.66954,-0.09869 -0.76012,-0.41445z" data-paper-data="{&quot;origPos&quot;:null}" fill="#de4207"/><path d="M55.94765,270.88166c-0.05907,-0.20594 0.0671,-0.41881 0.28181,-0.47546c0.21471,-0.05666 0.43666,0.06436 0.49573,0.27029c0.05907,0.20594 -0.0671,0.41881 -0.28181,0.47546c-0.21471,0.05666 -0.43666,-0.06436 -0.49573,-0.27029z" data-paper-data="{&quot;origPos&quot;:null}" fill="#ffffff"/></g><g data-paper-data="{&quot;origPos&quot;:null}"><path d="M71.65692,268.82835c-0.2481,-0.86493 0.28183,-1.759 1.18362,-1.99695c0.90179,-0.23795 1.83396,0.27031 2.08206,1.13524c0.2481,0.86493 -0.28183,1.759 -1.18362,1.99695c-0.90179,0.23795 -1.83396,-0.27031 -2.08206,-1.13524z" data-paper-data="{&quot;origPos&quot;:null}" fill="#eb6c17"/><path d="M72.31518,268.0129c-0.09057,-0.31577 0.10289,-0.64217 0.43212,-0.72905c0.32922,-0.08687 0.66954,0.09869 0.76012,0.41445c0.09057,0.31577 -0.10289,0.64217 -0.43212,0.72905c-0.32922,0.08687 -0.66954,-0.09869 -0.76012,-0.41445z" data-paper-data="{&quot;origPos&quot;:null}" fill="#de4207"/><path d="M73.25864,268.19179c-0.05907,-0.20594 0.0671,-0.41881 0.28181,-0.47546c0.21471,-0.05666 0.43665,0.06436 0.49573,0.2703c0.05907,0.20594 -0.0671,0.41881 -0.28181,0.47546c-0.21471,0.05666 -0.43666,-0.06436 -0.49573,-0.27029z" data-paper-data="{&quot;origPos&quot;:null}" fill="#ffffff"/></g><g data-paper-data="{&quot;origPos&quot;:null}"><path d="M56.93154,269.28941c-0.2481,-0.86493 0.28183,-1.759 1.18362,-1.99695c0.90179,-0.23795 1.83396,0.27031 2.08206,1.13524c0.2481,0.86493 -0.28183,1.759 -1.18362,1.99695c-0.90179,0.23795 -1.83396,-0.27031 -2.08206,-1.13524z" data-paper-data="{&quot;origPos&quot;:null}" fill="#eb6c17"/><path d="M57.58979,268.47396c-0.09057,-0.31577 0.10289,-0.64217 0.43212,-0.72905c0.32922,-0.08687 0.66954,0.09869 0.76012,0.41445c0.09057,0.31577 -0.10289,0.64217 -0.43212,0.72905c-0.32922,0.08687 -0.66954,-0.09869 -0.76012,-0.41445z" data-paper-data="{&quot;origPos&quot;:null}" fill="#de4207"/><path d="M58.53326,268.65285c-0.05907,-0.20594 0.0671,-0.41881 0.28181,-0.47546c0.21471,-0.05666 0.43665,0.06436 0.49573,0.2703c0.05907,0.20594 -0.0671,0.41881 -0.28181,0.47546c-0.21471,0.05666 -0.43666,-0.06436 -0.49573,-0.27029z" data-paper-data="{&quot;origPos&quot;:null}" fill="#ffffff"/></g><g data-paper-data="{&quot;origPos&quot;:null}"><path d="M58.17338,267.19425c-0.2481,-0.86493 0.28183,-1.759 1.18362,-1.99695c0.90179,-0.23795 1.83396,0.27031 2.08206,1.13524c0.2481,0.86493 -0.28183,1.759 -1.18362,1.99695c-0.90179,0.23795 -1.83396,-0.27031 -2.08206,-1.13524z" data-paper-data="{&quot;origPos&quot;:null}" fill="#eb6c17"/><path d="M58.83163,266.3788c-0.09057,-0.31577 0.10289,-0.64217 0.43212,-0.72905c0.32922,-0.08687 0.66954,0.09869 0.76012,0.41445c0.09057,0.31577 -0.10289,0.64217 -0.43212,0.72905c-0.32922,0.08687 -0.66954,-0.09869 -0.76012,-0.41445z" data-paper-data="{&quot;origPos&quot;:null}" fill="#de4207"/><path d="M59.77509,266.55769c-0.05907,-0.20594 0.0671,-0.41881 0.28181,-0.47546c0.21471,-0.05666 0.43665,0.06436 0.49573,0.2703c0.05907,0.20594 -0.0671,0.41881 -0.28181,0.47546c-0.21471,0.05666 -0.43666,-0.06436 -0.49573,-0.27029z" data-paper-data="{&quot;origPos&quot;:null}" fill="#ffffff"/></g><g data-paper-data="{&quot;origPos&quot;:null}"><path d="M71.73038,279.52432c-0.2481,-0.86493 0.28183,-1.759 1.18362,-1.99695c0.90179,-0.23795 1.83396,0.27031 2.08206,1.13524c0.2481,0.86493 -0.28183,1.759 -1.18362,1.99695c-0.90179,0.23795 -1.83396,-0.27031 -2.08206,-1.13524z" data-paper-data="{&quot;origPos&quot;:null}" fill="#eb6c17"/><path d="M72.38863,278.70887c-0.09057,-0.31577 0.10289,-0.64217 0.43212,-0.72905c0.32922,-0.08687 0.66954,0.09869 0.76012,0.41445c0.09057,0.31577 -0.10289,0.64217 -0.43212,0.72905c-0.32922,0.08687 -0.66954,-0.09869 -0.76012,-0.41445z" data-paper-data="{&quot;origPos&quot;:null}" fill="#de4207"/><path d="M73.33209,278.88776c-0.05907,-0.20594 0.0671,-0.41881 0.28181,-0.47546c0.21471,-0.05666 0.43665,0.06436 0.49573,0.2703c0.05907,0.20594 -0.0671,0.41881 -0.28181,0.47546c-0.21471,0.05666 -0.43666,-0.06436 -0.49573,-0.27029z" data-paper-data="{&quot;origPos&quot;:null}" fill="#ffffff"/></g><g data-paper-data="{&quot;origPos&quot;:null}"><path d="M60.10978,267.05623c-0.2481,-0.86493 0.28183,-1.759 1.18362,-1.99695c0.90179,-0.23795 1.83396,0.27031 2.08206,1.13524c0.2481,0.86493 -0.28183,1.759 -1.18362,1.99695c-0.90179,0.23795 -1.83396,-0.27031 -2.08206,-1.13524z" data-paper-data="{&quot;origPos&quot;:null}" fill="#eb6c17"/><path d="M60.76803,266.24077c-0.09057,-0.31577 0.10289,-0.64217 0.43212,-0.72905c0.32922,-0.08687 0.66954,0.09869 0.76012,0.41445c0.09057,0.31577 -0.10289,0.64217 -0.43212,0.72905c-0.32922,0.08687 -0.66954,-0.09869 -0.76012,-0.41445z" data-paper-data="{&quot;origPos&quot;:null}" fill="#de4207"/><path d="M61.71149,266.41966c-0.05907,-0.20594 0.0671,-0.41881 0.28181,-0.47546c0.21471,-0.05666 0.43665,0.06436 0.49573,0.2703c0.05907,0.20594 -0.0671,0.41881 -0.28181,0.47546c-0.21471,0.05666 -0.43666,-0.06436 -0.49573,-0.27029z" data-paper-data="{&quot;origPos&quot;:null}" fill="#ffffff"/></g><g data-paper-data="{&quot;origPos&quot;:null}"><path d="M58.89952,273.74117c-0.2481,-0.86493 0.28183,-1.759 1.18362,-1.99695c0.90179,-0.23795 1.83396,0.27031 2.08206,1.13524c0.2481,0.86493 -0.28183,1.759 -1.18362,1.99695c-0.90179,0.23795 -1.83396,-0.27031 -2.08206,-1.13524z" data-paper-data="{&quot;origPos&quot;:null}" fill="#eb6c17"/><path d="M59.55777,272.92571c-0.09057,-0.31577 0.10289,-0.64217 0.43212,-0.72905c0.32922,-0.08687 0.66954,0.09869 0.76012,0.41445c0.09057,0.31577 -0.10289,0.64217 -0.43212,0.72905c-0.32922,0.08687 -0.66954,-0.09869 -0.76012,-0.41445z" data-paper-data="{&quot;origPos&quot;:null}" fill="#de4207"/><path d="M60.50125,273.1046c-0.05907,-0.20594 0.0671,-0.41881 0.28181,-0.47546c0.21471,-0.05666 0.43665,0.06436 0.49573,0.2703c0.05907,0.20594 -0.0671,0.41881 -0.28181,0.47546c-0.21471,0.05666 -0.43666,-0.06436 -0.49573,-0.27029z" data-paper-data="{&quot;origPos&quot;:null}" fill="#ffffff"/></g><g data-paper-data="{&quot;origPos&quot;:null}"><path d="M64.65426,268.90865c-0.2481,-0.86493 0.28183,-1.759 1.18362,-1.99695c0.90179,-0.23795 1.83396,0.27031 2.08206,1.13524c0.2481,0.86493 -0.28183,1.759 -1.18362,1.99695c-0.90179,0.23795 -1.83396,-0.27031 -2.08205,-1.13524z" data-paper-data="{&quot;origPos&quot;:null}" fill="#eb6c17"/><path d="M65.31251,268.09319c-0.09057,-0.31577 0.10289,-0.64217 0.43212,-0.72905c0.32922,-0.08687 0.66954,0.09869 0.76012,0.41445c0.09057,0.31577 -0.10289,0.64217 -0.43212,0.72905c-0.32922,0.08687 -0.66954,-0.09869 -0.76012,-0.41445z" data-paper-data="{&quot;origPos&quot;:null}" fill="#de4207"/><path d="M66.25597,268.27209c-0.05907,-0.20594 0.0671,-0.41881 0.28181,-0.47546c0.21471,-0.05666 0.43665,0.06436 0.49573,0.2703c0.05907,0.20594 -0.0671,0.41881 -0.28181,0.47546c-0.21471,0.05666 -0.43666,-0.06436 -0.49573,-0.27029z" data-paper-data="{&quot;origPos&quot;:null}" fill="#ffffff"/></g><g data-paper-data="{&quot;origPos&quot;:null}"><path d="M64.54157,266.5081c-0.2481,-0.86493 0.28183,-1.759 1.18362,-1.99695c0.90179,-0.23795 1.83396,0.27031 2.08206,1.13524c0.2481,0.86493 -0.28183,1.759 -1.18362,1.99695c-0.90179,0.23795 -1.83396,-0.27031 -2.08206,-1.13524z" data-paper-data="{&quot;origPos&quot;:null}" fill="#eb6c17"/><path d="M65.19982,265.69264c-0.09057,-0.31577 0.10289,-0.64217 0.43212,-0.72905c0.32922,-0.08687 0.66954,0.09869 0.76012,0.41445c0.09057,0.31577 -0.10289,0.64217 -0.43212,0.72905c-0.32922,0.08687 -0.66954,-0.09869 -0.76012,-0.41445z" data-paper-data="{&quot;origPos&quot;:null}" fill="#de4207"/><path d="M66.14328,265.87154c-0.05907,-0.20594 0.0671,-0.41881 0.28181,-0.47546c0.21471,-0.05666 0.43665,0.06436 0.49573,0.2703c0.05907,0.20594 -0.0671,0.41881 -0.28181,0.47546c-0.21471,0.05666 -0.43666,-0.06436 -0.49573,-0.27029z" data-paper-data="{&quot;origPos&quot;:null}" fill="#ffffff"/></g><g data-paper-data="{&quot;origPos&quot;:null}"><path d="M56.39386,272.63485c-0.2481,-0.86493 0.28183,-1.759 1.18362,-1.99695c0.90179,-0.23795 1.83396,0.27031 2.08205,1.13524c0.2481,0.86493 -0.28183,1.759 -1.18362,1.99695c-0.90179,0.23795 -1.83396,-0.27031 -2.08205,-1.13524z" data-paper-data="{&quot;origPos&quot;:null}" fill="#eb6c17"/><path d="M57.05211,271.8194c-0.09057,-0.31577 0.10289,-0.64217 0.43212,-0.72905c0.32922,-0.08687 0.66954,0.09869 0.76012,0.41445c0.09057,0.31577 -0.10289,0.64217 -0.43212,0.72905c-0.32922,0.08687 -0.66954,-0.09869 -0.76012,-0.41445z" data-paper-data="{&quot;origPos&quot;:null}" fill="#de4207"/><path d="M57.99557,271.99829c-0.05907,-0.20594 0.0671,-0.41881 0.28181,-0.47546c0.21471,-0.05666 0.43666,0.06436 0.49573,0.27029c0.05907,0.20594 -0.0671,0.41881 -0.28181,0.47546c-0.21471,0.05666 -0.43666,-0.06436 -0.49573,-0.27029z" data-paper-data="{&quot;origPos&quot;:null}" fill="#ffffff"/></g><g data-paper-data="{&quot;origPos&quot;:null}"><path d="M67.76728,267.31395c-0.2481,-0.86493 0.28183,-1.759 1.18362,-1.99695c0.90179,-0.23795 1.83396,0.27031 2.08206,1.13524c0.2481,0.86493 -0.28183,1.759 -1.18362,1.99695c-0.90179,0.23795 -1.83396,-0.27031 -2.08206,-1.13524z" data-paper-data="{&quot;origPos&quot;:null}" fill="#eb6c17"/><path d="M68.42552,266.4985c-0.09057,-0.31577 0.10289,-0.64217 0.43212,-0.72905c0.32922,-0.08687 0.66954,0.09869 0.76012,0.41445c0.09057,0.31577 -0.10289,0.64217 -0.43212,0.72905c-0.32922,0.08687 -0.66954,-0.09869 -0.76012,-0.41445z" data-paper-data="{&quot;origPos&quot;:null}" fill="#de4207"/><path d="M69.36899,266.67739c-0.05907,-0.20594 0.0671,-0.41881 0.28181,-0.47546c0.21471,-0.05666 0.43665,0.06436 0.49573,0.2703c0.05907,0.20594 -0.0671,0.41881 -0.28181,0.47546c-0.21471,0.05666 -0.43666,-0.06436 -0.49573,-0.27029z" data-paper-data="{&quot;origPos&quot;:null}" fill="#ffffff"/></g><g data-paper-data="{&quot;origPos&quot;:null}"><path d="M72.66126,273.53438c-0.2481,-0.86493 0.28183,-1.759 1.18362,-1.99695c0.90179,-0.23795 1.83396,0.27031 2.08206,1.13524c0.2481,0.86493 -0.28183,1.759 -1.18362,1.99695c-0.90179,0.23795 -1.83396,-0.27031 -2.08206,-1.13524z" data-paper-data="{&quot;origPos&quot;:null}" fill="#eb6c17"/><path d="M73.31952,272.71892c-0.09057,-0.31577 0.10289,-0.64217 0.43212,-0.72905c0.32922,-0.08687 0.66954,0.09869 0.76012,0.41445c0.09057,0.31577 -0.10289,0.64217 -0.43212,0.72905c-0.32922,0.08687 -0.66954,-0.09869 -0.76012,-0.41445z" data-paper-data="{&quot;origPos&quot;:null}" fill="#de4207"/><path d="M74.26298,272.89782c-0.05907,-0.20594 0.0671,-0.41881 0.28181,-0.47546c0.21471,-0.05666 0.43665,0.06436 0.49573,0.2703c0.05907,0.20594 -0.0671,0.41881 -0.28181,0.47546c-0.21471,0.05666 -0.43666,-0.06436 -0.49573,-0.27029z" data-paper-data="{&quot;origPos&quot;:null}" fill="#ffffff"/></g><g data-paper-data="{&quot;origPos&quot;:null}"><path d="M60.05581,272.55232c-0.2481,-0.86493 0.28183,-1.759 1.18362,-1.99695c0.90179,-0.23795 1.83396,0.27031 2.08206,1.13524c0.2481,0.86493 -0.28183,1.759 -1.18362,1.99695c-0.90179,0.23795 -1.83396,-0.27031 -2.08206,-1.13524z" data-paper-data="{&quot;origPos&quot;:null}" fill="#eb6c17"/><path d="M60.71405,271.73687c-0.09057,-0.31577 0.10289,-0.64217 0.43212,-0.72905c0.32922,-0.08687 0.66954,0.09869 0.76012,0.41445c0.09057,0.31577 -0.10289,0.64217 -0.43212,0.72905c-0.32922,0.08687 -0.66954,-0.09869 -0.76012,-0.41445z" data-paper-data="{&quot;origPos&quot;:null}" fill="#de4207"/><path d="M61.65752,271.91576c-0.05907,-0.20594 0.0671,-0.41881 0.28181,-0.47546c0.21471,-0.05666 0.43665,0.06436 0.49573,0.2703c0.05907,0.20594 -0.0671,0.41881 -0.28181,0.47546c-0.21471,0.05666 -0.43666,-0.06436 -0.49573,-0.27029z" data-paper-data="{&quot;origPos&quot;:null}" fill="#ffffff"/></g><g data-paper-data="{&quot;origPos&quot;:null}"><path d="M57.96534,274.09813c-0.2481,-0.86493 0.28183,-1.759 1.18362,-1.99695c0.90179,-0.23795 1.83396,0.27031 2.08206,1.13524c0.2481,0.86493 -0.28183,1.759 -1.18362,1.99695c-0.90179,0.23795 -1.83396,-0.27031 -2.08206,-1.13524z" data-paper-data="{&quot;origPos&quot;:null}" fill="#eb6c17"/><path d="M58.62359,273.28268c-0.09057,-0.31577 0.10289,-0.64217 0.43212,-0.72905c0.32922,-0.08687 0.66954,0.09869 0.76012,0.41445c0.09057,0.31577 -0.10289,0.64217 -0.43212,0.72905c-0.32922,0.08687 -0.66954,-0.09869 -0.76012,-0.41445z" data-paper-data="{&quot;origPos&quot;:null}" fill="#de4207"/><path d="M59.56706,273.46157c-0.05907,-0.20594 0.0671,-0.41881 0.28181,-0.47546c0.21471,-0.05666 0.43665,0.06436 0.49573,0.2703c0.05907,0.20594 -0.0671,0.41881 -0.28181,0.47546c-0.21471,0.05666 -0.43666,-0.06436 -0.49573,-0.27029z" data-paper-data="{&quot;origPos&quot;:null}" fill="#ffffff"/></g><g data-paper-data="{&quot;origPos&quot;:null}"><path d="M58.56242,275.37666c-0.2481,-0.86493 0.28183,-1.759 1.18362,-1.99695c0.90179,-0.23795 1.83396,0.27031 2.08206,1.13524c0.2481,0.86493 -0.28183,1.759 -1.18362,1.99695c-0.90179,0.23795 -1.83396,-0.27031 -2.08206,-1.13524z" data-paper-data="{&quot;origPos&quot;:null}" fill="#eb6c17"/><path d="M59.22067,274.56121c-0.09057,-0.31577 0.10289,-0.64217 0.43212,-0.72905c0.32922,-0.08687 0.66954,0.09869 0.76012,0.41445c0.09057,0.31577 -0.10289,0.64217 -0.43212,0.72905c-0.32922,0.08687 -0.66954,-0.09869 -0.76012,-0.41445z" data-paper-data="{&quot;origPos&quot;:null}" fill="#de4207"/><path d="M60.16413,274.7401c-0.05907,-0.20594 0.0671,-0.41881 0.28181,-0.47546c0.21471,-0.05666 0.43665,0.06436 0.49573,0.2703c0.05907,0.20594 -0.0671,0.41881 -0.28181,0.47546c-0.21471,0.05666 -0.43666,-0.06436 -0.49573,-0.27029z" data-paper-data="{&quot;origPos&quot;:null}" fill="#ffffff"/></g><g data-paper-data="{&quot;origPos&quot;:null}"><path d="M60.94745,274.8578c-0.2481,-0.86493 0.28183,-1.759 1.18362,-1.99695c0.90179,-0.23795 1.83396,0.27031 2.08206,1.13524c0.2481,0.86493 -0.28183,1.759 -1.18362,1.99695c-0.90179,0.23795 -1.83396,-0.27031 -2.08206,-1.13524z" data-paper-data="{&quot;origPos&quot;:null}" fill="#eb6c17"/><path d="M61.6057,274.04234c-0.09057,-0.31577 0.10289,-0.64217 0.43212,-0.72905c0.32922,-0.08687 0.66954,0.09869 0.76012,0.41445c0.09057,0.31577 -0.10289,0.64217 -0.43212,0.72905c-0.32922,0.08687 -0.66954,-0.09869 -0.76012,-0.41445z" data-paper-data="{&quot;origPos&quot;:null}" fill="#de4207"/><path d="M62.54917,274.22123c-0.05907,-0.20594 0.0671,-0.41881 0.28181,-0.47546c0.21471,-0.05666 0.43665,0.06436 0.49573,0.2703c0.05907,0.20594 -0.0671,0.41881 -0.28181,0.47546c-0.21471,0.05666 -0.43666,-0.06436 -0.49573,-0.27029z" data-paper-data="{&quot;origPos&quot;:null}" fill="#ffffff"/></g><g data-paper-data="{&quot;origPos&quot;:null}"><path d="M66.70218,270.02528c-0.2481,-0.86493 0.28183,-1.759 1.18362,-1.99695c0.90179,-0.23795 1.83396,0.27031 2.08206,1.13524c0.2481,0.86493 -0.28183,1.759 -1.18362,1.99695c-0.90179,0.23795 -1.83396,-0.27031 -2.08205,-1.13524z" data-paper-data="{&quot;origPos&quot;:null}" fill="#eb6c17"/><path d="M67.36043,269.20983c-0.09057,-0.31577 0.10289,-0.64217 0.43212,-0.72905c0.32922,-0.08687 0.66954,0.09869 0.76012,0.41445c0.09057,0.31577 -0.10289,0.64217 -0.43212,0.72905c-0.32922,0.08687 -0.66954,-0.09869 -0.76012,-0.41445z" data-paper-data="{&quot;origPos&quot;:null}" fill="#de4207"/><path d="M68.30389,269.38872c-0.05907,-0.20594 0.0671,-0.41881 0.28181,-0.47546c0.21471,-0.05666 0.43665,0.06436 0.49573,0.2703c0.05907,0.20594 -0.0671,0.41881 -0.28181,0.47546c-0.21471,0.05666 -0.43666,-0.06436 -0.49573,-0.27029z" data-paper-data="{&quot;origPos&quot;:null}" fill="#ffffff"/></g><g data-paper-data="{&quot;origPos&quot;:null}"><path d="M63.35913,273.22722c-0.2481,-0.86493 0.28183,-1.759 1.18362,-1.99695c0.90179,-0.23795 1.83396,0.27031 2.08206,1.13524c0.2481,0.86493 -0.28183,1.759 -1.18362,1.99695c-0.90179,0.23795 -1.83396,-0.27031 -2.08205,-1.13524z" data-paper-data="{&quot;origPos&quot;:null}" fill="#eb6c17"/><path d="M64.01738,272.41177c-0.09057,-0.31577 0.10289,-0.64217 0.43212,-0.72905c0.32922,-0.08687 0.66954,0.09869 0.76012,0.41445c0.09057,0.31577 -0.10289,0.64217 -0.43212,0.72905c-0.32922,0.08687 -0.66954,-0.09869 -0.76012,-0.41445z" data-paper-data="{&quot;origPos&quot;:null}" fill="#de4207"/><path d="M64.96084,272.59066c-0.05907,-0.20594 0.0671,-0.41881 0.28181,-0.47546c0.21471,-0.05666 0.43665,0.06436 0.49573,0.2703c0.05907,0.20594 -0.0671,0.41881 -0.28181,0.47546c-0.21471,0.05666 -0.43666,-0.06436 -0.49573,-0.27029z" data-paper-data="{&quot;origPos&quot;:null}" fill="#ffffff"/></g><g data-paper-data="{&quot;origPos&quot;:null}"><path d="M71.28009,274.3407c-0.2481,-0.86493 0.28183,-1.759 1.18362,-1.99695c0.90179,-0.23795 1.83396,0.27031 2.08206,1.13524c0.2481,0.86493 -0.28183,1.759 -1.18362,1.99695c-0.90179,0.23795 -1.83396,-0.27031 -2.08206,-1.13524z" data-paper-data="{&quot;origPos&quot;:null}" fill="#eb6c17"/><path d="M71.93835,273.52524c-0.09057,-0.31577 0.10289,-0.64217 0.43212,-0.72905c0.32922,-0.08687 0.66954,0.09869 0.76012,0.41445c0.09057,0.31577 -0.10289,0.64217 -0.43212,0.72905c-0.32922,0.08687 -0.66954,-0.09869 -0.76012,-0.41445z" data-paper-data="{&quot;origPos&quot;:null}" fill="#de4207"/><path d="M72.88181,273.70413c-0.05907,-0.20594 0.0671,-0.41881 0.28181,-0.47546c0.21471,-0.05666 0.43665,0.06436 0.49573,0.2703c0.05907,0.20594 -0.0671,0.41881 -0.28181,0.47546c-0.21471,0.05666 -0.43666,-0.06436 -0.49573,-0.27029z" data-paper-data="{&quot;origPos&quot;:null}" fill="#ffffff"/></g><g data-paper-data="{&quot;origPos&quot;:null}"><path d="M69.70348,274.86718c-0.2481,-0.86493 0.28183,-1.759 1.18362,-1.99695c0.90179,-0.23795 1.83396,0.27031 2.08206,1.13524c0.2481,0.86493 -0.28183,1.759 -1.18362,1.99695c-0.90179,0.23795 -1.83396,-0.27031 -2.08206,-1.13524z" data-paper-data="{&quot;origPos&quot;:null}" fill="#eb6c17"/><path d="M70.36173,274.05172c-0.09057,-0.31577 0.10289,-0.64217 0.43212,-0.72905c0.32922,-0.08687 0.66954,0.09869 0.76012,0.41445c0.09057,0.31577 -0.10289,0.64217 -0.43212,0.72905c-0.32922,0.08687 -0.66954,-0.09869 -0.76012,-0.41445z" data-paper-data="{&quot;origPos&quot;:null}" fill="#de4207"/><path d="M71.30519,274.23061c-0.05907,-0.20594 0.0671,-0.41881 0.28181,-0.47546c0.21471,-0.05666 0.43665,0.06436 0.49573,0.2703c0.05907,0.20594 -0.0671,0.41881 -0.28181,0.47546c-0.21471,0.05666 -0.43666,-0.06436 -0.49573,-0.27029z" data-paper-data="{&quot;origPos&quot;:null}" fill="#ffffff"/></g><g data-paper-data="{&quot;origPos&quot;:null}"><path d="M69.86336,268.19694c-0.2481,-0.86493 0.28183,-1.759 1.18362,-1.99695c0.90179,-0.23795 1.83396,0.27031 2.08206,1.13524c0.2481,0.86493 -0.28183,1.759 -1.18362,1.99695c-0.90179,0.23795 -1.83396,-0.27031 -2.08206,-1.13524z" data-paper-data="{&quot;origPos&quot;:null}" fill="#eb6c17"/><path d="M70.5216,267.38149c-0.09057,-0.31577 0.10289,-0.64217 0.43212,-0.72905c0.32922,-0.08687 0.66954,0.09869 0.76012,0.41445c0.09057,0.31577 -0.10289,0.64217 -0.43212,0.72905c-0.32922,0.08687 -0.66954,-0.09869 -0.76012,-0.41445z" data-paper-data="{&quot;origPos&quot;:null}" fill="#de4207"/><path d="M71.46507,267.56038c-0.05907,-0.20594 0.0671,-0.41881 0.28181,-0.47546c0.21471,-0.05666 0.43665,0.06436 0.49573,0.2703c0.05907,0.20594 -0.0671,0.41881 -0.28181,0.47546c-0.21471,0.05666 -0.43666,-0.06436 -0.49573,-0.27029z" data-paper-data="{&quot;origPos&quot;:null}" fill="#ffffff"/></g><g data-paper-data="{&quot;origPos&quot;:null}"><path d="M62.10373,273.66895c-0.2481,-0.86493 0.28183,-1.759 1.18362,-1.99695c0.90179,-0.23795 1.83396,0.27031 2.08206,1.13524c0.2481,0.86493 -0.28183,1.759 -1.18362,1.99695c-0.90179,0.23795 -1.83396,-0.27031 -2.08206,-1.13524z" data-paper-data="{&quot;origPos&quot;:null}" fill="#eb6c17"/><path d="M62.76198,272.8535c-0.09057,-0.31577 0.10289,-0.64217 0.43212,-0.72905c0.32922,-0.08687 0.66954,0.09869 0.76012,0.41445c0.09057,0.31577 -0.10289,0.64217 -0.43212,0.72905c-0.32922,0.08687 -0.66954,-0.09869 -0.76012,-0.41445z" data-paper-data="{&quot;origPos&quot;:null}" fill="#de4207"/><path d="M63.70544,273.03239c-0.05907,-0.20594 0.0671,-0.41881 0.28181,-0.47546c0.21471,-0.05666 0.43665,0.06436 0.49573,0.2703c0.05907,0.20594 -0.0671,0.41881 -0.28181,0.47546c-0.21471,0.05666 -0.43666,-0.06436 -0.49573,-0.27029z" data-paper-data="{&quot;origPos&quot;:null}" fill="#ffffff"/></g><g data-paper-data="{&quot;origPos&quot;:null}"><path d="M62.99537,275.97443c-0.2481,-0.86493 0.28183,-1.759 1.18362,-1.99695c0.90179,-0.23795 1.83396,0.27031 2.08206,1.13524c0.2481,0.86493 -0.28183,1.759 -1.18362,1.99695c-0.90179,0.23795 -1.83396,-0.27031 -2.08206,-1.13524z" data-paper-data="{&quot;origPos&quot;:null}" fill="#eb6c17"/><path d="M63.65363,275.15897c-0.09057,-0.31577 0.10289,-0.64217 0.43212,-0.72905c0.32922,-0.08687 0.66954,0.09869 0.76012,0.41445c0.09057,0.31577 -0.10289,0.64217 -0.43212,0.72905c-0.32922,0.08687 -0.66954,-0.09869 -0.76012,-0.41445z" data-paper-data="{&quot;origPos&quot;:null}" fill="#de4207"/><path d="M64.59709,275.33787c-0.05907,-0.20594 0.0671,-0.41881 0.28181,-0.47546c0.21471,-0.05666 0.43665,0.06436 0.49573,0.2703c0.05907,0.20594 -0.0671,0.41881 -0.28181,0.47546c-0.21471,0.05666 -0.43666,-0.06436 -0.49573,-0.27029z" data-paper-data="{&quot;origPos&quot;:null}" fill="#ffffff"/></g><g data-paper-data="{&quot;origPos&quot;:null}"><path d="M66.04899,269.75576c-0.2481,-0.86493 0.28183,-1.759 1.18362,-1.99695c0.90179,-0.23795 1.83396,0.27031 2.08206,1.13524c0.2481,0.86493 -0.28183,1.759 -1.18362,1.99695c-0.90179,0.23795 -1.83396,-0.27031 -2.08206,-1.13524z" data-paper-data="{&quot;origPos&quot;:null}" fill="#eb6c17"/><path d="M66.70725,268.94031c-0.09057,-0.31577 0.10289,-0.64217 0.43212,-0.72905c0.32922,-0.08687 0.66954,0.09869 0.76012,0.41445c0.09057,0.31577 -0.10289,0.64217 -0.43212,0.72905c-0.32922,0.08687 -0.66954,-0.09869 -0.76012,-0.41445z" data-paper-data="{&quot;origPos&quot;:null}" fill="#de4207"/><path d="M67.65071,269.11921c-0.05907,-0.20594 0.0671,-0.41881 0.28181,-0.47546c0.21471,-0.05666 0.43665,0.06436 0.49573,0.2703c0.05907,0.20594 -0.0671,0.41881 -0.28181,0.47546c-0.21471,0.05666 -0.43666,-0.06436 -0.49573,-0.27029z" data-paper-data="{&quot;origPos&quot;:null}" fill="#ffffff"/></g><g data-paper-data="{&quot;origPos&quot;:null}"><path d="M59.82247,268.52659c-0.2481,-0.86493 0.28183,-1.759 1.18362,-1.99695c0.90179,-0.23795 1.83396,0.27031 2.08206,1.13524c0.2481,0.86493 -0.28183,1.759 -1.18362,1.99695c-0.90179,0.23795 -1.83396,-0.27031 -2.08206,-1.13524z" data-paper-data="{&quot;origPos&quot;:null}" fill="#eb6c17"/><path d="M60.48072,267.71114c-0.09057,-0.31577 0.10289,-0.64217 0.43212,-0.72905c0.32922,-0.08687 0.66954,0.09869 0.76012,0.41445c0.09057,0.31577 -0.10289,0.64217 -0.43212,0.72905c-0.32922,0.08687 -0.66954,-0.09869 -0.76012,-0.41445z" data-paper-data="{&quot;origPos&quot;:null}" fill="#de4207"/><path d="M61.42419,267.89003c-0.05907,-0.20594 0.0671,-0.41881 0.28181,-0.47546c0.21471,-0.05666 0.43665,0.06436 0.49573,0.2703c0.05907,0.20594 -0.0671,0.41881 -0.28181,0.47546c-0.21471,0.05666 -0.43666,-0.06436 -0.49573,-0.27029z" data-paper-data="{&quot;origPos&quot;:null}" fill="#ffffff"/></g><g data-paper-data="{&quot;origPos&quot;:null}"><path d="M66.27952,272.5671c-0.2481,-0.86493 0.28183,-1.759 1.18362,-1.99695c0.90179,-0.23795 1.83396,0.27031 2.08206,1.13524c0.2481,0.86493 -0.28183,1.759 -1.18362,1.99695c-0.90179,0.23795 -1.83396,-0.27031 -2.08206,-1.13524z" data-paper-data="{&quot;origPos&quot;:null}" fill="#eb6c17"/><path d="M66.93777,271.75164c-0.09057,-0.31577 0.10289,-0.64217 0.43212,-0.72905c0.32922,-0.08687 0.66954,0.09869 0.76012,0.41445c0.09057,0.31577 -0.10289,0.64217 -0.43212,0.72905c-0.32922,0.08687 -0.66954,-0.09869 -0.76012,-0.41445z" data-paper-data="{&quot;origPos&quot;:null}" fill="#de4207"/><path d="M67.88123,271.93053c-0.05907,-0.20594 0.0671,-0.41881 0.28181,-0.47546c0.21471,-0.05666 0.43665,0.06436 0.49573,0.2703c0.05907,0.20594 -0.0671,0.41881 -0.28181,0.47546c-0.21471,0.05666 -0.43666,-0.06436 -0.49573,-0.27029z" data-paper-data="{&quot;origPos&quot;:null}" fill="#ffffff"/></g><g data-paper-data="{&quot;origPos&quot;:null}"><path d="M68.75011,271.14192c-0.2481,-0.86493 0.28183,-1.759 1.18362,-1.99695c0.90179,-0.23795 1.83396,0.27031 2.08206,1.13524c0.2481,0.86493 -0.28183,1.759 -1.18362,1.99695c-0.90179,0.23795 -1.83396,-0.27031 -2.08205,-1.13524z" data-paper-data="{&quot;origPos&quot;:null}" fill="#eb6c17"/><path d="M69.40835,270.32646c-0.09057,-0.31577 0.10289,-0.64217 0.43212,-0.72905c0.32922,-0.08687 0.66954,0.09869 0.76012,0.41445c0.09057,0.31577 -0.10289,0.64217 -0.43212,0.72905c-0.32922,0.08687 -0.66954,-0.09869 -0.76012,-0.41445z" data-paper-data="{&quot;origPos&quot;:null}" fill="#de4207"/><path d="M70.35182,270.50535c-0.05907,-0.20594 0.0671,-0.41881 0.28181,-0.47546c0.21471,-0.05666 0.43665,0.06436 0.49573,0.2703c0.05907,0.20594 -0.0671,0.41881 -0.28181,0.47546c-0.21471,0.05666 -0.43666,-0.06436 -0.49573,-0.27029z" data-paper-data="{&quot;origPos&quot;:null}" fill="#ffffff"/></g><g data-paper-data="{&quot;origPos&quot;:null}"><path d="M60.28986,266.28207c-0.2481,-0.86493 0.28183,-1.759 1.18362,-1.99695c0.90179,-0.23795 1.83396,0.27031 2.08206,1.13524c0.2481,0.86493 -0.28183,1.759 -1.18362,1.99695c-0.90179,0.23795 -1.83396,-0.27031 -2.08206,-1.13524z" data-paper-data="{&quot;origPos&quot;:null}" fill="#eb6c17"/><path d="M60.9481,265.46662c-0.09057,-0.31577 0.10289,-0.64217 0.43212,-0.72905c0.32922,-0.08687 0.66954,0.09869 0.76012,0.41445c0.09057,0.31577 -0.10289,0.64217 -0.43212,0.72905c-0.32922,0.08687 -0.66954,-0.09869 -0.76012,-0.41445z" data-paper-data="{&quot;origPos&quot;:null}" fill="#de4207"/><path d="M61.89157,265.64551c-0.05907,-0.20594 0.0671,-0.41881 0.28181,-0.47546c0.21471,-0.05666 0.43665,0.06436 0.49573,0.2703c0.05907,0.20594 -0.0671,0.41881 -0.28181,0.47546c-0.21471,0.05666 -0.43666,-0.06436 -0.49573,-0.27029z" data-paper-data="{&quot;origPos&quot;:null}" fill="#ffffff"/></g><g data-paper-data="{&quot;origPos&quot;:null}"><path d="M65.40705,274.34386c-0.2481,-0.86493 0.28183,-1.759 1.18362,-1.99695c0.90179,-0.23795 1.83396,0.27031 2.08206,1.13524c0.2481,0.86493 -0.28183,1.759 -1.18362,1.99695c-0.90179,0.23795 -1.83396,-0.27031 -2.08205,-1.13524z" data-paper-data="{&quot;origPos&quot;:null}" fill="#eb6c17"/><path d="M66.0653,273.5284c-0.09057,-0.31577 0.10289,-0.64217 0.43212,-0.72905c0.32922,-0.08687 0.66954,0.09869 0.76012,0.41445c0.09057,0.31577 -0.10289,0.64217 -0.43212,0.72905c-0.32922,0.08687 -0.66954,-0.09869 -0.76012,-0.41445z" data-paper-data="{&quot;origPos&quot;:null}" fill="#de4207"/><path d="M67.00877,273.70729c-0.05907,-0.20594 0.0671,-0.41881 0.28181,-0.47546c0.21471,-0.05666 0.43665,0.06436 0.49573,0.2703c0.05907,0.20594 -0.0671,0.41881 -0.28181,0.47546c-0.21471,0.05666 -0.43666,-0.06436 -0.49573,-0.27029z" data-paper-data="{&quot;origPos&quot;:null}" fill="#ffffff"/></g><g data-paper-data="{&quot;origPos&quot;:null}"><path d="M72.91514,269.60102c-0.2481,-0.86493 0.28183,-1.759 1.18362,-1.99695c0.90179,-0.23795 1.83396,0.27031 2.08206,1.13524c0.2481,0.86493 -0.28183,1.759 -1.18362,1.99695c-0.90179,0.23795 -1.83396,-0.27031 -2.08206,-1.13524z" data-paper-data="{&quot;origPos&quot;:null}" fill="#eb6c17"/><path d="M73.57339,268.78557c-0.09057,-0.31577 0.10289,-0.64217 0.43212,-0.72905c0.32922,-0.08687 0.66954,0.09869 0.76012,0.41445c0.09057,0.31577 -0.10289,0.64217 -0.43212,0.72905c-0.32922,0.08687 -0.66954,-0.09869 -0.76012,-0.41445z" data-paper-data="{&quot;origPos&quot;:null}" fill="#de4207"/><path d="M74.51685,268.96446c-0.05907,-0.20594 0.0671,-0.41881 0.28181,-0.47546c0.21471,-0.05666 0.43665,0.06436 0.49573,0.2703c0.05907,0.20594 -0.0671,0.41881 -0.28181,0.47546c-0.21471,0.05666 -0.43666,-0.06436 -0.49573,-0.27029z" data-paper-data="{&quot;origPos&quot;:null}" fill="#ffffff"/></g><g data-paper-data="{&quot;origPos&quot;:null}"><path d="M69.14942,275.34478c-0.2481,-0.86493 0.28183,-1.759 1.18362,-1.99695c0.90179,-0.23795 1.83396,0.27031 2.08206,1.13524c0.2481,0.86493 -0.28183,1.759 -1.18362,1.99695c-0.90179,0.23795 -1.83396,-0.27031 -2.08206,-1.13524z" data-paper-data="{&quot;origPos&quot;:null}" fill="#eb6c17"/><path d="M69.80767,274.52933c-0.09057,-0.31577 0.10289,-0.64217 0.43212,-0.72905c0.32922,-0.08687 0.66954,0.09869 0.76012,0.41445c0.09057,0.31577 -0.10289,0.64217 -0.43212,0.72905c-0.32922,0.08687 -0.66954,-0.09869 -0.76012,-0.41445z" data-paper-data="{&quot;origPos&quot;:null}" fill="#de4207"/><path d="M70.75113,274.70822c-0.05907,-0.20594 0.0671,-0.41881 0.28181,-0.47546c0.21471,-0.05666 0.43665,0.06436 0.49573,0.2703c0.05907,0.20594 -0.0671,0.41881 -0.28181,0.47546c-0.21471,0.05666 -0.43666,-0.06436 -0.49573,-0.27029z" data-paper-data="{&quot;origPos&quot;:null}" fill="#ffffff"/></g><g data-paper-data="{&quot;origPos&quot;:null}"><path d="M65.94754,272.21282c-0.2481,-0.86493 0.28183,-1.759 1.18362,-1.99695c0.90179,-0.23795 1.83396,0.27031 2.08206,1.13524c0.2481,0.86493 -0.28183,1.759 -1.18362,1.99695c-0.90179,0.23795 -1.83396,-0.27031 -2.08206,-1.13524z" data-paper-data="{&quot;origPos&quot;:null}" fill="#eb6c17"/><path d="M66.6058,271.39737c-0.09057,-0.31577 0.10289,-0.64217 0.43212,-0.72905c0.32922,-0.08687 0.66954,0.09869 0.76012,0.41445c0.09057,0.31577 -0.10289,0.64217 -0.43212,0.72905c-0.32922,0.08687 -0.66954,-0.09869 -0.76012,-0.41445z" data-paper-data="{&quot;origPos&quot;:null}" fill="#de4207"/><path d="M67.54926,271.57626c-0.05907,-0.20594 0.0671,-0.41881 0.28181,-0.47546c0.21471,-0.05666 0.43665,0.06436 0.49573,0.2703c0.05907,0.20594 -0.0671,0.41881 -0.28181,0.47546c-0.21471,0.05666 -0.43666,-0.06436 -0.49573,-0.27029z" data-paper-data="{&quot;origPos&quot;:null}" fill="#ffffff"/></g><g data-paper-data="{&quot;origPos&quot;:null}"><path d="M64.15166,274.78558c-0.2481,-0.86493 0.28183,-1.759 1.18362,-1.99695c0.90179,-0.23795 1.83396,0.27031 2.08206,1.13524c0.2481,0.86493 -0.28183,1.759 -1.18362,1.99695c-0.90179,0.23795 -1.83396,-0.27031 -2.08206,-1.13524z" data-paper-data="{&quot;origPos&quot;:null}" fill="#eb6c17"/><path d="M64.8099,273.97013c-0.09057,-0.31577 0.10289,-0.64217 0.43212,-0.72905c0.32922,-0.08687 0.66954,0.09869 0.76012,0.41445c0.09057,0.31577 -0.10289,0.64217 -0.43212,0.72905c-0.32922,0.08687 -0.66954,-0.09869 -0.76012,-0.41445z" data-paper-data="{&quot;origPos&quot;:null}" fill="#de4207"/><path d="M65.75337,274.14902c-0.05907,-0.20594 0.0671,-0.41881 0.28181,-0.47546c0.21471,-0.05666 0.43665,0.06436 0.49573,0.2703c0.05907,0.20594 -0.0671,0.41881 -0.28181,0.47546c-0.21471,0.05666 -0.43666,-0.06436 -0.49573,-0.27029z" data-paper-data="{&quot;origPos&quot;:null}" fill="#ffffff"/></g><g data-paper-data="{&quot;origPos&quot;:null}"><path d="M62.06118,276.3314c-0.2481,-0.86493 0.28183,-1.759 1.18362,-1.99695c0.90179,-0.23795 1.83396,0.27031 2.08206,1.13524c0.2481,0.86493 -0.28183,1.759 -1.18362,1.99695c-0.90179,0.23795 -1.83396,-0.27031 -2.08206,-1.13524z" data-paper-data="{&quot;origPos&quot;:null}" fill="#eb6c17"/><path d="M62.71944,275.51594c-0.09057,-0.31577 0.10289,-0.64217 0.43212,-0.72905c0.32922,-0.08687 0.66954,0.09869 0.76012,0.41445c0.09057,0.31577 -0.10289,0.64217 -0.43212,0.72905c-0.32922,0.08687 -0.66954,-0.09869 -0.76012,-0.41445z" data-paper-data="{&quot;origPos&quot;:null}" fill="#de4207"/><path d="M63.6629,275.69483c-0.05907,-0.20594 0.0671,-0.41881 0.28181,-0.47546c0.21471,-0.05666 0.43665,0.06436 0.49573,0.2703c0.05907,0.20594 -0.0671,0.41881 -0.28181,0.47546c-0.21471,0.05666 -0.43666,-0.06436 -0.49573,-0.27029z" data-paper-data="{&quot;origPos&quot;:null}" fill="#ffffff"/></g><g data-paper-data="{&quot;origPos&quot;:null}"><path d="M65.0433,277.09106c-0.2481,-0.86493 0.28183,-1.759 1.18362,-1.99695c0.90179,-0.23795 1.83396,0.27031 2.08206,1.13524c0.2481,0.86493 -0.28183,1.759 -1.18362,1.99695c-0.90179,0.23795 -1.83396,-0.27031 -2.08206,-1.13524z" data-paper-data="{&quot;origPos&quot;:null}" fill="#eb6c17"/><path d="M65.70155,276.2756c-0.09057,-0.31577 0.10289,-0.64217 0.43212,-0.72905c0.32922,-0.08687 0.66954,0.09869 0.76012,0.41445c0.09057,0.31577 -0.10289,0.64217 -0.43212,0.72905c-0.32922,0.08687 -0.66954,-0.09869 -0.76012,-0.41445z" data-paper-data="{&quot;origPos&quot;:null}" fill="#de4207"/><path d="M66.64502,276.4545c-0.05907,-0.20594 0.0671,-0.41881 0.28181,-0.47546c0.21471,-0.05666 0.43665,0.06436 0.49573,0.2703c0.05907,0.20594 -0.0671,0.41881 -0.28181,0.47546c-0.21471,0.05666 -0.43666,-0.06436 -0.49573,-0.27029z" data-paper-data="{&quot;origPos&quot;:null}" fill="#ffffff"/></g><g data-paper-data="{&quot;origPos&quot;:null}"><path d="M68.09692,270.87239c-0.2481,-0.86493 0.28183,-1.759 1.18362,-1.99695c0.90179,-0.23795 1.83396,0.27031 2.08206,1.13524c0.2481,0.86493 -0.28183,1.759 -1.18362,1.99695c-0.90179,0.23795 -1.83396,-0.27031 -2.08206,-1.13524z" data-paper-data="{&quot;origPos&quot;:null}" fill="#eb6c17"/><path d="M68.75517,270.05694c-0.09057,-0.31577 0.10289,-0.64217 0.43212,-0.72905c0.32922,-0.08687 0.66954,0.09869 0.76012,0.41445c0.09057,0.31577 -0.10289,0.64217 -0.43212,0.72905c-0.32922,0.08687 -0.66954,-0.09869 -0.76012,-0.41445z" data-paper-data="{&quot;origPos&quot;:null}" fill="#de4207"/><path d="M69.69864,270.23583c-0.05907,-0.20594 0.0671,-0.41881 0.28181,-0.47546c0.21471,-0.05666 0.43665,0.06436 0.49573,0.2703c0.05907,0.20594 -0.0671,0.41881 -0.28181,0.47546c-0.21471,0.05666 -0.43666,-0.06436 -0.49573,-0.27029z" data-paper-data="{&quot;origPos&quot;:null}" fill="#ffffff"/></g><g data-paper-data="{&quot;origPos&quot;:null}"><path d="M68.32744,273.68373c-0.2481,-0.86493 0.28183,-1.759 1.18362,-1.99695c0.90179,-0.23795 1.83396,0.27031 2.08206,1.13524c0.2481,0.86493 -0.28183,1.759 -1.18362,1.99695c-0.90179,0.23795 -1.83396,-0.27031 -2.08206,-1.13524z" data-paper-data="{&quot;origPos&quot;:null}" fill="#eb6c17"/><path d="M68.98569,272.86827c-0.09057,-0.31577 0.10289,-0.64217 0.43212,-0.72905c0.32922,-0.08687 0.66954,0.09869 0.76012,0.41445c0.09057,0.31577 -0.10289,0.64217 -0.43212,0.72905c-0.32922,0.08687 -0.66954,-0.09869 -0.76012,-0.41445z" data-paper-data="{&quot;origPos&quot;:null}" fill="#de4207"/><path d="M69.92916,273.04717c-0.05907,-0.20594 0.0671,-0.41881 0.28181,-0.47546c0.21471,-0.05666 0.43665,0.06436 0.49573,0.2703c0.05907,0.20594 -0.0671,0.41881 -0.28181,0.47546c-0.21471,0.05666 -0.43666,-0.06436 -0.49573,-0.27029z" data-paper-data="{&quot;origPos&quot;:null}" fill="#ffffff"/></g><g data-paper-data="{&quot;origPos&quot;:null}"><path d="M70.79803,272.25855c-0.2481,-0.86493 0.28183,-1.759 1.18362,-1.99695c0.90179,-0.23795 1.83396,0.27031 2.08206,1.13524c0.2481,0.86493 -0.28183,1.759 -1.18362,1.99695c-0.90179,0.23795 -1.83396,-0.27031 -2.08205,-1.13524z" data-paper-data="{&quot;origPos&quot;:null}" fill="#eb6c17"/><path d="M71.45628,271.44309c-0.09057,-0.31577 0.10289,-0.64217 0.43212,-0.72905c0.32922,-0.08687 0.66954,0.09869 0.76012,0.41445c0.09057,0.31577 -0.10289,0.64217 -0.43212,0.72905c-0.32922,0.08687 -0.66954,-0.09869 -0.76012,-0.41445z" data-paper-data="{&quot;origPos&quot;:null}" fill="#de4207"/><path d="M72.39975,271.62199c-0.05907,-0.20594 0.0671,-0.41881 0.28181,-0.47546c0.21471,-0.05666 0.43665,0.06436 0.49573,0.2703c0.05907,0.20594 -0.0671,0.41881 -0.28181,0.47546c-0.21471,0.05666 -0.43666,-0.06436 -0.49573,-0.27029z" data-paper-data="{&quot;origPos&quot;:null}" fill="#ffffff"/></g><g data-paper-data="{&quot;origPos&quot;:null}"><path d="M70.68534,269.85799c-0.2481,-0.86493 0.28183,-1.759 1.18362,-1.99695c0.90179,-0.23795 1.83396,0.27031 2.08206,1.13524c0.2481,0.86493 -0.28183,1.759 -1.18362,1.99695c-0.90179,0.23795 -1.83396,-0.27031 -2.08206,-1.13524z" data-paper-data="{&quot;origPos&quot;:null}" fill="#eb6c17"/><path d="M71.34359,269.04254c-0.09057,-0.31577 0.10289,-0.64217 0.43212,-0.72905c0.32922,-0.08687 0.66954,0.09869 0.76012,0.41445c0.09057,0.31577 -0.10289,0.64217 -0.43212,0.72905c-0.32922,0.08687 -0.66954,-0.09869 -0.76012,-0.41445z" data-paper-data="{&quot;origPos&quot;:null}" fill="#de4207"/><path d="M72.28706,269.22143c-0.05907,-0.20594 0.0671,-0.41881 0.28181,-0.47546c0.21471,-0.05666 0.43665,0.06436 0.49573,0.2703c0.05907,0.20594 -0.0671,0.41881 -0.28181,0.47546c-0.21471,0.05666 -0.43666,-0.06436 -0.49573,-0.27029z" data-paper-data="{&quot;origPos&quot;:null}" fill="#ffffff"/></g><g data-paper-data="{&quot;origPos&quot;:null}"><path d="M67.45498,275.46049c-0.2481,-0.86493 0.28183,-1.759 1.18362,-1.99695c0.90179,-0.23795 1.83396,0.27031 2.08206,1.13524c0.2481,0.86493 -0.28183,1.759 -1.18362,1.99695c-0.90179,0.23795 -1.83396,-0.27031 -2.08205,-1.13524z" data-paper-data="{&quot;origPos&quot;:null}" fill="#eb6c17"/><path d="M68.11323,274.64503c-0.09057,-0.31577 0.10289,-0.64217 0.43212,-0.72905c0.32922,-0.08687 0.66954,0.09869 0.76012,0.41445c0.09057,0.31577 -0.10289,0.64217 -0.43212,0.72905c-0.32922,0.08687 -0.66954,-0.09869 -0.76012,-0.41445z" data-paper-data="{&quot;origPos&quot;:null}" fill="#de4207"/><path d="M69.0567,274.82393c-0.05907,-0.20594 0.0671,-0.41881 0.28181,-0.47546c0.21471,-0.05666 0.43665,0.06436 0.49573,0.2703c0.05907,0.20594 -0.0671,0.41881 -0.28181,0.47546c-0.21471,0.05666 -0.43666,-0.06436 -0.49573,-0.27029z" data-paper-data="{&quot;origPos&quot;:null}" fill="#ffffff"/></g><g data-paper-data="{&quot;origPos&quot;:null}"><path d="M77.37571,277.92423c-0.2481,-0.86493 0.28183,-1.759 1.18362,-1.99695c0.90179,-0.23795 1.83396,0.27031 2.08206,1.13524c0.2481,0.86493 -0.28183,1.759 -1.18362,1.99695c-0.90179,0.23795 -1.83396,-0.27031 -2.08206,-1.13524z" data-paper-data="{&quot;origPos&quot;:null}" fill="#eb6c17"/><path d="M78.03396,277.10878c-0.09057,-0.31577 0.10289,-0.64217 0.43212,-0.72905c0.32922,-0.08687 0.66954,0.09869 0.76012,0.41445c0.09057,0.31577 -0.10289,0.64217 -0.43212,0.72905c-0.32922,0.08687 -0.66954,-0.09869 -0.76012,-0.41445z" data-paper-data="{&quot;origPos&quot;:null}" fill="#de4207"/><path d="M78.97743,277.28767c-0.05907,-0.20594 0.0671,-0.41881 0.28181,-0.47546c0.21471,-0.05666 0.43665,0.06436 0.49573,0.2703c0.05907,0.20594 -0.0671,0.41881 -0.28181,0.47546c-0.21471,0.05666 -0.43666,-0.06436 -0.49573,-0.27029z" data-paper-data="{&quot;origPos&quot;:null}" fill="#ffffff"/></g><g data-paper-data="{&quot;origPos&quot;:null}"><path d="M76.1362,276.81522c-0.2481,-0.86493 0.28183,-1.759 1.18362,-1.99695c0.90179,-0.23795 1.83396,0.27031 2.08206,1.13524c0.2481,0.86493 -0.28183,1.759 -1.18362,1.99695c-0.90179,0.23795 -1.83396,-0.27031 -2.08206,-1.13524z" data-paper-data="{&quot;origPos&quot;:null}" fill="#eb6c17"/><path d="M76.79445,275.99976c-0.09057,-0.31577 0.10289,-0.64217 0.43212,-0.72905c0.32922,-0.08687 0.66954,0.09869 0.76012,0.41445c0.09057,0.31577 -0.10289,0.64217 -0.43212,0.72905c-0.32922,0.08687 -0.66954,-0.09869 -0.76012,-0.41445z" data-paper-data="{&quot;origPos&quot;:null}" fill="#de4207"/><path d="M77.73792,276.17866c-0.05907,-0.20594 0.0671,-0.41881 0.28181,-0.47546c0.21471,-0.05666 0.43665,0.06436 0.49573,0.2703c0.05907,0.20594 -0.0671,0.41881 -0.28181,0.47546c-0.21471,0.05666 -0.43666,-0.06436 -0.49573,-0.27029z" data-paper-data="{&quot;origPos&quot;:null}" fill="#ffffff"/></g><g data-paper-data="{&quot;origPos&quot;:null}"><path d="M75.20152,272.75362c-0.2481,-0.86493 0.28183,-1.759 1.18362,-1.99695c0.90179,-0.23795 1.83396,0.27031 2.08206,1.13524c0.2481,0.86493 -0.28183,1.759 -1.18362,1.99695c-0.90179,0.23795 -1.83396,-0.27031 -2.08206,-1.13524z" data-paper-data="{&quot;origPos&quot;:null}" fill="#eb6c17"/><path d="M75.85978,271.93816c-0.09057,-0.31577 0.10289,-0.64217 0.43212,-0.72905c0.32922,-0.08687 0.66954,0.09869 0.76012,0.41445c0.09057,0.31577 -0.10289,0.64217 -0.43212,0.72905c-0.32922,0.08687 -0.66954,-0.09869 -0.76012,-0.41445z" data-paper-data="{&quot;origPos&quot;:null}" fill="#de4207"/><path d="M76.80324,272.11705c-0.05907,-0.20594 0.0671,-0.41881 0.28181,-0.47546c0.21471,-0.05666 0.43665,0.06436 0.49573,0.2703c0.05907,0.20594 -0.0671,0.41881 -0.28181,0.47546c-0.21471,0.05666 -0.43666,-0.06436 -0.49573,-0.27029z" data-paper-data="{&quot;origPos&quot;:null}" fill="#ffffff"/></g><g data-paper-data="{&quot;origPos&quot;:null}"><path d="M67.99498,268.91088c-0.2481,-0.86493 0.28183,-1.759 1.18362,-1.99695c0.90179,-0.23795 1.83396,0.27031 2.08206,1.13524c0.2481,0.86493 -0.28183,1.759 -1.18362,1.99695c-0.90179,0.23795 -1.83396,-0.27031 -2.08206,-1.13524z" data-paper-data="{&quot;origPos&quot;:null}" fill="#eb6c17"/><path d="M68.65323,268.09542c-0.09057,-0.31577 0.10289,-0.64217 0.43212,-0.72905c0.32922,-0.08687 0.66954,0.09869 0.76012,0.41445c0.09057,0.31577 -0.10289,0.64217 -0.43212,0.72905c-0.32922,0.08687 -0.66954,-0.09869 -0.76012,-0.41445z" data-paper-data="{&quot;origPos&quot;:null}" fill="#de4207"/><path d="M69.5967,268.27432c-0.05907,-0.20594 0.0671,-0.41881 0.28181,-0.47546c0.21471,-0.05666 0.43665,0.06436 0.49573,0.2703c0.05907,0.20594 -0.0671,0.41881 -0.28181,0.47546c-0.21471,0.05666 -0.43666,-0.06436 -0.49573,-0.27029z" data-paper-data="{&quot;origPos&quot;:null}" fill="#ffffff"/></g><g data-paper-data="{&quot;origPos&quot;:null}"><path d="M66.19958,275.90221c-0.2481,-0.86493 0.28183,-1.759 1.18362,-1.99695c0.90179,-0.23795 1.83396,0.27031 2.08206,1.13524c0.2481,0.86493 -0.28183,1.759 -1.18362,1.99695c-0.90179,0.23795 -1.83396,-0.27031 -2.08206,-1.13524z" data-paper-data="{&quot;origPos&quot;:null}" fill="#eb6c17"/><path d="M66.85783,275.08676c-0.09057,-0.31577 0.10289,-0.64217 0.43212,-0.72905c0.32922,-0.08687 0.66954,0.09869 0.76012,0.41445c0.09057,0.31577 -0.10289,0.64217 -0.43212,0.72905c-0.32922,0.08687 -0.66954,-0.09869 -0.76012,-0.41445z" data-paper-data="{&quot;origPos&quot;:null}" fill="#de4207"/><path d="M67.80129,275.26565c-0.05907,-0.20594 0.0671,-0.41881 0.28181,-0.47546c0.21471,-0.05666 0.43665,0.06436 0.49573,0.2703c0.05907,0.20594 -0.0671,0.41881 -0.28181,0.47546c-0.21471,0.05666 -0.43666,-0.06436 -0.49573,-0.27029z" data-paper-data="{&quot;origPos&quot;:null}" fill="#ffffff"/></g><g data-paper-data="{&quot;origPos&quot;:null}"><path d="M64.10911,277.44803c-0.2481,-0.86493 0.28183,-1.759 1.18362,-1.99695c0.90179,-0.23795 1.83396,0.27031 2.08206,1.13524c0.2481,0.86493 -0.28183,1.759 -1.18362,1.99695c-0.90179,0.23795 -1.83396,-0.27031 -2.08206,-1.13524z" data-paper-data="{&quot;origPos&quot;:null}" fill="#eb6c17"/><path d="M64.76737,276.63258c-0.09057,-0.31577 0.10289,-0.64217 0.43212,-0.72905c0.32922,-0.08687 0.66954,0.09869 0.76012,0.41445c0.09057,0.31577 -0.10289,0.64217 -0.43212,0.72905c-0.32922,0.08687 -0.66954,-0.09869 -0.76012,-0.41445z" data-paper-data="{&quot;origPos&quot;:null}" fill="#de4207"/><path d="M65.71083,276.81147c-0.05907,-0.20594 0.0671,-0.41881 0.28181,-0.47546c0.21471,-0.05666 0.43665,0.06436 0.49573,0.2703c0.05907,0.20594 -0.0671,0.41881 -0.28181,0.47546c-0.21471,0.05666 -0.43666,-0.06436 -0.49573,-0.27029z" data-paper-data="{&quot;origPos&quot;:null}" fill="#ffffff"/></g><g data-paper-data="{&quot;origPos&quot;:null}"><path d="M52.90818,268.91497c-0.2481,-0.86493 0.28183,-1.759 1.18362,-1.99695c0.90179,-0.23795 1.83396,0.27031 2.08206,1.13524c0.2481,0.86493 -0.28183,1.759 -1.18362,1.99695c-0.90179,0.23795 -1.83396,-0.27031 -2.08206,-1.13524z" data-paper-data="{&quot;origPos&quot;:null}" fill="#eb6c17"/><path d="M53.56642,268.09952c-0.09057,-0.31577 0.10289,-0.64217 0.43212,-0.72905c0.32922,-0.08687 0.66954,0.09869 0.76012,0.41445c0.09057,0.31577 -0.10289,0.64217 -0.43212,0.72905c-0.32922,0.08687 -0.66954,-0.09869 -0.76012,-0.41445z" data-paper-data="{&quot;origPos&quot;:null}" fill="#de4207"/><path d="M54.50988,268.27841c-0.05907,-0.20594 0.0671,-0.41881 0.28181,-0.47546c0.21471,-0.05666 0.43665,0.06436 0.49573,0.2703c0.05907,0.20594 -0.0671,0.41881 -0.28181,0.47546c-0.21471,0.05666 -0.43666,-0.06436 -0.49573,-0.27029z" data-paper-data="{&quot;origPos&quot;:null}" fill="#ffffff"/></g><g data-paper-data="{&quot;origPos&quot;:null}"><path d="M67.09122,278.20769c-0.2481,-0.86493 0.28183,-1.759 1.18362,-1.99695c0.90179,-0.23795 1.83396,0.27031 2.08206,1.13524c0.2481,0.86493 -0.28183,1.759 -1.18362,1.99695c-0.90179,0.23795 -1.83396,-0.27031 -2.08206,-1.13524z" data-paper-data="{&quot;origPos&quot;:null}" fill="#eb6c17"/><path d="M67.74948,277.39224c-0.09057,-0.31577 0.10289,-0.64217 0.43212,-0.72905c0.32922,-0.08687 0.66954,0.09869 0.76012,0.41445c0.09057,0.31577 -0.10289,0.64217 -0.43212,0.72905c-0.32922,0.08687 -0.66954,-0.09869 -0.76012,-0.41445z" data-paper-data="{&quot;origPos&quot;:null}" fill="#de4207"/><path d="M68.69294,277.57113c-0.05907,-0.20594 0.0671,-0.41881 0.28181,-0.47546c0.21471,-0.05666 0.43665,0.06436 0.49573,0.2703c0.05907,0.20594 -0.0671,0.41881 -0.28181,0.47546c-0.21471,0.05666 -0.43666,-0.06436 -0.49573,-0.27029z" data-paper-data="{&quot;origPos&quot;:null}" fill="#ffffff"/></g><g data-paper-data="{&quot;origPos&quot;:null}"><path d="M70.14484,271.98903c-0.2481,-0.86493 0.28183,-1.759 1.18362,-1.99695c0.90179,-0.23795 1.83396,0.27031 2.08206,1.13524c0.2481,0.86493 -0.28183,1.759 -1.18362,1.99695c-0.90179,0.23795 -1.83396,-0.27031 -2.08206,-1.13524z" data-paper-data="{&quot;origPos&quot;:null}" fill="#eb6c17"/><path d="M70.80309,271.17357c-0.09057,-0.31577 0.10289,-0.64217 0.43212,-0.72905c0.32922,-0.08687 0.66954,0.09869 0.76012,0.41445c0.09057,0.31577 -0.10289,0.64217 -0.43212,0.72905c-0.32922,0.08687 -0.66954,-0.09869 -0.76012,-0.41445z" data-paper-data="{&quot;origPos&quot;:null}" fill="#de4207"/><path d="M71.74656,271.35247c-0.05907,-0.20594 0.0671,-0.41881 0.28181,-0.47546c0.21471,-0.05666 0.43665,0.06436 0.49573,0.2703c0.05907,0.20594 -0.0671,0.41881 -0.28181,0.47546c-0.21471,0.05666 -0.43666,-0.06436 -0.49573,-0.27029z" data-paper-data="{&quot;origPos&quot;:null}" fill="#ffffff"/></g><g data-paper-data="{&quot;origPos&quot;:null}"><path d="M70.40434,270.48448c-0.2481,-0.86493 0.28183,-1.759 1.18362,-1.99695c0.90179,-0.23795 1.83396,0.27031 2.08206,1.13524c0.2481,0.86493 -0.28183,1.759 -1.18362,1.99695c-0.90179,0.23795 -1.83396,-0.27031 -2.08206,-1.13524z" data-paper-data="{&quot;origPos&quot;:null}" fill="#eb6c17"/><path d="M71.06259,269.66903c-0.09057,-0.31577 0.10289,-0.64217 0.43212,-0.72905c0.32922,-0.08687 0.66954,0.09869 0.76012,0.41445c0.09057,0.31577 -0.10289,0.64217 -0.43212,0.72905c-0.32922,0.08687 -0.66954,-0.09869 -0.76012,-0.41445z" data-paper-data="{&quot;origPos&quot;:null}" fill="#de4207"/><path d="M72.00605,269.84792c-0.05907,-0.20594 0.0671,-0.41881 0.28181,-0.47546c0.21471,-0.05666 0.43665,0.06436 0.49573,0.2703c0.05907,0.20594 -0.0671,0.41881 -0.28181,0.47546c-0.21471,0.05666 -0.43666,-0.06436 -0.49573,-0.27029z" data-paper-data="{&quot;origPos&quot;:null}" fill="#ffffff"/></g><g data-paper-data="{&quot;origPos&quot;:null}"><path d="M70.37537,274.80035c-0.2481,-0.86493 0.28183,-1.759 1.18362,-1.99695c0.90179,-0.23795 1.83396,0.27031 2.08206,1.13524c0.2481,0.86493 -0.28183,1.759 -1.18362,1.99695c-0.90179,0.23795 -1.83396,-0.27031 -2.08206,-1.13524z" data-paper-data="{&quot;origPos&quot;:null}" fill="#eb6c17"/><path d="M71.03362,273.9849c-0.09057,-0.31577 0.10289,-0.64217 0.43212,-0.72905c0.32922,-0.08687 0.66954,0.09869 0.76012,0.41445c0.09057,0.31577 -0.10289,0.64217 -0.43212,0.72905c-0.32922,0.08687 -0.66954,-0.09869 -0.76012,-0.41445z" data-paper-data="{&quot;origPos&quot;:null}" fill="#de4207"/><path d="M71.97708,274.1638c-0.05907,-0.20594 0.0671,-0.41881 0.28181,-0.47546c0.21471,-0.05666 0.43665,0.06436 0.49573,0.2703c0.05907,0.20594 -0.0671,0.41881 -0.28181,0.47546c-0.21471,0.05666 -0.43666,-0.06436 -0.49573,-0.27029z" data-paper-data="{&quot;origPos&quot;:null}" fill="#ffffff"/></g><g data-paper-data="{&quot;origPos&quot;:null}"><path d="M72.73326,270.97462c-0.2481,-0.86493 0.28183,-1.759 1.18362,-1.99695c0.90179,-0.23795 1.83396,0.27031 2.08206,1.13524c0.2481,0.86493 -0.28183,1.759 -1.18362,1.99695c-0.90179,0.23795 -1.83396,-0.27031 -2.08206,-1.13524z" data-paper-data="{&quot;origPos&quot;:null}" fill="#eb6c17"/><path d="M73.39151,270.15917c-0.09057,-0.31577 0.10289,-0.64217 0.43212,-0.72905c0.32922,-0.08687 0.66954,0.09869 0.76012,0.41445c0.09057,0.31577 -0.10289,0.64217 -0.43212,0.72905c-0.32922,0.08687 -0.66954,-0.09869 -0.76012,-0.41445z" data-paper-data="{&quot;origPos&quot;:null}" fill="#de4207"/><path d="M74.33498,270.33806c-0.05907,-0.20594 0.0671,-0.41881 0.28181,-0.47546c0.21471,-0.05666 0.43665,0.06436 0.49573,0.2703c0.05907,0.20594 -0.0671,0.41881 -0.28181,0.47546c-0.21471,0.05666 -0.43666,-0.06436 -0.49573,-0.27029z" data-paper-data="{&quot;origPos&quot;:null}" fill="#ffffff"/></g><g data-paper-data="{&quot;origPos&quot;:null}"><path d="M69.5029,276.57712c-0.2481,-0.86493 0.28183,-1.759 1.18362,-1.99695c0.90179,-0.23795 1.83396,0.27031 2.08206,1.13524c0.2481,0.86493 -0.28183,1.759 -1.18362,1.99695c-0.90179,0.23795 -1.83396,-0.27031 -2.08205,-1.13524z" data-paper-data="{&quot;origPos&quot;:null}" fill="#eb6c17"/><path d="M70.16115,275.76167c-0.09057,-0.31577 0.10289,-0.64217 0.43212,-0.72905c0.32922,-0.08687 0.66954,0.09869 0.76012,0.41445c0.09057,0.31577 -0.10289,0.64217 -0.43212,0.72905c-0.32922,0.08687 -0.66954,-0.09869 -0.76012,-0.41445z" data-paper-data="{&quot;origPos&quot;:null}" fill="#de4207"/><path d="M71.10462,275.94056c-0.05907,-0.20594 0.0671,-0.41881 0.28181,-0.47546c0.21471,-0.05666 0.43665,0.06436 0.49573,0.2703c0.05907,0.20594 -0.0671,0.41881 -0.28181,0.47546c-0.21471,0.05666 -0.43666,-0.06436 -0.49573,-0.27029z" data-paper-data="{&quot;origPos&quot;:null}" fill="#ffffff"/></g><g data-paper-data="{&quot;origPos&quot;:null}"><path d="M61.14241,270.71905c-0.2481,-0.86493 0.28183,-1.759 1.18362,-1.99695c0.90179,-0.23795 1.83396,0.27031 2.08206,1.13524c0.2481,0.86493 -0.28183,1.759 -1.18362,1.99695c-0.90179,0.23795 -1.83396,-0.27031 -2.08206,-1.13524z" data-paper-data="{&quot;origPos&quot;:null}" fill="#eb6c17"/><path d="M61.80066,269.9036c-0.09057,-0.31577 0.10289,-0.64217 0.43212,-0.72905c0.32922,-0.08687 0.66954,0.09869 0.76012,0.41445c0.09057,0.31577 -0.10289,0.64217 -0.43212,0.72905c-0.32922,0.08687 -0.66954,-0.09869 -0.76012,-0.41445z" data-paper-data="{&quot;origPos&quot;:null}" fill="#de4207"/><path d="M62.74412,270.08249c-0.05907,-0.20594 0.0671,-0.41881 0.28181,-0.47546c0.21471,-0.05666 0.43665,0.06436 0.49573,0.2703c0.05907,0.20594 -0.0671,0.41881 -0.28181,0.47546c-0.21471,0.05666 -0.43666,-0.06436 -0.49573,-0.27029z" data-paper-data="{&quot;origPos&quot;:null}" fill="#ffffff"/></g><g data-paper-data="{&quot;origPos&quot;:null}"><path d="M70.0434,274.44608c-0.2481,-0.86493 0.28183,-1.759 1.18362,-1.99695c0.90179,-0.23795 1.83396,0.27031 2.08206,1.13524c0.2481,0.86493 -0.28183,1.759 -1.18362,1.99695c-0.90179,0.23795 -1.83396,-0.27031 -2.08206,-1.13524z" data-paper-data="{&quot;origPos&quot;:null}" fill="#eb6c17"/><path d="M70.70165,273.63063c-0.09057,-0.31577 0.10289,-0.64217 0.43212,-0.72905c0.32922,-0.08687 0.66954,0.09869 0.76012,0.41445c0.09057,0.31577 -0.10289,0.64217 -0.43212,0.72905c-0.32922,0.08687 -0.66954,-0.09869 -0.76012,-0.41445z" data-paper-data="{&quot;origPos&quot;:null}" fill="#de4207"/><path d="M71.64511,273.80952c-0.05907,-0.20594 0.0671,-0.41881 0.28181,-0.47546c0.21471,-0.05666 0.43665,0.06436 0.49573,0.2703c0.05907,0.20594 -0.0671,0.41881 -0.28181,0.47546c-0.21471,0.05666 -0.43666,-0.06436 -0.49573,-0.27029z" data-paper-data="{&quot;origPos&quot;:null}" fill="#ffffff"/></g><g data-paper-data="{&quot;origPos&quot;:null}"><path d="M68.2475,277.01885c-0.2481,-0.86493 0.28183,-1.759 1.18362,-1.99695c0.90179,-0.23795 1.83396,0.27031 2.08206,1.13524c0.2481,0.86493 -0.28183,1.759 -1.18362,1.99695c-0.90179,0.23795 -1.83396,-0.27031 -2.08206,-1.13524z" data-paper-data="{&quot;origPos&quot;:null}" fill="#eb6c17"/><path d="M68.90575,276.20339c-0.09057,-0.31577 0.10289,-0.64217 0.43212,-0.72905c0.32922,-0.08687 0.66954,0.09869 0.76012,0.41445c0.09057,0.31577 -0.10289,0.64217 -0.43212,0.72905c-0.32922,0.08687 -0.66954,-0.09869 -0.76012,-0.41445z" data-paper-data="{&quot;origPos&quot;:null}" fill="#de4207"/><path d="M69.84922,276.38228c-0.05907,-0.20594 0.0671,-0.41881 0.28181,-0.47546c0.21471,-0.05666 0.43665,0.06436 0.49573,0.2703c0.05907,0.20594 -0.0671,0.41881 -0.28181,0.47546c-0.21471,0.05666 -0.43666,-0.06436 -0.49573,-0.27029z" data-paper-data="{&quot;origPos&quot;:null}" fill="#ffffff"/></g><g data-paper-data="{&quot;origPos&quot;:null}"><path d="M75.08981,279.19021c-0.2481,-0.86493 0.28183,-1.759 1.18362,-1.99695c0.90179,-0.23795 1.83396,0.27031 2.08206,1.13524c0.2481,0.86493 -0.28183,1.759 -1.18362,1.99695c-0.90179,0.23795 -1.83396,-0.27031 -2.08206,-1.13524z" data-paper-data="{&quot;origPos&quot;:null}" fill="#eb6c17"/><path d="M75.74806,278.37476c-0.09057,-0.31577 0.10289,-0.64217 0.43212,-0.72905c0.32922,-0.08687 0.66954,0.09869 0.76012,0.41445c0.09057,0.31577 -0.10289,0.64217 -0.43212,0.72905c-0.32922,0.08687 -0.66954,-0.09869 -0.76012,-0.41445z" data-paper-data="{&quot;origPos&quot;:null}" fill="#de4207"/><path d="M76.69152,278.55365c-0.05907,-0.20594 0.0671,-0.41881 0.28181,-0.47546c0.21471,-0.05666 0.43665,0.06436 0.49573,0.2703c0.05907,0.20594 -0.0671,0.41881 -0.28181,0.47546c-0.21471,0.05666 -0.43666,-0.06436 -0.49573,-0.27029z" data-paper-data="{&quot;origPos&quot;:null}" fill="#ffffff"/></g><g data-paper-data="{&quot;origPos&quot;:null}"><path d="M75.50918,271.01543c-0.2481,-0.86493 0.28183,-1.759 1.18362,-1.99695c0.90179,-0.23795 1.83396,0.27031 2.08206,1.13524c0.2481,0.86493 -0.28183,1.759 -1.18362,1.99695c-0.90179,0.23795 -1.83396,-0.27031 -2.08206,-1.13524z" data-paper-data="{&quot;origPos&quot;:null}" fill="#eb6c17"/><path d="M76.16743,270.19997c-0.09057,-0.31577 0.10289,-0.64217 0.43212,-0.72905c0.32922,-0.08687 0.66954,0.09869 0.76012,0.41445c0.09057,0.31577 -0.10289,0.64217 -0.43212,0.72905c-0.32922,0.08687 -0.66954,-0.09869 -0.76012,-0.41445z" data-paper-data="{&quot;origPos&quot;:null}" fill="#de4207"/><path d="M77.11089,270.37886c-0.05907,-0.20594 0.0671,-0.41881 0.28181,-0.47546c0.21471,-0.05666 0.43665,0.06436 0.49573,0.2703c0.05907,0.20594 -0.0671,0.41881 -0.28181,0.47546c-0.21471,0.05666 -0.43666,-0.06436 -0.49573,-0.27029z" data-paper-data="{&quot;origPos&quot;:null}" fill="#ffffff"/></g><g data-paper-data="{&quot;origPos&quot;:null}"><path d="M69.13915,279.32433c-0.2481,-0.86493 0.28183,-1.759 1.18362,-1.99695c0.90179,-0.23795 1.83396,0.27031 2.08206,1.13524c0.2481,0.86493 -0.28183,1.759 -1.18362,1.99695c-0.90179,0.23795 -1.83396,-0.27031 -2.08206,-1.13524z" data-paper-data="{&quot;origPos&quot;:null}" fill="#eb6c17"/><path d="M69.7974,278.50887c-0.09057,-0.31577 0.10289,-0.64217 0.43212,-0.72905c0.32922,-0.08687 0.66954,0.09869 0.76012,0.41445c0.09057,0.31577 -0.10289,0.64217 -0.43212,0.72905c-0.32922,0.08687 -0.66954,-0.09869 -0.76012,-0.41445z" data-paper-data="{&quot;origPos&quot;:null}" fill="#de4207"/><path d="M70.74087,278.68776c-0.05907,-0.20594 0.0671,-0.41881 0.28181,-0.47546c0.21471,-0.05666 0.43665,0.06436 0.49573,0.2703c0.05907,0.20594 -0.0671,0.41881 -0.28181,0.47546c-0.21471,0.05666 -0.43666,-0.06436 -0.49573,-0.27029z" data-paper-data="{&quot;origPos&quot;:null}" fill="#ffffff"/></g><g data-paper-data="{&quot;origPos&quot;:null}"><path d="M76.92029,274.73037c-0.2481,-0.86493 0.28183,-1.759 1.18362,-1.99695c0.90179,-0.23795 1.83396,0.27031 2.08206,1.13524c0.2481,0.86493 -0.28183,1.759 -1.18362,1.99695c-0.90179,0.23795 -1.83396,-0.27031 -2.08206,-1.13524z" data-paper-data="{&quot;origPos&quot;:null}" fill="#eb6c17"/><path d="M77.57854,273.91492c-0.09057,-0.31577 0.10289,-0.64217 0.43212,-0.72905c0.32922,-0.08687 0.66954,0.09869 0.76012,0.41445c0.09057,0.31577 -0.10289,0.64217 -0.43212,0.72905c-0.32922,0.08687 -0.66954,-0.09869 -0.76012,-0.41445z" data-paper-data="{&quot;origPos&quot;:null}" fill="#de4207"/><path d="M78.522,274.09381c-0.05907,-0.20594 0.0671,-0.41881 0.28181,-0.47546c0.21471,-0.05666 0.43665,0.06436 0.49573,0.2703c0.05907,0.20594 -0.0671,0.41881 -0.28181,0.47546c-0.21471,0.05666 -0.43666,-0.06436 -0.49573,-0.27029z" data-paper-data="{&quot;origPos&quot;:null}" fill="#ffffff"/></g><g data-paper-data="{&quot;origPos&quot;:null}"><path d="M79.43391,275.06132c-0.2481,-0.86493 0.28183,-1.759 1.18362,-1.99695c0.90179,-0.23795 1.83396,0.27031 2.08206,1.13524c0.2481,0.86493 -0.28183,1.759 -1.18362,1.99695c-0.90179,0.23795 -1.83396,-0.27031 -2.08206,-1.13524z" data-paper-data="{&quot;origPos&quot;:null}" fill="#eb6c17"/><path d="M80.09215,274.24587c-0.09057,-0.31577 0.10289,-0.64217 0.43212,-0.72905c0.32922,-0.08687 0.66954,0.09869 0.76012,0.41445c0.09057,0.31577 -0.10289,0.64217 -0.43212,0.72905c-0.32922,0.08687 -0.66954,-0.09869 -0.76012,-0.41445z" data-paper-data="{&quot;origPos&quot;:null}" fill="#de4207"/><path d="M81.03562,274.42476c-0.05907,-0.20594 0.0671,-0.41881 0.28181,-0.47546c0.21471,-0.05666 0.43665,0.06436 0.49573,0.2703c0.05907,0.20594 -0.0671,0.41881 -0.28181,0.47546c-0.21471,0.05666 -0.43666,-0.06436 -0.49573,-0.27029z" data-paper-data="{&quot;origPos&quot;:null}" fill="#ffffff"/></g><g data-paper-data="{&quot;origPos&quot;:null}"><path d="M74.05088,276.37126c-0.2481,-0.86493 0.28183,-1.759 1.18362,-1.99695c0.90179,-0.23795 1.83396,0.27031 2.08206,1.13524c0.2481,0.86493 -0.28183,1.759 -1.18362,1.99695c-0.90179,0.23795 -1.83396,-0.27031 -2.08205,-1.13524z" data-paper-data="{&quot;origPos&quot;:null}" fill="#eb6c17"/><path d="M74.70912,275.55581c-0.09057,-0.31577 0.10289,-0.64217 0.43212,-0.72905c0.32922,-0.08687 0.66954,0.09869 0.76012,0.41445c0.09057,0.31577 -0.10289,0.64217 -0.43212,0.72905c-0.32922,0.08687 -0.66954,-0.09869 -0.76012,-0.41445z" data-paper-data="{&quot;origPos&quot;:null}" fill="#de4207"/><path d="M75.65259,275.7347c-0.05907,-0.20594 0.0671,-0.41881 0.28181,-0.47546c0.21471,-0.05666 0.43665,0.06436 0.49573,0.2703c0.05907,0.20594 -0.0671,0.41881 -0.28181,0.47546c-0.21471,0.05666 -0.43666,-0.06436 -0.49573,-0.27029z" data-paper-data="{&quot;origPos&quot;:null}" fill="#ffffff"/></g><g data-paper-data="{&quot;origPos&quot;:null}"><path d="M77.73384,272.74822c-0.2481,-0.86493 0.28183,-1.759 1.18362,-1.99695c0.90179,-0.23795 1.83396,0.27031 2.08206,1.13524c0.2481,0.86493 -0.28183,1.759 -1.18362,1.99695c-0.90179,0.23795 -1.83396,-0.27031 -2.08206,-1.13524z" data-paper-data="{&quot;origPos&quot;:null}" fill="#eb6c17"/><path d="M78.39209,271.93277c-0.09057,-0.31577 0.10289,-0.64217 0.43212,-0.72905c0.32922,-0.08687 0.66954,0.09869 0.76012,0.41445c0.09057,0.31577 -0.10289,0.64217 -0.43212,0.72905c-0.32922,0.08687 -0.66954,-0.09869 -0.76012,-0.41445z" data-paper-data="{&quot;origPos&quot;:null}" fill="#de4207"/><path d="M79.33556,272.11166c-0.05907,-0.20594 0.0671,-0.41881 0.28181,-0.47546c0.21471,-0.05666 0.43665,0.06436 0.49573,0.2703c0.05907,0.20594 -0.0671,0.41881 -0.28181,0.47546c-0.21471,0.05666 -0.43666,-0.06436 -0.49573,-0.27029z" data-paper-data="{&quot;origPos&quot;:null}" fill="#ffffff"/></g><g data-paper-data="{&quot;origPos&quot;:null}"><path d="M71.55083,277.69375c-0.2481,-0.86493 0.28183,-1.759 1.18362,-1.99695c0.90179,-0.23795 1.83396,0.27031 2.08206,1.13524c0.2481,0.86493 -0.28183,1.759 -1.18362,1.99695c-0.90179,0.23795 -1.83396,-0.27031 -2.08205,-1.13524z" data-paper-data="{&quot;origPos&quot;:null}" fill="#eb6c17"/><path d="M72.20908,276.8783c-0.09057,-0.31577 0.10289,-0.64217 0.43212,-0.72905c0.32922,-0.08687 0.66954,0.09869 0.76012,0.41445c0.09057,0.31577 -0.10289,0.64217 -0.43212,0.72905c-0.32922,0.08687 -0.66954,-0.09869 -0.76012,-0.41445z" data-paper-data="{&quot;origPos&quot;:null}" fill="#de4207"/><path d="M73.15255,277.05719c-0.05907,-0.20594 0.0671,-0.41881 0.28181,-0.47546c0.21471,-0.05666 0.43665,0.06436 0.49573,0.2703c0.05907,0.20594 -0.0671,0.41881 -0.28181,0.47546c-0.21471,0.05666 -0.43666,-0.06436 -0.49573,-0.27029z" data-paper-data="{&quot;origPos&quot;:null}" fill="#ffffff"/></g><g data-paper-data="{&quot;origPos&quot;:null}"><path d="M60.06423,276.19552c-0.2481,-0.86493 0.28183,-1.759 1.18362,-1.99695c0.90179,-0.23795 1.83396,0.27031 2.08206,1.13524c0.2481,0.86493 -0.28183,1.759 -1.18362,1.99695c-0.90179,0.23795 -1.83396,-0.27031 -2.08206,-1.13524z" data-paper-data="{&quot;origPos&quot;:null}" fill="#eb6c17"/><path d="M60.72248,275.38007c-0.09057,-0.31577 0.10289,-0.64217 0.43212,-0.72905c0.32922,-0.08687 0.66954,0.09869 0.76012,0.41445c0.09057,0.31577 -0.10289,0.64217 -0.43212,0.72905c-0.32922,0.08687 -0.66954,-0.09869 -0.76012,-0.41445z" data-paper-data="{&quot;origPos&quot;:null}" fill="#de4207"/><path d="M61.66595,275.55896c-0.05907,-0.20594 0.0671,-0.41881 0.28181,-0.47546c0.21471,-0.05666 0.43665,0.06436 0.49573,0.2703c0.05907,0.20594 -0.0671,0.41881 -0.28181,0.47546c-0.21471,0.05666 -0.43666,-0.06436 -0.49573,-0.27029z" data-paper-data="{&quot;origPos&quot;:null}" fill="#ffffff"/></g><g data-paper-data="{&quot;origPos&quot;:null}"><path d="M55.71403,273.47704c-0.2481,-0.86493 0.28183,-1.759 1.18362,-1.99695c0.90179,-0.23795 1.83396,0.27031 2.08206,1.13524c0.2481,0.86493 -0.28183,1.759 -1.18362,1.99695c-0.90179,0.23795 -1.83396,-0.27031 -2.08206,-1.13524z" data-paper-data="{&quot;origPos&quot;:null}" fill="#eb6c17"/><path d="M56.37228,272.66159c-0.09057,-0.31577 0.10289,-0.64217 0.43212,-0.72905c0.32922,-0.08687 0.66954,0.09869 0.76012,0.41445c0.09057,0.31577 -0.10289,0.64217 -0.43212,0.72905c-0.32922,0.08687 -0.66954,-0.09869 -0.76012,-0.41445z" data-paper-data="{&quot;origPos&quot;:null}" fill="#de4207"/><path d="M57.31574,272.84048c-0.05907,-0.20594 0.0671,-0.41881 0.28181,-0.47546c0.21471,-0.05666 0.43665,0.06436 0.49573,0.2703c0.05907,0.20594 -0.0671,0.41881 -0.28181,0.47546c-0.21471,0.05666 -0.43666,-0.06436 -0.49573,-0.27029z" data-paper-data="{&quot;origPos&quot;:null}" fill="#ffffff"/></g><g data-paper-data="{&quot;origPos&quot;:null}"><path d="M65.62865,269.0934c-0.2481,-0.86493 0.28183,-1.759 1.18362,-1.99695c0.90179,-0.23795 1.83396,0.27031 2.08206,1.13524c0.2481,0.86493 -0.28183,1.759 -1.18362,1.99695c-0.90179,0.23795 -1.83396,-0.27031 -2.08206,-1.13524z" data-paper-data="{&quot;origPos&quot;:null}" fill="#eb6c17"/><path d="M66.2869,268.27795c-0.09057,-0.31577 0.10289,-0.64217 0.43212,-0.72905c0.32922,-0.08687 0.66954,0.09869 0.76012,0.41445c0.09057,0.31577 -0.10289,0.64217 -0.43212,0.72905c-0.32922,0.08687 -0.66954,-0.09869 -0.76012,-0.41445z" data-paper-data="{&quot;origPos&quot;:null}" fill="#de4207"/><path d="M67.23037,268.45684c-0.05907,-0.20594 0.0671,-0.41881 0.28181,-0.47546c0.21471,-0.05666 0.43665,0.06436 0.49573,0.2703c0.05907,0.20594 -0.0671,0.41881 -0.28181,0.47546c-0.21471,0.05666 -0.43666,-0.06436 -0.49573,-0.27029z" data-paper-data="{&quot;origPos&quot;:null}" fill="#ffffff"/></g><g data-paper-data="{&quot;origPos&quot;:null}"><path d="M61.09987,273.3815c-0.2481,-0.86493 0.28183,-1.759 1.18362,-1.99695c0.90179,-0.23795 1.83396,0.27031 2.08206,1.13524c0.2481,0.86493 -0.28183,1.759 -1.18362,1.99695c-0.90179,0.23795 -1.83396,-0.27031 -2.08206,-1.13524z" data-paper-data="{&quot;origPos&quot;:null}" fill="#eb6c17"/><path d="M61.75812,272.56604c-0.09057,-0.31577 0.10289,-0.64217 0.43212,-0.72905c0.32922,-0.08687 0.66954,0.09869 0.76012,0.41445c0.09057,0.31577 -0.10289,0.64217 -0.43212,0.72905c-0.32922,0.08687 -0.66954,-0.09869 -0.76012,-0.41445z" data-paper-data="{&quot;origPos&quot;:null}" fill="#de4207"/><path d="M62.70158,272.74494c-0.05907,-0.20594 0.0671,-0.41881 0.28181,-0.47546c0.21471,-0.05666 0.43665,0.06436 0.49573,0.2703c0.05907,0.20594 -0.0671,0.41881 -0.28181,0.47546c-0.21471,0.05666 -0.43666,-0.06436 -0.49573,-0.27029z" data-paper-data="{&quot;origPos&quot;:null}" fill="#ffffff"/></g><g data-paper-data="{&quot;origPos&quot;:null}"><path d="M63.1478,274.49813c-0.2481,-0.86493 0.28183,-1.759 1.18362,-1.99695c0.90179,-0.23795 1.83396,0.27031 2.08206,1.13524c0.2481,0.86493 -0.28183,1.759 -1.18362,1.99695c-0.90179,0.23795 -1.83396,-0.27031 -2.08206,-1.13524z" data-paper-data="{&quot;origPos&quot;:null}" fill="#eb6c17"/><path d="M63.80604,273.68268c-0.09057,-0.31577 0.10289,-0.64217 0.43212,-0.72905c0.32922,-0.08687 0.66954,0.09869 0.76012,0.41445c0.09057,0.31577 -0.10289,0.64217 -0.43212,0.72905c-0.32922,0.08687 -0.66954,-0.09869 -0.76012,-0.41445z" data-paper-data="{&quot;origPos&quot;:null}" fill="#de4207"/><path d="M64.74951,273.86157c-0.05907,-0.20594 0.0671,-0.41881 0.28181,-0.47546c0.21471,-0.05666 0.43665,0.06436 0.49573,0.2703c0.05907,0.20594 -0.0671,0.41881 -0.28181,0.47546c-0.21471,0.05666 -0.43666,-0.06436 -0.49573,-0.27029z" data-paper-data="{&quot;origPos&quot;:null}" fill="#ffffff"/></g><g data-paper-data="{&quot;origPos&quot;:null}"><path d="M54.69147,273.52592c-0.2481,-0.86493 0.28183,-1.759 1.18362,-1.99695c0.90179,-0.23795 1.83396,0.27031 2.08206,1.13524c0.2481,0.86493 -0.28183,1.759 -1.18362,1.99695c-0.90179,0.23795 -1.83396,-0.27031 -2.08206,-1.13524z" data-paper-data="{&quot;origPos&quot;:null}" fill="#eb6c17"/><path d="M55.34972,272.71047c-0.09057,-0.31577 0.10289,-0.64217 0.43212,-0.72905c0.32922,-0.08687 0.66954,0.09869 0.76012,0.41445c0.09057,0.31577 -0.10289,0.64217 -0.43212,0.72905c-0.32922,0.08687 -0.66954,-0.09869 -0.76012,-0.41445z" data-paper-data="{&quot;origPos&quot;:null}" fill="#de4207"/><path d="M56.29319,272.88936c-0.05907,-0.20594 0.0671,-0.41881 0.28181,-0.47546c0.21471,-0.05666 0.43665,0.06436 0.49573,0.2703c0.05907,0.20594 -0.0671,0.41881 -0.28181,0.47546c-0.21471,0.05666 -0.43666,-0.06436 -0.49573,-0.27029z" data-paper-data="{&quot;origPos&quot;:null}" fill="#ffffff"/></g><g data-paper-data="{&quot;origPos&quot;:null}"><path d="M78.65776,276.37079c-0.2481,-0.86493 0.28183,-1.759 1.18362,-1.99695c0.90179,-0.23795 1.83396,0.27031 2.08206,1.13524c0.2481,0.86493 -0.28183,1.759 -1.18362,1.99695c-0.90179,0.23795 -1.83396,-0.27031 -2.08206,-1.13524z" data-paper-data="{&quot;origPos&quot;:null}" fill="#eb6c17"/><path d="M79.31601,275.55535c-0.09057,-0.31577 0.10289,-0.64217 0.43212,-0.72905c0.32922,-0.08687 0.66954,0.09869 0.76012,0.41445c0.09057,0.31577 -0.10289,0.64217 -0.43212,0.72905c-0.32922,0.08687 -0.66954,-0.09869 -0.76012,-0.41445z" data-paper-data="{&quot;origPos&quot;:null}" fill="#de4207"/><path d="M80.25948,275.73424c-0.05907,-0.20594 0.0671,-0.41881 0.28181,-0.47546c0.21471,-0.05666 0.43665,0.06436 0.49573,0.2703c0.05907,0.20594 -0.0671,0.41881 -0.28181,0.47546c-0.21471,0.05666 -0.43666,-0.06436 -0.49573,-0.27029z" data-paper-data="{&quot;origPos&quot;:null}" fill="#ffffff"/></g><g data-paper-data="{&quot;origPos&quot;:null}"><path d="M65.09427,278.07182c-0.2481,-0.86493 0.28183,-1.759 1.18362,-1.99695c0.90179,-0.23795 1.83396,0.27031 2.08206,1.13524c0.2481,0.86493 -0.28183,1.759 -1.18362,1.99695c-0.90179,0.23795 -1.83396,-0.27031 -2.08206,-1.13524z" data-paper-data="{&quot;origPos&quot;:null}" fill="#eb6c17"/><path d="M65.75252,277.25636c-0.09057,-0.31577 0.10289,-0.64217 0.43212,-0.72905c0.32922,-0.08687 0.66954,0.09869 0.76012,0.41445c0.09057,0.31577 -0.10289,0.64217 -0.43212,0.72905c-0.32922,0.08687 -0.66954,-0.09869 -0.76012,-0.41445z" data-paper-data="{&quot;origPos&quot;:null}" fill="#de4207"/><path d="M66.69598,277.43526c-0.05907,-0.20594 0.0671,-0.41881 0.28181,-0.47546c0.21471,-0.05666 0.43665,0.06436 0.49573,0.2703c0.05907,0.20594 -0.0671,0.41881 -0.28181,0.47546c-0.21471,0.05666 -0.43666,-0.06436 -0.49573,-0.27029z" data-paper-data="{&quot;origPos&quot;:null}" fill="#ffffff"/></g><g data-paper-data="{&quot;origPos&quot;:null}"><path d="M72.54955,279.97097c-0.2481,-0.86493 0.28183,-1.759 1.18362,-1.99695c0.90179,-0.23795 1.83396,0.27031 2.08206,1.13524c0.2481,0.86493 -0.28183,1.759 -1.18362,1.99695c-0.90179,0.23795 -1.83396,-0.27031 -2.08206,-1.13524z" data-paper-data="{&quot;origPos&quot;:null}" fill="#eb6c17"/><path d="M73.2078,279.15552c-0.09057,-0.31577 0.10289,-0.64217 0.43212,-0.72905c0.32922,-0.08687 0.66954,0.09869 0.76012,0.41445c0.09057,0.31577 -0.10289,0.64217 -0.43212,0.72905c-0.32922,0.08687 -0.66954,-0.09869 -0.76012,-0.41445z" data-paper-data="{&quot;origPos&quot;:null}" fill="#de4207"/><path d="M74.15126,279.33441c-0.05907,-0.20594 0.0671,-0.41881 0.28181,-0.47546c0.21471,-0.05666 0.43665,0.06436 0.49573,0.2703c0.05907,0.20594 -0.0671,0.41881 -0.28181,0.47546c-0.21471,0.05666 -0.43666,-0.06436 -0.49573,-0.27029z" data-paper-data="{&quot;origPos&quot;:null}" fill="#ffffff"/></g><g data-paper-data="{&quot;origPos&quot;:null}"><path d="M56.43688,274.39098c-0.2481,-0.86493 0.28183,-1.759 1.18362,-1.99695c0.90179,-0.23795 1.83396,0.27031 2.08206,1.13524c0.2481,0.86493 -0.28183,1.759 -1.18362,1.99695c-0.90179,0.23795 -1.83396,-0.27031 -2.08206,-1.13524z" data-paper-data="{&quot;origPos&quot;:null}" fill="#eb6c17"/><path d="M57.09513,273.57552c-0.09057,-0.31577 0.10289,-0.64217 0.43212,-0.72905c0.32922,-0.08687 0.66954,0.09869 0.76012,0.41445c0.09057,0.31577 -0.10289,0.64217 -0.43212,0.72905c-0.32922,0.08687 -0.66954,-0.09869 -0.76012,-0.41445z" data-paper-data="{&quot;origPos&quot;:null}" fill="#de4207"/><path d="M58.0386,273.75441c-0.05907,-0.20594 0.0671,-0.41881 0.28181,-0.47546c0.21471,-0.05666 0.43665,0.06436 0.49573,0.2703c0.05907,0.20594 -0.0671,0.41881 -0.28181,0.47546c-0.21471,0.05666 -0.43666,-0.06436 -0.49573,-0.27029z" data-paper-data="{&quot;origPos&quot;:null}" fill="#ffffff"/></g><g data-paper-data="{&quot;origPos&quot;:null}"><path d="M74.07471,274.04515c-0.2481,-0.86493 0.28183,-1.759 1.18362,-1.99695c0.90179,-0.23795 1.83396,0.27031 2.08206,1.13524c0.2481,0.86493 -0.28183,1.759 -1.18362,1.99695c-0.90179,0.23795 -1.83396,-0.27031 -2.08206,-1.13524z" data-paper-data="{&quot;origPos&quot;:null}" fill="#eb6c17"/><path d="M74.73296,273.2297c-0.09057,-0.31577 0.10289,-0.64217 0.43212,-0.72905c0.32922,-0.08687 0.66954,0.09869 0.76012,0.41445c0.09057,0.31577 -0.10289,0.64217 -0.43212,0.72905c-0.32922,0.08687 -0.66954,-0.09869 -0.76012,-0.41445z" data-paper-data="{&quot;origPos&quot;:null}" fill="#de4207"/><path d="M75.67642,273.40859c-0.05907,-0.20594 0.0671,-0.41881 0.28181,-0.47546c0.21471,-0.05666 0.43665,0.06436 0.49573,0.2703c0.05907,0.20594 -0.0671,0.41881 -0.28181,0.47546c-0.21471,0.05666 -0.43666,-0.06436 -0.49573,-0.27029z" data-paper-data="{&quot;origPos&quot;:null}" fill="#ffffff"/></g><g data-paper-data="{&quot;origPos&quot;:null}"><path d="M70.49368,279.62971c-0.2481,-0.86493 0.28183,-1.759 1.18362,-1.99695c0.90179,-0.23795 1.83396,0.27031 2.08206,1.13524c0.2481,0.86493 -0.28183,1.759 -1.18362,1.99695c-0.90179,0.23795 -1.83396,-0.27031 -2.08206,-1.13524z" data-paper-data="{&quot;origPos&quot;:null}" fill="#eb6c17"/><path d="M71.15193,278.81426c-0.09057,-0.31577 0.10289,-0.64217 0.43212,-0.72905c0.32922,-0.08687 0.66954,0.09869 0.76012,0.41445c0.09057,0.31577 -0.10289,0.64217 -0.43212,0.72905c-0.32922,0.08687 -0.66954,-0.09869 -0.76012,-0.41445z" data-paper-data="{&quot;origPos&quot;:null}" fill="#de4207"/><path d="M72.0954,278.99315c-0.05907,-0.20594 0.0671,-0.41881 0.28181,-0.47546c0.21471,-0.05666 0.43665,0.06436 0.49573,0.2703c0.05907,0.20594 -0.0671,0.41881 -0.28181,0.47546c-0.21471,0.05666 -0.43666,-0.06436 -0.49573,-0.27029z" data-paper-data="{&quot;origPos&quot;:null}" fill="#ffffff"/></g><g data-paper-data="{&quot;origPos&quot;:null}"><path d="M62.70643,277.37628c-0.2481,-0.86493 0.28183,-1.759 1.18362,-1.99695c0.90179,-0.23795 1.83396,0.27031 2.08206,1.13524c0.2481,0.86493 -0.28183,1.759 -1.18362,1.99695c-0.90179,0.23795 -1.83396,-0.27031 -2.08206,-1.13524z" data-paper-data="{&quot;origPos&quot;:null}" fill="#eb6c17"/><path d="M63.36468,276.56083c-0.09057,-0.31577 0.10289,-0.64217 0.43212,-0.72905c0.32922,-0.08687 0.66954,0.09869 0.76012,0.41445c0.09057,0.31577 -0.10289,0.64217 -0.43212,0.72905c-0.32922,0.08687 -0.66954,-0.09869 -0.76012,-0.41445z" data-paper-data="{&quot;origPos&quot;:null}" fill="#de4207"/><path d="M64.30815,276.73972c-0.05907,-0.20594 0.0671,-0.41881 0.28181,-0.47546c0.21471,-0.05666 0.43665,0.06436 0.49573,0.2703c0.05907,0.20594 -0.0671,0.41881 -0.28181,0.47546c-0.21471,0.05666 -0.43666,-0.06436 -0.49573,-0.27029z" data-paper-data="{&quot;origPos&quot;:null}" fill="#ffffff"/></g><g data-paper-data="{&quot;origPos&quot;:null}"><path d="M79.30532,274.21151c-0.2481,-0.86493 0.28183,-1.759 1.18362,-1.99695c0.90179,-0.23795 1.83396,0.27031 2.08206,1.13524c0.2481,0.86493 -0.28183,1.759 -1.18362,1.99695c-0.90179,0.23795 -1.83396,-0.27031 -2.08206,-1.13524z" data-paper-data="{&quot;origPos&quot;:null}" fill="#eb6c17"/><path d="M79.96357,273.39605c-0.09057,-0.31577 0.10289,-0.64217 0.43212,-0.72905c0.32922,-0.08687 0.66954,0.09869 0.76012,0.41445c0.09057,0.31577 -0.10289,0.64217 -0.43212,0.72905c-0.32922,0.08687 -0.66954,-0.09869 -0.76012,-0.41445z" data-paper-data="{&quot;origPos&quot;:null}" fill="#de4207"/><path d="M80.90704,273.57495c-0.05907,-0.20594 0.0671,-0.41881 0.28181,-0.47546c0.21471,-0.05666 0.43665,0.06436 0.49573,0.2703c0.05907,0.20594 -0.0671,0.41881 -0.28181,0.47546c-0.21471,0.05666 -0.43666,-0.06436 -0.49573,-0.27029z" data-paper-data="{&quot;origPos&quot;:null}" fill="#ffffff"/></g><g data-paper-data="{&quot;origPos&quot;:null}"><path d="M73.91202,279.50099c-0.2481,-0.86493 0.28183,-1.759 1.18362,-1.99695c0.90179,-0.23795 1.83396,0.27031 2.08206,1.13524c0.2481,0.86493 -0.28183,1.759 -1.18362,1.99695c-0.90179,0.23795 -1.83396,-0.27031 -2.08206,-1.13524z" data-paper-data="{&quot;origPos&quot;:null}" fill="#eb6c17"/><path d="M74.57027,278.68554c-0.09057,-0.31577 0.10289,-0.64217 0.43212,-0.72905c0.32922,-0.08687 0.66954,0.09869 0.76012,0.41445c0.09057,0.31577 -0.10289,0.64217 -0.43212,0.72905c-0.32922,0.08687 -0.66954,-0.09869 -0.76012,-0.41445z" data-paper-data="{&quot;origPos&quot;:null}" fill="#de4207"/><path d="M75.51374,278.86443c-0.05907,-0.20594 0.0671,-0.41881 0.28181,-0.47546c0.21471,-0.05666 0.43665,0.06436 0.49573,0.2703c0.05907,0.20594 -0.0671,0.41881 -0.28181,0.47546c-0.21471,0.05666 -0.43666,-0.06436 -0.49573,-0.27029z" data-paper-data="{&quot;origPos&quot;:null}" fill="#ffffff"/></g><g data-paper-data="{&quot;origPos&quot;:null}"><path d="M67.1609,278.85211c-0.2481,-0.86493 0.28183,-1.759 1.18362,-1.99695c0.90179,-0.23795 1.83396,0.27031 2.08206,1.13524c0.2481,0.86493 -0.28183,1.759 -1.18362,1.99695c-0.90179,0.23795 -1.83396,-0.27031 -2.08206,-1.13524z" data-paper-data="{&quot;origPos&quot;:null}" fill="#eb6c17"/><path d="M67.81914,278.03666c-0.09057,-0.31577 0.10289,-0.64217 0.43212,-0.72905c0.32922,-0.08687 0.66954,0.09869 0.76012,0.41445c0.09057,0.31577 -0.10289,0.64217 -0.43212,0.72905c-0.32922,0.08687 -0.66954,-0.09869 -0.76012,-0.41445z" data-paper-data="{&quot;origPos&quot;:null}" fill="#de4207"/><path d="M68.76261,278.21555c-0.05907,-0.20594 0.0671,-0.41881 0.28181,-0.47546c0.21471,-0.05666 0.43665,0.06436 0.49573,0.2703c0.05907,0.20594 -0.0671,0.41881 -0.28181,0.47546c-0.21471,0.05666 -0.43666,-0.06436 -0.49573,-0.27029z" data-paper-data="{&quot;origPos&quot;:null}" fill="#ffffff"/></g></g><path d="M81.88598,277.31713c-5.14394,4.86156 -7.82958,4.8469 -17.11341,1.33027c-9.28383,-3.51663 -15.62747,-7.2535 -12.00087,-11.60853c2.01587,-2.42078 8.12272,-4.67552 17.40655,-1.15889c9.28383,3.51663 15.63466,7.72579 11.70773,11.43715z" data-paper-data="{&quot;origRot&quot;:0,&quot;origPos&quot;:null}" fill="none" stroke="#001a0d" stroke-width="1"/><path d="M78.04676,291.78998c-9.93862,3.47831 -22.75298,-4.98883 -25.15944,-6.58181c-0.89667,-0.59356 -1.38237,-15.12784 -1.38237,-15.12784c0,0 -0.62447,2.32565 9.74327,7.09903c9.61265,4.42572 11.26179,4.67486 15.83663,3.47757c5.042,-1.31955 6.27923,-6.69327 6.27923,-6.69327c0,0 0.42868,12.90904 0.00057,13.9644c-0.42811,1.05535 -1.46933,2.51501 -5.31789,3.86192z" data-paper-data="{&quot;origPos&quot;:null,&quot;origRot&quot;:0}" fill="#001a0d" stroke="none" stroke-width="0"/></g></g></g></g></svg>