<svg version="1.1" xmlns="http://www.w3.org/2000/svg" xmlns:xlink="http://www.w3.org/1999/xlink" width="422.28201" height="100.69292" viewBox="0,0,422.28201,100.69292"><g transform="translate(-57.73011,-113.43418)"><g data-paper-data="{&quot;isPaintingLayer&quot;:true}" fill="none" fill-rule="nonzero" stroke="none" stroke-width="none" stroke-linecap="butt" stroke-linejoin="miter" stroke-miterlimit="10" stroke-dasharray="" stroke-dashoffset="0" font-family="none" font-weight="none" font-size="none" text-anchor="none" style="mix-blend-mode: normal"><text transform="translate(208.05899,134.18745) scale(0.47833,0.47833)" font-size="40" xml:space="preserve" data-paper-data="{&quot;origPos&quot;:null}" fill="#000000" fill-rule="nonzero" stroke="none" stroke-width="1" stroke-linecap="butt" stroke-linejoin="miter" stroke-miterlimit="10" stroke-dasharray="" stroke-dashoffset="0" font-family="Sans Serif" font-weight="normal" text-anchor="start" style="mix-blend-mode: normal"><tspan x="0" dy="0">円分のお寿司をゲット!</tspan></text><text transform="translate(209.05899,160.55449) scale(0.43115,0.43115)" font-size="40" xml:space="preserve" data-paper-data="{&quot;origPos&quot;:null}" fill="#000000" fill-rule="nonzero" stroke="none" stroke-width="1" stroke-linecap="butt" stroke-linejoin="miter" stroke-miterlimit="10" stroke-dasharray="" stroke-dashoffset="0" font-family="Sans Serif" font-weight="normal" text-anchor="start" style="mix-blend-mode: normal"><tspan x="0" dy="0">円　払って…</tspan></text><text transform="translate(209.05899,202.68745) scale(0.52167,0.52167)" font-size="40" xml:space="preserve" data-paper-data="{&quot;origPos&quot;:null}" fill="#b3b3b3" fill-rule="nonzero" stroke="none" stroke-width="1" stroke-linecap="butt" stroke-linejoin="miter" stroke-miterlimit="10" stroke-dasharray="" stroke-dashoffset="0" font-family="Sans Serif" font-weight="normal" text-anchor="start" style="mix-blend-mode: normal"><tspan x="0" dy="0">円分 損でした…。</tspan></text><path d="M401.46611,209.67416c-1.56007,3.00744 -98.14668,3.06029 -164.54221,2.27625c-60.56311,-0.71516 -98.28798,1.05082 -158.80876,-0.33575c-4.74037,-0.1086 -8.51963,-31.09308 -1.10926,-34.6381c6.27559,-3.00217 100.44385,-2.36938 161.31706,-2.05092c62.53396,0.32712 157.72949,0.14819 161.25571,1.21995c6.43842,1.9569 8.02379,21.69928 1.88747,33.52856z" data-paper-data="{&quot;origPos&quot;:null}" fill="none" stroke="#b3b3b3" stroke-width="3.5"/><text transform="translate(474.05899,185.93745) scale(0.5,0.5)" font-size="40" xml:space="preserve" fill="#b3b3b3" fill-rule="nonzero" stroke="none" stroke-width="1" stroke-linecap="butt" stroke-linejoin="miter" stroke-miterlimit="10" stroke-dasharray="" stroke-dashoffset="0" font-family="Sans Serif" font-weight="normal" text-anchor="start" style="mix-blend-mode: normal"><tspan x="0" dy="0"> </tspan></text><g data-paper-data="{&quot;origPos&quot;:null}"><path d="M112.05357,155.169c0.85149,3.63198 -11.38392,7.29296 -20.08105,8.83471c-7.93313,1.40633 -12.10303,4.91029 -20.26508,5.51718c-0.6393,0.04754 -11.93048,-36.63176 -12.22733,-41.12051c-0.2514,-3.80138 11.91644,-6.55749 19.7505,-8.44679c8.04777,-1.94087 20.06271,-5.69985 20.88406,-4.5576c1.49967,2.08561 8.58971,25.48721 11.9389,39.77301z" data-paper-data="{&quot;origPos&quot;:null,&quot;origRot&quot;:0}" fill="none" stroke="#d92e2b" stroke-width="3.5"/><text transform="translate(70.29999,153.00626) rotate(-15.50597) scale(0.44221,0.44221)" font-size="40" xml:space="preserve" data-paper-data="{&quot;origRot&quot;:-7.57561,&quot;origPos&quot;:null}" fill="#d92e2b" fill-rule="nonzero" stroke="none" stroke-width="1" stroke-linecap="butt" stroke-linejoin="miter" stroke-miterlimit="10" stroke-dasharray="" stroke-dashoffset="0" font-family="Sans Serif" font-weight="normal" text-anchor="start" style="mix-blend-mode: normal"><tspan x="0" dy="0">成績</tspan></text></g></g></g></svg>