<svg version="1.1" xmlns="http://www.w3.org/2000/svg" xmlns:xlink="http://www.w3.org/1999/xlink" width="383.883" height="59.76069" viewBox="0,0,383.883,59.76069"><defs><radialGradient cx="70.10301" cy="221.14046" r="20.48727" gradientUnits="userSpaceOnUse" id="color-1"><stop offset="0" stop-color="#b2b2b2"/><stop offset="1" stop-color="#b2b2b2" stop-opacity="0"/></radialGradient><linearGradient x1="70.59418" y1="203.88475" x2="70.59418" y2="224.34892" gradientUnits="userSpaceOnUse" id="color-2"><stop offset="0" stop-color="#d9d9d9"/><stop offset="1" stop-color="#666d70"/></linearGradient></defs><g transform="translate(-36.55902,-191.82074)"><g data-paper-data="{&quot;isPaintingLayer&quot;:true}" fill="none" fill-rule="nonzero" stroke="none" stroke-width="none" stroke-linecap="butt" stroke-linejoin="miter" stroke-miterlimit="10" stroke-dasharray="" stroke-dashoffset="0" font-family="none" font-weight="none" font-size="none" text-anchor="none" style="mix-blend-mode: normal"><path d="M418.69202,247.50199c-2.62552,2.49704 -102.74108,1.54337 -171.33213,0.46477c-62.56574,-0.98384 -161.58274,1.03012 -166.42086,-1.46188c-5.28932,-2.72442 -5.09153,-46.44138 -0.47143,-49.31825c7.70598,-4.79841 105.4515,-3.59289 168.33757,-3.15479c64.60175,0.45003 164.46272,-1.29613 169.62318,1.67829c3.40044,1.95997 3.22066,48.97958 0.26367,51.79187z" data-paper-data="{&quot;origPos&quot;:null}" fill="#ffffff" stroke="#996725" stroke-width="3.5"/><text transform="translate(106.05902,216.9375) scale(0.5,0.5)" font-size="40" xml:space="preserve" data-paper-data="{&quot;origPos&quot;:null}" fill="#0095cc" fill-rule="nonzero" stroke="none" stroke-width="1" stroke-linecap="butt" stroke-linejoin="miter" stroke-miterlimit="10" stroke-dasharray="" stroke-dashoffset="0" font-family="Sans Serif" font-weight="normal" text-anchor="start" style="mix-blend-mode: normal"><tspan x="0" dy="0">お勧め</tspan></text><text transform="translate(108.05902,238.9375) scale(0.5,0.5)" font-size="40" xml:space="preserve" data-paper-data="{&quot;origPos&quot;:null}" fill="#000000" fill-rule="nonzero" stroke="none" stroke-width="1" stroke-linecap="butt" stroke-linejoin="miter" stroke-miterlimit="10" stroke-dasharray="" stroke-dashoffset="0" font-family="Sans Serif" font-weight="normal" text-anchor="start" style="mix-blend-mode: normal"><tspan x="0" dy="0">5000円コース</tspan></text><text transform="translate(250.05902,216.88139) scale(0.4406,0.4406)" font-size="40" xml:space="preserve" data-paper-data="{&quot;origPos&quot;:null}" fill="#000000" fill-rule="nonzero" stroke="none" stroke-width="1" stroke-linecap="butt" stroke-linejoin="miter" stroke-miterlimit="10" stroke-dasharray="" stroke-dashoffset="0" font-family="Sans Serif" font-weight="normal" text-anchor="start" style="mix-blend-mode: normal"><tspan x="0" dy="0">文字数　:5〜10文字</tspan></text><text transform="translate(250.05902,238.61172) scale(0.44156,0.44156)" font-size="40" xml:space="preserve" data-paper-data="{&quot;origPos&quot;:null}" fill="#000000" fill-rule="nonzero" stroke="none" stroke-width="1" stroke-linecap="butt" stroke-linejoin="miter" stroke-miterlimit="10" stroke-dasharray="" stroke-dashoffset="0" font-family="Sans Serif" font-weight="normal" text-anchor="start" style="mix-blend-mode: normal"><tspan x="0" dy="0">制限時間:90秒</tspan></text><g data-paper-data="{&quot;origPos&quot;:null}"><path d="M103.147,221.41549c0,9.12485 -14.7943,16.522 -33.04399,16.522c-18.24969,0 -33.04399,-7.39715 -33.04399,-16.522c0,-9.12485 14.7943,-16.522 33.04399,-16.522c18.24969,0 33.04399,7.39715 33.04399,16.522z" data-paper-data="{&quot;origPos&quot;:null}" fill="#ffffff" stroke="#b2b2b2" stroke-width="1"/><path d="M90.59028,221.14046c0,5.11538 -9.17247,9.26221 -20.48727,9.26221c-11.31481,0 -20.48727,-4.14683 -20.48727,-9.26221c0,-5.11538 9.17247,-9.26221 20.48727,-9.26221c11.31481,0 20.48727,4.14683 20.48727,9.26221z" data-paper-data="{&quot;origPos&quot;:null}" fill="url(#color-1)" stroke="none" stroke-width="0"/><path d="M97.85996,221.33288c0,6.88926 -12.35324,12.47411 -27.59173,12.47411c-15.23849,0 -27.59173,-5.58485 -27.59173,-12.47411c0,-6.88926 12.35324,-12.47411 27.59173,-12.47411c15.23849,0 27.59173,5.58485 27.59173,12.47411z" data-paper-data="{&quot;origPos&quot;:null}" fill="none" stroke="#ff8080" stroke-width="2.5"/><path d="M85.31302,222.56587c-1.63036,6.28862 -11.52636,6.63756 -18.90127,2.70705c-8.19472,-4.36744 -12.9943,-6.06064 -11.04262,-12.09162c1.93396,-5.97621 7.56108,-6.63756 16.42297,-3.86359c8.86189,2.77398 15.44473,5.8276 13.52092,13.24816z" data-paper-data="{&quot;origPos&quot;:null,&quot;origRot&quot;:0}" fill="#ffffff" stroke="#c2c2c2" stroke-width="1.5"/><path d="M51.50601,210.68652c-0.84516,-2.56353 9.50887,-7.61024 14.95241,-6.69141c6.39948,1.08019 13.58246,5.6348 18.76604,10.40189c3.69493,3.39805 4.58722,6.17983 4.5011,7.97341c-0.06558,1.36573 -2.19819,2.33955 -6.4548,1.85025c-5.00418,-0.57523 -30.80733,-10.63011 -31.76475,-13.53414z" data-paper-data="{&quot;origPos&quot;:null}" fill="url(#color-2)" stroke="#c2c2c2" stroke-width="0"/><path d="M55.45501,210.25728c0.01891,-1.00356 4.52788,-1.07142 12.84129,2.55547c9.95264,4.34204 14.76182,8.8589 14.19415,9.68668c-0.67967,0.9911 -4.48724,-3.81716 -14.55878,-7.87581c-6.02253,-2.42698 -12.49558,-3.36278 -12.47667,-4.36634z" data-paper-data="{&quot;origPos&quot;:null,&quot;index&quot;:null,&quot;origRot&quot;:0}" fill="#d7dcdd" stroke="none" stroke-width="0"/><g data-paper-data="{&quot;origPos&quot;:null}" stroke="none" stroke-width="0"><path d="M59.48404,205.80205c0.03776,-0.47782 7.271,-1.44315 14.89436,2.44275c9.12654,4.65212 9.89752,9.49355 9.65143,9.95474c-0.37309,0.76402 -1.80661,-3.40794 -11.06115,-7.79993c-5.53398,-2.6263 -13.51013,-4.27512 -13.48464,-4.59756z" data-paper-data="{&quot;origPos&quot;:null,&quot;index&quot;:null,&quot;origRot&quot;:0}" fill="#e38175"/><path d="M59.37389,205.98735c0.03676,-0.46507 5.93009,0.3048 13.35013,4.08706c8.88312,4.52804 11.43553,7.95384 11.196,8.40272c-0.36314,0.74365 -5.5548,-2.97485 -12.02913,-6.25838c-6.47433,-3.28353 -12.54179,-5.91757 -12.51699,-6.23141z" data-paper-data="{&quot;origPos&quot;:null,&quot;index&quot;:null,&quot;origRot&quot;:0}" fill="#fce5dd"/><path d="M77.3344,212.22058c-0.77353,2.0488 -3.59204,2.88231 -6.29532,1.86168c-2.70328,-1.02063 -4.26766,-3.50889 -3.49413,-5.5577c0.77353,-2.0488 3.59204,-2.88231 6.29532,-1.86168c2.70328,1.02063 4.26766,3.50889 3.49413,5.5577z" data-paper-data="{&quot;origRot&quot;:0,&quot;origPos&quot;:null}" fill="#fff796"/><g data-paper-data="{&quot;origPos&quot;:null}" fill="#3ca52d"><path d="M71.50343,208.38993v-1.76235h1.76235v1.76235z" data-paper-data="{&quot;origPos&quot;:null}"/><path d="M68.97006,210.04213v-1.6522h1.6522v1.6522z" data-paper-data="{&quot;origPos&quot;:null}"/><path d="M72.49475,210.26243v-1.32176h1.32176v1.32176z" data-paper-data="{&quot;origPos&quot;:null}"/><path d="M74.69768,210.15228v-1.54205h1.54205v1.54205z" data-paper-data="{&quot;origPos&quot;:null}"/><path d="M70.18167,210.81316v-1.43191h1.43191v1.43191z" data-paper-data="{&quot;origPos&quot;:null}"/><path d="M73.70636,211.47404v-1.32176h1.32176v1.32176z" data-paper-data="{&quot;origPos&quot;:null}"/><path d="M68.85991,207.50876v-0.88117h0.88117v0.88117z" data-paper-data="{&quot;origPos&quot;:null}"/><path d="M74.47739,208.83052v-1.43191h1.43191v1.43191z" data-paper-data="{&quot;origPos&quot;:null}"/><path d="M70.40196,207.39861v-1.43191h1.43191v1.43191z" data-paper-data="{&quot;origPos&quot;:null}"/></g></g></g></g></g></svg>