<svg version="1.1" xmlns="http://www.w3.org/2000/svg" xmlns:xlink="http://www.w3.org/1999/xlink" width="57.18898" height="30.95462"><g transform="translate(-126.021,-46.01575)"><g data-paper-data="{&quot;isPaintingLayer&quot;:true}" fill="none" fill-rule="none" stroke="none" stroke-width="1" stroke-linecap="square" stroke-linejoin="miter" stroke-miterlimit="10" stroke-dasharray="" stroke-dashoffset="0" font-family="none" font-weight="none" font-size="none" text-anchor="none" style="mix-blend-mode: normal"><path d="M126.021,46.01575h57.18898v30.95462h-57.18898z" data-paper-data="{&quot;origPos&quot;:null}" fill-opacity="0" fill="#000000" fill-rule="evenodd"/><path d="M135.22846,61.6079v-4.54001h1.56113v4.54001h3.98247v1.56113h-3.98247v4.54001h-1.56113v-4.54001h-3.98247v-1.56113zM147.4626,55.23595v12.52884c0,0.29205 0.07965,0.50179 0.23895,0.62923c0.19116,0.14868 0.47524,0.22302 0.85225,0.22302h1.21863v1.32218h-6.65868v-1.32218h1.13899c0.41418,0 0.69295,-0.07168 0.83632,-0.21505c0.16992,-0.13275 0.25488,-0.34515 0.25488,-0.63719v-9.63757c0,-0.09558 -0.03717,-0.18319 -0.11151,-0.26284c-0.02655,-0.02124 -0.11416,-0.03186 -0.26284,-0.03186h-1.85583v-1.32218h1.13899c0.56286,0 1.00093,-0.09027 1.31421,-0.27081c0.34515,-0.17523 0.6425,-0.50976 0.89207,-1.00358zM152.60795,67.96392c-1.10447,0.55224 -1.37793,0.27346 -0.82039,-0.83632c1.88503,-2.09743 3.09836,-4.31965 3.63997,-6.66665h-3.31341v-1.32218h3.42492v-2.62046c-0.72746,0.18054 -1.7337,0.35577 -3.01871,0.52569c-1.02482,-0.20709 -1.07527,-0.58675 -0.15133,-1.13899c2.81959,-0.7487 5.10552,-1.60361 6.85781,-2.56471l1.76822,0.98765c0.33984,0.83897 0.02389,1.16288 -0.94783,0.97172c-0.94517,0.29736 -1.82131,0.55224 -2.62843,0.76463v3.07446h0.51772l1.00358,-1.00358l1.41776,1.01155c0.71684,0.59472 0.65578,1.03279 -0.18319,1.31422h-2.75587v1.95937c2.01778,0.531 3.02667,1.30359 3.02667,2.3178c0,0.65312 -0.27346,0.97969 -0.82039,0.97969c-0.30798,0 -0.66374,-0.30001 -1.0673,-0.90004c-0.32922,-0.47259 -0.70888,-0.82304 -1.13899,-1.05137v7.60651c-1.25315,1.15757 -1.87972,1.12306 -1.87972,-0.10354v-6.56311c-0.61595,1.05668 -1.59299,2.14257 -2.9311,3.25766zM158.1595,70.88705c4.81613,-1.57175 8.38708,-4.62763 10.71284,-9.16764l1.52927,1.0912c1.0673,0.93455 0.89738,1.35138 -0.50976,1.25049c-2.46913,4.09398 -6.27371,6.77019 -11.41375,8.02865c-1.3328,0 -1.439,-0.4009 -0.3186,-1.20271zM171.43705,61.23355c0,0.65312 -0.30001,0.97969 -0.90004,0.97969c-0.39294,0 -0.75932,-0.37435 -1.09916,-1.12306c-0.65843,-1.36997 -1.4921,-2.4532 -2.50099,-3.2497c-0.39294,-0.78056 -0.14602,-1.08323 0.74074,-0.908c1.34873,0.89738 2.32576,1.67795 2.9311,2.34169c0.55224,0.61595 0.82835,1.26908 0.82835,1.95938zM163.20131,57.41038c1.44431,0.52569 1.36997,0.98765 -0.22302,1.3859c-0.60533,1.87442 -1.44431,3.43023 -2.51692,4.66745c-0.62657,0.41949 -0.93986,0.22567 -0.93986,-0.58144c0.96641,-1.87973 1.63547,-3.92671 2.00716,-6.14097zM166.18019,64.41952c0,0.71153 -0.23098,1.26642 -0.69295,1.66467c-0.28674,0.28674 -0.64781,0.43011 -1.08323,0.43011c-0.49383,0 -0.74074,-0.24691 -0.74074,-0.74074c0,-0.06372 -0.05575,-0.11416 -0.16726,-0.15133l-1.0673,-0.24691c-0.7487,-0.3717 -0.73543,-0.75136 0.03982,-1.13899h1.69653c0.09027,0 0.1354,-0.04513 0.1354,-0.1354v-10.77656l1.92751,0.34249c1.10447,0.68498 1.08854,1.12306 -0.04779,1.31421z" data-paper-data="{&quot;origPos&quot;:null}" fill="#ff0000" fill-rule="nonzero"/></g></g></svg>