<svg version="1.1" xmlns="http://www.w3.org/2000/svg" xmlns:xlink="http://www.w3.org/1999/xlink" width="202.5" height="102.85552" viewBox="0,0,202.5,102.85552"><defs><radialGradient cx="240.05902" cy="203.10515" r="62" gradientUnits="userSpaceOnUse" id="color-1"><stop offset="0" stop-color="#b2b2b2"/><stop offset="1" stop-color="#b2b2b2" stop-opacity="0"/></radialGradient></defs><g transform="translate(-138.80902,-152.33197)"><g data-paper-data="{&quot;isPaintingLayer&quot;:true}" fill="none" fill-rule="nonzero" stroke="none" stroke-width="none" stroke-linecap="butt" stroke-linejoin="miter" stroke-miterlimit="10" stroke-dasharray="" stroke-dashoffset="0" font-family="none" font-weight="none" font-size="none" text-anchor="none" style="mix-blend-mode: normal"><g><path d="M340.05902,203.93749c0,27.61424 -44.77153,50 -100,50c-55.22847,0 -100,-22.38576 -100,-50c0,-27.61424 44.77153,-50 100,-50c55.22847,0 100,22.38576 100,50z" data-paper-data="{&quot;origPos&quot;:null}" fill="#ffffff" stroke="#b2b2b2" stroke-width="2.5"/><path d="M302.05902,203.10515c0,15.48051 -27.75835,28.02994 -62,28.02994c-34.24165,0 -62,-12.54943 -62,-28.02994c0,-15.48051 27.75835,-28.02994 62,-28.02994c34.24165,0 62,12.54943 62,28.02994z" data-paper-data="{&quot;origPos&quot;:null}" fill="url(#color-1)" stroke="none" stroke-width="0"/><path d="M324.05902,203.68749c0,20.84875 -37.38423,37.75 -83.5,37.75c-46.11577,0 -83.5,-16.90125 -83.5,-37.75c0,-20.84875 37.38423,-37.75 83.5,-37.75c46.11577,0 83.5,16.90125 83.5,37.75z" data-paper-data="{&quot;origPos&quot;:null}" fill="none" stroke="#bfff80" stroke-width="10"/></g><path d="M281.08861,212.41885c-4.9339,19.03106 -34.88186,20.08704 -57.20033,8.19225c-24.79944,-13.21705 -39.32425,-18.34112 -33.41793,-36.59249c5.85268,-18.08563 22.88186,-20.08704 49.70033,-11.69225c26.81847,8.3948 46.73992,17.63589 40.91793,40.09249z" data-paper-data="{&quot;origPos&quot;:null,&quot;origRot&quot;:0}" fill="#ffffff" stroke="#c2c2c2" stroke-width="1.5"/><path d="M202.02949,152.71873c6.21816,-2.58567 69.06104,7.6703 94.79109,34.47891c5.01728,5.2276 -9.11783,29.20182 -13.37847,31.12969c-4.26064,1.92787 -61.61118,-30.7449 -95.03395,-32.40065c-14.44167,-0.71544 5.83384,-29.96972 13.62133,-33.20795z" data-paper-data="{&quot;origPos&quot;:null}" fill="#f7a900" stroke="none" stroke-width="0"/><path d="M298.02949,188.21873c0,0 3.84341,7.36567 1.16453,14.65643c-2.83873,7.72578 -9.94089,21.25035 -18.16453,21.59357c-10.72203,0.4475 -30.82688,-12.07691 -50.54227,-18.43139c-19.18915,-6.18487 -39.34882,-11.96229 -46.0884,-13.70506c-3.88887,-1.00561 -1.86933,-9.61355 -1.86933,-9.61355c0,0 61.99746,14.28784 98,33.25c5.90362,3.10937 17.5,-27.75 17.5,-27.75z" data-paper-data="{&quot;origPos&quot;:null}" fill="#ee7e12" stroke="none" stroke-width="0"/><path d="M259.40812,164.24708c14.13478,7.68419 -16.25754,14.54518 -28,28c-5.55649,6.36677 -5.08612,27.70891 -12,26.5c-13.16768,-2.30241 -5.38659,-28.79801 -1,-33c9.0459,-8.66523 31.5202,-26.65357 41,-21.5z" data-paper-data="{&quot;origPos&quot;:null}" fill="#00180b" stroke="none" stroke-width="0"/><g data-paper-data="{&quot;origPos&quot;:null}" fill="#ee7e12" stroke="none" stroke-width="0"><path d="M199.27919,161.84017c0,-0.9665 0.7835,-1.75 1.75,-1.75c0.9665,0 1.75,0.7835 1.75,1.75c0,0.9665 -0.7835,1.75 -1.75,1.75c-0.9665,0 -1.75,-0.7835 -1.75,-1.75z" data-paper-data="{&quot;origPos&quot;:null}"/><path d="M196.2792,178.84017c0,-0.9665 0.7835,-1.75 1.75,-1.75c0.9665,0 1.75,0.7835 1.75,1.75c0,0.9665 -0.7835,1.75 -1.75,1.75c-0.9665,0 -1.75,-0.7835 -1.75,-1.75z" data-paper-data="{&quot;origPos&quot;:null}"/><path d="M227.2792,167.84017c0,-0.9665 0.7835,-1.75 1.75,-1.75c0.9665,0 1.75,0.7835 1.75,1.75c0,0.9665 -0.7835,1.75 -1.75,1.75c-0.9665,0 -1.75,-0.7835 -1.75,-1.75z" data-paper-data="{&quot;origPos&quot;:null}"/><path d="M247.2792,198.34017c0,-0.9665 0.7835,-1.75 1.75,-1.75c0.9665,0 1.75,0.7835 1.75,1.75c0,0.9665 -0.7835,1.75 -1.75,1.75c-0.9665,0 -1.75,-0.7835 -1.75,-1.75z" data-paper-data="{&quot;origPos&quot;:null}"/><path d="M259.2792,182.34017c0,-0.9665 0.7835,-1.75 1.75,-1.75c0.9665,0 1.75,0.7835 1.75,1.75c0,0.9665 -0.7835,1.75 -1.75,1.75c-0.9665,0 -1.75,-0.7835 -1.75,-1.75z" data-paper-data="{&quot;origPos&quot;:null}"/><path d="M259.2792,193.34017c0,-0.9665 0.7835,-1.75 1.75,-1.75c0.9665,0 1.75,0.7835 1.75,1.75c0,0.9665 -0.7835,1.75 -1.75,1.75c-0.9665,0 -1.75,-0.7835 -1.75,-1.75z" data-paper-data="{&quot;origPos&quot;:null}"/><path d="M272.7792,210.34017c0,-0.9665 0.7835,-1.75 1.75,-1.75c0.9665,0 1.75,0.7835 1.75,1.75c0,0.9665 -0.7835,1.75 -1.75,1.75c-0.9665,0 -1.75,-0.7835 -1.75,-1.75z" data-paper-data="{&quot;origPos&quot;:null}"/><path d="M274.7792,183.34017c0,-0.9665 0.7835,-1.75 1.75,-1.75c0.9665,0 1.75,0.7835 1.75,1.75c0,0.9665 -0.7835,1.75 -1.75,1.75c-0.9665,0 -1.75,-0.7835 -1.75,-1.75z" data-paper-data="{&quot;origPos&quot;:null}"/><path d="M288.2792,195.34017c0,-0.9665 0.7835,-1.75 1.75,-1.75c0.9665,0 1.75,0.7835 1.75,1.75c0,0.9665 -0.7835,1.75 -1.75,1.75c-0.9665,0 -1.75,-0.7835 -1.75,-1.75z" data-paper-data="{&quot;origPos&quot;:null}"/><path d="M206.2792,171.34017c0,-0.9665 0.7835,-1.75 1.75,-1.75c0.9665,0 1.75,0.7835 1.75,1.75c0,0.9665 -0.7835,1.75 -1.75,1.75c-0.9665,0 -1.75,-0.7835 -1.75,-1.75z" data-paper-data="{&quot;origPos&quot;:null}"/></g></g></g></svg>