<svg version="1.1" xmlns="http://www.w3.org/2000/svg" xmlns:xlink="http://www.w3.org/1999/xlink" width="121.32655" height="27.23671" viewBox="0,0,121.32655,27.23671"><g transform="translate(-310.98552,-295.04475)"><g data-paper-data="{&quot;isPaintingLayer&quot;:true}" fill="none" fill-rule="nonzero" stroke="none" stroke-width="none" stroke-linecap="none" stroke-linejoin="miter" stroke-miterlimit="10" stroke-dasharray="" stroke-dashoffset="0" font-family="none" font-weight="none" font-size="none" text-anchor="none" style="mix-blend-mode: normal"><g data-paper-data="{&quot;origPos&quot;:null}" stroke-width="3.5" stroke-linecap="butt"><path d="M430.56207,318.82754c-0.56269,1.89588 -35.39956,1.9292 -59.34711,1.43494c-21.84391,-0.45084 -35.45053,0.66243 -57.27917,-0.21166c-1.70976,-0.06846 -3.07286,-19.60101 -0.40009,-21.83578c2.26348,-1.89256 36.22811,-1.49365 58.18387,-1.2929c22.55476,0.20622 54.23592,0.16583 55.64179,0.55892c4.12218,1.15261 5.55144,13.42612 3.20072,21.34646z" data-paper-data="{&quot;origPos&quot;:null}" fill="none" stroke="#4c3312"/><path d="M429.3618,317.72657c-0.56269,1.89588 -35.39956,1.9292 -59.34711,1.43494c-21.84391,-0.45084 -35.45053,0.66243 -57.27917,-0.21166c-1.70976,-0.06846 -3.07286,-19.60101 -0.40009,-21.83578c2.26348,-1.89256 36.22811,-1.49365 58.18387,-1.2929c22.55476,0.20622 56.8899,0.09342 58.16174,0.76905c2.32221,1.23363 2.89402,13.67918 0.68077,21.13633z" data-paper-data="{&quot;origPos&quot;:null}" fill="#ffffff" stroke="#986625"/></g><path d="M332.93787,308.08608c-0.69608,-0.6328 -1.64924,-1.06983 -2.85947,-1.31108c-0.80682,0.87801 -1.77975,1.71845 -2.91879,2.52132c-0.68421,0 -0.83451,-0.2551 -0.45087,-0.76529c2.14757,-1.83512 3.56939,-3.87195 4.26547,-6.11048c0.04746,-0.15029 -0.10876,-0.27685 -0.46867,-0.37968c-0.5537,-0.27685 -0.54579,-0.55766 0.02373,-0.84242c0.53393,-0.04746 0.98677,0.02175 1.35854,0.20764c0.6684,0.33222 1.00259,0.66246 1.00259,0.99073c0,0.32826 -0.16413,0.4924 -0.4924,0.4924c0,-0.01582 -0.00593,0.00593 -0.0178,0.06526c-0.11865,0.2373 -0.17995,0.35397 -0.18391,0.35002c0.9492,-0.06328 2.02299,-0.15029 3.22135,-0.26103c0.13052,-0.10679 0.3164,-0.31047 0.55766,-0.61105c0.36782,0.14634 0.71981,0.34606 1.05599,0.59918c0.32431,0.21753 0.48647,0.44098 0.48647,0.67037c0,0.2808 -0.16018,0.46274 -0.48053,0.54579c-0.10283,0.01977 -0.20961,0.1404 -0.32036,0.36188c-0.48251,1.04016 -1.06389,2.05462 -1.74416,3.04338c0.40341,0.26894 0.57941,0.64664 0.52799,1.13311c-0.06723,0.45878 -0.27092,0.68817 -0.61105,0.68817c-0.24521,0 -0.53195,-0.16413 -0.86021,-0.4924c-1.70856,2.14757 -3.81262,3.77505 -6.31218,4.88245c-0.70004,0 -0.8523,-0.26301 -0.4568,-0.78902c2.68149,-1.57805 4.57396,-3.24112 5.67741,-4.98923zM333.73283,306.89958c0.62489,-0.88988 1.15091,-1.85687 1.57805,-2.90099c0.08306,-0.01977 0.13052,0.00593 0.14238,0.07712c-1.26956,0.0791 -2.43628,0.16018 -3.50018,0.24323c-0.24521,-0.06328 -0.34409,-0.16018 -0.29663,-0.29069c-0.35991,0.92547 -0.6684,1.55234 -0.92547,1.88061c1.22605,0.18588 2.22666,0.51613 3.00185,0.99073zM346.11989,306.68601c0,2.12384 0,4.31293 0,6.56728c0,0.56556 -0.18391,0.84835 -0.55172,0.84835c-0.21753,0 -0.45483,-0.15622 -0.7119,-0.46867c-0.31245,-0.35991 -0.4133,-0.73167 -0.30256,-1.11531c0.11074,-0.40737 0.16611,-0.73563 0.16611,-0.9848c0,-1.7402 0,-3.26881 0,-4.58582c-2.02101,1.54245 -4.01235,2.68149 -5.97403,3.41712c-0.93338,0 -1.05203,-0.29069 -0.35595,-0.87208c4.05388,-2.20293 7.05572,-4.55418 9.00554,-7.05374c0.09888,-0.12261 0.1404,-0.22741 0.12458,-0.31442c-0.00791,-0.02373 -0.12458,-0.09294 -0.35002,-0.20764c-1.09949,-0.36782 -1.02435,-0.62885 0.22544,-0.78309c0.75145,0.04746 1.30713,0.31838 1.66704,0.81275c0.37177,0.32431 0.55766,0.61302 0.55766,0.86615c0,0.40737 -0.23137,0.5715 -0.6941,0.4924c-0.10679,0 -0.22346,0.04944 -0.35002,0.14831c-0.7119,0.83055 -1.47522,1.56618 -2.28995,2.20689c1.25373,0.3955 1.19837,0.73761 -0.16611,1.02632zM353.34568,305.90292c0.30849,0.02769 0.86812,0.14238 1.6789,0.34409c0.9927,0.28872 1.78173,0.66246 2.36707,1.12124c0.67235,0.54183 1.00853,1.02039 1.00853,1.43567c0,0.56556 -0.24323,0.84835 -0.7297,0.84835c-0.26103,0 -0.56161,-0.2195 -0.90174,-0.65851c-0.75145,-0.97293 -1.88851,-1.68681 -3.41119,-2.14163c0,3.43689 0,5.49152 0,6.16387c0,0.64467 -0.20368,0.967 -0.61105,0.967c-0.37177,0 -0.66642,-0.24126 -0.88394,-0.72377c-0.14634,-0.34804 -0.13249,-0.80484 0.04153,-1.37041c0.11469,-1.31306 0.15227,-4.31886 0.11272,-9.0174c0,-0.33618 -0.04153,-0.57348 -0.12458,-0.7119c-0.05537,-0.07515 -0.27487,-0.13052 -0.65851,-0.16611c-0.56952,-0.28476 -0.57743,-0.56556 -0.02373,-0.84242c0.34804,-0.09888 0.79298,-0.08108 1.33481,0.05339c0.34804,0.13447 0.6506,0.28674 0.90767,0.4568c0.33222,0.22148 0.49833,0.46669 0.49833,0.73563c0,0.2808 -0.1582,0.46076 -0.4746,0.53986c-0.00791,-0.00396 -0.00791,0 0,0.01187c-0.11865,1.02435 -0.16215,2.00914 -0.13052,2.95439zM366.11242,311.69304c-0.45878,-0.45483 -0.68817,-0.74552 -0.68817,-0.87208c0,-0.24126 0.1582,-0.40143 0.4746,-0.48053c0,-0.39155 0,-2.42046 0,-6.08675c-0.03164,-0.30058 -0.09492,-0.52799 -0.18984,-0.68224c-0.02769,-0.03955 -0.21357,-0.09492 -0.55766,-0.16611c-0.55766,-0.33222 -0.56556,-0.63478 -0.02373,-0.90767c0.85824,0 1.55234,0.15425 2.08231,0.46274c0.33618,0.22544 0.50426,0.45285 0.50426,0.68224c0,0.28872 -0.1582,0.51217 -0.4746,0.67037c0,1.84698 0,3.69793 0,5.55282c2.04078,-0.88197 3.95302,-2.25435 5.73673,-4.11716c0.59721,-0.24126 0.83451,-0.04944 0.7119,0.57545c-1.19837,1.57014 -2.82585,3.01965 -4.88245,4.34853c-0.96502,0.53788 -1.44753,0.82462 -1.44753,0.86021c0,0.40737 -0.16413,0.61105 -0.4924,0.61105c-0.20566,0 -0.4568,-0.15029 -0.75343,-0.45087zM364.20216,305.85546c-0.72772,2.87529 -2.28599,5.26015 -4.67481,7.1546c-0.6684,0.13447 -0.85824,-0.08503 -0.56952,-0.65851c1.91422,-1.87863 3.14027,-4.12507 3.67815,-6.73932c0.03164,-0.32431 0.0435,-0.4924 0.0356,-0.50426c-0.07119,-0.07119 -0.20368,-0.12261 -0.39748,-0.15425c-0.70794,-0.2808 -0.70399,-0.56359 0.01187,-0.84835c0.73959,-0.04746 1.39611,0.12656 1.96959,0.52206c0.32826,0.22148 0.4924,0.46669 0.4924,0.73563c0,0.32826 -0.18193,0.4924 -0.54579,0.4924zM383.12091,311.15911c0.6328,0 1.24583,0 1.83908,0c0.58929,0 1.04214,-0.07119 1.35854,-0.21357c0.56556,-0.22544 1.01446,-0.06328 1.34668,0.48647c0.3164,0.55766 0.13842,0.87405 -0.53393,0.9492c-0.32826,0.03955 -0.81473,0.05933 -1.4594,0.05933c-0.791,0 -1.582,0 -2.373,0c-1.35261,0 -2.31565,-0.28872 -2.88913,-0.86615c-0.57743,-0.57348 -0.86615,-1.27944 -0.86615,-2.1179c0,-0.24917 0.02175,-0.59523 0.06526,-1.03819c0.28476,-0.56952 0.5715,-0.56556 0.86021,0.01187c0.0356,1.06785 0.20171,1.75206 0.49833,2.05265c0.45483,0.45087 1.17266,0.67631 2.1535,0.67631zM385.84986,304.43166c-1.2221,0 -2.51934,0.62885 -3.89172,1.88654c-0.60512,0.45483 -0.83055,0.29267 -0.67631,-0.48647c0.48251,-0.70399 1.07576,-1.2834 1.77975,-1.73822c0.0791,0.12261 0.12261,0.2551 0.13052,0.39748c-1.32888,0.08306 -2.40266,-0.13447 -3.22135,-0.65258c-0.80682,-0.64467 -0.68619,-0.89185 0.36188,-0.74156c0.65653,0.15425 1.21023,0.23137 1.6611,0.23137c1.08367,0 2.14757,-0.11667 3.19169,-0.35002c0.62489,-0.15425 1.05599,-0.02571 1.29329,0.38561c0.42714,0.7119 0.21753,1.06785 -0.62885,1.06785zM377.65114,307.27333c0.70399,-0.13842 0.91954,0.06328 0.64664,0.60512c-0.30453,0.60907 -0.59127,1.51476 -0.86021,2.71709c-0.14634,0.61302 -0.15029,1.1074 -0.01187,1.48313c0.22544,0.62885 0.2808,1.08367 0.16611,1.36448c-0.22544,0.45483 -0.55766,0.53788 -0.99666,0.24917c-0.84242,-0.57743 -1.26362,-2.00914 -1.26362,-4.29513c0,-1.48708 0.2195,-3.22926 0.65851,-5.22653c0.07515,-0.33618 0.11272,-0.74947 0.11272,-1.23989c0,-0.35991 -0.14238,-0.58139 -0.42714,-0.66444c-0.69608,-0.55766 -0.59325,-0.83648 0.30849,-0.83648c0.70004,0.18588 1.23,0.56952 1.58991,1.15091c0.13052,0.20171 0.1404,0.47064 0.02966,0.80682c-0.47064,1.37238 -0.74354,2.25039 -0.81869,2.63403c-0.23334,1.00853 -0.35002,1.89642 -0.35002,2.6637c0,0.76332 0.05142,1.35261 0.15425,1.76789c-0.11469,0.0356 -0.22741,0.03362 -0.33815,-0.00593c0.43505,-1.3447 0.90174,-2.40266 1.40007,-3.17389zM396.76566,309.83617c-0.41528,2.61821 -2.12581,4.19823 -5.13161,4.74007c-0.63675,0 -0.74947,-0.27487 -0.33815,-0.82462c2.43628,-0.69608 3.83437,-1.94388 4.19428,-3.74341h-3.50611c-0.29663,1.64133 -1.15684,3.06908 -2.58064,4.28327c-0.56161,0.2808 -0.77518,0.08306 -0.64071,-0.59325c1.36843,-1.48708 2.05265,-3.57334 2.05265,-6.25879v-4.38412l1.29922,0.86615h7.51648l0.45087,-0.59325l1.08565,0.77716c0.58139,0.48251 0.54381,0.78902 -0.11272,0.91954v2.49165c-0.93338,0.86219 -1.40007,0.83648 -1.40007,-0.07712v-0.10085h-7.43936v0.39748c0,0.60907 -0.01977,1.03819 -0.05933,1.28735h3.50018c0.01582,-0.11865 0.02373,-0.33024 0.02373,-0.63478v-1.32295l1.43567,0.2551c0.82264,0.5102 0.81078,0.83648 -0.0356,0.97886v0.38561c0,0.25707 -0.02373,0.39155 -0.07119,0.40341l3.48238,-0.06526l0.87208,-0.87208l1.17464,0.87801c0.52997,0.44296 0.48251,0.76925 -0.14238,0.97886h-4.7816c0.68817,1.50686 2.72499,2.62414 6.11048,3.35187c-1.32888,0.30849 -2.11197,0.72377 -2.34927,1.24583c-2.52725,-1.02039 -4.10331,-2.60239 -4.7282,-4.746zM392.21543,304.90626v1.44753h7.43936v-1.44753zM389.62886,301.84509h10.74376l0.99073,-0.99073l1.35261,0.99666c0.52997,0.44296 0.48251,0.76925 -0.14238,0.97886h-12.94472zM403.92619,309.87176c0,-0.41132 0.1938,-0.78705 0.58139,-1.12718c0.26894,-0.22939 2.12779,-2.24644 5.57655,-6.05115c0.10679,0.11074 0.13447,0.2373 0.08306,0.37968c-0.89383,0.15029 -1.79755,0.3777 -2.71115,0.68224c-0.30849,0.17402 -0.56952,0.26103 -0.78309,0.26103c-0.15029,0 -0.41132,-0.1404 -0.78309,-0.42121c-0.47064,-0.37572 -0.7297,-0.8088 -0.77716,-1.29922c0,-0.71586 0.26499,-0.8088 0.79496,-0.27883c0.18588,0.2808 0.50031,0.42121 0.94327,0.42121c0.47856,0 0.77123,-0.0178 0.87801,-0.05339c0.80286,-0.11865 1.57607,-0.25707 2.31961,-0.41528c0.34804,-0.06723 0.58732,-0.15425 0.71783,-0.26103c0.12656,-0.18588 0.30453,-0.27883 0.53393,-0.27883c0.2729,0 0.55766,0.12261 0.85428,0.36782c0.2729,0.22148 0.40934,0.44098 0.40934,0.65851c0,0.22939 -0.24521,0.42516 -0.73563,0.58732c-0.38759,0.17798 -1.70658,1.44951 -3.95698,3.8146c-0.11074,-0.09096 -0.176,-0.21159 -0.19577,-0.36188c0.87405,-0.33222 1.76591,-0.49833 2.67556,-0.49833c1.39216,0 2.5134,0.42714 3.36373,1.28142c0.61698,0.61302 0.92547,1.41787 0.92547,2.41453c0,1.15486 -0.34804,2.07835 -1.04412,2.77048c-1.00853,1.01248 -2.42639,1.51872 -4.2536,1.51872c-1.19441,0 -2.0388,-0.24917 -2.53318,-0.7475c-0.41923,-0.41528 -0.62885,-0.84439 -0.62885,-1.28735c0,-0.40341 0.15029,-0.75343 0.45087,-1.05005c0.33618,-0.34013 0.82462,-0.5102 1.46533,-0.5102c0.75936,0 1.44555,0.30849 2.05858,0.92547c0.40341,0.39945 0.6506,0.84242 0.74156,1.32888c0.48251,-0.10283 0.97886,-0.40737 1.48906,-0.91361c0.52997,-0.53393 0.79496,-1.17266 0.79496,-1.9162c0,-0.82264 -0.24521,-1.48115 -0.73563,-1.97552c-0.57348,-0.56952 -1.39018,-0.85428 -2.45012,-0.85428c-1.17859,0 -2.3908,0.62094 -3.63662,1.86281c-0.49437,0.49833 -0.89185,0.99073 -1.19243,1.47719c-0.13052,0.26499 -0.35991,0.39748 -0.68817,0.39748c-0.36782,0 -0.55172,-0.28278 -0.55172,-0.84835zM409.3663,312.87954c-0.02373,-0.41132 -0.18391,-0.76727 -0.48053,-1.06785c-0.25707,-0.25312 -0.55963,-0.37968 -0.90767,-0.37968c-0.50229,0 -0.75343,0.17204 -0.75343,0.51613c0,0.15029 0.08701,0.31442 0.26103,0.4924c0.29663,0.29267 0.92349,0.43901 1.88061,0.43901z" data-paper-data="{&quot;origPos&quot;:null}" fill="#000000" stroke="none" stroke-width="1" stroke-linecap="square"/></g></g></svg>