<svg version="1.1" xmlns="http://www.w3.org/2000/svg" xmlns:xlink="http://www.w3.org/1999/xlink" width="202.5" height="120.70033"><defs><radialGradient cx="240.05902" cy="203.10515" r="62" gradientUnits="userSpaceOnUse" id="color-1"><stop offset="0" stop-color="#b2b2b2"/><stop offset="1" stop-color="#b2b2b2" stop-opacity="0"/></radialGradient></defs><g transform="translate(-138.80902,-134.48716)"><g data-paper-data="{&quot;isPaintingLayer&quot;:true}" fill="none" fill-rule="nonzero" stroke="none" stroke-width="none" stroke-linecap="butt" stroke-linejoin="miter" stroke-miterlimit="10" stroke-dasharray="" stroke-dashoffset="0" font-family="none" font-weight="none" font-size="none" text-anchor="none" style="mix-blend-mode: normal"><g><path d="M340.05902,203.93749c0,27.61424 -44.77153,50 -100,50c-55.22847,0 -100,-22.38576 -100,-50c0,-27.61424 44.77153,-50 100,-50c55.22847,0 100,22.38576 100,50z" data-paper-data="{&quot;origPos&quot;:null}" fill="#ffffff" stroke="#b2b2b2" stroke-width="2.5"/><path d="M302.05902,203.10515c0,15.48051 -27.75835,28.02994 -62,28.02994c-34.24165,0 -62,-12.54943 -62,-28.02994c0,-15.48051 27.75835,-28.02994 62,-28.02994c34.24165,0 62,12.54943 62,28.02994z" data-paper-data="{&quot;origPos&quot;:null}" fill="url(#color-1)" stroke="none" stroke-width="0"/><path d="M324.05902,203.68749c0,20.84875 -37.38423,37.75 -83.5,37.75c-46.11577,0 -83.5,-16.90125 -83.5,-37.75c0,-20.84875 37.38423,-37.75 83.5,-37.75c46.11577,0 83.5,16.90125 83.5,37.75z" data-paper-data="{&quot;origPos&quot;:null}" fill="none" stroke="#fff27f" stroke-width="10"/></g><g data-paper-data="{&quot;origPos&quot;:null}"><path d="M252.75725,200.80669c-5.01934,6.74819 -12.77849,8.78613 -22.5,9.75c-8.78098,0.87062 -20.85779,-4.52716 -26.5,-11.25c-2.10235,-2.50501 -0.8051,-54.4289 -0.8051,-54.4289c0,0 -2.48258,11.75914 27.25154,11.78174c18.73413,0.01424 24.72934,-10.19716 24.72934,-10.19716c0,0 -0.06066,51.50068 -2.17578,54.34432z" data-paper-data="{&quot;origPos&quot;:null}" fill="#001a0d" stroke="none" stroke-width="0"/><path d="M253.90183,146.48716c0,5.93706 -11.30481,10.75 -25.25,10.75c-13.94519,0 -25.25,-4.81294 -25.25,-10.75c0,-5.93706 11.30481,-10.75 25.25,-10.75c13.94519,0 25.25,4.81294 25.25,10.75z" data-paper-data="{&quot;origPos&quot;:null}" fill="#ffffff" stroke="#001a0d" stroke-width="2.5"/><g data-paper-data="{&quot;origPos&quot;:null}" stroke="none" stroke-width="0"><path d="M231.40183,146.73716c0,7.76142 -2.91015,5 -6.5,5c-3.58985,0 -6.5,-2.23858 -6.5,-5c0,-2.76142 2.91015,-5 6.5,-5c3.58985,0 6.5,-1.26142 6.5,5z" data-paper-data="{&quot;origPos&quot;:null}" fill="#e44759"/><path d="M233.40183,141.73716c2.20914,0 4,2.23858 4,5c0,2.76142 -1.79086,5 -4,5c-2.20914,0 -4,2.76142 -4,-5c0,-6.26143 1.79086,-5 4,-5z" data-paper-data="{&quot;origPos&quot;:null,&quot;index&quot;:null}" fill="#70991e"/></g></g><g data-paper-data="{&quot;origPos&quot;:null}"><path d="M240.25725,222.30669c-5.01934,6.74819 -12.77849,8.78613 -22.5,9.75c-8.78098,0.87062 -20.85779,-4.52716 -26.5,-11.25c-2.10235,-2.50501 -0.8051,-54.4289 -0.8051,-54.4289c0,0 -2.48258,11.75914 27.25154,11.78174c18.73413,0.01424 24.72934,-10.19716 24.72934,-10.19716c0,0 -0.06066,51.50068 -2.17578,54.34432z" data-paper-data="{&quot;origPos&quot;:null}" fill="#001a0d" stroke="none" stroke-width="0"/><path d="M241.40183,167.98716c0,5.93706 -11.30481,10.75 -25.25,10.75c-13.94519,0 -25.25,-4.81294 -25.25,-10.75c0,-5.93706 11.30481,-10.75 25.25,-10.75c13.94519,0 25.25,4.81294 25.25,10.75z" data-paper-data="{&quot;origPos&quot;:null}" fill="#ffffff" stroke="#001a0d" stroke-width="2.5"/><g data-paper-data="{&quot;origPos&quot;:null}" stroke="none" stroke-width="0"><path d="M218.90183,168.23716c0,7.76142 -2.91015,5 -6.5,5c-3.58985,0 -6.5,-2.23858 -6.5,-5c0,-2.76142 2.91015,-5 6.5,-5c3.58985,0 6.5,-1.26142 6.5,5z" data-paper-data="{&quot;origPos&quot;:null}" fill="#e44759"/><path d="M220.90183,163.23716c2.20914,0 4,2.23858 4,5c0,2.76142 -1.79086,5 -4,5c-2.20914,0 -4,2.76142 -4,-5c0,-6.26143 1.79086,-5 4,-5z" data-paper-data="{&quot;origPos&quot;:null,&quot;index&quot;:null}" fill="#70991e"/></g></g><g data-paper-data="{&quot;origPos&quot;:null}"><path d="M290.25725,217.80669c-5.01934,6.74819 -12.77849,8.78613 -22.5,9.75c-8.78098,0.87062 -20.85779,-4.52716 -26.5,-11.25c-2.10235,-2.50501 -0.8051,-54.4289 -0.8051,-54.4289c0,0 -2.48258,11.75914 27.25154,11.78174c18.73413,0.01424 24.72934,-10.19716 24.72934,-10.19716c0,0 -0.06066,51.50068 -2.17578,54.34432z" data-paper-data="{&quot;origPos&quot;:null}" fill="#001a0d" stroke="none" stroke-width="0"/><path d="M291.40183,163.48716c0,5.93706 -11.30481,10.75 -25.25,10.75c-13.94519,0 -25.25,-4.81294 -25.25,-10.75c0,-5.93706 11.30481,-10.75 25.25,-10.75c13.94519,0 25.25,4.81294 25.25,10.75z" data-paper-data="{&quot;origPos&quot;:null}" fill="#ffffff" stroke="#001a0d" stroke-width="2.5"/><g data-paper-data="{&quot;origPos&quot;:null}" stroke="none" stroke-width="0"><path d="M268.90183,163.73716c0,7.76142 -2.91015,5 -6.5,5c-3.58985,0 -6.5,-2.23858 -6.5,-5c0,-2.76142 2.91015,-5 6.5,-5c3.58985,0 6.5,-1.26142 6.5,5z" data-paper-data="{&quot;origPos&quot;:null}" fill="#e44759"/><path d="M270.90183,158.73716c2.20914,0 4,2.23858 4,5c0,2.76142 -1.79086,5 -4,5c-2.20914,0 -4,2.76142 -4,-5c0,-6.26143 1.79086,-5 4,-5z" data-paper-data="{&quot;origPos&quot;:null,&quot;index&quot;:null}" fill="#70991e"/></g></g></g></g></svg>