<svg version="1.1" xmlns="http://www.w3.org/2000/svg" xmlns:xlink="http://www.w3.org/1999/xlink" width="146.69362" height="34.98884" viewBox="0,0,146.69362,34.98884"><g transform="translate(-166.89675,-248.42549)"><g data-paper-data="{&quot;isPaintingLayer&quot;:true}" fill="none" fill-rule="nonzero" stroke="none" stroke-width="none" stroke-linecap="none" stroke-linejoin="miter" stroke-miterlimit="10" stroke-dasharray="" stroke-dashoffset="0" font-family="none" font-weight="none" font-size="none" text-anchor="none" style="mix-blend-mode: normal"><path d="M311.84037,279.44274c-0.67294,2.47188 -42.33572,2.51531 -70.97553,1.87089c-26.12399,-0.5878 -42.39667,0.86369 -68.5024,-0.27596c-2.04477,-0.08926 -3.67495,-25.55604 -0.47849,-28.46977c2.70699,-2.46753 43.3266,-1.94744 69.58436,-1.68569c26.97413,0.26887 64.86286,0.21621 66.54419,0.72873c4.92987,1.50279 6.63918,17.50514 3.82787,27.83179z" data-paper-data="{&quot;origPos&quot;:null}" fill="none" stroke="#4c3312" stroke-width="3.5" stroke-linecap="butt"/><path d="M310.40492,278.00729c-0.67294,2.47188 -42.33572,2.51531 -70.97553,1.87089c-26.12399,-0.5878 -42.39667,0.86369 -68.5024,-0.27596c-2.04477,-0.08926 -3.67495,-25.55604 -0.47849,-28.46977c2.70699,-2.46753 43.3266,-1.94744 69.58436,-1.68569c26.97413,0.26887 67.53458,0.19993 69.21086,0.72873c2.68133,0.84585 3.97251,17.50514 1.1612,27.83179z" data-paper-data="{&quot;origPos&quot;:null}" fill="#ffffff" stroke="#986625" stroke-width="3.5" stroke-linecap="butt"/><path d="M220.42126,258.80651c-0.49759,0.79847 -1.09645,1.61139 -1.79655,2.4388c-1.02412,0.4108 -1.33946,0.1273 -0.94601,-0.85054c1.25557,-2.00196 2.14372,-4.2122 2.66445,-6.63076l2.18711,0.68565c1.22085,0.76375 1.05594,1.24977 -0.49469,1.45807c-0.39923,0.79268 -0.65382,1.27871 -0.76375,1.45807h2.69917l1.27582,-1.27581l1.71844,1.28449c0.77532,0.64803 0.70589,1.12537 -0.2083,1.43203zM217.04513,269.5164c-0.39344,1.04727 -0.93444,1.74448 -1.62297,2.09164c-1.19191,0.54967 -1.78787,0.29509 -1.78787,-0.76375c0,-0.081 -0.04629,-0.13887 -0.13887,-0.17358l-1.01544,-0.37319c-1.00098,-0.75218 -0.88815,-1.12827 0.33848,-1.12827l1.68372,0.17358c0.20251,0.02892 0.36162,-0.05786 0.47735,-0.26037c0.6654,-1.60851 0.99808,-3.68278 0.99808,-6.22283v-0.58149h-0.8679c-0.32402,2.9335 -1.41468,5.65871 -3.27198,8.17562c-0.76954,0.76954 -1.15431,0.59885 -1.15431,-0.51206c1.67794,-3.06658 2.51691,-6.23731 2.51691,-9.51217v-1.62297h-2.43011v-1.44071h2.43011v-3.64518l2.10031,0.3732c1.20349,0.74639 1.18613,1.22375 -0.05207,1.43203v1.83994h0.99808l1.09355,-1.09355l1.54486,1.10223c0.78111,0.64803 0.71457,1.12537 -0.19961,1.43203h-3.43688v0.40791c0,0.64803 -0.01735,1.18903 -0.05207,1.62297h0.96337l0.88526,-0.88526l1.20638,1.20638c1.04147,1.17456 0.96626,1.66347 -0.22565,1.46675v0.23433c0,2.36069 -0.32691,4.57962 -0.98073,6.65679zM228.80517,272.20688c-1.70109,0.68275 -2.83224,1.33657 -3.39349,1.96146h-8.45334c-3.4311,0 -5.92487,-0.83319 -7.4813,-2.49955l-1.43203,1.37129c0,1.59115 -0.48024,1.69819 -1.44071,0.32113l-1.10223,-1.57957l3.09841,-1.40599v-6.53528h-2.86406v-1.44071h2.82935l0.6596,-0.8679l1.58825,1.13695c0.85054,0.70589 0.79557,1.15431 -0.16489,1.34525v6.61339c1.30764,1.05304 3.03475,1.57957 5.18136,1.57957zM206.74317,256.14206c-0.76375,-0.50917 -0.65671,-0.88815 0.32113,-1.13694c2.50534,0.59596 3.75801,1.56512 3.75801,2.90747c0,0.71167 -0.29798,1.06752 -0.89393,1.06752c-0.48024,0 -0.84476,-0.25169 -1.09355,-0.75507c-0.64225,-1.01255 -1.33946,-1.70687 -2.09163,-2.08296zM222.97289,270.49712c0,0.59017 -0.16201,1.04437 -0.48602,1.3626c-0.22565,0.23144 -0.5757,0.41659 -1.05016,0.55545c-0.74639,0.2488 -1.11959,0.01447 -1.11959,-0.70299c0,-0.01157 0,-0.01447 0,-0.00867l-1.25845,-0.36452c-0.46867,-0.47445 -0.42527,-0.85054 0.13019,-1.12827h1.58825c0.09836,0 0.14755,-0.04918 0.14755,-0.14754v-3.44556h-3.21123v-1.44071h3.21123v-2.56898l1.23242,0.3298l0.48602,-0.6596h-4.14856v-1.44071h5.02514l0.73772,-0.84186l1.62297,1.08488c1.7763,1.03569 1.51014,1.49568 -0.79847,1.37996l-2.109,1.58825v1.12827h1.34525l1.09355,-1.09355l1.54486,1.10223c0.78111,0.64803 0.71457,1.12537 -0.19961,1.43203h-3.78405zM237.05021,258.37256c-0.56702,0.04629 -1.09934,0.36741 -1.59694,0.96337c-1.78208,2.11188 -2.67313,4.55936 -2.67313,7.34243c0,1.78208 0.3298,3.00583 0.9894,3.67122c0.83897,0.83319 1.77341,1.24977 2.80332,1.24977c1.38286,0 2.49376,-0.39344 3.33273,-1.18034c1.46385,-1.35392 2.19579,-3.2662 2.19579,-5.73681c0,-2.66735 -0.36741,-5.01357 -1.10223,-7.03867c-0.15044,-0.38766 -0.17937,-0.72324 -0.08679,-1.00677c0.23144,-0.69432 0.76665,-0.81004 1.60562,-0.34715c0.38187,0.19094 0.64803,0.36452 0.79847,0.52074c0.36452,0.35874 0.42528,0.7001 0.18226,1.02412c0.23722,0.79268 0.54678,1.487 0.92865,2.08296c1.02412,1.59694 2.18711,3.04922 3.48896,4.35685c0.16779,0.16201 0.41948,0.38187 0.75508,0.6596c0.48602,0.40502 0.65382,0.98651 0.50338,1.74448c-0.09836,0.59596 -0.39344,0.89393 -0.88526,0.89393c-0.31823,0 -0.63935,-0.19961 -0.96336,-0.59884c-1.69529,-1.99038 -3.2662,-4.37422 -4.7127,-7.15149c0.17358,-0.10993 0.36452,-0.17358 0.57282,-0.19094c0.46867,2.05981 0.703,3.8014 0.703,5.22475c0,2.90457 -0.76954,5.1235 -2.30861,6.65679c-1.24399,1.24977 -2.79753,1.87466 -4.66062,1.87466c-1.86309,0 -3.30091,-0.50917 -4.31346,-1.5275c-1.24977,-1.24399 -1.87466,-2.82646 -1.87466,-4.74741c0,-2.88721 1.12537,-5.72235 3.37613,-8.50542c0.17937,0.09836 0.29798,0.24302 0.35584,0.43395c-0.96626,0.28351 -1.86309,0.64803 -2.69049,1.09355c-0.62489,0.38766 -1.19191,0.4108 -1.70109,0.06943c-0.71747,-0.4571 -1.18613,-0.97783 -1.40599,-1.56222c-0.21987,-1.31921 0.1215,-1.52461 1.02412,-0.61621c0.26037,0.25459 0.61621,0.38187 1.06752,0.38187c0.36452,0 0.72614,-0.05207 1.08488,-0.15622c1.57957,-0.4513 2.75703,-0.92576 3.53236,-1.42336c0.76954,-0.46287 1.41179,-0.48024 1.92674,-0.05207c1.16299,0.93154 1.07909,1.46385 -0.25169,1.59694zM247.86424,259.09292c0.18515,0.74639 -0.02892,1.22085 -0.64225,1.42336c-0.6191,0.2083 -1.07041,-0.02025 -1.35392,-0.68564c-0.36452,-0.83897 -1.08487,-1.59694 -2.16107,-2.27389c-0.64803,-0.97205 -0.47156,-1.29316 0.52943,-0.96336c1.03569,0.18515 1.96146,0.59307 2.77728,1.22375c0.42238,0.35295 0.70589,0.77822 0.85054,1.27582zM247.51709,258.09484c-0.36452,-0.83897 -1.08488,-1.59694 -2.16107,-2.27389c-0.64803,-0.97205 -0.47156,-1.29316 0.52943,-0.96336c1.03569,0.18515 1.96146,0.59307 2.77728,1.22375c0.42238,0.35295 0.70589,0.77822 0.85054,1.27582c0.18515,0.74639 -0.02892,1.22085 -0.64225,1.42336c-0.6191,0.2083 -1.07041,-0.02025 -1.35392,-0.68564zM260.4835,264.1875c-0.74061,4.5478 -3.83612,7.8111 -9.28652,9.78991c-1.73579,0.38766 -1.91805,-0.00578 -0.54677,-1.18034c1.83994,-0.81004 3.46292,-1.91517 4.86892,-3.31538c2.16396,-2.16974 3.24595,-5.21608 3.24595,-9.13898v-0.32112h-7.55073v-1.44071h7.8111v-4.86024l2.14372,0.36452c1.60272,0.5786 1.5709,1.07619 -0.09547,1.49279v3.00293h6.55264l1.4494,-1.44939l1.97881,1.45807c0.77532,0.64803 0.70589,1.12537 -0.2083,1.43203h-10.03292v0.32113c0,1.30185 -0.02604,2.10321 -0.07811,2.40409h5.22475l0.72904,-0.83319l1.83127,1.18034c1.08198,0.83897 0.87368,1.38574 -0.62489,1.64033c-0.39344,3.85926 -1.17166,6.43114 -2.33465,7.71563c-0.96048,1.08776 -2.00196,1.63165 -3.12444,1.63165c-0.48024,0 -0.72036,-0.32691 -0.72036,-0.98073c0,-0.0405 -0.0839,-0.10415 -0.25169,-0.19094l-1.54486,-0.63356c-0.79847,-0.79847 -0.6625,-1.1977 0.40791,-1.1977l2.109,0.52943c0.3703,0.05207 0.57282,0.07811 0.60753,0.07811c0.35874,0 0.75508,-0.30955 1.18903,-0.92865c0.76375,-1.09355 1.29896,-3.28356 1.60562,-6.57z" data-paper-data="{&quot;origPos&quot;:null}" fill="#000000" stroke="none" stroke-width="1" stroke-linecap="square"/></g></g></svg>