<svg version="1.1" xmlns="http://www.w3.org/2000/svg" xmlns:xlink="http://www.w3.org/1999/xlink" width="367.01547" height="330.91653"><defs><linearGradient x1="136.05899" y1="213.93424" x2="321.05899" y2="213.93424" gradientUnits="userSpaceOnUse" id="color-1"><stop offset="0" stop-color="#ffeea6"/><stop offset="1" stop-color="#ff7f7f"/></linearGradient><radialGradient cx="391.75934" cy="91.30583" r="12.83419" gradientUnits="userSpaceOnUse" id="color-2"><stop offset="0" stop-color="#b2b2b2"/><stop offset="1" stop-color="#b2b2b2" stop-opacity="0"/></radialGradient></defs><g transform="translate(-54.26404,-11.93744)"><g data-paper-data="{&quot;isPaintingLayer&quot;:true}" fill="none" fill-rule="nonzero" stroke="none" stroke-width="none" stroke-linecap="none" stroke-linejoin="miter" stroke-miterlimit="10" stroke-dasharray="" stroke-dashoffset="0" font-family="none" font-weight="none" font-size="none" text-anchor="none" style="mix-blend-mode: normal"><g stroke-linecap="butt"><path d="M63.76404,331.93745c-6.24269,-5.43516 -5,-20.07264 -5,-31c0,-32.78208 -2,-146.70245 -2,-247c0,-11.70789 2.54686,-15.08592 9,-22c6.45314,-6.91408 11.07264,-8 22,-8c117.46912,0 267.04713,0 301,0c11.31762,0 16.37937,0.15107 23,7c6.62063,6.84893 6,11.29211 6,23c0,100.68782 0,226.38871 0,258c0,10.5371 3.42968,16.67774 -5,23c-8.42968,6.32226 -16.95054,4 -31,4c0,0 -240.19319,0 -280,0c-13.26894,0 -27.99253,1.71294 -38,-7z" data-paper-data="{&quot;origPos&quot;:null}" fill="#e7eead" stroke="none" stroke-width="0"/><path d="M64.76404,332.93745c-6.24269,-5.43516 -5,-20.07264 -5,-31c0,-32.78208 -2.5,-146.20245 -2.5,-246.5c0,-11.70789 1.54686,-16.58592 8,-23.5c6.45314,-6.91408 12.57264,-7 23.5,-7c117.46912,0 267.04713,0 301,0c11.31762,0 16.37937,0.15107 23,7c6.62063,6.84893 6,11.29211 6,23c0,100.68782 0,226.38871 0,258c0,10.5371 3.42968,16.67774 -5,23c-8.42968,6.32226 -16.95054,4 -31,4c0,0 -240.19319,0 -280,0c-13.26894,0 -27.99253,1.71294 -38,-7z" data-paper-data="{&quot;origPos&quot;:null}" fill="none" stroke="#633112" stroke-width="5"/><path d="M62.76404,330.93745c-6.24269,-5.43516 -5,-20.07264 -5,-31c0,-32.78208 -1,-146.70245 -1,-247c0,-11.70789 1.54686,-15.08592 8,-22c6.45314,-6.91408 11.07264,-8 22,-8c117.46912,0 267.04713,0 301,0c11.31762,0 16.37937,0.15107 23,7c6.62063,6.84893 6,11.29211 6,23c0,100.68782 0,226.38871 0,258c0,10.5371 3.42968,16.67774 -5,23c-8.42968,6.32226 -16.95054,4 -31,4c0,0 -240.19319,0 -280,0c-13.26894,0 -27.99253,1.71294 -38,-7z" data-paper-data="{&quot;origPos&quot;:null}" fill="none" stroke="#986625" stroke-width="5"/></g><text transform="translate(82.05899,62.97444) scale(0.32345,0.32345)" font-size="40" xml:space="preserve" data-paper-data="{&quot;origPos&quot;:null}" fill="#000000" fill-rule="nonzero" stroke="none" stroke-width="1" stroke-linecap="butt" stroke-linejoin="miter" stroke-miterlimit="10" stroke-dasharray="" stroke-dashoffset="0" font-family="Sans Serif" font-weight="normal" text-anchor="start" style="mix-blend-mode: normal"><tspan x="0" dy="0">寿司打はローマ字入力用のタイピング練習ゲームです。</tspan></text><g data-paper-data="{&quot;origPos&quot;:null}" stroke="none" stroke-linecap="butt"><path d="M70.56309,38.75634c-1.70058,-0.43797 -1.36206,-1.61747 -1.36206,-2.49801c0,-2.64161 0.27241,-11.8214 0.27241,-19.90346c0,-0.94343 -0.12344,-1.21564 1.63447,-1.77278c1.75791,-0.55714 3.01632,-0.64465 5.99306,-0.64465c31.99997,0 72.74679,0 81.99595,0c3.08305,0 4.46193,0.01217 6.26547,0.56407c1.80354,0.55189 1.63447,0.90993 1.63447,1.85336c0,8.11351 0,18.24259 0,20.78985c0,0.84909 0.93429,1.34391 -1.36206,1.85336c-2.29634,0.50945 -4.61753,0.32232 -8.44477,0.32232c0,0 -65.43146,0 -76.2753,0c-3.61462,0 -7.6255,0.13803 -10.35165,-0.56407z" data-paper-data="{&quot;origPos&quot;:null}" fill="#633112" stroke-width="0"/><path d="M68.56309,36.75634c-1.70058,-0.43797 -1.36206,-1.61747 -1.36206,-2.49801c0,-2.64161 0.27241,-11.8214 0.27241,-19.90346c0,-0.94343 -0.12344,-1.21564 1.63447,-1.77278c1.75791,-0.55714 3.01632,-0.64465 5.99306,-0.64465c31.99997,0 72.74679,0 81.99595,0c3.08305,0 4.46193,0.01217 6.26547,0.56407c1.80354,0.55189 1.63447,0.90993 1.63447,1.85336c0,8.11351 0,18.24259 0,20.78985c0,0.84909 0.93429,1.34391 -1.36206,1.85336c-2.29634,0.50945 -4.61753,0.32232 -8.44477,0.32232c0,0 -65.43146,0 -76.2753,0c-3.61462,0 -7.6255,0.13803 -10.35165,-0.56407z" data-paper-data="{&quot;origPos&quot;:null}" fill="#986625" stroke-width="0"/><text transform="translate(90.05902,31.61051) scale(0.44167,0.44167)" font-size="40" xml:space="preserve" data-paper-data="{&quot;origPos&quot;:null}" fill="#ffffff" fill-rule="nonzero" stroke="none" stroke-width="1" stroke-linecap="butt" stroke-linejoin="miter" stroke-miterlimit="10" stroke-dasharray="" stroke-dashoffset="0" font-family="Sans Serif" font-weight="normal" text-anchor="start" style="mix-blend-mode: normal"><tspan x="0" dy="0">遊び方</tspan></text></g><g data-paper-data="{&quot;origPos&quot;:null}" stroke="#d92e2b" stroke-linecap="butt"><g data-paper-data="{&quot;origPos&quot;:null}"><path d="M121.21548,180.48965c0.77313,3.29777 -10.33639,6.62188 -18.23322,8.02176c-7.20314,1.27692 -10.98932,4.45845 -18.40031,5.00949c-0.58047,0.04316 -10.83266,-33.26095 -11.10219,-37.33666c-0.22826,-3.45158 10.81991,-5.95407 17.93309,-7.66952c7.30723,-1.76227 18.21657,-5.17535 18.96233,-4.13822c1.36167,1.8937 7.7993,23.14191 10.8403,36.11315z" data-paper-data="{&quot;origPos&quot;:null,&quot;origRot&quot;:0}" fill="none" stroke-width="3.5"/><text transform="translate(85.32111,168.70684) rotate(-15.50613) scale(0.29939,0.29939)" font-size="40" xml:space="preserve" data-paper-data="{&quot;origRot&quot;:-7.57561,&quot;origPos&quot;:null}" fill="#d92e2b" fill-rule="nonzero" stroke="#d92e2b" stroke-width="4" stroke-linecap="butt" stroke-linejoin="miter" stroke-miterlimit="10" stroke-dasharray="" stroke-dashoffset="0" font-family="Sans Serif" font-weight="normal" text-anchor="start" style="mix-blend-mode: normal"><tspan x="0" dy="0">時間</tspan><tspan x="0" dy="48px">制限</tspan></text></g><g data-paper-data="{&quot;origPos&quot;:null}"><path d="M121.21548,242.48965c0.77313,3.29777 -10.33639,6.62188 -18.23322,8.02176c-7.20314,1.27692 -10.98932,4.45845 -18.40031,5.00949c-0.58047,0.04316 -10.83266,-33.26095 -11.10219,-37.33666c-0.22826,-3.45158 10.81991,-5.95407 17.93309,-7.66952c7.30723,-1.76227 18.21657,-5.17535 18.96233,-4.13822c1.36167,1.8937 7.7993,23.14191 10.8403,36.11315z" data-paper-data="{&quot;origPos&quot;:null,&quot;origRot&quot;:0}" fill="none" stroke-width="3.5"/><text transform="translate(77.75196,232.12588) rotate(-15.50579) scale(0.24026,0.24026)" font-size="40" xml:space="preserve" data-paper-data="{&quot;origRot&quot;:-7.57561,&quot;origPos&quot;:null}" fill="#d92e2b" fill-rule="nonzero" stroke="#d92e2b" stroke-width="4" stroke-linecap="butt" stroke-linejoin="miter" stroke-miterlimit="10" stroke-dasharray="" stroke-dashoffset="0" font-family="Sans Serif" font-weight="normal" text-anchor="start" style="mix-blend-mode: normal"><tspan x="0" dy="0">　連打</tspan><tspan x="0" dy="48px">メーター</tspan></text></g><g data-paper-data="{&quot;origPos&quot;:null}"><path d="M121.21547,119.48964c0.77314,3.29777 -10.33639,6.62188 -18.23322,8.02175c-7.20313,1.27692 -10.98932,4.45845 -18.40031,5.0095c-0.58047,0.04316 -10.83265,-33.26095 -11.10219,-37.33665c-0.22826,-3.45158 10.8199,-5.95408 17.93308,-7.66953c7.30723,-1.76228 18.21656,-5.17536 18.96233,-4.13822c1.36167,1.89369 7.7993,23.14191 10.8403,36.11314z" data-paper-data="{&quot;origPos&quot;:null,&quot;origRot&quot;:0}" fill="none" stroke-width="3.5"/><text transform="translate(81.32111,116.70684) rotate(-15.50613) scale(0.29939,0.29939)" font-size="40" xml:space="preserve" data-paper-data="{&quot;origRot&quot;:-7.57561,&quot;origPos&quot;:null}" fill="#d92e2b" fill-rule="nonzero" stroke="#d92e2b" stroke-width="4" stroke-linecap="butt" stroke-linejoin="miter" stroke-miterlimit="10" stroke-dasharray="" stroke-dashoffset="0" font-family="Sans Serif" font-weight="normal" text-anchor="start" style="mix-blend-mode: normal"><tspan x="0" dy="0">ルール</tspan></text></g><g data-paper-data="{&quot;origPos&quot;:null}"><path d="M121.21547,304.48965c0.77314,3.29777 -10.33639,6.62188 -18.23322,8.02175c-7.20314,1.27692 -10.98932,4.45845 -18.40031,5.0095c-0.58047,0.04317 -10.83266,-33.26095 -11.10219,-37.33665c-0.22826,-3.45158 10.81991,-5.95407 17.93309,-7.66953c7.30723,-1.76228 18.21657,-5.17535 18.96233,-4.13822c1.36167,1.8937 7.7993,23.14191 10.8403,36.11314z" data-paper-data="{&quot;origPos&quot;:null,&quot;origRot&quot;:0}" fill="none" stroke-width="3.5"/><text transform="translate(81.32111,301.70684) rotate(-15.50613) scale(0.29939,0.29939)" font-size="40" xml:space="preserve" data-paper-data="{&quot;origRot&quot;:-7.57561,&quot;origPos&quot;:null}" fill="#000000" fill-rule="nonzero" stroke="#d92e2b" stroke-width="4" stroke-linecap="butt" stroke-linejoin="miter" stroke-miterlimit="10" stroke-dasharray="" stroke-dashoffset="0" font-family="Sans Serif" font-weight="normal" text-anchor="start" style="mix-blend-mode: normal"><tspan x="0" dy="0">その他</tspan></text></g></g><g data-paper-data="{&quot;origPos&quot;:null}" stroke="none"><path d="M128.28034,201.38878c-0.18518,-0.37037 -0.59576,-0.74927 -1.23173,-1.1367c-0.40449,-0.26804 -0.3326,-0.45687 0.21564,-0.56652c0.73831,0.16082 1.26828,0.36915 1.58992,0.625c0.35088,0.28022 0.52632,0.58967 0.52632,0.92837c0,0.4191 -0.15108,0.62865 -0.45322,0.62865c-0.2729,0 -0.48855,-0.1596 -0.64693,-0.4788zM129.32567,203.94361c0.50439,0.36063 0.4788,0.59089 -0.07675,0.69079v3.08114c0.66521,0.61404 1.53753,0.92106 2.61696,0.92106l5.13159,0.23392c-0.06579,0.18518 -0.17787,0.4386 -0.33626,0.76024h-4.44445c-1.59357,0 -2.77291,-0.45078 -3.53802,-1.35235l-0.77485,0.64693c0.11939,0.89669 -0.12671,0.97222 -0.73831,0.22661l-0.57749,-0.70906l1.62281,-0.81506v-3.0848h-1.49123v-0.73099h1.47661l0.32895,-0.4386zM132.59687,202.14537v-0.58479h-2.93861v-0.73099h2.93861v-1.58261l0.75658,0.13889c1.1038,0.19493 1.19762,0.44469 0.28144,0.74927v0.69445h1.77267l0.73465,-0.73099l1.00147,0.73831c0.3923,0.32651 0.35575,0.56774 -0.10965,0.72368h-3.39913v0.58479h1.35965l0.32895,-0.4386l0.80044,0.57018c0.50439,0.36063 0.4788,0.59089 -0.07675,0.69079v2.80337c-0.69201,0.6384 -1.03801,0.61891 -1.03801,-0.05848h0.05848l-1.43275,0.05848v0.71638h1.86038l0.73465,-0.73099l1.00147,0.73831c0.3923,0.32651 0.35575,0.56774 -0.10965,0.72368h-3.48685v1.14036c-0.69201,0.6384 -1.03801,0.61891 -1.03801,-0.05848v-1.08187h-3.07018v-0.73099h3.07018v-0.71638h-1.37428v0.30702c-0.69201,0.6384 -1.03801,0.61891 -1.03801,-0.05848v-4.38232l0.95029,0.50804h1.46199zM132.59687,204.23601h-1.37428v0.8041h1.37428zM132.59687,203.50501v-0.62865h-1.37428v0.62865zM133.63489,204.23601v0.8041h1.37428v-0.8041zM133.63489,202.87636v0.62865h1.37428v-0.62865zM142.24602,200.82957h4.74051l0.73465,-0.73099l1.00147,0.73831c0.3923,0.32651 0.35575,0.56774 -0.10965,0.72368h-2.08334v6.8275c0,0.42154 -0.13036,0.7444 -0.39108,0.96857c-0.20711,0.173 -0.4191,0.27777 -0.63597,0.31433c-0.35819,0.06091 -0.53728,-0.08894 -0.53728,-0.44956c0,-0.04142 -0.01828,-0.06945 -0.05482,-0.08406l-0.74561,-0.17544c-0.51901,-0.20711 -0.51048,-0.41789 0.02558,-0.63232h1.14036c0.10721,0 0.16082,-0.05361 0.16082,-0.16082v-6.6082h-3.24562zM141.17876,205.50795v3.09942c0,0.3923 -0.12671,0.6981 -0.38012,0.91741c-0.15838,0.15838 -0.35819,0.23757 -0.59942,0.23757c-0.2729,0 -0.40936,-0.13645 -0.40936,-0.40936c0,-0.03411 -0.03046,-0.06091 -0.09138,-0.08041l-0.58846,-0.13524c-0.4118,-0.20711 -0.40326,-0.41789 0.02558,-0.63232h0.93202c0.04873,0 0.0731,-0.02437 0.0731,-0.0731v-2.43422l-0.55921,0.26681c-0.09747,0.73343 -0.34844,0.82968 -0.75292,0.28874l-0.72003,-0.9576l2.03217,-0.70541v-2.18933h-1.75439v-0.73099h1.75439v-2.63159l1.0636,0.18641c0.60916,0.38012 0.60064,0.62256 -0.02558,0.72734v1.71784h0.45687l0.64693,-0.64693l0.86988,0.65424c0.3923,0.32651 0.35575,0.56774 -0.10965,0.72368h-1.86404v1.84211l1.95907,-0.73099c0.63597,0 0.69323,0.21686 0.17178,0.65059l-2.13085,1.04533zM154.01871,205.17534c-1.27193,1.82505 -2.85819,3.21273 -4.75879,4.16302c-0.39961,-0.09991 -0.47636,-0.3131 -0.23027,-0.63962c1.69104,-1.10867 3.07018,-2.49148 4.13744,-4.1484c-0.49464,-0.3387 -1.3694,-0.66886 -2.62427,-0.9905c-0.40449,-0.26804 -0.36793,-0.46175 0.10965,-0.58114c0.96247,0 1.96638,0.25463 3.0117,0.76389c0.44103,-0.7115 0.79069,-1.46687 1.04898,-2.26609c0.07554,-0.26316 -0.03777,-0.44469 -0.33991,-0.54459c-0.47271,-0.19006 -0.48246,-0.3984 -0.02924,-0.625c0.44347,-0.03655 0.82115,0.06701 1.13304,0.31067c0.49708,0.39717 0.74561,0.72125 0.74561,0.97222c0,0.2729 -0.15108,0.40936 -0.45322,0.40936c0,-0.03411 0.01462,-0.04021 0.04386,-0.01828c-0.44834,0.9844 -0.85283,1.75317 -1.21346,2.30629c0.50439,0.33626 0.89669,0.67495 1.1769,1.01608c0.23879,0.30702 0.35819,0.56043 0.35819,0.76024c0,0.38986 -0.15108,0.58479 -0.45322,0.58479c-0.2924,0 -0.54946,-0.18397 -0.7712,-0.5519c-0.16082,-0.26804 -0.45809,-0.57505 -0.89181,-0.92106zM165.59038,204.85004c-1.28412,-0.02924 -2.43544,-0.02924 -3.45396,0c-0.81628,0.02924 -1.69104,0.0731 -2.62427,0.13158c-0.46783,0.0268 -0.71028,0.04751 -0.72734,0.06213c-0.16082,0.16325 -0.31798,0.24488 -0.47149,0.24488c-0.09503,0 -0.25219,-0.11087 -0.47149,-0.3326c-0.22417,-0.22174 -0.385,-0.43129 -0.48246,-0.62865c-0.16813,-0.33382 -0.2327,-0.66886 -0.19371,-1.00512c0.19006,-0.38256 0.39474,-0.41057 0.61404,-0.08406c0.13158,0.36793 0.25707,0.58236 0.37647,0.64328c0.14132,0.07066 0.33991,0.10599 0.59576,0.10599c0.87476,0 2.05775,-0.01462 3.54898,-0.04386c1.48635,-0.02924 2.41716,-0.05848 2.7924,-0.08772c0.26316,-0.02437 0.40449,-0.04508 0.42398,-0.06213c0.13158,-0.13401 0.27412,-0.20103 0.42763,-0.20103c0.32895,0 0.61769,0.12549 0.86623,0.37647c0.25097,0.24854 0.37647,0.40814 0.37647,0.4788c0.12914,0.385 -0.04751,0.54702 -0.52997,0.48611c-0.37037,-0.05605 -0.72612,-0.08406 -1.06726,-0.08406zM172.74682,205.05107c-0.51413,-0.46783 -1.21833,-0.79069 -2.11258,-0.96857c-0.59698,0.64815 -1.31701,1.26949 -2.16009,1.86404c-0.50683,0 -0.61769,-0.19006 -0.3326,-0.57018c1.58626,-1.35722 2.63646,-2.86307 3.1506,-4.51756c0.03655,-0.10965 -0.07798,-0.20224 -0.34357,-0.27777c-0.40936,-0.20468 -0.40326,-0.41301 0.01828,-0.625c0.39474,-0.03411 0.72978,0.01705 1.00512,0.15351c0.49464,0.2461 0.74196,0.49099 0.74196,0.73465c0,0.24367 -0.12184,0.3655 -0.3655,0.3655c0,-0.01462 -0.00365,0.00122 -0.01096,0.04751c-0.08772,0.17544 -0.13401,0.26194 -0.13889,0.2595c0.70175,-0.04873 1.49611,-0.11452 2.38304,-0.19737c0.09503,-0.07798 0.2327,-0.22783 0.41301,-0.44956c0.2729,0.10965 0.53241,0.25707 0.77851,0.44226c0.24123,0.16082 0.36184,0.32651 0.36184,0.49708c0,0.20955 -0.11939,0.34357 -0.35819,0.40205c-0.07554,0.01705 -0.15351,0.10721 -0.23392,0.27047c-0.35575,0.76998 -0.7846,1.51925 -1.28656,2.24781c0.29727,0.19737 0.4252,0.47636 0.38377,0.83699c-0.0463,0.34113 -0.19615,0.51169 -0.44956,0.51169c-0.18275,0 -0.39474,-0.12184 -0.63597,-0.3655c-1.26219,1.5887 -2.81677,2.7924 -4.66375,3.61112c-0.52145,0 -0.63597,-0.19615 -0.34357,-0.58846c1.98343,-1.16472 3.38329,-2.39279 4.19957,-3.68422zM173.33528,204.17022c0.46053,-0.65546 0.84918,-1.3694 1.16593,-2.14182c0.06091,-0.01462 0.09625,0.00487 0.10599,0.05848c-0.94055,0.05848 -1.8019,0.11818 -2.58407,0.1791c-0.18518,-0.0463 -0.2595,-0.11818 -0.22296,-0.21564c-0.26316,0.68714 -0.49099,1.1501 -0.68348,1.38889c0.904,0.13889 1.64352,0.38256 2.21858,0.73099zM185.63428,204.85004c-1.28412,-0.02924 -2.43543,-0.02924 -3.45395,0c-0.81628,0.02924 -1.69104,0.0731 -2.62427,0.13158c-0.46783,0.0268 -0.71028,0.04751 -0.72734,0.06213c-0.16082,0.16325 -0.31798,0.24488 -0.47149,0.24488c-0.09503,0 -0.25219,-0.11087 -0.47149,-0.3326c-0.22417,-0.22174 -0.385,-0.43129 -0.48246,-0.62865c-0.16813,-0.33382 -0.2327,-0.66886 -0.19371,-1.00512c0.19006,-0.38256 0.39474,-0.41057 0.61404,-0.08406c0.13158,0.36793 0.25707,0.58236 0.37647,0.64328c0.14132,0.07066 0.33991,0.10599 0.59576,0.10599c0.87476,0 2.05775,-0.01462 3.54898,-0.04386c1.48635,-0.02924 2.41716,-0.05848 2.7924,-0.08772c0.26316,-0.02437 0.40449,-0.04508 0.42398,-0.06213c0.13158,-0.13401 0.27412,-0.20103 0.42763,-0.20103c0.32895,0 0.61769,0.12549 0.86623,0.37647c0.25097,0.24854 0.37647,0.40814 0.37647,0.4788c0.12914,0.385 -0.04751,0.54702 -0.52997,0.48611c-0.37037,-0.05605 -0.72612,-0.08406 -1.06726,-0.08406z" data-paper-data="{&quot;origPos&quot;:null}" fill="#000000" stroke-width="1" stroke-linecap="square"/><path d="M321.05899,211.93745v3.99359h-185v-3.99359z" data-paper-data="{&quot;origPos&quot;:null}" fill="url(#color-1)" stroke-width="0" stroke-linecap="butt"/><path d="M321.39232,211.77078v3.99359h-82v-3.99359z" data-paper-data="{&quot;origPos&quot;:null}" fill="#000000" stroke-width="0" stroke-linecap="butt"/><g data-paper-data="{&quot;origPos&quot;:null}" fill="#ff0000" stroke-width="1" stroke-linecap="square"><path d="M143.63407,218.35751v5.16606c0,0.11857 0.03283,0.20431 0.09851,0.25721c0.07662,0.06202 0.19336,0.09303 0.35024,0.09303h0.50347v0.54725h-2.74721v-0.54725h0.47064c0.16965,0 0.28366,-0.02919 0.34203,-0.08756c0.07114,-0.05655 0.10671,-0.14411 0.10671,-0.26268v-3.97305c0,-0.03831 -0.01551,-0.07388 -0.04652,-0.10671c-0.01094,-0.00912 -0.04652,-0.01368 -0.10671,-0.01368h-0.76615v-0.54725h0.47064c0.23167,0 0.41226,-0.03648 0.54178,-0.10945c0.14228,-0.07297 0.2645,-0.21161 0.36666,-0.41591zM145.75467,223.60566c-0.45605,0.22802 -0.56915,0.1131 -0.3393,-0.34477c0.7771,-0.86648 1.27784,-1.78222 1.50221,-2.74721h-1.36813v-0.54725h1.41191v-1.07809c-0.29916,0.07479 -0.71325,0.14685 -1.24226,0.21616c-0.42503,-0.08574 -0.44601,-0.24352 -0.06293,-0.47337c1.162,-0.30646 2.10418,-0.65762 2.82656,-1.05346l0.73058,0.40496c0.13864,0.34842 0.00821,0.48249 -0.39128,0.40223c-0.39037,0.12222 -0.75156,0.22711 -1.08356,0.31467v1.26689h0.21069l0.41591,-0.41591l0.58556,0.41865c0.29551,0.24626 0.26907,0.42777 -0.07935,0.54452h-1.13281v0.8072c0.83182,0.2189 1.24773,0.53722 1.24773,0.95495c0,0.26998 -0.1131,0.40496 -0.3393,0.40496c-0.12769,0 -0.27454,-0.12404 -0.44054,-0.37213c-0.13681,-0.19519 -0.29278,-0.3393 -0.4679,-0.43233v3.13575c-0.51806,0.47793 -0.7771,0.46334 -0.7771,-0.04378v-2.70069c-0.25174,0.43233 -0.65397,0.87834 -1.20669,1.33803zM148.04219,224.80961c1.9847,-0.64758 3.45681,-1.90718 4.41632,-3.77878l0.63207,0.45148c0.44145,0.3849 0.37122,0.55729 -0.21069,0.51716c-1.01789,1.68736 -2.58576,2.79007 -4.70363,3.30814c-0.55455,0 -0.59924,-0.166 -0.13408,-0.498zM153.51744,220.83109c0,0.26998 -0.12404,0.40496 -0.37213,0.40496c-0.16235,0 -0.31375,-0.15414 -0.45422,-0.46243c-0.2718,-0.56549 -0.61566,-1.01242 -1.03157,-1.34077c-0.16235,-0.32287 -0.0602,-0.44783 0.30646,-0.37486c0.55637,0.37031 0.95952,0.69227 1.20943,0.9659c0.22802,0.25174 0.34203,0.5208 0.34203,0.8072zM150.12175,219.255c0.59651,0.21708 0.56641,0.4077 -0.0903,0.57188c-0.24991,0.77162 -0.59559,1.41282 -1.03704,1.92359c-0.26086,0.17512 -0.39128,0.09577 -0.39128,-0.23805c0.39949,-0.77527 0.67494,-1.61987 0.82635,-2.53378zM151.35033,222.14449c0,0.29369 -0.09486,0.52263 -0.28457,0.6868c-0.11857,0.11857 -0.26815,0.17786 -0.44875,0.17786c-0.20431,0 -0.30646,-0.10216 -0.30646,-0.30646c0,-0.02554 -0.0228,-0.0456 -0.06841,-0.0602l-0.44054,-0.10124c-0.30829,-0.15505 -0.3019,-0.31285 0.01916,-0.47337h0.69775c0.03648,0 0.05472,-0.01824 0.05472,-0.05472v-4.44368l0.79625,0.13954c0.45605,0.28457 0.44966,0.46607 -0.01916,0.54452zM156.94324,218.10851l0.71143,0.38034h0.69775l0.23805,-1.22311l0.82361,0.21616c0.43233,0.21525 0.37304,0.38672 -0.17786,0.51442l-0.27636,0.49253h1.22311l0.24626,-0.32835l0.60471,0.42959c0.32287,0.26998 0.3019,0.44054 -0.06293,0.51168v1.51042c-0.51806,0.47793 -0.7771,0.46334 -0.7771,-0.04378v-0.1204h-2.47357v0.66765h2.72531l0.24626,-0.32835l0.60471,0.42959c0.32287,0.26998 0.3019,0.44054 -0.06293,0.51168v1.7731c-0.51806,0.47793 -0.7771,0.46334 -0.7771,-0.04378v-0.18606h-2.73625v0.52536c-0.51806,0.47793 -0.7771,0.46334 -0.7771,-0.04378zM154.83631,217.99632c0.87196,0.17512 1.30793,0.48523 1.30793,0.93033c0,0.31375 -0.13499,0.47064 -0.40496,0.47064c-0.16417,0 -0.29278,-0.10763 -0.38582,-0.32287c-0.15323,-0.24991 -0.39858,-0.45878 -0.73605,-0.6266c-0.30099,-0.30099 -0.22802,-0.45148 0.2189,-0.45148zM153.99628,224.25962l1.20669,-0.67586v-2.21637h-1.18207v-0.54725h1.17112l0.24626,-0.32835l0.60471,0.42959c0.32287,0.26998 0.3019,0.44054 -0.06293,0.51168v2.21363c0.43415,0.41591 1.15379,0.6339 2.15891,0.65397l3.57628,0.17512c-0.0529,0.14046 -0.1514,0.33017 -0.29551,0.56915h-3.185c-1.16929,0 -2.05858,-0.34568 -2.66786,-1.03704l-0.6266,0.6266c0.09668,0.63116 -0.05381,0.71416 -0.45148,0.249l-0.49253,-0.62387zM157.72033,221.66291v1.06167h2.73625v-1.06167zM160.19391,219.0361h-2.47357v0.86466h2.47357zM163.93711,219.52863h-1.57608v-0.54725h1.57608v-1.64176l0.80994,0.13681c0.60927,0.22073 0.59833,0.41044 -0.03283,0.56915v0.9358h1.01789l0.24626,-0.32835l0.60471,0.42959c0.32287,0.26998 0.3019,0.44054 -0.06293,0.51168v0.84277c0,2.17259 -0.23623,3.4942 -0.70869,3.96484c-0.22985,0.23167 -0.4679,0.3475 -0.71416,0.3475c-0.2262,0 -0.3393,-0.10216 -0.3393,-0.30646c0,-0.06567 -0.02736,-0.11492 -0.08209,-0.14776l-0.46243,-0.29551c-0.4524,-0.30281 -0.40953,-0.45422 0.12861,-0.45422l0.45695,0.17512c0.15505,0.05838 0.28731,0.08756 0.39676,0.08756c0.03831,0 0.06293,-0.00456 0.07388,-0.01368c0.31559,-0.31741 0.47337,-1.4037 0.47337,-3.25889v-1.00694h-1.02883v0.18606c0,2.2036 -0.76889,3.89279 -2.30667,5.06755c-0.46152,0.30829 -0.57735,0.19427 -0.3475,-0.34203c1.25138,-1.25138 1.87707,-2.77183 1.87707,-4.56135zM167.74325,218.7187h1.33803l0.24626,-0.32835l0.60471,0.42959c0.32287,0.26998 0.3019,0.44054 -0.06293,0.51168v4.89243c-0.51806,0.47793 -0.7771,0.46334 -0.7771,-0.04378v-0.2189h-1.25868v0.6567c-0.51806,0.47793 -0.7771,0.46334 -0.7771,-0.04378v-6.29613zM169.09222,219.26595h-1.25868v4.14817h1.25868zM173.10905,218.94307l1.63081,2.0303c0.22802,0.60563 0.10671,0.71234 -0.36392,0.32014l-0.96043,-0.83456v0.30646c0,0.8373 -0.21434,1.46937 -0.64302,1.89622c-0.47064,0.47246 -1.10271,0.70869 -1.89622,0.70869h-0.50347v-0.64576h0.50347c0.60745,0 1.08082,-0.16874 1.42012,-0.50621c0.31559,-0.31741 0.47337,-0.80172 0.47337,-1.45295v-0.29825l-0.9358,0.83456c-0.38855,0.2335 -0.50804,0.12495 -0.35845,-0.32561z" data-paper-data="{&quot;origPos&quot;:null}"/><path d="M191.13407,218.35751v5.16606c0,0.11857 0.03283,0.20431 0.0985,0.25721c0.07662,0.06202 0.19336,0.09303 0.35025,0.09303h0.50347v0.54725h-2.7472v-0.54725h0.47064c0.16965,0 0.28366,-0.02919 0.34203,-0.08756c0.07114,-0.05654 0.10671,-0.14411 0.10671,-0.26268v-3.97305c0,-0.03831 -0.0155,-0.07387 -0.04651,-0.10671c-0.01094,-0.00912 -0.04652,-0.01369 -0.10672,-0.01369h-0.76615v-0.54725h0.47064c0.23167,0 0.41226,-0.03648 0.54178,-0.10945c0.14228,-0.07297 0.26451,-0.2116 0.36666,-0.41591zM193.25468,223.60566c-0.45604,0.22803 -0.56914,0.1131 -0.3393,-0.34477c0.7771,-0.86649 1.27783,-1.78222 1.50221,-2.74721h-1.36813v-0.54725h1.41191v-1.07809c-0.29916,0.07479 -0.71326,0.14685 -1.24227,0.21616c-0.42503,-0.08574 -0.446,-0.24352 -0.06293,-0.47337c1.16199,-0.30646 2.10418,-0.65761 2.82655,-1.05346l0.73058,0.40497c0.13863,0.34842 0.00822,0.48249 -0.39128,0.40223c-0.39037,0.12222 -0.75156,0.22711 -1.08356,0.31467v1.26689h0.21069l0.41591,-0.41591l0.58557,0.41865c0.29551,0.24626 0.26907,0.42777 -0.07935,0.54452h-1.13281v0.8072c0.83182,0.21891 1.24774,0.53722 1.24774,0.95495c0,0.26997 -0.1131,0.40497 -0.3393,0.40497c-0.12769,0 -0.27454,-0.12404 -0.44054,-0.37213c-0.13681,-0.19519 -0.29278,-0.3393 -0.4679,-0.43233v3.13576c-0.51807,0.47794 -0.7771,0.46334 -0.7771,-0.04378v-2.70068c-0.25173,0.43232 -0.65397,0.87834 -1.20669,1.33803zM195.54219,224.80961c1.9847,-0.64758 3.45682,-1.90717 4.41633,-3.77877l0.63207,0.45148c0.44144,0.3849 0.37123,0.55728 -0.21069,0.51715c-1.01789,1.68735 -2.58576,2.79008 -4.70363,3.30814c-0.55454,0 -0.59924,-0.166 -0.13408,-0.498zM201.01744,220.83109c0,0.26997 -0.12404,0.40497 -0.37213,0.40497c-0.16235,0 -0.31375,-0.15414 -0.45422,-0.46242c-0.2718,-0.56549 -0.61566,-1.01242 -1.03158,-1.34077c-0.16235,-0.32288 -0.0602,-0.44783 0.30646,-0.37486c0.55637,0.37031 0.95952,0.69227 1.20943,0.9659c0.22803,0.25173 0.34203,0.52079 0.34203,0.80719zM197.62175,219.255c0.59651,0.21708 0.56641,0.4077 -0.09029,0.57188c-0.24991,0.77163 -0.59559,1.41282 -1.03704,1.92359c-0.26085,0.17512 -0.39128,0.09577 -0.39128,-0.23805c0.3995,-0.77527 0.67495,-1.61987 0.82636,-2.53377l0.69227,0.27635zM198.85033,222.14449c0,0.29369 -0.09486,0.52263 -0.28457,0.68681c-0.11857,0.11857 -0.26815,0.17785 -0.44875,0.17785c-0.20431,0 -0.30645,-0.10216 -0.30645,-0.30646c0,-0.02553 -0.02281,-0.0456 -0.06841,-0.0602l-0.44054,-0.10124c-0.30829,-0.15506 -0.3019,-0.31284 0.01916,-0.47337h0.69774c0.03648,0 0.05472,-0.01824 0.05472,-0.05472v-4.44368l0.79625,0.13954c0.45604,0.28457 0.44966,0.46607 -0.01916,0.54451zM204.44324,218.10852l0.71143,0.38034h0.69774l0.23806,-1.22311l0.82362,0.21616c0.43232,0.21526 0.37304,0.38673 -0.17786,0.51442l-0.27636,0.49253h1.22311l0.24626,-0.32835l0.60471,0.42959c0.32288,0.26997 0.3019,0.44053 -0.06293,0.51167v1.51042c-0.51807,0.47794 -0.7771,0.46334 -0.7771,-0.04378v-0.1204h-2.47357v0.66764h2.72531l0.24626,-0.32835l0.60471,0.4296c0.32288,0.26997 0.30191,0.44053 -0.06293,0.51167v1.77309c-0.51807,0.47794 -0.7771,0.46335 -0.7771,-0.04377v-0.18607h-2.73625v0.52536c-0.51807,0.47794 -0.7771,0.46334 -0.7771,-0.04378zM202.33632,217.99632c0.87196,0.17512 1.30793,0.48523 1.30793,0.93033c0,0.31375 -0.13499,0.47064 -0.40497,0.47064c-0.16418,0 -0.29278,-0.10763 -0.38582,-0.32288c-0.15323,-0.24991 -0.39859,-0.45878 -0.73605,-0.6266c-0.301,-0.301 -0.22802,-0.45148 0.21891,-0.45148zM201.49629,224.25962l1.20669,-0.67586v-2.21637h-1.18207v-0.54725h1.17112l0.24626,-0.32836l0.60471,0.4296c0.32288,0.26997 0.3019,0.44053 -0.06294,0.51167v2.21364c0.43415,0.41591 1.15379,0.63389 2.15891,0.65396l3.57629,0.17512c-0.0529,0.14046 -0.1514,0.33017 -0.29551,0.56914h-3.18501c-1.1693,0 -2.05858,-0.34568 -2.66785,-1.03704l-0.6266,0.6266c0.09669,0.63117 -0.05381,0.71416 -0.45148,0.249l-0.49253,-0.62387zM205.22034,221.66291v1.06167h2.73625v-1.06167zM207.69391,219.0361h-2.47357v0.86466h2.47357zM211.43711,219.52863h-1.57608v-0.54725h1.57608v-1.64176l0.80994,0.13682c0.60927,0.22072 0.59833,0.41043 -0.03284,0.56914v0.9358h1.01789l0.24626,-0.32835l0.60471,0.42959c0.32288,0.26997 0.3019,0.44053 -0.06293,0.51167v0.84277c0,2.17259 -0.23623,3.4942 -0.70869,3.96484c-0.22985,0.23167 -0.4679,0.3475 -0.71417,0.3475c-0.2262,0 -0.33929,-0.10215 -0.33929,-0.30646c0,-0.06567 -0.02736,-0.11492 -0.08209,-0.14776l-0.46243,-0.29551c-0.4524,-0.30281 -0.40953,-0.45422 0.12861,-0.45422l0.45695,0.17512c0.15506,0.05838 0.28731,0.08756 0.39676,0.08756c0.03831,0 0.06293,-0.00456 0.07388,-0.01368c0.31558,-0.31741 0.47337,-1.40371 0.47337,-3.25889v-1.00694h-1.02883v0.18606c0,2.20361 -0.76889,3.89279 -2.30667,5.06755c-0.46152,0.30829 -0.57735,0.19428 -0.3475,-0.34203c1.25138,-1.25138 1.87707,-2.77184 1.87707,-4.56135zM215.24325,218.7187h1.33803l0.24626,-0.32835l0.60471,0.42959c0.32288,0.26997 0.3019,0.44054 -0.06294,0.51168v4.89243c-0.51807,0.47794 -0.77709,0.46334 -0.77709,-0.04378v-0.2189h-1.25868v0.6567c-0.51807,0.47794 -0.77709,0.46334 -0.77709,-0.04378v-6.29613zM216.59223,219.26595h-1.25868v4.14817h1.25868zM220.60906,218.94307l1.63081,2.0303c0.22803,0.60563 0.10671,0.71233 -0.36392,0.32014l-0.96043,-0.83456v0.30645c0,0.8373 -0.21434,1.46937 -0.64302,1.89623c-0.47064,0.47246 -1.10271,0.70869 -1.89622,0.70869h-0.50347v-0.64576h0.50347c0.60745,0 1.08082,-0.16873 1.42012,-0.50621c0.31558,-0.31741 0.47337,-0.80173 0.47337,-1.45296v-0.29826l-0.93579,0.83456c-0.38855,0.2335 -0.50804,0.12495 -0.35845,-0.32561z" data-paper-data="{&quot;origPos&quot;:null}"/><path d="M241.74905,220.71363c0.16574,-0.31265 0.24861,-0.60081 0.24861,-0.86449c0,-0.36538 -0.07628,-0.64319 -0.22883,-0.83341c-0.14314,-0.16009 -0.36821,-0.24014 -0.67521,-0.24014c-0.25426,0 -0.45579,0.05556 -0.60458,0.16668c-0.13184,0.09983 -0.19776,0.2439 -0.19776,0.43224c0,0.09606 0.01884,0.16951 0.05651,0.22036c0.12054,0.11866 0.18081,0.24861 0.18081,0.38987c0,0.17704 -0.05085,0.29946 -0.15256,0.36727c-0.0678,0.10171 -0.19022,0.15256 -0.36727,0.15256c-0.18646,0 -0.34184,-0.0631 -0.46614,-0.18928c-0.10359,-0.10171 -0.15538,-0.26839 -0.15538,-0.50005c0,-0.53489 0.19399,-0.94548 0.58197,-1.23176c0.37103,-0.27121 0.76843,-0.40682 1.19221,-0.40682c0.59516,0 1.03494,0.15538 1.31933,0.46614c0.30323,0.32772 0.45485,0.70722 0.45485,1.13852c0,0.27498 -0.07345,0.57162 -0.22036,0.88992c-0.14502,0.31641 -0.35031,0.59516 -0.61587,0.83624c-0.78727,0.76466 -1.29202,1.26942 -1.51426,1.51426c-0.30511,0.34843 -0.45579,0.51888 -0.45202,0.51135h1.70637c0.14879,0 0.27215,-0.05839 0.37009,-0.17516c0.113,-0.13184 0.19682,-0.38987 0.25144,-0.77408h0.57068l-0.25426,1.81938h-3.49185v-0.66673c0.15632,-0.28628 0.35126,-0.56974 0.5848,-0.85037c0.20529,-0.25238 0.55937,-0.62906 1.06225,-1.13005c0.37103,-0.37291 0.64319,-0.72041 0.81646,-1.04247zM243.87072,223.56135c-0.47085,0.23543 -0.58763,0.11677 -0.35031,-0.35597c0.80233,-0.89462 1.31933,-1.8401 1.551,-2.83643h-1.41256v-0.56503h1.45776v-1.1131c-0.30888,0.07722 -0.73641,0.15161 -1.2826,0.22318c-0.43884,-0.08852 -0.46049,-0.25144 -0.06498,-0.48875c1.19973,-0.31641 2.17252,-0.67897 2.91836,-1.08767l0.75431,0.41812c0.14314,0.35973 0.00848,0.49816 -0.40399,0.41529c-0.40305,0.12619 -0.77597,0.23449 -1.11875,0.32489v1.30803h0.21753l0.42942,-0.42942l0.60458,0.43224c0.30511,0.25426 0.2778,0.44166 -0.08193,0.5622h-1.1696v0.83341c0.85884,0.22601 1.28826,0.55467 1.28826,0.98597c0,0.27875 -0.11677,0.41812 -0.35031,0.41812c-0.13184,0 -0.28346,-0.12807 -0.45485,-0.38422c-0.14125,-0.20153 -0.30229,-0.35031 -0.48309,-0.44636v3.2376c-0.53489,0.49346 -0.80233,0.47839 -0.80233,-0.0452v-2.7884c-0.25991,0.44636 -0.67521,0.90687 -1.24588,1.38149zM246.23253,224.8044c2.04916,-0.66861 3.56907,-1.96911 4.55975,-3.9015l0.6526,0.46614c0.45579,0.3974 0.38327,0.57538 -0.21753,0.53395c-1.05094,1.74216 -2.66974,2.88069 -4.85639,3.41557c-0.57256,0 -0.6187,-0.17139 -0.13843,-0.51417zM251.8856,220.69667c0,0.27875 -0.12807,0.41812 -0.38422,0.41812c-0.16763,0 -0.32395,-0.15915 -0.46897,-0.47745c-0.28063,-0.58386 -0.63565,-1.04529 -1.06507,-1.38431c-0.16763,-0.33336 -0.06216,-0.46238 0.31641,-0.38704c0.57444,0.38233 0.99068,0.71476 1.2487,0.99727c0.23543,0.25991 0.35314,0.53771 0.35314,0.83341zM248.37963,219.06941c0.61587,0.22412 0.5848,0.42094 -0.09323,0.59045c-0.25802,0.79669 -0.61493,1.45871 -1.07072,1.98606c-0.26933,0.18081 -0.40399,0.09888 -0.40399,-0.24579c0.41246,-0.80045 0.69686,-1.67247 0.85319,-2.61606zM249.6481,222.05274c0,0.30323 -0.09794,0.5396 -0.29381,0.70911c-0.12242,0.12242 -0.27686,0.18363 -0.46332,0.18363c-0.21095,0 -0.31641,-0.10547 -0.31641,-0.31641c0,-0.02637 -0.02355,-0.04709 -0.07063,-0.06216l-0.45485,-0.10453c-0.3183,-0.16009 -0.3117,-0.32301 0.01978,-0.48875h0.72041c0.03767,0 0.05651,-0.01884 0.05651,-0.05651v-4.588l0.82211,0.14408c0.47085,0.29381 0.46426,0.48121 -0.01978,0.5622zM255.42266,217.88568l0.73453,0.39269h0.72041l0.24579,-1.26283l0.85037,0.22318c0.44636,0.22224 0.38516,0.39929 -0.18363,0.53113l-0.28534,0.50852h1.26283l0.25426,-0.33901l0.62435,0.44355c0.33336,0.27875 0.3117,0.45485 -0.06498,0.5283v1.55947c-0.53489,0.49346 -0.80233,0.47839 -0.80233,-0.0452v-0.12431h-2.55391v0.68933h2.81382l0.25426,-0.33901l0.62435,0.44355c0.33336,0.27875 0.3117,0.45485 -0.06498,0.5283v1.83069c-0.53489,0.49346 -0.80233,0.47839 -0.80233,-0.0452v-0.19211h-2.82512v0.54242c-0.53489,0.49346 -0.80233,0.47839 -0.80233,-0.0452zM253.24731,217.76985c0.90027,0.18081 1.3504,0.50099 1.3504,0.96055c0,0.32395 -0.13938,0.48592 -0.41812,0.48592c-0.16951,0 -0.30229,-0.11112 -0.39834,-0.33336c-0.15821,-0.25802 -0.41152,-0.47368 -0.75996,-0.64696c-0.31076,-0.31076 -0.23543,-0.46614 0.22601,-0.46614zM252.37999,224.23656l1.24588,-0.6978v-2.28835h-1.22045v-0.56503h1.20915l0.25426,-0.33901l0.62435,0.44355c0.33336,0.27875 0.3117,0.45485 -0.06498,0.5283v2.28553c0.44825,0.42942 1.19126,0.65448 2.22902,0.67521l3.69244,0.18081c-0.05462,0.14502 -0.15632,0.3409 -0.30511,0.58763h-3.28844c-1.20727,0 -2.12544,-0.35691 -2.7545,-1.07072l-0.64696,0.64696c0.09983,0.65166 -0.05556,0.73736 -0.46614,0.25708zM256.22499,221.55551v1.09615h2.82512v-1.09615zM258.7789,218.84339h-2.55391v0.89274h2.55391zM262.64367,219.35191h-1.62727v-0.56503h1.62727v-1.69508l0.83624,0.14125c0.62906,0.22789 0.61776,0.42377 -0.0339,0.58763v0.9662h1.05094l0.25426,-0.33901l0.62435,0.44355c0.33336,0.27875 0.3117,0.45485 -0.06498,0.5283v0.87014c0,2.24315 -0.2439,3.60768 -0.7317,4.09361c-0.23731,0.23919 -0.48309,0.35879 -0.73736,0.35879c-0.23354,0 -0.35031,-0.10547 -0.35031,-0.31641c0,-0.0678 -0.02825,-0.11866 -0.08475,-0.15256l-0.47745,-0.30511c-0.46709,-0.31265 -0.42283,-0.46897 0.13278,-0.46897l0.4718,0.18081c0.16009,0.06027 0.29663,0.09041 0.40964,0.09041c0.03955,0 0.06498,-0.00471 0.07628,-0.01412c0.32583,-0.32772 0.48875,-1.44929 0.48875,-3.36472v-1.03965h-1.06225v0.19211c0,2.27517 -0.79386,4.01921 -2.38158,5.23213c-0.47651,0.3183 -0.5961,0.20058 -0.35879,-0.35314c1.29202,-1.29202 1.93804,-2.86185 1.93804,-4.70948zM266.57342,218.51568h1.38149l0.25426,-0.33901l0.62435,0.44355c0.33337,0.27875 0.3117,0.45485 -0.06498,0.5283v5.05132c-0.53489,0.49346 -0.80233,0.47839 -0.80233,-0.0452v-0.22601h-1.29956v0.67803c-0.53489,0.49346 -0.80233,0.47839 -0.80233,-0.0452v-6.50061zM267.9662,219.0807h-1.29956v4.28289h1.29956zM272.11349,218.74734l1.68377,2.09624c0.23543,0.62529 0.11018,0.73547 -0.37574,0.33054l-0.99162,-0.86166v0.31641c0,0.86449 -0.2213,1.51709 -0.6639,1.95781c-0.48592,0.4878 -1.13852,0.7317 -1.95781,0.7317h-0.51982v-0.66673h0.51982c0.62718,0 1.11593,-0.17422 1.46624,-0.52264c0.32583,-0.32772 0.48875,-0.82776 0.48875,-1.50014v-0.30794l-0.9662,0.86166c-0.40117,0.24108 -0.52453,0.12902 -0.37009,-0.33619z" data-paper-data="{&quot;origPos&quot;:null}"/><path d="M294.50196,221.56734c0.1785,0.29241 0.26776,0.58652 0.26776,0.88233c0,0.43351 -0.15811,0.80752 -0.47432,1.12202c-0.31621,0.34 -0.75311,0.51002 -1.31073,0.51002c-0.40461,0 -0.75397,-0.11305 -1.04808,-0.33916c-0.3077,-0.2363 -0.46156,-0.51426 -0.46156,-0.83388c0,-0.1598 0.0544,-0.30855 0.16321,-0.44626c0.1173,-0.1173 0.23971,-0.17596 0.36721,-0.17596c0.1904,0 0.31961,0.06886 0.38761,0.20656c0.07481,0.1241 0.1122,0.23206 0.1122,0.32386c0,0.13431 -0.02805,0.2431 -0.08415,0.3264c-0.0255,0.05271 -0.03825,0.09691 -0.03825,0.13261c0,0.0595 0.0425,0.1139 0.1275,0.16321c0.1377,0.068 0.28561,0.102 0.44371,0.102c0.31621,0 0.54996,-0.0935 0.70126,-0.28051c0.1581,-0.1751 0.23716,-0.4658 0.23716,-0.87212c0,-0.3077 -0.08925,-0.56867 -0.26776,-0.78287c-0.1513,-0.18531 -0.52107,-0.27796 -1.10928,-0.27796v-0.54062c0.45051,0 0.76247,-0.08586 0.93588,-0.25755c0.1717,-0.1734 0.25756,-0.40036 0.25756,-0.68087c0,-0.24991 -0.0714,-0.47347 -0.2142,-0.67067c-0.1105,-0.15811 -0.30091,-0.23716 -0.57121,-0.23716c-0.1411,0 -0.27116,0.0255 -0.39016,0.0765c-0.1003,0.05101 -0.15046,0.1241 -0.15046,0.21931c0,0.1173 0.00425,0.18106 0.01275,0.19126c0.0731,0.0714 0.10965,0.16065 0.10965,0.26775c0,0.13431 -0.02975,0.24651 -0.08925,0.33661c-0.0731,0.1088 -0.18956,0.16321 -0.34936,0.16321c-0.1173,0 -0.23461,-0.0442 -0.35191,-0.1326c-0.09861,-0.0969 -0.1479,-0.24992 -0.1479,-0.45902c0,-0.36041 0.1547,-0.65962 0.46411,-0.89762c0.2958,-0.204 0.63412,-0.306 1.01493,-0.306c0.47602,0 0.84237,0.14024 1.09908,0.42076c0.27371,0.29581 0.41056,0.60778 0.41056,0.93588c0,0.34341 -0.0918,0.62986 -0.2754,0.85937c-0.1615,0.25331 -0.27031,0.38931 -0.32641,0.40801c0.1819,0.06461 0.36467,0.24566 0.54827,0.54317zM295.55259,223.26058c-0.42501,0.2125 -0.53042,0.1054 -0.31621,-0.32131c0.72422,-0.80752 1.19088,-1.66094 1.39999,-2.56026h-1.27503v-0.51002h1.31583v-1.00473c-0.27881,0.0697 -0.66472,0.13685 -1.15773,0.20146c-0.39611,-0.0799 -0.41566,-0.22696 -0.05865,-0.44117c1.08293,-0.28561 1.961,-0.61286 2.63423,-0.98177l0.68086,0.37741c0.12921,0.32471 0.00765,0.44966 -0.36466,0.37485c-0.36381,0.1139 -0.70041,0.21166 -1.00982,0.29326v1.18068h0.19636l0.38761,-0.38761l0.54571,0.39016c0.2754,0.22951 0.25077,0.39866 -0.07394,0.50746h-1.05572v0.75227c0.77522,0.204 1.16283,0.50066 1.16283,0.88997c0,0.25161 -0.1054,0.37741 -0.31621,0.37741c-0.11901,0 -0.25586,-0.11561 -0.41056,-0.34681c-0.1275,-0.18191 -0.27285,-0.3162 -0.43606,-0.40291v2.92238c-0.48281,0.44541 -0.72422,0.4318 -0.72422,-0.04081v-2.51692c-0.2346,0.40291 -0.60947,0.81857 -1.12457,1.24698zM297.68444,224.38261c1.84965,-0.60351 3.22159,-1.7774 4.11581,-3.52165l0.58907,0.42077c0.41141,0.35871 0.34595,0.51936 -0.19636,0.48196c-0.94862,1.57253 -2.40981,2.60022 -4.38356,3.08302c-0.51681,0 -0.55847,-0.1547 -0.12495,-0.4641zM302.78712,220.67482c0,0.25161 -0.11561,0.37741 -0.34681,0.37741c-0.1513,0 -0.29241,-0.14365 -0.42332,-0.43095c-0.25331,-0.52702 -0.57377,-0.94353 -0.96137,-1.24954c-0.1513,-0.30091 -0.0561,-0.41736 0.28561,-0.34936c0.51851,0.34511 0.89423,0.64516 1.12713,0.90017c0.21251,0.2346 0.31876,0.48536 0.31876,0.75227zM299.62249,219.20598c0.55592,0.2023 0.52786,0.37996 -0.08416,0.53296c-0.23291,0.71911 -0.55507,1.31668 -0.96648,1.79269c-0.2431,0.16321 -0.36466,0.08925 -0.36466,-0.22186c0.37231,-0.72252 0.62901,-1.50964 0.77012,-2.36136zM300.76747,221.89885c0,0.27371 -0.0884,0.48707 -0.26521,0.64006c-0.1105,0.1105 -0.24991,0.16576 -0.41821,0.16576c-0.1904,0 -0.28561,-0.09521 -0.28561,-0.28561c0,-0.0238 -0.02125,-0.0425 -0.06376,-0.0561l-0.41056,-0.09435c-0.28731,-0.14451 -0.28136,-0.29156 0.01785,-0.44117h0.65026c0.034,0 0.05101,-0.01701 0.05101,-0.05101v-4.1413l0.74207,0.13005c0.42501,0.26521 0.41906,0.43436 -0.01785,0.50746zM305.9798,218.1375l0.66301,0.35446h0.65027l0.22186,-1.13988l0.76757,0.20146c0.40291,0.2006 0.34766,0.36041 -0.16575,0.47941l-0.25756,0.45901h1.13988l0.22951,-0.306l0.56356,0.40036c0.30091,0.25161 0.28136,0.41056 -0.05865,0.47686v1.40764c-0.48281,0.44541 -0.72422,0.4318 -0.72422,-0.04081v-0.1122h-2.30526v0.62222h2.53986l0.22951,-0.306l0.56357,0.40036c0.30091,0.25161 0.28136,0.41056 -0.05865,0.47687v1.65245c-0.48281,0.44541 -0.72422,0.43181 -0.72422,-0.0408v-0.17341h-2.55007v0.48962c-0.48281,0.44541 -0.72422,0.4318 -0.72422,-0.04081zM304.01626,218.03295c0.81263,0.16321 1.21893,0.45222 1.21893,0.86703c0,0.29241 -0.1258,0.43861 -0.37741,0.43861c-0.15301,0 -0.27285,-0.1003 -0.35956,-0.30091c-0.14281,-0.2329 -0.37146,-0.42756 -0.68597,-0.58397c-0.28051,-0.28051 -0.21251,-0.42076 0.204,-0.42076zM303.23339,223.87005l1.12457,-0.62986v-2.06555h-1.10163v-0.51002h1.09142l0.22951,-0.306l0.56356,0.40036c0.30091,0.25161 0.28136,0.41056 -0.05865,0.47687v2.063c0.40461,0.38761 1.07527,0.59077 2.012,0.60947l3.33294,0.1632c-0.04931,0.13091 -0.1411,0.30771 -0.2754,0.53042h-2.96828c-1.08972,0 -1.9185,-0.32216 -2.48631,-0.96648l-0.58397,0.58397c0.0901,0.58822 -0.05016,0.66556 -0.42077,0.23206zM306.70402,221.45004v0.98943h2.55007v-0.98943zM309.00928,219.00198h-2.30526v0.80582h2.30526zM312.49777,219.46099h-1.46884v-0.51001h1.46884v-1.53004l0.75482,0.1275c0.56781,0.2057 0.55761,0.38251 -0.0306,0.53041v0.87212h0.94862l0.22951,-0.306l0.56356,0.40036c0.30091,0.25161 0.28136,0.41056 -0.05865,0.47687v0.78542c0,2.02475 -0.22015,3.25643 -0.66046,3.69504c-0.2142,0.21591 -0.43606,0.32386 -0.66557,0.32386c-0.2108,0 -0.31621,-0.0952 -0.31621,-0.28561c0,-0.06121 -0.0255,-0.10709 -0.0765,-0.1377l-0.43095,-0.27541c-0.42161,-0.28221 -0.38166,-0.42331 0.11985,-0.42331l0.42586,0.16321c0.1445,0.0544 0.26776,0.08161 0.36976,0.08161c0.0357,0 0.05865,-0.00425 0.06885,-0.01275c0.29411,-0.29581 0.44117,-1.30819 0.44117,-3.03714v-0.93842h-0.95883v0.17341c0,2.05365 -0.71657,3.62789 -2.1497,4.72272c-0.43011,0.28731 -0.53807,0.18106 -0.32386,-0.31876c1.16623,-1.16623 1.74935,-2.58322 1.74935,-4.25096zM316.04492,218.70617h1.24698l0.22951,-0.306l0.56356,0.40036c0.30091,0.25161 0.28136,0.41056 -0.05865,0.47687v4.55952c-0.48281,0.44541 -0.72422,0.4318 -0.72422,-0.04081v-0.204h-1.17303v0.61202c-0.48281,0.44541 -0.72422,0.43181 -0.72422,-0.0408v-5.86771zM317.30209,219.21618h-1.17303v3.86589h1.17303zM321.04559,218.91527l1.51984,1.89215c0.21251,0.56441 0.09945,0.66387 -0.33916,0.29836l-0.89507,-0.77778v0.28561c0,0.78032 -0.19976,1.36938 -0.59926,1.7672c-0.43861,0.44031 -1.02767,0.66046 -1.7672,0.66046h-0.46922v-0.60181h0.46922c0.56611,0 1.00727,-0.15726 1.32349,-0.47177c0.29411,-0.29581 0.44117,-0.74717 0.44117,-1.35408v-0.27796l-0.87212,0.77777c-0.3621,0.21761 -0.47347,0.11646 -0.33406,-0.30345z" data-paper-data="{&quot;origPos&quot;:null}"/></g></g><g data-paper-data="{&quot;origPos&quot;:null}" stroke-linecap="butt"><g data-paper-data="{&quot;origPos&quot;:null}"><g data-paper-data="{&quot;origPos&quot;:null}"><path d="M412.45965,91.47813c0,5.71624 -9.26785,10.35016 -20.70031,10.35016c-11.43246,0 -20.70031,-4.63392 -20.70031,-10.35016c0,-5.71624 9.26785,-10.35016 20.70031,-10.35016c11.43246,0 20.70031,4.63392 20.70031,10.35016z" data-paper-data="{&quot;origPos&quot;:null}" fill="#ffffff" stroke="#b2b2b2" stroke-width="1"/><path d="M404.59353,91.30583c0,3.20451 -5.74606,5.80228 -12.83419,5.80228c-7.08813,0 -12.83419,-2.59777 -12.83419,-5.80228c0,-3.20451 5.74606,-5.80228 12.83419,-5.80228c7.08813,0 12.83419,2.59777 12.83419,5.80228z" data-paper-data="{&quot;origPos&quot;:null}" fill="url(#color-2)" stroke="none" stroke-width="0"/><path d="M409.1476,91.42638c0,4.31576 -7.73866,7.81437 -17.28476,7.81437c-9.54611,0 -17.28476,-3.49861 -17.28476,-7.81437c0,-4.31576 7.73866,-7.81437 17.28476,-7.81437c9.54611,0 17.28476,3.49861 17.28476,7.81437z" data-paper-data="{&quot;origPos&quot;:null}" fill="none" stroke="#fff27f" stroke-width="2"/></g><g data-paper-data="{&quot;origPos&quot;:null}"><path d="M401.28761,92.19878c-1.02133,3.93948 -7.22065,4.15808 -11.84065,1.69583c-5.13356,-2.73597 -8.14025,-3.79667 -6.91761,-7.57476c1.21152,-3.74379 4.73661,-4.15808 10.28812,-2.42034c5.5515,1.73775 9.67531,3.65068 8.47014,8.29927z" data-paper-data="{&quot;origPos&quot;:null,&quot;origRot&quot;:0}" fill="#ffffff" stroke="#c2c2c2" stroke-width="0.5"/><path d="M380.1093,84.75699c-0.52944,-1.60592 2.25291,-3.93699 5.53733,-5.01983c1.96653,-0.64835 10.25929,1.07027 15.58549,6.61974c1.03859,1.08213 4.11567,3.87133 4.06172,4.99492c-0.04108,0.85556 -5.7568,2.04509 -7.66614,1.67659c-3.44678,-0.66521 -16.91863,-6.4522 -17.5184,-8.27142z" data-paper-data="{&quot;origPos&quot;:null}" fill="#e95c09" stroke="none" stroke-width="0"/><path d="M404.79442,90.81183c0.51751,0.62185 -0.0518,2.22528 -6.4171,2.43229c-8.74122,0.28427 -18.13645,-8.02438 -18.21628,-8.84938c-0.3105,-3.20939 8.85332,6.7254 17.59527,6.98636c3.46725,0.1035 6.50791,-1.20635 7.03811,-0.56926z" data-paper-data="{&quot;origPos&quot;:null}" fill="#e43e0e" stroke="none" stroke-width="0"/><g data-paper-data="{&quot;origPos&quot;:null}" fill="#ef7f35" stroke="none" stroke-width="0"><path d="M386.37115,83.35972c0,1.91494 0.79976,3.81615 -0.36226,3.2603c-0.93652,-0.44798 -1.19027,-1.34536 -1.19027,-3.2603c0,-1.91494 0.68083,-3.74649 2.12178,-3.67431c1.0232,0.05126 -0.56926,1.75937 -0.56926,3.67431z" data-paper-data="{&quot;origPos&quot;:null}"/><path d="M390.92521,84.80874c0,1.91494 0.79976,4.85116 -0.36226,4.29531c-0.93652,-0.44798 -1.29377,-2.38038 -1.29377,-4.29531c0,-1.91494 0.88784,-4.1605 2.32879,-4.08831c1.02319,0.05126 -0.67276,2.17337 -0.67276,4.08831z" data-paper-data="{&quot;origPos&quot;:null}"/><path d="M395.78979,86.36127c0,1.91494 0.69626,5.05817 -0.46576,4.50232c-0.93652,-0.44798 -1.29377,-2.48388 -1.29377,-4.39882c0,-1.91494 0.67596,-4.6172 2.01828,-4.08831c1.23395,0.4862 -0.25875,2.06987 -0.25875,3.98481z" data-paper-data="{&quot;origPos&quot;:null}"/><path d="M400.24035,87.70679c-0.29112,1.89268 0.79976,3.81615 -0.36226,3.2603c-0.93652,-0.44798 -1.19027,-1.34536 -1.19027,-3.2603c0,-1.91494 0.26393,-3.64973 1.29377,-2.63929c1.23395,1.21071 0.36226,1.96637 0.25875,2.63929z" data-paper-data="{&quot;origPos&quot;:null}"/></g><path d="M400.65436,90.24258c0,0.62879 -2.82332,0.72451 -8.07312,-1.44902c-6.28495,-2.60211 -9.35042,-5.37442 -9.00464,-5.89959c0.41401,-0.62879 2.85558,2.33786 9.21164,4.76107c3.80078,1.44902 7.86612,1.95875 7.86612,2.58754z" data-paper-data="{&quot;origPos&quot;:null}" fill="#ed8140" stroke="none" stroke-width="0"/></g></g><g data-paper-data="{&quot;origPos&quot;:null}"><path d="M407.22569,119.67775c0,0.85006 -0.66135,1.53926 -1.47712,1.53926h-30.51163c-0.81584,0 -1.47713,-0.68931 -1.47713,-1.53926v-13.89015c0,-0.85006 0.66128,-1.53906 1.47713,-1.53906h30.5117c0.81569,0 1.47713,0.6891 1.47713,1.53906v13.89015z" data-paper-data="{&quot;origPos&quot;:null}" fill="#000000" stroke="#ffffff" stroke-width="2.5"/><text transform="translate(382.57792,112.24768) scale(0.19348,0.19348)" font-size="40" xml:space="preserve" data-paper-data="{&quot;origPos&quot;:null}" fill="#ffffff" fill-rule="nonzero" stroke="#ffffff" stroke-width="5" stroke-linecap="butt" stroke-linejoin="miter" stroke-miterlimit="10" stroke-dasharray="" stroke-dashoffset="0" font-family="Sans Serif" font-weight="normal" text-anchor="start" style="mix-blend-mode: normal"><tspan x="0" dy="0">すし</tspan></text><text transform="translate(382.5666,118.73874) scale(0.20459,0.20459)" font-size="40" xml:space="preserve" data-paper-data="{&quot;origPos&quot;:null}" fill="#ffffff" fill-rule="nonzero" stroke="none" stroke-width="1" stroke-linecap="butt" stroke-linejoin="miter" stroke-miterlimit="10" stroke-dasharray="" stroke-dashoffset="0" font-family="Sans Serif" font-weight="normal" text-anchor="start" style="mix-blend-mode: normal"><tspan x="0" dy="0">susi</tspan></text></g></g><g data-paper-data="{&quot;origPos&quot;:null}" fill="#000000" stroke="#000000" stroke-width="2" stroke-linecap="butt" font-family="Sans Serif" font-weight="normal" font-size="40" text-anchor="start"><text transform="translate(126.05899,94.53235) scale(0.25126,0.27509)" font-size="40" xml:space="preserve" data-paper-data="{&quot;origPos&quot;:null}" fill="#000000" fill-rule="nonzero" stroke="#000000" stroke-width="2" stroke-linecap="butt" stroke-linejoin="miter" stroke-miterlimit="10" stroke-dasharray="" stroke-dashoffset="0" font-family="Sans Serif" font-weight="normal" text-anchor="start" style="mix-blend-mode: normal"><tspan x="0" dy="0">お寿司が流れてくると画面中央に単語が表示されます。</tspan><tspan x="0" dy="46.150000000000006px">お皿が画面内にあるうちに単語をタイピングすると</tspan><tspan x="0" dy="46.150000000000006px">お寿司をゲットできます。</tspan><tspan x="0" dy="46.150000000000006px">5段階の難易度と文字数の違う3種類のコースが選べます。</tspan></text><text transform="translate(127.11325,165.53235) scale(0.25126,0.27509)" font-size="40" xml:space="preserve" data-paper-data="{&quot;origPos&quot;:null}" fill="#000000" fill-rule="nonzero" stroke="#000000" stroke-width="2" stroke-linecap="butt" stroke-linejoin="miter" stroke-miterlimit="10" stroke-dasharray="" stroke-dashoffset="0" font-family="Sans Serif" font-weight="normal" text-anchor="start" style="mix-blend-mode: normal"><tspan x="0" dy="0">タイピングには時間制限があります。</tspan><tspan x="0" dy="46.150000000000006px">自がん内にたくさんお寿司をゲットして元を取りましょう。</tspan></text><text transform="translate(126.05899,238.53235) scale(0.25126,0.27509)" font-size="40" xml:space="preserve" data-paper-data="{&quot;origPos&quot;:null}" fill="#000000" fill-rule="nonzero" stroke="#000000" stroke-width="2" stroke-linecap="butt" stroke-linejoin="miter" stroke-miterlimit="10" stroke-dasharray="" stroke-dashoffset="0" font-family="Sans Serif" font-weight="normal" text-anchor="start" style="mix-blend-mode: normal"><tspan x="0" dy="0">ミスをしないで続けて打つと連打メーターがたまります。</tspan><tspan x="0" dy="46.150000000000006px">メーターが定量たまると残り時間が追加されます。</tspan></text><text transform="translate(126.05899,278.53235) scale(0.25126,0.27509)" font-size="40" xml:space="preserve" data-paper-data="{&quot;origPos&quot;:null}" fill="#000000" fill-rule="nonzero" stroke="#000000" stroke-width="2" stroke-linecap="butt" stroke-linejoin="miter" stroke-miterlimit="10" stroke-dasharray="" stroke-dashoffset="0" font-family="Sans Serif" font-weight="normal" text-anchor="start" style="mix-blend-mode: normal"><tspan x="0" dy="0">画面に表示されているローマ字以外でも入力できます。</tspan><tspan x="0" dy="46.150000000000006px">(例) すし→  susi,sushi</tspan><tspan x="0" dy="46.150000000000006px">(例) あっち →  atti,acchi,axtuti,altuchi　など</tspan></text></g></g></g></svg>