<svg version="1.1" xmlns="http://www.w3.org/2000/svg" xmlns:xlink="http://www.w3.org/1999/xlink" width="202.5" height="60.5"><defs><radialGradient cx="241.55902" cy="224.45473" r="68.5" gradientUnits="userSpaceOnUse" id="color-1"><stop offset="0" stop-color="#b2b2b2"/><stop offset="1" stop-color="#b2b2b2" stop-opacity="0"/></radialGradient></defs><g transform="translate(-138.80902,-194.68749)"><g data-paper-data="{&quot;isPaintingLayer&quot;:true}" fill="none" fill-rule="nonzero" stroke="none" stroke-width="none" stroke-linecap="butt" stroke-linejoin="miter" stroke-miterlimit="10" stroke-dasharray="" stroke-dashoffset="0" font-family="none" font-weight="none" font-size="none" text-anchor="none" style="mix-blend-mode: normal"><path d="M340.05902,224.93749c0,16.01626 -44.77153,29 -100,29c-55.22847,0 -100,-12.98374 -100,-29c0,-16.01626 44.77153,-29 100,-29c55.22847,0 100,12.98374 100,29z" data-paper-data="{&quot;origPos&quot;:null}" fill="#ffffff" stroke="#b2b2b2" stroke-width="2.5"/><path d="M310.05902,224.45473c0,8.9787 -30.6685,16.25737 -68.5,16.25737c-37.8315,0 -68.5,-7.27867 -68.5,-16.25737c0,-8.9787 30.6685,-16.25737 68.5,-16.25737c37.8315,0 68.5,7.27867 68.5,16.25737z" data-paper-data="{&quot;origPos&quot;:null}" fill="url(#color-1)" stroke="none" stroke-width="0"/><path d="M324.05902,224.79249c0,12.09227 -37.38423,21.895 -83.5,21.895c-46.11577,0 -83.5,-9.80273 -83.5,-21.895c0,-12.09228 37.38423,-21.895 83.5,-21.895c46.11577,0 83.5,9.80272 83.5,21.895z" data-paper-data="{&quot;origPos&quot;:null}" fill="none" stroke="#fff27f" stroke-width="7.5"/></g></g></svg>