<svg version="1.1" xmlns="http://www.w3.org/2000/svg" xmlns:xlink="http://www.w3.org/1999/xlink" width="121.32655" height="27.23671" viewBox="0,0,121.32655,27.23671"><g transform="translate(-52.98552,-295.04475)"><g data-paper-data="{&quot;isPaintingLayer&quot;:true}" fill="none" fill-rule="nonzero" stroke="none" stroke-width="none" stroke-linecap="none" stroke-linejoin="miter" stroke-miterlimit="10" stroke-dasharray="" stroke-dashoffset="0" font-family="none" font-weight="none" font-size="none" text-anchor="none" style="mix-blend-mode: normal"><g stroke-width="3.5" stroke-linecap="butt"><path d="M172.56207,318.82754c-0.56269,1.89588 -35.39956,1.9292 -59.34711,1.43494c-21.84391,-0.45084 -35.45053,0.66243 -57.27917,-0.21166c-1.70976,-0.06846 -3.07286,-19.60101 -0.40009,-21.83578c2.26348,-1.89256 36.22811,-1.49365 58.18387,-1.2929c22.55476,0.20622 54.23592,0.16583 55.64179,0.55892c4.12218,1.15261 5.55144,13.42612 3.20072,21.34646z" data-paper-data="{&quot;origPos&quot;:null}" fill="none" stroke="#4c3312"/><path d="M171.3618,317.72657c-0.56269,1.89588 -35.39956,1.9292 -59.34711,1.43494c-21.84391,-0.45084 -35.45053,0.66243 -57.27917,-0.21166c-1.70976,-0.06846 -3.07286,-19.60101 -0.40009,-21.83578c2.26348,-1.89256 36.22811,-1.49365 58.18387,-1.2929c22.55476,0.20622 56.8899,0.09342 58.16174,0.76905c2.32221,1.23363 2.89402,13.67918 0.68077,21.13633z" data-paper-data="{&quot;origPos&quot;:null}" fill="#ffffff" stroke="#986625"/></g><path d="M92.39744,310.01854c-0.05724,0.49057 -0.08585,0.97501 -0.08585,1.45331c0,0.76856 0.19214,1.34702 0.57641,1.73538c0.42925,0.42516 1.04859,0.63774 1.85803,0.63774c1.05472,0 1.83759,-0.25346 2.3486,-0.76038c0.42516,-0.42925 0.63774,-0.88507 0.63774,-1.36746c0,-0.97296 -0.3761,-1.83759 -1.12831,-2.59388c-0.39245,-0.38837 -0.80944,-0.72359 -1.25095,-1.00566c-0.83397,-0.66635 -0.69702,-0.91982 0.41085,-0.76038c0.87894,0.43742 1.55551,0.89529 2.02973,1.37359c0.96479,0.96069 1.44718,1.91526 1.44718,2.86369c0,0.86667 -0.2371,1.53507 -0.71132,2.0052c-0.87894,0.88302 -2.1401,1.32454 -3.78351,1.32454c-1.31636,0 -2.25049,-0.27799 -2.80237,-0.83397c-0.63774,-0.63365 -0.95661,-1.5269 -0.95661,-2.67973c0,-0.38428 0.04497,-0.87894 0.13491,-1.48397c-0.29842,-0.02862 -0.65818,-0.2555 -1.07925,-0.68067c-0.43333,-0.42925 -0.65,-0.99545 -0.65,-1.6986c0,-0.85032 0.22075,-1.42674 0.66227,-1.72925c-0.65,-0.12673 -1.23051,-0.63161 -1.74152,-1.51463c-0.28207,-0.98931 -0.02248,-1.14875 0.77878,-0.4783c0.33931,0.4129 0.74199,0.69088 1.20803,0.83397c0.3761,0.11446 0.88507,0.15535 1.5269,0.12264c0.05724,-0.39245 0.12469,-0.87485 0.20236,-1.44718c0.0695,-0.51919 0.03475,-0.86463 -0.10424,-1.03633c-0.17988,-0.20849 -0.41085,-0.31274 -0.69293,-0.31274c-1.13649,-0.14308 -1.17532,-0.43947 -0.11651,-0.88915c0.9239,-0.04906 1.6986,0.12673 2.32407,0.52736c0.61321,0.3434 0.67453,0.75834 0.18396,1.24481c-0.11446,0.11856 -0.28207,0.73177 -0.50284,1.83963c0.00818,0 0.06541,-0.02657 0.1717,-0.07972c0.40472,-0.26981 0.79309,-0.15739 1.1651,0.33726c0.36384,0.54781 0.18805,0.86258 -0.52736,0.94434c-0.29842,0.04088 -0.64796,0.06132 -1.04859,0.06132c-0.13491,1.03837 -0.25142,1.96637 -0.34953,2.78398c0.26164,0 0.62752,-0.05927 1.09765,-0.17783c0.51101,-0.11038 0.91573,0.04292 1.21416,0.4599c0.26164,0.52736 0.09811,0.83397 -0.49057,0.91982c-0.42107,0.04088 -1.07312,0.06132 -1.95614,0.06132zM91.67385,306.002c-0.18396,0.01227 -0.43333,0.17375 -0.74812,0.48444c-0.30252,0.30661 -0.45377,0.66022 -0.45377,1.06085c0,0.31887 0.08994,0.57029 0.26981,0.75425c0.26572,0.26164 0.46195,0.39245 0.58868,0.39245c0.09811,-0.83397 0.21258,-1.7313 0.3434,-2.69199zM102.23335,306.35766c0.4456,-0.32296 0.85441,-0.60913 1.22643,-0.8585c0.78899,-0.52736 1.64545,-0.79104 2.56935,-0.79104c0.65818,0 1.26321,0.25346 1.81511,0.76038c0.64183,0.59686 0.96274,1.55551 0.96274,2.87596c0,1.72925 -0.60503,3.17643 -1.81511,4.34153c-1.14466,1.09969 -2.71857,1.92753 -4.72173,2.48351c-0.75629,0 -0.85032,-0.28412 -0.28207,-0.85236c1.82737,-0.69088 3.17439,-1.54529 4.04106,-2.56322c0.84623,-1.00158 1.26935,-2.26071 1.26935,-3.77738c0,-0.88711 -0.18805,-1.50032 -0.56416,-1.83963c-0.26572,-0.23302 -0.56211,-0.34953 -0.88915,-0.34953c-0.77264,0 -1.53507,0.35771 -2.28728,1.07312c-0.11446,0.11446 -0.39245,0.43333 -0.83397,0.95661c-0.32296,0.38837 -0.67249,0.47013 -1.04859,0.24529c-0.42107,-0.31478 -0.63161,-0.79309 -0.63161,-1.43491c0,-0.60095 0.05519,-1.09765 0.16556,-1.4901c0.52736,-0.35158 0.79104,-0.26368 0.79104,0.26368c0,0.56416 0.02862,0.87689 0.08585,0.93821c0.04497,0.04088 0.09403,0.04702 0.14717,0.0184zM106.998,302.07745c0.30252,0.67453 0.04088,1.0118 -0.78491,1.0118c-0.69906,0 -1.25504,0.07563 -1.66793,0.22689c-0.30661,0.11446 -0.76856,0.35566 -1.38586,0.72359c-0.55598,0.18805 -0.73586,-0.01022 -0.53963,-0.59481c0.42107,-0.42107 0.64796,-0.64183 0.68067,-0.66227c-0.1717,0 -0.60913,-0.47013 -1.31227,-1.41039c-0.14717,-0.58868 0.04906,-0.79309 0.58868,-0.61321c0.62548,0.54781 1.2857,0.8217 1.98067,0.8217c0.50284,0 0.90755,-0.03884 1.21416,-0.11651c0.5846,-0.11446 0.9934,0.08994 1.22643,0.61321zM124.68913,306.92182c0.54781,0.45787 0.49874,0.79513 -0.14717,1.0118h-13.87083v-1.01793h11.59582l1.02406,-1.02406zM135.62269,312.29355c1.25913,0.62956 3.36653,1.0629 6.3222,1.3c-1.36951,0.52327 -2.23822,1.01793 -2.60615,1.48397c-2.01951,-0.35975 -3.66292,-1.01998 -4.93021,-1.98067c-1.3,0.83805 -3.44011,1.51055 -6.42031,2.01746c-0.88302,-0.12673 -0.94844,-0.44152 -0.19623,-0.94434c2.69813,-0.61321 4.57047,-1.26117 5.61701,-1.94388c-0.4783,-0.44969 -0.96069,-1.10378 -1.44718,-1.96227h-2.64907v-1.01793h7.25429l0.60095,-0.52736l0.99953,0.77264c1.07925,0.7195 0.91573,1.07925 -0.49057,1.07925c-0.85032,0.81353 -1.53507,1.38791 -2.05426,1.72312zM129.34954,303.39586v3.4769c0,2.76763 -0.82783,5.32063 -2.48351,7.65901c-0.77264,0.51101 -1.03224,0.32909 -0.77878,-0.54576c1.21007,-2.30158 1.81511,-4.55002 1.81511,-6.74532v-5.56796l1.32454,0.70519h4.0104v-2.14623l1.48397,0.26368c0.85032,0.52736 0.83805,0.86463 -0.03679,1.0118v0.87076h3.70992l0.90142,-0.90142l1.21416,0.90755c0.54781,0.45787 0.49874,0.79513 -0.14717,1.0118zM136.76939,306.03267v2.45284c-0.96479,0.8912 -1.44718,0.86463 -1.44718,-0.07972v-0.28821h-2.17077v0.55189c-0.96479,0.8912 -1.44718,0.86463 -1.44718,-0.07972v-2.55709h-2.3302v-1.01793h2.3302v-1.90095l1.48397,0.26368c0.85032,0.52736 0.83805,0.86463 -0.03679,1.0118v0.62548h2.17077v-1.83963l1.48397,0.26368c0.85032,0.52736 0.83805,0.86463 -0.03679,1.0118v0.56416h1.37972l0.90142,-0.90142l1.21416,0.90755c0.54781,0.45787 0.49874,0.79513 -0.14717,1.0118zM134.42079,311.55156c0.79309,-0.62138 1.3,-1.05063 1.52077,-1.28775h-2.75945c0.29026,0.44969 0.70315,0.87894 1.23868,1.28775zM135.32221,306.03267h-2.17077v1.06698h2.17077z" data-paper-data="{&quot;origPos&quot;:null}" fill="#000000" stroke="none" stroke-width="1" stroke-linecap="square"/></g></g></svg>