<svg version="1.1" xmlns="http://www.w3.org/2000/svg" xmlns:xlink="http://www.w3.org/1999/xlink" width="202.5" height="111.55274" viewBox="0,0,202.5,111.55274"><defs><radialGradient cx="240.05902" cy="203.10515" r="62" gradientUnits="userSpaceOnUse" id="color-1"><stop offset="0" stop-color="#b2b2b2"/><stop offset="1" stop-color="#b2b2b2" stop-opacity="0"/></radialGradient></defs><g transform="translate(-138.80902,-143.63475)"><g data-paper-data="{&quot;isPaintingLayer&quot;:true}" fill="none" fill-rule="nonzero" stroke="none" stroke-width="none" stroke-linecap="butt" stroke-linejoin="miter" stroke-miterlimit="10" stroke-dasharray="" stroke-dashoffset="0" font-family="none" font-weight="none" font-size="none" text-anchor="none" style="mix-blend-mode: normal"><g data-paper-data="{&quot;origPos&quot;:null}"><path d="M340.05902,203.93749c0,27.61424 -44.77153,50 -100,50c-55.22847,0 -100,-22.38576 -100,-50c0,-27.61424 44.77153,-50 100,-50c55.22847,0 100,22.38576 100,50z" data-paper-data="{&quot;origPos&quot;:null}" fill="#ffffff" stroke="#b2b2b2" stroke-width="2.5"/><path d="M302.05902,203.10515c0,15.48051 -27.75835,28.02994 -62,28.02994c-34.24165,0 -62,-12.54943 -62,-28.02994c0,-15.48051 27.75835,-28.02994 62,-28.02994c34.24165,0 62,12.54943 62,28.02994z" data-paper-data="{&quot;origPos&quot;:null}" fill="url(#color-1)" stroke="none" stroke-width="0"/><path d="M324.05902,203.68749c0,20.84875 -37.38423,37.75 -83.5,37.75c-46.11577,0 -83.5,-16.90125 -83.5,-37.75c0,-20.84875 37.38423,-37.75 83.5,-37.75c46.11577,0 83.5,16.90125 83.5,37.75z" data-paper-data="{&quot;origPos&quot;:null}" fill="none" stroke="#bfbfbf" stroke-width="10"/></g><path d="M283.08861,200.41884c-4.9339,19.03106 -34.88186,20.08704 -57.20033,8.19225c-24.79944,-13.21705 -39.32425,-18.34112 -33.41793,-36.59249c5.85268,-18.08563 22.88186,-20.08704 49.70033,-11.69225c26.81847,8.3948 46.73992,17.63589 40.91793,40.09249z" data-paper-data="{&quot;origPos&quot;:null,&quot;origRot&quot;:0}" fill="#ffffff" stroke="#c2c2c2" stroke-width="1.5"/><path d="M180.77949,164.46872c-2.55767,-7.75794 28.77641,-23.03064 45.25,-20.25c19.36654,3.26895 41.10417,17.05241 56.79109,31.47891c11.18184,10.2834 13.88217,18.70182 13.62153,24.12969c-0.19847,4.13308 -6.6523,7.08011 -19.53395,5.59935c-15.144,-1.74081 -93.23126,-32.16956 -96.12866,-40.95796z" data-paper-data="{&quot;origPos&quot;:null}" fill="#ffffff" stroke="#c2c2c2" stroke-width="0.5"/><path d="M295.52949,198.71872c0.56129,4.57771 -4.77797,7.3025 -15.5,7.75c-27.29931,1.13938 -99.9687,-38.36488 -99,-42.25c2.61441,-10.48546 49.49836,27.83432 91,35.75c9.23097,1.76064 23.0127,-5.2243 23.5,-1.25z" data-paper-data="{&quot;origPos&quot;:null}" fill="#e4e8e1" stroke="none" stroke-width="0"/><path d="M219.92313,148.20259c0.10514,-1.33031 13.49679,1.502 34.72118,12.32083c25.40941,12.95208 34.91581,22.75128 34.23065,24.03527c-1.03872,2.12714 -11.16307,-10.71477 -36.92883,-22.94261c-15.4073,-7.31195 -32.09395,-12.51578 -32.023,-13.41349z" data-paper-data="{&quot;origPos&quot;:null,&quot;index&quot;:null,&quot;origRot&quot;:0}" fill="#c2c2c2" stroke="none" stroke-width="0"/><path d="M207.92315,151.02034c0.11428,-1.44601 14.67066,1.63263 37.74101,13.39241c27.61936,14.07857 37.95257,24.73005 37.20782,26.12571c-1.12907,2.31214 -12.13396,-11.64667 -40.14067,-24.93801c-16.74732,-7.9479 -34.88528,-13.60432 -34.80816,-14.58011z" data-paper-data="{&quot;origPos&quot;:null,&quot;index&quot;:null,&quot;origRot&quot;:0}" fill="#c2c2c2" stroke="none" stroke-width="0"/><path d="M200.92314,154.58109c0.11124,-1.40744 14.27937,2.58909 36.7344,14.03522c26.88271,13.70307 36.94031,23.07046 36.21543,24.4289c-1.09895,2.25047 -11.81033,-10.33604 -39.07006,-23.27288c-16.30065,-7.73591 -33.95484,-14.24148 -33.87977,-15.19124z" data-paper-data="{&quot;origPos&quot;:null,&quot;index&quot;:null,&quot;origRot&quot;:0}" fill="#c2c2c2" stroke="none" stroke-width="0"/><path d="M192.42315,156.04555c0.11276,-1.42673 13.93879,4.8283 36.70153,16.43127c27.25108,13.89084 37.98274,21.18285 37.24792,22.55991c-1.11401,2.28131 -11.97217,-7.73769 -39.60543,-20.8518c-16.52401,-7.84192 -34.42011,-17.1766 -34.34402,-18.13937z" data-paper-data="{&quot;origPos&quot;:null,&quot;index&quot;:null,&quot;origRot&quot;:0}" fill="#c2c2c2" stroke="none" stroke-width="0"/></g></g></svg>