<svg version="1.1" xmlns="http://www.w3.org/2000/svg" xmlns:xlink="http://www.w3.org/1999/xlink" width="47.05727" height="11.35707"><g transform="translate(-195.78555,-30.51554)"><g data-paper-data="{&quot;isPaintingLayer&quot;:true}" fill="#ff0000" fill-rule="nonzero" stroke="none" stroke-width="1" stroke-linecap="square" stroke-linejoin="miter" stroke-miterlimit="10" stroke-dasharray="" stroke-dashoffset="0" font-family="none" font-weight="none" font-size="none" text-anchor="none" style="mix-blend-mode: normal"><path d="M199.13339,35.54116c0.22524,-0.42488 0.33786,-0.81649 0.33786,-1.17482c0,-0.49655 -0.10366,-0.87408 -0.31098,-1.13259c-0.19452,-0.21756 -0.50039,-0.32634 -0.91759,-0.32634c-0.34554,0 -0.61941,0.07551 -0.82161,0.22652c-0.17917,0.13566 -0.26875,0.33146 -0.26875,0.58741c0,0.13054 0.0256,0.23036 0.07679,0.29946c0.16381,0.16125 0.24571,0.33786 0.24571,0.52982c0,0.2406 -0.0691,0.40696 -0.20732,0.49911c-0.09214,0.13822 -0.25851,0.20732 -0.49911,0.20732c-0.25339,0 -0.46455,-0.08575 -0.63348,-0.25723c-0.14077,-0.13822 -0.21116,-0.36473 -0.21116,-0.67955c0,-0.7269 0.26363,-1.28488 0.79089,-1.67393c0.50422,-0.36857 1.04428,-0.55286 1.62018,-0.55286c0.80881,0 1.40646,0.21116 1.79294,0.63348c0.41208,0.44536 0.61813,0.9611 0.61813,1.54723c0,0.37369 -0.09982,0.77682 -0.29946,1.20938c-0.19708,0.43 -0.47607,0.80881 -0.83696,1.13643c-1.06988,1.03916 -1.75583,1.72512 -2.05785,2.05785c-0.41464,0.47351 -0.61941,0.70515 -0.61428,0.69491h2.31892c0.2022,0 0.36985,-0.07935 0.50294,-0.23804c0.15357,-0.17917 0.26747,-0.52982 0.3417,-1.05196h0.77554l-0.34554,2.47249h-4.74535v-0.90607c0.21244,-0.38905 0.47735,-0.77426 0.79473,-1.15563c0.27899,-0.34298 0.76017,-0.85488 1.44357,-1.53571c0.50422,-0.50678 0.87408,-0.97902 1.10955,-1.4167zM202.01669,39.41115c-0.63988,0.31994 -0.79857,0.15869 -0.47607,-0.48375c1.09035,-1.21577 1.79294,-2.50065 2.10777,-3.85464h-1.91964v-0.76786h1.98107v-1.51268c-0.41976,0.10494 -1.00077,0.20604 -1.74303,0.3033c-0.59637,-0.1203 -0.6258,-0.3417 -0.0883,-0.6642c1.63041,-0.43 2.95241,-0.92271 3.96598,-1.47812l1.02509,0.56822c0.19452,0.48887 0.01152,0.67699 -0.54902,0.56437c-0.54774,0.17149 -1.05452,0.31866 -1.52036,0.44152v1.77759h0.29562l0.58357,-0.58357l0.82161,0.58741c0.41464,0.34554 0.37753,0.60021 -0.11134,0.76402h-1.58946v1.13259c1.16714,0.30714 1.75071,0.75378 1.75071,1.33991c0,0.37881 -0.15869,0.56822 -0.47607,0.56822c-0.17917,0 -0.38521,-0.17405 -0.61813,-0.52214c-0.19196,-0.27387 -0.4108,-0.47607 -0.65651,-0.6066v4.39982c-0.7269,0.6706 -1.09035,0.65012 -1.09035,-0.06143v-3.78937c-0.35321,0.6066 -0.91759,1.23241 -1.69312,1.87741zM205.22633,41.10043c2.78476,-0.90863 4.85029,-2.67598 6.1966,-5.30205l0.88687,0.63348c0.61941,0.54006 0.52086,0.78193 -0.29562,0.72563c-1.42821,2.36756 -3.62812,3.91479 -6.59972,4.64169c-0.7781,0 -0.8408,-0.23292 -0.18813,-0.69875zM212.90873,35.51812c0,0.37881 -0.17405,0.56822 -0.52214,0.56822c-0.2278,0 -0.44024,-0.21628 -0.63732,-0.64884c-0.38137,-0.79345 -0.86384,-1.42053 -1.44741,-1.88125c-0.2278,-0.45303 -0.08447,-0.62836 0.43,-0.52598c0.78065,0.51958 1.34631,0.97134 1.69696,1.35527c0.31994,0.35321 0.47991,0.73074 0.47991,1.13259zM208.14419,33.3067c0.83696,0.30458 0.79473,0.57205 -0.1267,0.80241c-0.35065,1.08268 -0.83568,1.98235 -1.45509,2.69901c-0.36601,0.24571 -0.54902,0.13438 -0.54902,-0.33402c0.56053,-1.0878 0.94702,-2.27285 1.15946,-3.55517zM209.86802,37.36098c0,0.41208 -0.1331,0.7333 -0.39928,0.96366c-0.16637,0.16637 -0.37625,0.24955 -0.62964,0.24955c-0.28667,0 -0.43,-0.14333 -0.43,-0.43c0,-0.03583 -0.032,-0.06399 -0.09598,-0.08447l-0.61813,-0.14205c-0.43256,-0.21756 -0.4236,-0.43896 0.02688,-0.6642h0.97902c0.05119,0 0.07679,-0.0256 0.07679,-0.07679v-6.23499l1.11723,0.1958c0.63988,0.39928 0.63092,0.65396 -0.02688,0.76402zM217.71551,31.69804l0.99821,0.53366h0.97902l0.33402,-1.71616l1.15563,0.3033c0.6066,0.30202 0.52342,0.54262 -0.24955,0.72179l-0.38777,0.69107h1.71616l0.34554,-0.46071l0.84848,0.60277c0.45303,0.37881 0.4236,0.61813 -0.0883,0.71795v2.11928c-0.7269,0.6706 -1.09035,0.65012 -1.09035,-0.06143v-0.16893h-3.47071v0.93678h3.82392l0.34554,-0.46071l0.84848,0.60277c0.45303,0.37881 0.4236,0.61813 -0.0883,0.71795v2.48786c-0.7269,0.6706 -1.09035,0.65012 -1.09035,-0.06143v-0.26107h-3.83928v0.73714c-0.7269,0.6706 -1.09035,0.65012 -1.09035,-0.06143zM214.75926,31.54063c1.22345,0.24571 1.83517,0.68083 1.83517,1.30536c0,0.44024 -0.18941,0.66035 -0.56822,0.66035c-0.23036,0 -0.4108,-0.15101 -0.54134,-0.45303c-0.215,-0.35065 -0.55925,-0.64372 -1.03277,-0.8792c-0.42232,-0.42232 -0.31994,-0.63348 0.30714,-0.63348zM213.5806,40.32874l1.69312,-0.9483v-3.10982h-1.65857v-0.76786h1.64321l0.34554,-0.46071l0.84848,0.60277c0.45303,0.37881 0.4236,0.61813 -0.0883,0.71795v3.10598c0.60916,0.58357 1.6189,0.88943 3.02919,0.91759l5.01794,0.24571c-0.07423,0.19708 -0.21244,0.46327 -0.41464,0.79857h-4.46892c-1.64065,0 -2.88842,-0.48503 -3.7433,-1.45509l-0.8792,0.8792c0.13566,0.88559 -0.07551,1.00205 -0.63348,0.34937zM218.80587,36.68526v1.48964h3.83928v-1.48964zM222.27657,32.99955h-3.47071v1.21321h3.47071zM227.52871,33.69062h-2.21143v-0.76786h2.21143v-2.30357l1.13643,0.19196c0.85488,0.3097 0.83952,0.57589 -0.04607,0.79857v1.31304h1.42821l0.34554,-0.46071l0.84848,0.60277c0.45303,0.37881 0.4236,0.61813 -0.0883,0.71795v1.1825c0,3.04839 -0.33146,4.90276 -0.99437,5.56312c-0.3225,0.32506 -0.65651,0.48759 -1.00205,0.48759c-0.31738,0 -0.47607,-0.14333 -0.47607,-0.43c0,-0.09214 -0.03839,-0.16125 -0.11518,-0.20732l-0.64884,-0.41464c-0.63476,-0.42488 -0.57461,-0.63732 0.18045,-0.63732l0.64116,0.24571c0.21756,0.08191 0.40312,0.12286 0.55669,0.12286c0.05375,0 0.0883,-0.0064 0.10366,-0.01919c0.4428,-0.44536 0.6642,-1.96955 0.6642,-4.57258v-1.41286h-1.44357v0.26107c0,3.0919 -1.07884,5.46202 -3.23651,7.11035c-0.64756,0.43256 -0.81009,0.27259 -0.48759,-0.47991c1.75583,-1.75583 2.63375,-3.88919 2.63375,-6.40008zM232.86915,32.5542h1.87741l0.34554,-0.46071l0.84848,0.60277c0.45304,0.37881 0.4236,0.61813 -0.0883,0.71795v6.86463c-0.7269,0.6706 -1.09035,0.65012 -1.09035,-0.06143v-0.30714h-1.76607v0.92143c-0.7269,0.6706 -1.09035,0.65012 -1.09035,-0.06143v-8.83419zM234.76191,33.32205h-1.76607v5.82035h1.76607zM240.39798,32.86902l2.28821,2.84875c0.31994,0.84976 0.14973,0.99949 -0.51062,0.4492l-1.34759,-1.17098v0.43c0,1.17482 -0.30074,2.06169 -0.90223,2.66062c-0.66035,0.66291 -1.54723,0.99437 -2.66062,0.99437h-0.70643v-0.90607h0.70643c0.85232,0 1.51652,-0.23676 1.99259,-0.71026c0.4428,-0.44536 0.6642,-1.12491 0.6642,-2.03866v-0.41848l-1.31304,1.17098c-0.54518,0.32762 -0.71283,0.17533 -0.50294,-0.45687z" data-paper-data="{&quot;origPos&quot;:null}"/></g></g></svg>