<svg version="1.1" xmlns="http://www.w3.org/2000/svg" xmlns:xlink="http://www.w3.org/1999/xlink" width="484.07655" height="365.53802" viewBox="0,0,484.07655,365.53802"><g transform="translate(2.13548,3.60051)"><g data-paper-data="{&quot;isPaintingLayer&quot;:true}" fill="none" fill-rule="nonzero" stroke="none" stroke-width="none" stroke-linecap="none" stroke-linejoin="miter" stroke-miterlimit="10" stroke-dasharray="" stroke-dashoffset="0" font-family="none" font-weight="none" font-size="none" text-anchor="none" style="mix-blend-mode: normal"><path d="M480.61998,45.49732l-481.49811,-1.51648c0,0 -4.58299,-38.53658 5.67804,-45.95613c1.92636,-1.39292 473.77243,-3.04099 474.68446,0.49451c1.00236,3.88567 1.13561,46.97811 1.13561,46.97811z" data-paper-data="{&quot;origPos&quot;:null}" fill="#f49e53" stroke="none" stroke-width="NaN" stroke-linecap="butt"/><path d="M478.67897,360.1758c-0.90837,3.5355 -470.85635,0.88742 -472.77495,-0.50549c-10.21974,-7.41955 -7.78624,-34.84622 -7.78624,-34.84622l483.82329,-0.50549c0,0 -2.26375,31.97154 -3.26208,35.85721z" data-paper-data="{&quot;origPos&quot;:null,&quot;index&quot;:null}" fill="#f49e53" stroke="none" stroke-width="NaN" stroke-linecap="butt"/><path d="M180.8436,6.10167c-0.24682,-0.49365 -0.79406,-0.99866 -1.6417,-1.51505c-0.53912,-0.35725 -0.44331,-0.60894 0.28742,-0.75509c0.98405,0.21435 1.69042,0.49202 2.11912,0.83303c0.46767,0.37349 0.7015,0.78594 0.7015,1.23737c0,0.5586 -0.20136,0.8379 -0.60407,0.8379c-0.36374,0 -0.65116,-0.21272 -0.86226,-0.63817zM182.23686,9.50686c0.67227,0.48066 0.63817,0.78756 -0.1023,0.92072v4.10669c0.88662,0.81842 2.04929,1.22763 3.48801,1.22763l6.83962,0.31178c-0.08769,0.24682 -0.23708,0.58459 -0.44818,1.01328h-5.92377c-2.12399,0 -3.69586,-0.60082 -4.71564,-1.80247l-1.03276,0.86226c0.15913,1.19515 -0.16888,1.29582 -0.98405,0.30204l-0.7697,-0.94507l2.16295,-1.08635v-4.11157h-1.98758v-0.9743h1.9681l0.43844,-0.58459zM186.59687,7.11008v-0.77944h-3.91671v-0.9743h3.91671v-2.10937l1.0084,0.18512c1.4712,0.25981 1.59624,0.5927 0.37511,0.99866v0.92559h2.36269l0.97917,-0.9743l1.3348,0.98405c0.52287,0.43519 0.47416,0.75671 -0.14615,0.96456h-4.53052v0.77944h1.81221l0.43844,-0.58459l1.06686,0.75996c0.67227,0.48066 0.63817,0.78756 -0.1023,0.92072v3.73646c-0.92234,0.85089 -1.38351,0.82491 -1.38351,-0.07794h0.07794l-1.90964,0.07794v0.95482h2.4796l0.97917,-0.9743l1.3348,0.98405c0.52287,0.43519 0.47416,0.75671 -0.14615,0.96456h-4.64743v1.51992c-0.92234,0.85089 -1.38351,0.82491 -1.38351,-0.07794v-1.44197h-4.09208v-0.9743h4.09208v-0.95482h-1.8317v0.40921c-0.92234,0.85089 -1.38351,0.82491 -1.38351,-0.07794v-5.84096l1.26659,0.67714h1.94861zM186.59687,9.89659h-1.8317v1.07174h1.8317zM186.59687,8.92228v-0.8379h-1.8317v0.8379zM187.98039,9.89659v1.07174h1.8317v-1.07174zM187.98039,8.08438v0.8379h1.8317v-0.8379zM199.4577,5.35633h6.31837l0.97917,-0.9743l1.3348,0.98405c0.52287,0.43519 0.47416,0.75671 -0.14615,0.96456h-2.77677v9.10001c0,0.56185 -0.17375,0.99217 -0.52125,1.29095c-0.27605,0.23058 -0.5586,0.37023 -0.84765,0.41895c-0.47741,0.08119 -0.71611,-0.11854 -0.71611,-0.5992c0,-0.05521 -0.02436,-0.09256 -0.07307,-0.11204l-0.99379,-0.23383c-0.69176,-0.27605 -0.68039,-0.55698 0.0341,-0.84278h1.51992c0.1429,0 0.21435,-0.07145 0.21435,-0.21435v-8.80772h-4.32591zM198.03521,11.59188v4.13105c0,0.52287 -0.16888,0.93046 -0.50664,1.22276c-0.2111,0.2111 -0.47741,0.31665 -0.79893,0.31665c-0.36374,0 -0.54561,-0.18187 -0.54561,-0.54561c0,-0.04547 -0.0406,-0.08119 -0.12179,-0.10717l-0.78432,-0.18025c-0.54886,-0.27605 -0.53749,-0.55698 0.0341,-0.84278h1.24224c0.06495,0 0.09743,-0.03248 0.09743,-0.09743v-3.24444l-0.74534,0.35562c-0.12991,0.97755 -0.46442,1.10584 -1.00353,0.38485l-0.95969,-1.27634l2.70857,-0.9402v-2.91804h-2.33833v-0.9743h2.33833v-3.5075l1.41761,0.24845c0.81192,0.50664 0.80056,0.82978 -0.0341,0.96943v2.28962h0.60894l0.86226,-0.86226l1.15942,0.872c0.52287,0.43519 0.47416,0.75671 -0.14615,0.96456h-2.48448v2.45525l2.61114,-0.9743c0.84765,0 0.92397,0.28904 0.22896,0.86713l-2.8401,1.39326zM215.14888,11.14857c-1.69529,2.43251 -3.80953,4.28207 -6.34273,5.54867c-0.53262,-0.13316 -0.63492,-0.41732 -0.30691,-0.85252c2.25389,-1.47769 4.09208,-3.32076 5.51457,-5.52918c-0.65928,-0.45143 -1.8252,-0.89149 -3.49775,-1.32018c-0.53912,-0.35725 -0.4904,-0.61544 0.14615,-0.77457c1.28283,0 2.62088,0.33938 4.01413,1.01815c0.58783,-0.94832 1.05387,-1.95511 1.39813,-3.02035c0.10068,-0.35075 -0.05034,-0.5927 -0.45305,-0.72586c-0.63005,-0.25332 -0.64304,-0.531 -0.03897,-0.83303c0.59108,-0.04871 1.09447,0.08931 1.51017,0.41408c0.66253,0.52937 0.99379,0.96131 0.99379,1.29582c0,0.36374 -0.20136,0.54561 -0.60407,0.54561c0,-0.04547 0.01948,-0.05359 0.05846,-0.02436c-0.59757,1.31206 -1.13669,2.33671 -1.61735,3.07393c0.67227,0.44818 1.19515,0.89961 1.56863,1.35428c0.31827,0.40921 0.47741,0.74697 0.47741,1.01328c0,0.51963 -0.20136,0.77944 -0.60407,0.77944c-0.38972,0 -0.73235,-0.2452 -1.02789,-0.7356c-0.21435,-0.35725 -0.61056,-0.76645 -1.18865,-1.22763zM230.57214,10.715c-1.71153,-0.03897 -3.24607,-0.03897 -4.6036,0c-1.08798,0.03897 -2.25389,0.09743 -3.49775,0.17538c-0.62355,0.03572 -0.9467,0.06333 -0.96943,0.08281c-0.21435,0.21759 -0.42382,0.32639 -0.62842,0.32639c-0.12666,0 -0.33613,-0.14777 -0.62842,-0.44331c-0.29879,-0.29554 -0.51314,-0.57484 -0.64304,-0.8379c-0.22409,-0.44493 -0.31015,-0.89149 -0.25819,-1.33967c0.25332,-0.50989 0.52613,-0.54723 0.81842,-0.11204c0.17538,0.4904 0.34263,0.7762 0.50177,0.85739c0.18836,0.09418 0.45305,0.14127 0.79406,0.14127c1.16592,0 2.74267,-0.01948 4.73025,-0.05846c1.98108,-0.03897 3.2217,-0.07794 3.72184,-0.11692c0.35075,-0.03248 0.53912,-0.06008 0.5651,-0.08281c0.17538,-0.17862 0.36536,-0.26794 0.56997,-0.26794c0.43844,0 0.82329,0.16726 1.15455,0.50177c0.33451,0.33126 0.50177,0.54399 0.50177,0.63817c0.17213,0.51314 -0.06333,0.7291 -0.70637,0.64791c-0.49365,-0.0747 -0.96781,-0.11204 -1.42249,-0.11204zM240.11058,10.98294c-0.68526,-0.62355 -1.62384,-1.05387 -2.81574,-1.29095c-0.79568,0.86388 -1.75537,1.69204 -2.87907,2.48448c-0.67552,0 -0.82329,-0.25332 -0.44331,-0.75996c2.11424,-1.80896 3.51399,-3.81603 4.19926,-6.02121c0.04871,-0.14615 -0.10393,-0.26956 -0.45792,-0.37023c-0.54561,-0.27281 -0.53749,-0.55048 0.02436,-0.83303c0.52613,-0.04547 0.97268,0.02273 1.33967,0.2046c0.65928,0.32802 0.98892,0.65441 0.98892,0.97917c0,0.32477 -0.16239,0.48715 -0.48715,0.48715c0,-0.01948 -0.00487,0.00162 -0.01461,0.06333c-0.11692,0.23383 -0.17862,0.34913 -0.18512,0.34588c0.93533,-0.06495 1.99408,-0.15264 3.17623,-0.26306c0.12666,-0.10393 0.31015,-0.30366 0.55048,-0.5992c0.36374,0.14615 0.70962,0.34263 1.03763,0.58946c0.32152,0.21435 0.48228,0.43519 0.48228,0.66253c0,0.2793 -0.15913,0.45792 -0.47741,0.53587c-0.10068,0.02273 -0.2046,0.1429 -0.31178,0.36049c-0.47416,1.02627 -1.04575,2.02493 -1.71478,2.99599c0.39622,0.26306 0.56672,0.63492 0.51151,1.11558c-0.06171,0.45468 -0.26144,0.68201 -0.5992,0.68201c-0.24358,0 -0.52613,-0.16239 -0.84765,-0.48715c-1.6823,2.11749 -3.75432,3.72184 -6.21606,4.81307c-0.69501,0 -0.84765,-0.26144 -0.45792,-0.78432c2.64361,-1.55239 4.50941,-3.18922 5.59738,-4.9105zM240.8949,9.8089c0.61381,-0.87363 1.13182,-1.8252 1.55401,-2.85471c0.08119,-0.01948 0.12828,0.00649 0.14127,0.07794c-1.25361,0.07794 -2.40166,0.15751 -3.44417,0.23871c-0.24682,-0.06171 -0.34588,-0.15751 -0.29717,-0.28742c-0.35075,0.91585 -0.65441,1.53291 -0.91098,1.85118c1.20489,0.18512 2.19056,0.50989 2.95702,0.9743zM257.28758,10.715c-1.71153,-0.03897 -3.24606,-0.03897 -4.60359,0c-1.08798,0.03897 -2.25389,0.09743 -3.49775,0.17538c-0.62355,0.03572 -0.9467,0.06333 -0.96943,0.08281c-0.21435,0.21759 -0.42382,0.32639 -0.62842,0.32639c-0.12666,0 -0.33613,-0.14777 -0.62842,-0.44331c-0.29879,-0.29554 -0.51314,-0.57484 -0.64304,-0.8379c-0.22409,-0.44493 -0.31015,-0.89149 -0.25819,-1.33967c0.25332,-0.50989 0.52613,-0.54723 0.81842,-0.11204c0.17538,0.4904 0.34263,0.7762 0.50177,0.85739c0.18836,0.09418 0.45305,0.14127 0.79406,0.14127c1.16592,0 2.74267,-0.01948 4.73025,-0.05846c1.98108,-0.03897 3.2217,-0.07794 3.72184,-0.11692c0.35075,-0.03248 0.53912,-0.06008 0.5651,-0.08281c0.17538,-0.17862 0.36536,-0.26794 0.56997,-0.26794c0.43844,0 0.82329,0.16726 1.15455,0.50177c0.33451,0.33126 0.50177,0.54399 0.50177,0.63817c0.17213,0.51314 -0.06333,0.7291 -0.70637,0.64791c-0.49365,-0.0747 -0.96781,-0.11204 -1.42249,-0.11204z" data-paper-data="{&quot;origPos&quot;:null}" fill="#000000" stroke="none" stroke-width="1" stroke-linecap="square"/><path d="M23.47917,338.34099c0.19437,-0.15715 0.46525,-0.36599 0.81263,-0.62653c0.56656,0.35565 1.02767,0.68649 1.38333,0.99252c0.29776,0.22332 0.44663,0.50039 0.44663,0.83124c0,0.41355 -0.28328,0.62033 -0.84984,0.62033c-0.87259,1.38125 -1.71003,2.54747 -2.51232,3.49863c1.37299,0.44663 2.6033,1.21377 3.69094,2.30141c0.92222,0.91808 1.38333,1.68108 1.38333,2.289c0,0.7113 -0.33084,1.06696 -0.99252,1.06696c-0.34738,0 -0.70924,-0.31223 -1.08557,-0.93669c-0.43009,-0.71544 -0.93049,-1.36058 -1.50119,-1.93541c-0.67409,-0.67408 -1.4557,-1.29234 -2.34483,-1.85477c-2.36964,2.36551 -5.10941,4.1872 -8.21931,5.46507c-1.36058,0.14888 -1.54254,-0.19023 -0.54589,-1.01733c4.7641,-2.50611 8.16348,-5.7194 10.19815,-9.63985c0.09512,0.05376 0.1282,0.1344 0.09925,0.24193c-3.58548,0.47972 -5.44439,0.81883 -5.57672,1.01733c-0.17783,0.26467 -0.41148,0.39701 -0.70097,0.39701c-0.1985,0 -0.50867,-0.18196 -0.93049,-0.54589c-0.87259,-0.75266 -1.24065,-1.36678 -1.10418,-1.84236c0,-0.85192 0.33911,-0.93876 1.01733,-0.26054c0.19023,0.34325 0.4549,0.51487 0.79402,0.51487c1.17448,0 3.35389,-0.1923 6.53823,-0.5769zM40.55052,345.88415c0.33084,0.09925 0.65961,0.31223 0.98632,0.63894c0.24399,0.16542 0.36599,0.41769 0.36599,0.7568c0,0.56657 -0.32257,0.74232 -0.96771,0.52728c-1.18275,-0.38047 -3.85222,-0.3267 -8.0084,0.16128c-0.83124,0.1406 -1.28614,0.23779 -1.36472,0.29155c-0.20677,0.20678 -0.44043,0.31016 -0.70097,0.31016c-0.21091,0 -0.47765,-0.16335 -0.80022,-0.49005c-0.73612,-0.73612 -1.07316,-1.35851 -1.01113,-1.86718c0,-0.87259 0.34118,-0.96771 1.02354,-0.28535c0.19437,0.38873 0.53141,0.58311 1.01113,0.58311c1.07523,0 1.82996,-0.02481 2.26419,-0.07444c1.5963,-0.14888 3.45728,-0.29155 5.58293,-0.42802c0.26467,-1.57149 0.47972,-3.16159 0.64514,-4.7703c-2.86177,0.22332 -4.94399,0.3846 -6.24667,0.48385c-0.50453,0 -0.90774,0.05583 -1.20963,0.16749c-0.23159,0.23572 -0.45284,0.35359 -0.66375,0.35359c-0.23986,0 -0.52314,-0.13027 -0.84984,-0.3908c-0.85605,-0.74026 -1.25099,-1.37092 -1.18482,-1.89199c0,-0.87259 0.32464,-0.98218 0.97391,-0.32877c0.3722,0.36806 0.67616,0.55209 0.91188,0.55209c0.63687,0 1.37299,-0.02481 2.20836,-0.07444c1.49292,-0.09925 3.52965,-0.19644 6.11021,-0.29155c0.07444,-0.07444 0.27708,-0.27914 0.60792,-0.61412c0.68649,0.34325 1.20964,0.64307 1.56942,0.89947c0.26467,0.17782 0.39701,0.41148 0.39701,0.70097c0,0.3143 -0.22952,0.519 -0.68856,0.61412c-0.09925,0.01654 -0.14681,0.01861 -0.14267,0.00621c-0.29362,1.62112 -0.56656,3.10783 -0.81883,4.46014zM59.12927,337.47254c0.52521,0.52107 0.78782,0.91188 0.78782,1.17241c0,0.41355 -0.2564,0.62033 -0.7692,0.62033c-0.17369,0 -0.34531,-0.01654 -0.51487,-0.04963c-1.00906,0.64101 -2.89899,1.74932 -5.66977,3.32494c-0.54589,3.87083 -2.57642,6.78843 -6.09159,8.75279c-0.89741,0.2564 -1.18069,-0.02688 -0.84984,-0.84984c3.03959,-2.05948 4.70207,-4.74135 4.98742,-8.04562c0.1158,-0.8147 -0.01034,-1.26753 -0.3784,-1.35851c-1.09591,-0.3143 -1.1414,-0.67202 -0.13647,-1.07316c0.83951,-0.06203 1.54874,0.13854 2.12772,0.60172c0.36806,0.29362 0.47972,0.50867 0.33498,0.64514c1.5839,-1.07937 2.75631,-1.98504 3.51725,-2.71702c-2.35724,0.11579 -4.56973,0.34531 -6.63748,0.68856c-1.67488,0.28535 -2.58675,0.48385 -2.73563,0.59551c-0.26881,0.20264 -0.54589,0.30396 -0.83124,0.30396c-0.24813,0 -0.6348,-0.23159 -1.16001,-0.69476c-0.58311,-0.52521 -0.87466,-1.02147 -0.87466,-1.48878c0,-0.76507 0.35359,-0.93669 1.06076,-0.51487c0.24813,0.41769 0.78988,0.60585 1.62525,0.56449c1.17862,-0.04963 2.28487,-0.14681 3.31874,-0.29155c2.64672,-0.30189 4.91504,-0.45284 6.80497,-0.45284c0.3143,-0.15715 0.67822,-0.40114 1.09177,-0.73198z" data-paper-data="{&quot;origPos&quot;:null}" fill="#000000" stroke="none" stroke-width="1" stroke-linecap="square"/><g data-paper-data="{&quot;origPos&quot;:null}" stroke-linecap="butt"><path d="M297.5295,343.63541c0,-7.73199 6.26801,-14 14,-14c7.73199,0 14,6.26801 14,14c0,7.73199 -6.26801,14 -14,14c-7.73199,0 -14,-6.26801 -14,-14z" data-paper-data="{&quot;origPos&quot;:null}" fill="#ffffff" stroke="none" stroke-width="0"/><path d="M301.52952,343.3854c0,-5.66092 4.58908,-10.25 10.25,-10.25c5.66092,0 10.25,4.58908 10.25,10.25c0,5.66092 -4.58908,10.25 -10.25,10.25c-5.66092,0 -10.25,-4.58908 -10.25,-10.25z" data-paper-data="{&quot;origPos&quot;:null}" fill="none" stroke="#bfbfbf" stroke-width="2.5"/><text transform="translate(291.52952,348.5452) scale(0.35294,0.35294)" font-size="40" xml:space="preserve" data-paper-data="{&quot;origPos&quot;:null}" fill="#000000" fill-rule="nonzero" stroke="#000000" stroke-width="3" stroke-linecap="butt" stroke-linejoin="miter" stroke-miterlimit="10" stroke-dasharray="" stroke-dashoffset="0" font-family="Sans Serif" font-weight="normal" text-anchor="start" style="mix-blend-mode: normal"><tspan x="0" dy="0">¥380 ×</tspan></text></g><g data-paper-data="{&quot;origPos&quot;:null}" stroke-linecap="butt"><path d="M222.86285,343.30208c0,-7.73199 6.26801,-14 14,-14c7.73199,0 14,6.26801 14,14c0,7.73199 -6.26801,14 -14,14c-7.73199,0 -14,-6.26801 -14,-14z" data-paper-data="{&quot;origPos&quot;:null}" fill="#ffffff" stroke="none" stroke-width="0"/><path d="M226.86286,343.05207c0,-5.66092 4.58908,-10.25 10.25,-10.25c5.66092,0 10.25,4.58908 10.25,10.25c0,5.66092 -4.58908,10.25 -10.25,10.25c-5.66092,0 -10.25,-4.58908 -10.25,-10.25z" data-paper-data="{&quot;origPos&quot;:null}" fill="none" stroke="#ff8080" stroke-width="2.5"/><text transform="translate(216.86286,348.54521) scale(0.35294,0.35294)" font-size="40" xml:space="preserve" data-paper-data="{&quot;origPos&quot;:null}" fill="#000000" fill-rule="nonzero" stroke="#000000" stroke-width="3" stroke-linecap="butt" stroke-linejoin="miter" stroke-miterlimit="10" stroke-dasharray="" stroke-dashoffset="0" font-family="Sans Serif" font-weight="normal" text-anchor="start" style="mix-blend-mode: normal"><tspan x="0" dy="0">¥240 ×</tspan></text></g><g data-paper-data="{&quot;origPos&quot;:null}" stroke-linecap="butt"><path d="M371.36285,343.30208c0,-7.73199 6.26801,-14 14,-14c7.73199,0 14,6.26801 14,14c0,7.73199 -6.26801,14 -14,14c-7.73199,0 -14,-6.26801 -14,-14z" data-paper-data="{&quot;origPos&quot;:null}" fill="#ffffff" stroke="none" stroke-width="0"/><path d="M375.36285,343.05208c0,-5.66092 4.58908,-10.25 10.25,-10.25c5.66092,0 10.25,4.58908 10.25,10.25c0,5.66092 -4.58908,10.25 -10.25,10.25c-5.66092,0 -10.25,-4.58908 -10.25,-10.25z" data-paper-data="{&quot;origPos&quot;:null}" fill="none" stroke="#d0b169" stroke-width="2.5"/><text transform="translate(365.36285,348.21188) scale(0.35294,0.35294)" font-size="40" xml:space="preserve" data-paper-data="{&quot;origPos&quot;:null}" fill="#000000" fill-rule="nonzero" stroke="#000000" stroke-width="3" stroke-linecap="butt" stroke-linejoin="miter" stroke-miterlimit="10" stroke-dasharray="" stroke-dashoffset="0" font-family="Sans Serif" font-weight="normal" text-anchor="start" style="mix-blend-mode: normal"><tspan x="0" dy="0">¥500 ×</tspan></text></g><g data-paper-data="{&quot;origPos&quot;:null}" stroke-linecap="butt"><path d="M148.36285,343.80208c0,-7.73199 6.26801,-14 14,-14c7.73199,0 14,6.26801 14,14c0,7.73199 -6.26801,14 -14,14c-7.73199,0 -14,-6.26801 -14,-14z" data-paper-data="{&quot;origPos&quot;:null}" fill="#ffffff" stroke="none" stroke-width="0"/><path d="M152.36285,343.55207c0,-5.66092 4.58908,-10.25 10.25,-10.25c5.66092,0 10.25,4.58908 10.25,10.25c0,5.66092 -4.58908,10.25 -10.25,10.25c-5.66092,0 -10.25,-4.58908 -10.25,-10.25z" data-paper-data="{&quot;origPos&quot;:null}" fill="none" stroke="#bfff80" stroke-width="2.5"/><text transform="translate(142.36285,348.71187) scale(0.35294,0.35294)" font-size="40" xml:space="preserve" data-paper-data="{&quot;origPos&quot;:null}" fill="#000000" fill-rule="nonzero" stroke="#000000" stroke-width="3" stroke-linecap="butt" stroke-linejoin="miter" stroke-miterlimit="10" stroke-dasharray="" stroke-dashoffset="0" font-family="Sans Serif" font-weight="normal" text-anchor="start" style="mix-blend-mode: normal"><tspan x="0" dy="0">¥180 ×</tspan></text></g><g data-paper-data="{&quot;origPos&quot;:null}" stroke-linecap="butt"><path d="M74.52952,343.96874c0,-7.73199 6.26801,-14 14,-14c7.73199,0 14,6.26801 14,14c0,7.73199 -6.26801,14 -14,14c-7.73199,0 -14,-6.26801 -14,-14z" data-paper-data="{&quot;origPos&quot;:null}" fill="#ffffff" stroke="none" stroke-width="0"/><path d="M78.52952,343.71874c0,-5.66092 4.58908,-10.25 10.25,-10.25c5.66092,0 10.25,4.58908 10.25,10.25c0,5.66092 -4.58908,10.25 -10.25,10.25c-5.66092,0 -10.25,-4.58908 -10.25,-10.25z" data-paper-data="{&quot;origPos&quot;:null}" fill="none" stroke="#fff27f" stroke-width="2.5"/><text transform="translate(68.52952,348.87853) scale(0.35294,0.35294)" font-size="40" xml:space="preserve" data-paper-data="{&quot;origPos&quot;:null}" fill="#000000" fill-rule="nonzero" stroke="#000000" stroke-width="3" stroke-linecap="butt" stroke-linejoin="miter" stroke-miterlimit="10" stroke-dasharray="" stroke-dashoffset="0" font-family="Sans Serif" font-weight="normal" text-anchor="start" style="mix-blend-mode: normal"><tspan x="0" dy="0">¥100 ×</tspan></text></g></g></g></svg>