<svg version="1.1" xmlns="http://www.w3.org/2000/svg" xmlns:xlink="http://www.w3.org/1999/xlink" width="146.18105" height="34.87614" viewBox="0,0,146.18105,34.87614"><g transform="translate(-167.15747,-291.92205)"><g data-paper-data="{&quot;isPaintingLayer&quot;:true}" fill="none" fill-rule="nonzero" stroke="none" stroke-width="none" stroke-linecap="none" stroke-linejoin="miter" stroke-miterlimit="10" stroke-dasharray="" stroke-dashoffset="0" font-family="none" font-weight="none" font-size="none" text-anchor="none" style="mix-blend-mode: normal"><path d="M311.58852,322.83455c-0.67053,2.46303 -42.18418,2.50631 -70.72147,1.86419c-26.03048,-0.5857 -42.24491,0.8606 -68.25719,-0.27497c-2.03745,-0.08895 -3.6618,-25.46456 -0.47677,-28.36786c2.6973,-2.45871 43.17151,-1.94047 69.33527,-1.67966c26.87757,0.2679 64.63068,0.21543 66.30599,0.72612c4.91222,1.49742 6.61542,17.44247 3.81417,27.73216z" data-paper-data="{&quot;origPos&quot;:null}" fill="none" stroke="#4c3312" stroke-width="3.5" stroke-linecap="butt"/><path d="M310.15821,321.40423c-0.67053,2.46303 -42.18418,2.50631 -70.72147,1.86419c-26.03048,-0.5857 -42.24491,0.8606 -68.25719,-0.27497c-2.03745,-0.08895 -3.6618,-25.46456 -0.47677,-28.36786c2.6973,-2.45871 43.17151,-1.94047 69.33527,-1.67966c26.87757,0.2679 66.57509,0.45879 68.30599,0.72612c4.92531,0.76069 4.61542,17.44247 1.81417,27.73216z" data-paper-data="{&quot;origPos&quot;:null}" fill="#ffffff" stroke="#986625" stroke-width="3.5" stroke-linecap="butt"/><path d="M221.82099,317.65238c3.85993,-1.1293 6.56965,-2.52449 8.12915,-4.18557c-0.78274,-1.14722 -1.4161,-2.58723 -1.90009,-4.32001h-2.53644v-1.48781h7.69893l0.74391,-0.85145l1.67603,1.00382c1.58938,0.79468 1.41312,1.3444 -0.5288,1.64913c-0.72896,1.61926 -1.54457,2.9547 -2.44681,4.00632c1.15321,1.00382 3.43868,2.06142 6.85645,3.17279c-1.54755,0.51983 -2.57528,1.07253 -3.08315,1.6581c-2.24067,-0.95004 -3.98541,-2.04947 -5.2342,-3.29826c-1.63718,1.68498 -4.60981,2.99054 -8.91786,3.91669c-1.35635,0 -1.50872,-0.42124 -0.4571,-1.26374zM229.60059,309.14681c0.38241,1.201 0.90524,2.19287 1.56847,2.9756c0.69311,-0.90821 1.26671,-1.90009 1.72083,-2.9756zM227.48539,298.02413l1.93594,1.03071h2.68881l0.68116,-0.89627l1.64018,1.17411c0.87834,0.72896 0.82158,1.19204 -0.17029,1.38921v3.91669c-0.07768,0 -0.11651,-0.03885 -0.11651,-0.11651h1.43403c0.32266,0 0.49594,-0.07768 0.51983,-0.23304l0.56466,-2.93079c0.5019,-0.49594 0.89627,-0.4571 1.18307,0.11652v2.89495c0,0.10158 0.02688,0.1673 0.08066,0.19718c0.87834,0.37643 0.92017,0.90524 0.12548,1.5864c-0.2629,0.2629 -0.90821,0.39435 -1.93594,0.39435h-2.41992c-1.0337,0 -1.55054,-0.51684 -1.55054,-1.55054v-4.45445h-2.54541v1.5864c0,2.13909 -1.03966,3.92266 -3.11901,5.35072c-1.01577,0.40631 -1.31154,0.08066 -0.8873,-0.97693c1.26076,-1.08748 1.89113,-2.48564 1.89113,-4.19453zM220.18977,311.4771v3.26242h2.63503v-3.26242zM220.02845,309.9893h2.7605l0.68116,-0.89627l1.64018,1.17411c0.87834,0.72896 0.82158,1.19204 -0.17029,1.38921v4.75022c-1.41013,1.30257 -2.1152,1.26374 -2.1152,-0.11651v-0.06273h-2.63503v1.79253c-1.41013,1.30257 -2.1152,1.26374 -2.1152,-0.11651v-9.08815zM217.89534,307.12124h4.75918l1.05759,-1.05759l1.6312,1.29062c0.50789,0.66922 0.34955,1.08748 -0.47502,1.25477h-6.97296zM217.89534,304.79094h4.75918l1.05759,-1.05759l1.6312,1.29062c0.50789,0.66922 0.34955,1.08748 -0.47502,1.25477h-6.97296zM216.73019,301.92289h7.1791l1.1293,-1.1293l1.59536,1.13826c0.80665,0.66922 0.73793,1.16216 -0.20613,1.47885h-9.69762zM217.89534,299.23409h4.4903l1.05759,-1.05759l1.6312,1.29062c0.50789,0.66922 0.34955,1.08748 -0.47502,1.25477h-6.70408zM258.09294,302.4248h-13.97281c0,1.91203 -0.69611,2.86806 -2.0883,2.86806c-0.73494,0 -1.10241,-0.36746 -1.10241,-1.10241c0,-0.37045 0.17327,-0.72896 0.51983,-1.07552c0.67519,-0.51983 1.03966,-1.37427 1.09344,-2.56332c0.20316,-1.2249 0.6244,-1.30257 1.26374,-0.23304c0.08365,0.239 0.13743,0.44514 0.16133,0.61843h5.92433v-3.58507l2.16897,0.36748c1.78656,0.32266 1.76864,0.82756 -0.05378,1.51469v1.70291h6.09461l0.85146,-1.17411l2.73362,1.99868c1.12332,0.97992 0.86938,1.46988 -0.76182,1.46988c-0.58555,-0.0478 -1.0068,0.05378 -1.26374,0.30473l-0.99485,1.00382c-1.15917,0.96797 -1.5356,0.74091 -1.1293,-0.68116zM257.92265,304.71029c0.80066,0.66922 0.72896,1.16216 -0.21511,1.47885h-5.70027v3.44168h3.71952l1.31752,-1.31751l1.7746,1.32648c0.80066,0.66922 0.72896,1.16216 -0.21511,1.47885h-6.59654v4.81296c0.1434,0.04184 0.76182,0.06274 1.85528,0.06274l7.08051,0.47503c-0.14938,0.38241 -0.41827,0.89925 -0.80665,1.55054h-7.08051c-3.66275,0 -6.20516,-1.42506 -7.62724,-4.2752c-0.56167,1.58938 -1.86424,3.21163 -3.90773,4.86674c-1.00979,0.20316 -1.29661,-0.12847 -0.86042,-0.99485c2.22274,-2.16299 3.5552,-5.77795 3.99736,-10.84484l2.4737,0.83353c1.41013,0.62739 1.25477,1.14125 -0.46605,1.54159c-0.14938,0.95004 -0.35552,1.8493 -0.61842,2.69776c1.1771,2.03751 2.45876,3.25047 3.84499,3.63885v-9.29429h-5.91536v-1.48781h10.8538l1.31752,-1.31751z" data-paper-data="{&quot;origPos&quot;:null}" fill="#000000" stroke="none" stroke-width="1" stroke-linecap="square"/></g></g></svg>