<svg version="1.1" xmlns="http://www.w3.org/2000/svg" xmlns:xlink="http://www.w3.org/1999/xlink" width="23.69329" height="23.6933"><g transform="translate(-450.24147,-331.99503)"><g data-paper-data="{&quot;isPaintingLayer&quot;:true}" fill="none" fill-rule="none" stroke="none" stroke-width="none" stroke-linecap="none" stroke-linejoin="none" stroke-miterlimit="10" stroke-dasharray="" stroke-dashoffset="0" font-family="none" font-weight="none" font-size="none" text-anchor="none" style="mix-blend-mode: normal"><g data-paper-data="{&quot;origPos&quot;:null}"><path d="M450.24147,331.99503h23.69329v23.6933h-23.69329z" data-paper-data="{&quot;origPos&quot;:null}" fill-opacity="0" fill="#000000" fill-rule="evenodd" stroke="none" stroke-width="1" stroke-linecap="square" stroke-linejoin="miter"/><path d="M465.48204,346.12232h-7.43247v4.13581c-0.51947,0.47951 -0.77921,0.49949 -0.77921,0.05994v-4.19575h-2.03794v-0.35964h2.03794v-5.39453l0.89909,0.47951h3.11684v-2.09788h-5.75417v-0.35964h11.02883l0.89909,-0.89909l1.13885,0.83915c0.23976,0.1998 0.23976,0.33965 0,0.41957h-6.53339v2.09788h3.23673l0.35963,-0.47951l0.83915,0.59939c0.23976,0.1998 0.15984,0.33966 -0.23976,0.41958v4.37556h0.95903l0.77921,-0.77921l0.95903,0.71927c0.23976,0.1998 0.23976,0.33965 0,0.41957h-2.69727v3.0569c0,0.47951 -0.13986,0.83915 -0.41958,1.07891c-0.23976,0.1998 -0.49949,0.31967 -0.77921,0.35963c-0.23976,0.03996 -0.35963,-0.05993 -0.35963,-0.29969c0,-0.27972 -0.1998,-0.45953 -0.5994,-0.53945l-0.65933,-0.11988c-0.1998,-0.07992 -0.1998,-0.15984 0,-0.23976h1.49848c0.35964,0 0.53945,-0.17982 0.53945,-0.53945zM465.48204,341.2073h-3.41654v1.91806h3.41654zM458.04956,343.12536h3.23672v-1.91806h-3.23672zM458.04956,345.76268h3.23672v-2.27769h-3.23672zM462.06549,345.76268h3.41654v-2.27769h-3.41654z" data-paper-data="{&quot;origPos&quot;:null}" fill="#ff0000" fill-rule="nonzero" stroke="#ff0000" stroke-width="0.5" stroke-linecap="square" stroke-linejoin="miter"/><path d="M453.23197,335.15315h17.70741v17.70741h-17.70741z" data-paper-data="{&quot;origPos&quot;:null}" fill="none" fill-rule="evenodd" stroke="#ff0000" stroke-width="1.5" stroke-linecap="butt" stroke-linejoin="round"/></g></g></g></svg>