<svg version="1.1" xmlns="http://www.w3.org/2000/svg" xmlns:xlink="http://www.w3.org/1999/xlink" width="384.88955" height="59.01064" viewBox="0,0,384.88955,59.01064"><defs><radialGradient cx="69.61075" cy="159.88236" r="20.80207" gradientUnits="userSpaceOnUse" id="color-1"><stop offset="0" stop-color="#b2b2b2"/><stop offset="1" stop-color="#b2b2b2" stop-opacity="0"/></radialGradient></defs><g transform="translate(-35.55902,-130.82074)"><g data-paper-data="{&quot;isPaintingLayer&quot;:true}" fill="none" fill-rule="nonzero" stroke="none" stroke-width="none" stroke-linecap="butt" stroke-linejoin="miter" stroke-miterlimit="10" stroke-dasharray="" stroke-dashoffset="0" font-family="none" font-weight="none" font-size="none" text-anchor="none" style="mix-blend-mode: normal"><path d="M418.69857,186.50199c-2.61789,2.49704 -102.44238,1.54337 -170.834,0.46477c-62.38384,-0.98384 -161.11296,1.03012 -165.93701,-1.46188c-5.27394,-2.72442 -5.07672,-46.44138 -0.47005,-49.31825c7.68358,-4.79841 105.14492,-3.59289 167.84815,-3.15479c64.41393,0.45003 163.98457,-1.29613 169.13002,1.67829c3.39056,1.95997 3.2113,48.97958 0.2629,51.79187z" data-paper-data="{&quot;origPos&quot;:null}" fill="#ffffff" stroke="#996725" stroke-width="3.5"/><text transform="translate(107.05902,155.93749) scale(0.5,0.5)" font-size="40" xml:space="preserve" data-paper-data="{&quot;origPos&quot;:null}" fill="#e5a300" fill-rule="nonzero" stroke="none" stroke-width="1" stroke-linecap="butt" stroke-linejoin="miter" stroke-miterlimit="10" stroke-dasharray="" stroke-dashoffset="0" font-family="Sans Serif" font-weight="normal" text-anchor="start" style="mix-blend-mode: normal"><tspan x="0" dy="0">お手軽</tspan></text><text transform="translate(109.05902,177.9375) scale(0.5,0.5)" font-size="40" xml:space="preserve" data-paper-data="{&quot;origPos&quot;:null}" fill="#000000" fill-rule="nonzero" stroke="none" stroke-width="1" stroke-linecap="butt" stroke-linejoin="miter" stroke-miterlimit="10" stroke-dasharray="" stroke-dashoffset="0" font-family="Sans Serif" font-weight="normal" text-anchor="start" style="mix-blend-mode: normal"><tspan x="0" dy="0">3000円コース</tspan></text><text transform="translate(251.05902,155.88139) scale(0.4406,0.4406)" font-size="40" xml:space="preserve" data-paper-data="{&quot;origPos&quot;:null}" fill="#000000" fill-rule="nonzero" stroke="none" stroke-width="1" stroke-linecap="butt" stroke-linejoin="miter" stroke-miterlimit="10" stroke-dasharray="" stroke-dashoffset="0" font-family="Sans Serif" font-weight="normal" text-anchor="start" style="mix-blend-mode: normal"><tspan x="0" dy="0">文字数　:2〜7文字</tspan></text><text transform="translate(251.05902,177.61172) scale(0.44156,0.44156)" font-size="40" xml:space="preserve" data-paper-data="{&quot;origPos&quot;:null}" fill="#000000" fill-rule="nonzero" stroke="none" stroke-width="1" stroke-linecap="butt" stroke-linejoin="miter" stroke-miterlimit="10" stroke-dasharray="" stroke-dashoffset="0" font-family="Sans Serif" font-weight="normal" text-anchor="start" style="mix-blend-mode: normal"><tspan x="0" dy="0">制限時間:60秒</tspan></text><g data-paper-data="{&quot;origPos&quot;:null}"><path d="M103.16248,160.16162c0,9.26506 -15.02162,16.77587 -33.55173,16.77587c-18.53011,0 -33.55173,-7.51081 -33.55173,-16.77587c0,-9.26506 15.02162,-16.77587 33.55173,-16.77587c18.53011,0 33.55173,7.51081 33.55173,16.77587z" data-paper-data="{&quot;origPos&quot;:null}" fill="#ffffff" stroke="#b2b2b2" stroke-width="1"/><path d="M90.41282,159.88236c0,5.19398 -9.31341,9.40453 -20.80207,9.40453c-11.48867,0 -20.80207,-4.21055 -20.80207,-9.40453c0,-5.19398 9.31341,-9.40453 20.80207,-9.40453c11.48867,0 20.80207,4.21055 20.80207,9.40453z" data-paper-data="{&quot;origPos&quot;:null}" fill="url(#color-1)" stroke="none" stroke-width="0"/><path d="M97.7942,160.07775c0,6.99512 -12.54306,12.66578 -28.0157,12.66578c-15.47264,0 -28.0157,-5.67066 -28.0157,-12.66578c0,-6.99512 12.54306,-12.66578 28.0157,-12.66578c15.47264,0 28.0157,5.67066 28.0157,12.66578z" data-paper-data="{&quot;origPos&quot;:null}" fill="none" stroke="#bfff80" stroke-width="2.5"/><g data-paper-data="{&quot;origPos&quot;:null}"><path d="M84.71896,162.00071c-1.65541,6.38525 -11.70347,6.73955 -19.1917,2.74864c-8.32064,-4.43455 -13.19397,-6.15376 -11.21229,-12.27741c1.96368,-6.06804 7.67726,-6.73955 16.67532,-3.92295c8.99806,2.8166 15.68205,5.91715 13.72867,13.45172z" data-paper-data="{&quot;origPos&quot;:null,&quot;origRot&quot;:0}" fill="#ffffff" stroke="#c2c2c2" stroke-width="1.5"/><path d="M50.39248,149.93882c-0.85814,-2.60292 3.65159,-6.38119 8.97509,-8.13629c3.18741,-1.05086 16.62859,1.73473 25.26146,10.72948c1.68338,1.75395 6.67081,6.27478 6.58336,8.09593c-0.06659,1.38672 -9.3308,3.31474 -12.42553,2.71747c-5.58664,-1.07818 -27.42225,-10.45793 -28.39438,-13.40659z" data-paper-data="{&quot;origPos&quot;:null}" fill="#cd0e34" stroke="none" stroke-width="0"/><path d="M90.40292,159.75271c0.83879,1.00791 -0.08395,3.60681 -10.40104,3.94233c-14.16804,0.46075 -29.39615,-13.00617 -29.52552,-14.34336c-0.50328,-5.20188 14.34975,10.90074 28.51897,11.32371c5.61984,0.16776 10.54823,-1.9553 11.40759,-0.92267z" data-paper-data="{&quot;origPos&quot;:null}" fill="#a60022" stroke="none" stroke-width="0"/><g data-paper-data="{&quot;origPos&quot;:null}" fill="#d82b4e" stroke="none" stroke-width="0"><path d="M60.54188,147.67408c0,3.10379 1.29627,6.18534 -0.58716,5.2844c-1.51793,-0.7261 -1.92922,-2.1806 -1.92922,-5.2844c0,-3.10379 1.10351,-6.07244 3.43905,-5.95543c1.65843,0.08308 -0.92267,2.85164 -0.92267,5.95543z" data-paper-data="{&quot;origPos&quot;:null}"/><path d="M67.92326,150.0227c0,3.10379 1.29627,7.86292 -0.58716,6.96198c-1.51793,-0.7261 -2.09698,-3.85819 -2.09698,-6.96198c0,-3.10379 1.43903,-6.74347 3.77457,-6.62647c1.65842,0.08308 -1.09043,3.52267 -1.09043,6.62647z" data-paper-data="{&quot;origPos&quot;:null}"/><path d="M75.80791,152.53908c0,3.10379 1.12852,8.19844 -0.75491,7.2975c-1.51793,-0.7261 -2.09698,-4.02595 -2.09698,-7.12974c0,-3.10379 1.09562,-7.48372 3.27129,-6.62647c2.00002,0.78804 -0.4194,3.35491 -0.4194,6.45871z" data-paper-data="{&quot;origPos&quot;:null}"/><path d="M83.02154,154.71995c-0.47184,3.06772 1.29627,6.18534 -0.58716,5.2844c-1.51793,-0.7261 -1.92922,-2.1806 -1.92922,-5.2844c0,-3.10379 0.42779,-5.9156 2.09698,-4.27785c2.00002,1.96235 0.58716,3.18716 0.4194,4.27785z" data-paper-data="{&quot;origPos&quot;:null}"/></g><path d="M83.69257,158.83003c0,1.01916 -4.57614,1.17431 -13.08518,-2.34862c-10.18684,-4.21758 -15.15546,-8.71103 -14.595,-9.56224c0.67103,-1.01916 4.6284,3.78928 14.93052,7.7169c6.16041,2.34862 12.74966,3.17481 12.74966,4.19397z" data-paper-data="{&quot;origPos&quot;:null}" fill="#d4405b" stroke="none" stroke-width="0"/></g></g></g></g></svg>