<svg version="1.1" xmlns="http://www.w3.org/2000/svg" xmlns:xlink="http://www.w3.org/1999/xlink" width="202.5" height="104.30273" viewBox="0,0,202.5,104.30273"><defs><radialGradient cx="240.05902" cy="203.10515" r="62" gradientUnits="userSpaceOnUse" id="color-1"><stop offset="0" stop-color="#b2b2b2"/><stop offset="1" stop-color="#b2b2b2" stop-opacity="0"/></radialGradient><linearGradient x1="241.54543" y1="150.88475" x2="241.54543" y2="212.81482" gradientUnits="userSpaceOnUse" id="color-2"><stop offset="0" stop-color="#d9d9d9"/><stop offset="1" stop-color="#666d70"/></linearGradient></defs><g transform="translate(-138.80902,-150.88475)"><g data-paper-data="{&quot;isPaintingLayer&quot;:true}" fill="none" fill-rule="nonzero" stroke="none" stroke-width="none" stroke-linecap="butt" stroke-linejoin="miter" stroke-miterlimit="10" stroke-dasharray="" stroke-dashoffset="0" font-family="none" font-weight="none" font-size="none" text-anchor="none" style="mix-blend-mode: normal"><g><path d="M340.05902,203.93749c0,27.61424 -44.77153,50 -100,50c-55.22847,0 -100,-22.38576 -100,-50c0,-27.61424 44.77153,-50 100,-50c55.22847,0 100,22.38576 100,50z" data-paper-data="{&quot;origPos&quot;:null}" fill="#ffffff" stroke="#b2b2b2" stroke-width="2.5"/><path d="M302.05902,203.10515c0,15.48051 -27.75835,28.02994 -62,28.02994c-34.24165,0 -62,-12.54943 -62,-28.02994c0,-15.48051 27.75835,-28.02994 62,-28.02994c34.24165,0 62,12.54943 62,28.02994z" data-paper-data="{&quot;origPos&quot;:null}" fill="url(#color-1)" stroke="none" stroke-width="0"/><path d="M324.05902,203.68749c0,20.84875 -37.38423,37.75 -83.5,37.75c-46.11577,0 -83.5,-16.90125 -83.5,-37.75c0,-20.84875 37.38423,-37.75 83.5,-37.75c46.11577,0 83.5,16.90125 83.5,37.75z" data-paper-data="{&quot;origPos&quot;:null}" fill="none" stroke="#ff8080" stroke-width="10"/></g><path d="M286.08861,207.41884c-4.9339,19.03106 -34.88186,20.08704 -57.20033,8.19225c-24.79944,-13.21705 -39.32425,-18.34112 -33.41793,-36.59249c5.85268,-18.08563 22.88186,-20.08704 49.70033,-11.69225c26.81847,8.3948 46.73992,17.63589 40.91793,40.09249z" data-paper-data="{&quot;origPos&quot;:null,&quot;origRot&quot;:0}" fill="#ffffff" stroke="#c2c2c2" stroke-width="1.5"/><path d="M183.77949,171.46872c-2.55767,-7.75794 28.77641,-23.03064 45.25,-20.25c19.36654,3.26895 41.10417,17.05241 56.79109,31.47891c11.18184,10.2834 13.88217,18.70182 13.62153,24.12969c-0.19847,4.13308 -6.6523,7.08011 -19.53395,5.59935c-15.144,-1.74081 -93.23126,-32.16956 -96.12866,-40.95796z" data-paper-data="{&quot;origPos&quot;:null}" fill="url(#color-2)" stroke="#c2c2c2" stroke-width="0"/><path d="M195.73022,170.16974c0.05723,-3.03703 13.70258,-3.24241 38.86119,7.73354c30.11938,13.14019 44.67325,26.80941 42.95532,29.31451c-2.05687,2.99935 -13.5796,-11.55174 -44.05877,-23.83433c-18.2258,-7.34469 -37.81498,-10.17669 -37.75775,-13.21373z" data-paper-data="{&quot;origPos&quot;:null,&quot;index&quot;:null,&quot;origRot&quot;:0}" fill="#d7dcdd" stroke="none" stroke-width="0"/><g data-paper-data="{&quot;origPos&quot;:null}" stroke="none" stroke-width="0"><path d="M207.92315,156.68701c0.11428,-1.44601 22.00399,-4.36737 45.07434,7.39241c27.61936,14.07857 29.95257,28.73005 29.20782,30.12571c-1.12907,2.31214 -5.46729,-10.31334 -33.474,-23.60468c-16.74732,-7.9479 -40.88528,-12.93765 -40.80816,-13.91344z" data-paper-data="{&quot;origPos&quot;:null,&quot;index&quot;:null,&quot;origRot&quot;:0}" fill="#e38175"/><path d="M207.58981,157.24776c0.11124,-1.40744 17.94604,0.92242 40.40107,12.36855c26.88271,13.70307 34.60698,24.07046 33.8821,25.4289c-1.09895,2.25047 -16.81033,-9.00271 -36.40339,-18.93955c-19.59306,-9.93684 -37.95484,-17.90815 -37.87977,-18.85791z" data-paper-data="{&quot;origPos&quot;:null,&quot;index&quot;:null,&quot;origRot&quot;:0}" fill="#fce5dd"/><path d="M261.94315,176.11121c-2.3409,6.20023 -10.87047,8.72263 -19.05133,5.63394c-8.18086,-3.08869 -12.91508,-10.61885 -10.57417,-16.81908c2.3409,-6.20023 10.87047,-8.72263 19.05133,-5.63394c8.18086,3.08869 12.91508,10.61885 10.57417,16.81908z" data-paper-data="{&quot;origRot&quot;:0,&quot;origPos&quot;:null}" fill="#fff796"/><g data-paper-data="{&quot;origPos&quot;:null}" fill="#3ca52d"><path d="M244.29706,164.51864v-5.33333h5.33333v5.33333z" data-paper-data="{&quot;origPos&quot;:null}"/><path d="M236.6304,169.51864v-5h5v5z" data-paper-data="{&quot;origPos&quot;:null}"/><path d="M247.29706,170.18531v-4h4v4z" data-paper-data="{&quot;origPos&quot;:null}"/><path d="M253.96373,169.85197v-4.66667h4.66667v4.66667z" data-paper-data="{&quot;origPos&quot;:null}"/><path d="M240.29706,171.85197v-4.33333h4.33334v4.33333z" data-paper-data="{&quot;origPos&quot;:null}"/><path d="M250.96373,173.85197v-4h4v4z" data-paper-data="{&quot;origPos&quot;:null}"/><path d="M236.29706,161.85197v-2.66667h2.66667v2.66667z" data-paper-data="{&quot;origPos&quot;:null}"/><path d="M253.29707,165.85197v-4.33333h4.33333v4.33333z" data-paper-data="{&quot;origPos&quot;:null}"/><path d="M240.96373,161.51864v-4.33333h4.33333v4.33333z" data-paper-data="{&quot;origPos&quot;:null}"/></g></g></g></g></svg>