<svg version="1.1" xmlns="http://www.w3.org/2000/svg" xmlns:xlink="http://www.w3.org/1999/xlink" width="202.5" height="102.5951" viewBox="0,0,202.5,102.5951"><defs><radialGradient cx="240.05902" cy="203.10515" r="62" gradientUnits="userSpaceOnUse" id="color-1"><stop offset="0" stop-color="#b2b2b2"/><stop offset="1" stop-color="#b2b2b2" stop-opacity="0"/></radialGradient></defs><g transform="translate(-138.80902,-152.59239)"><g data-paper-data="{&quot;isPaintingLayer&quot;:true}" fill="none" fill-rule="nonzero" stroke="none" stroke-width="none" stroke-linecap="butt" stroke-linejoin="miter" stroke-miterlimit="10" stroke-dasharray="" stroke-dashoffset="0" font-family="none" font-weight="none" font-size="none" text-anchor="none" style="mix-blend-mode: normal"><g><path d="M340.05902,203.93749c0,27.61424 -44.77153,50 -100,50c-55.22847,0 -100,-22.38576 -100,-50c0,-27.61424 44.77153,-50 100,-50c55.22847,0 100,22.38576 100,50z" data-paper-data="{&quot;origPos&quot;:null}" fill="#ffffff" stroke="#b2b2b2" stroke-width="2.5"/><path d="M302.05902,203.10515c0,15.48051 -27.75835,28.02994 -62,28.02994c-34.24165,0 -62,-12.54943 -62,-28.02994c0,-15.48051 27.75835,-28.02994 62,-28.02994c34.24165,0 62,12.54943 62,28.02994z" data-paper-data="{&quot;origPos&quot;:null}" fill="url(#color-1)" stroke="none" stroke-width="0"/><path d="M324.05902,203.68749c0,20.84875 -37.38423,37.75 -83.5,37.75c-46.11577,0 -83.5,-16.90125 -83.5,-37.75c0,-20.84875 37.38423,-37.75 83.5,-37.75c46.11577,0 83.5,16.90125 83.5,37.75z" data-paper-data="{&quot;origPos&quot;:null}" fill="none" stroke="#d0b169" stroke-width="10"/></g><path d="M280.58861,213.41884c-4.9339,19.03106 -34.88186,20.08704 -57.20033,8.19225c-24.79944,-13.21705 -39.32425,-18.34112 -33.41793,-36.59249c5.85268,-18.08563 22.88186,-20.08704 49.70033,-11.69225c26.81847,8.3948 46.73992,17.63589 40.91793,40.09249z" data-paper-data="{&quot;origPos&quot;:null,&quot;origRot&quot;:0}" fill="#ffffff" stroke="#c2c2c2" stroke-width="1.5"/><path d="M178.27949,177.46872c-2.55767,-7.75794 10.88346,-19.01895 26.75,-24.25c9.5,-3.13206 49.56104,5.1703 75.29109,31.97891c5.01728,5.2276 19.88217,18.70182 19.62153,24.12969c-0.19847,4.13308 -27.8102,9.87948 -37.03395,8.09935c-16.65083,-3.2135 -81.73126,-31.16956 -84.62866,-39.95796z" data-paper-data="{&quot;origPos&quot;:null}" fill="#e64c5e" stroke="none" stroke-width="0"/><path d="M297.52949,206.71872c2.5,3.00406 -0.25022,10.75 -31,11.75c-42.22746,1.37326 -87.61441,-38.76454 -88,-42.75c-1.5,-15.50406 42.76903,32.48936 85,33.75c16.74978,0.5 31.43871,-5.82771 34,-2.75z" data-paper-data="{&quot;origPos&quot;:null}" fill="#c80c2f" stroke="none" stroke-width="0"/><g data-paper-data="{&quot;origPos&quot;:null}" fill="#eb6c7c" stroke="none" stroke-width="0"><path d="M208.52949,170.71872c0,9.25077 3.86351,18.43522 -1.75,15.75c-4.52415,-2.16413 -5.75,-6.49923 -5.75,-15.75c0,-9.25077 3.28899,-18.09873 10.25,-17.75c4.94289,0.24763 -2.75,8.49923 -2.75,17.75z" data-paper-data="{&quot;origPos&quot;:null}"/><path d="M230.52949,177.71872c0,9.25077 3.86351,23.43522 -1.75,20.75c-4.52415,-2.16413 -6.25,-11.49923 -6.25,-20.75c0,-9.25077 4.28899,-20.09873 11.25,-19.75c4.94288,0.24762 -3.25,10.49923 -3.25,19.75z" data-paper-data="{&quot;origPos&quot;:null}"/><path d="M254.02949,185.21872c0,9.25077 3.36351,24.43522 -2.25,21.75c-4.52415,-2.16413 -6.25,-11.99923 -6.25,-21.25c0,-9.25077 3.26546,-22.30501 9.75,-19.75c5.96101,2.34873 -1.25,9.99923 -1.25,19.25z" data-paper-data="{&quot;origPos&quot;:null}"/><path d="M275.52949,191.71872c-1.40632,9.14325 3.86351,18.43522 -1.75,15.75c-4.52415,-2.16413 -5.75,-6.49923 -5.75,-15.75c0,-9.25077 1.27502,-17.63127 6.25,-12.75c5.96101,5.84873 1.75,9.49923 1.25,12.75z" data-paper-data="{&quot;origPos&quot;:null}"/></g><path d="M277.52949,203.96872c0,3.03757 -13.63906,3.5 -39,-7c-30.3616,-12.57039 -45.17043,-25.96298 -43.5,-28.5c2,-3.03757 13.79483,11.29384 44.5,23c18.36094,7 38,9.46243 38,12.5z" data-paper-data="{&quot;origPos&quot;:null}" fill="#ee7d8b" stroke="none" stroke-width="0"/></g></g></svg>